<svg id="Layer_1" data-name="Layer 1" xmlns="http://www.w3.org/2000/svg" viewBox="0 0 183.15 213.54"><defs><style>.cls-1{fill:#f2f2f2;}.cls-2{fill:#e2e2e2;}</style></defs><title>banner-bg3</title><path class="cls-1" d="M588,1239.93l-103.61,17.24,40.76-39.37,79.41-13.21Z" transform="translate(-470.7 -1110.89)"/><path class="cls-1" d="M622.55,1166.28l-18,38.31L588,1239.93l-24.8,52.91,30-2Z" transform="translate(-470.7 -1110.89)"/><path class="cls-2" d="M555.18,1321.51l70.93-151.34,25-12.15a4.84,4.84,0,0,0,2.67-5.19l-3.52-20.89a4.86,4.86,0,0,0-2-3.15l-23.85-17a4.89,4.89,0,0,0-3.62-.84l-20.9,3.43a4.89,4.89,0,0,0-4,4.21l-3.41,27.55L472.19,1262.2a4.87,4.87,0,0,0-1.23,5.08l18.32,53.83a4.9,4.9,0,0,0,4.63,3.31l56.86-.1a4.86,4.86,0,0,0,4.41-2.81Zm42.54-167,18.68,13.35-1.18,2.53-41,6.83Zm22.65-33.68,20.56,14.71,2.58,15.29-20.32,9.92-20.91-15,2.78-22.42Zm-58.53,68.34,48.35-8L571,1264.75,485.25,1279l-4.06-11.91Zm-64.45,125.48-9-26.3,77.55-12.91-18.33,39.13Z" transform="translate(-470.7 -1110.89)"/></svg>