<svg id="Layer_1" data-name="Layer 1" xmlns="http://www.w3.org/2000/svg" viewBox="0 0 577.58 408.85"><defs><style>.cls-1{fill:#e0e0e0;}.cls-2{fill:#f5f5f5;}.cls-3{fill:#263238;}.cls-4{fill:#fff;}.cls-5{fill:#65256d;}.cls-13,.cls-6{opacity:0.3;}.cls-7{fill:#e8505b;}.cls-8{fill:#fdc34a;}.cls-9{fill:#fafafa;}.cls-10{fill:#ffbe9d;}.cls-11{fill:#eb996e;}.cls-12{fill:#455a64;}.cls-13,.cls-15{isolation:isolate;}.cls-14{opacity:0.2;}.cls-15,.cls-16{opacity:0.4;}</style></defs><title>banner-img</title><g id="Background_Complete" data-name="Background Complete"><path class="cls-1" d="M577.36,372.26V356c0-10.43,0-25.48-.08-43.94l.16.16-104.13.05h0l.22-.21v60.25l-.2-.2,74.9.09,21.51.06h0l-21.47.06-75,.09h-.19V311.81H577.58V312c0,18.51-.06,33.58-.08,44V371.1A4.28,4.28,0,0,1,577.36,372.26Z" transform="translate(0 0)"/><path class="cls-1" d="M577.4,319.3c0,.12-23.29.21-52,.21s-52-.09-52-.21,23.28-.21,52-.21S577.4,319.18,577.4,319.3Z" transform="translate(0 0)"/><rect class="cls-2" x="482.25" y="329.24" width="32.17" height="32.17"/><path class="cls-1" d="M569.81,334.54a1.85,1.85,0,0,1-.47,0H568l-5,.06-16.46.07-16.46-.07-5-.06H523.7a1.85,1.85,0,0,1-.47,0,1.85,1.85,0,0,1,.47,0h1.36l5-.07,16.46-.06,16.46.06,5,.07h1.36A1.85,1.85,0,0,1,569.81,334.54Z" transform="translate(0 0)"/><path class="cls-1" d="M570.84,341.73a1.93,1.93,0,0,1-.48,0H569l-5.1.07-16.82.06-16.83-.06-5.1-.07h-1.39a1.93,1.93,0,0,1-.48,0,1.57,1.57,0,0,1,.48-.05h1.39l5.1-.06,16.83-.07,16.82.07,5.1.06h1.39A1.57,1.57,0,0,1,570.84,341.73Z" transform="translate(0 0)"/><path class="cls-1" d="M570.84,348.91a1.93,1.93,0,0,1-.48,0H569l-5.1.06-16.82.07L530.22,349l-5.1-.06h-1.39a1.93,1.93,0,0,1-.48,0,1.93,1.93,0,0,1,.48,0h1.39l5.1-.07,16.83-.06,16.85,0,5.1.07h1.39A1.71,1.71,0,0,1,570.84,348.91Z" transform="translate(0 0)"/><path class="cls-1" d="M570.84,356.1a1.93,1.93,0,0,1-.48,0H569l-5.1.07-16.82.06-16.83-.06-5.1-.07h-1.39a1.93,1.93,0,0,1-.48,0,1.57,1.57,0,0,1,.48-.05h1.39l5.1-.06,16.83-.07,16.82.07,5.1.06h1.39A1.57,1.57,0,0,1,570.84,356.1Z" transform="translate(0 0)"/><circle class="cls-2" cx="136.25" cy="43.28" r="43.28"/><path class="cls-1" d="M155.9,44.61a8.74,8.74,0,0,1-1.53.1l-4.21.08c-3.57,0-8.54.09-14.15.09h-.28V41.81c0-6.27,0-11.94.08-16,0-2,.07-3.62.09-4.87a9.62,9.62,0,0,1,.11-1.78,11.74,11.74,0,0,1,.11,1.78c0,1.25,0,2.89.09,4.87,0,4.11.08,9.78.08,16v2.81l-.27-.28c5.61,0,10.58,0,14.15.09l4.21.09A7.72,7.72,0,0,1,155.9,44.61Z" transform="translate(0 0)"/><path class="cls-1" d="M136.13,7.11a12.3,12.3,0,0,1,.28,3.63,12.37,12.37,0,0,1-.28,3.64,12.37,12.37,0,0,1-.28-3.64A12.3,12.3,0,0,1,136.13,7.11Z" transform="translate(0 0)"/><path class="cls-1" d="M155.9,12.94a11.57,11.57,0,0,1-2.34,2.74A11.51,11.51,0,0,1,150.83,18a11.75,11.75,0,0,1,2.34-2.73A12.22,12.22,0,0,1,155.9,12.94Z" transform="translate(0 0)"/><path class="cls-1" d="M167.38,25.54a14.66,14.66,0,0,1-3,2,15,15,0,0,1-3.14,1.73,9.59,9.59,0,0,1,2.85-2.21A9.32,9.32,0,0,1,167.38,25.54Z" transform="translate(0 0)"/><path class="cls-1" d="M174.14,44.23a22,22,0,0,1-5,.28,22,22,0,0,1-5-.28,22.63,22.63,0,0,1,5-.28A22.63,22.63,0,0,1,174.14,44.23Z" transform="translate(0 0)"/><path class="cls-1" d="M105.39,43.57a19.81,19.81,0,0,1-4.68.28A19.81,19.81,0,0,1,96,43.57a19.81,19.81,0,0,1,4.68-.28A19.81,19.81,0,0,1,105.39,43.57Z" transform="translate(0 0)"/><path class="cls-1" d="M110.26,57.49a21.14,21.14,0,0,1-3.54,3.21,20.83,20.83,0,0,1-3.89,2.77,20.76,20.76,0,0,1,3.54-3.21A19.65,19.65,0,0,1,110.26,57.49Z" transform="translate(0 0)"/><path class="cls-1" d="M122.25,68.25a32,32,0,0,1-2.41,4.17,33.25,33.25,0,0,1-2.55,4.09,15.44,15.44,0,0,1,2.07-4.38A15.7,15.7,0,0,1,122.25,68.25Z" transform="translate(0 0)"/><path class="cls-1" d="M136.13,82.13a22.63,22.63,0,0,1-.28-5,22.63,22.63,0,0,1,.28-5,22.63,22.63,0,0,1,.28,5A22.63,22.63,0,0,1,136.13,82.13Z" transform="translate(0 0)"/><path class="cls-1" d="M157.5,75.52a14.37,14.37,0,0,1-4.09-2.8,14.71,14.71,0,0,1-3.33-3.66,43.76,43.76,0,0,1,3.7,3.24A45.66,45.66,0,0,1,157.5,75.52Z" transform="translate(0 0)"/><path class="cls-1" d="M167.53,64.72a17.35,17.35,0,0,1-3.29-2.88,17.35,17.35,0,0,1-2.88-3.29,17.34,17.34,0,0,1,3.28,2.89A17.34,17.34,0,0,1,167.53,64.72Z" transform="translate(0 0)"/><path class="cls-1" d="M109.8,30.24a13.32,13.32,0,0,1-2.9-2.5,13.32,13.32,0,0,1-2.5-2.9,13.32,13.32,0,0,1,2.9,2.5A13.32,13.32,0,0,1,109.8,30.24Z" transform="translate(0 0)"/><path class="cls-1" d="M122.18,17.2a12.8,12.8,0,0,1-2.85-2.39,12.43,12.43,0,0,1-2.43-2.88,12.74,12.74,0,0,1,2.84,2.44A12.69,12.69,0,0,1,122.18,17.2Z" transform="translate(0 0)"/><path class="cls-2" d="M36.6,121.39h74s-6.54-11.9-25.58-10.17c-18.18,1.66-19.11-5.85-28.36-6.78S39.68,110.61,36.6,121.39Z" transform="translate(0 0)"/><path class="cls-2" d="M306.28,255.88h59.87s-5.29-9.63-20.71-8.23c-14.71,1.34-15.46-4.74-23-5.49S308.77,247.15,306.28,255.88Z" transform="translate(0 0)"/></g><g id="Floor"><path class="cls-3" d="M543.05,403.63c0,.14-121.58.26-271.52.26S0,403.81,0,403.63s121.55-.26,271.53-.26S543.05,403.49,543.05,403.63Z" transform="translate(0 0)"/></g><g id="Screens"><rect class="cls-4" x="422.81" y="103.94" width="145.28" height="97.28"/><path class="cls-5" d="M568.09,201.21v-6.9c0-4.5,0-11.11-.06-19.56,0-16.91-.06-41.2-.11-70.81l.21.2-145.27.06h0l.26-.26v97.27l-.24-.24,104.67.12,29.9.06h.1l-29.85.06-104.82.12h-.24V103.55h.27l145.27.06h.21v.21c0,29.67-.08,54-.11,70.93v24.62A7.51,7.51,0,0,1,568.09,201.21Z" transform="translate(0 0)"/><path class="cls-5" d="M422.81,112.62c0-.15,32.5-.26,72.58-.26s72.58.11,72.58.26-32.49.26-72.58.26S422.81,112.81,422.81,112.62Z" transform="translate(0 0)"/><g class="cls-6"><path class="cls-5" d="M428.54,108.24a1.17,1.17,0,1,1-1.17-1.17h0a1.16,1.16,0,0,1,1.16,1.16Z" transform="translate(0 0)"/></g><g class="cls-6"><path class="cls-5" d="M432.53,108.24a1.17,1.17,0,1,1-1.17-1.17h0a1.16,1.16,0,0,1,1.16,1.16Z" transform="translate(0 0)"/></g><g class="cls-6"><path class="cls-5" d="M436.46,108.24a1.17,1.17,0,1,1-1.17-1.17h0a1.16,1.16,0,0,1,1.16,1.16Z" transform="translate(0 0)"/></g><g class="cls-6"><rect class="cls-5" x="435.3" y="122.76" width="38.75" height="38.75"/></g><path class="cls-5" d="M548.17,133.71c0,.15-15.12.26-33.76.26s-33.76-.11-33.76-.26,15.12-.26,33.76-.26S548.17,133.57,548.17,133.71Z" transform="translate(0 0)"/><path class="cls-5" d="M548.17,140.92c0,.14-15.12.26-33.76.26s-33.76-.12-33.76-.26,15.12-.26,33.76-.26S548.17,140.81,548.17,140.92Z" transform="translate(0 0)"/><path class="cls-5" d="M548.17,148.12c0,.14-15.12.26-33.76.26s-33.76-.12-33.76-.26,15.12-.26,33.76-.26S548.17,148,548.17,148.12Z" transform="translate(0 0)"/><path class="cls-5" d="M520.56,155.32a9.14,9.14,0,0,1-1.57.1l-4.28.08c-3.61.05-8.6.08-14.1.08s-10.5,0-14.11-.08l-4.28-.08a9.14,9.14,0,0,1-1.57-.1,9.14,9.14,0,0,1,1.57-.1l4.28-.08c3.61,0,8.6-.08,14.11-.08s10.49,0,14.1.08l4.28.08A9.14,9.14,0,0,1,520.56,155.32Z" transform="translate(0 0)"/><g class="cls-6"><rect class="cls-7" x="407.31" y="174.58" width="18.21" height="18.21"/></g><g class="cls-6"><rect class="cls-5" x="470.76" y="174.58" width="18.21" height="18.21"/></g><g class="cls-6"><rect class="cls-5" x="503.79" y="174.58" width="18.21" height="18.21"/></g><g class="cls-6"><rect class="cls-5" x="536.81" y="174.58" width="18.21" height="18.21"/></g></g><g id="Rocket"><path class="cls-2" d="M351.21,72.92c-2.17-1.45-5.15-.57-7.32.88s-4,3.43-6.45,4.37c-4.56,1.77-10.55-.33-14.09,3-2.26,2.14-2.49,5.66-4.21,8.25-2.89,4.36-9.85,6-10.44,11.2-.35,3,2.05,5.94,5,6.79a10.69,10.69,0,0,0,8.7-1.74c3-2,5.31-5,8.69-6.14s7.73-.19,10.46-2.6,2.32-6.86,4.28-9.94A20,20,0,0,1,350,82.93c1.47-1.27,2.87-2.84,3.12-4.77s-.54-5.22-1.87-5.29" transform="translate(0 0)"/><path class="cls-3" d="M294.9,285.37c.13-.07.53.33.91.9s.59,1.11.47,1.19-.52-.32-.91-.9S294.74,285.45,294.9,285.37Z" transform="translate(0 0)"/><path class="cls-3" d="M290.58,276.35a6.45,6.45,0,0,1,1.19,2.22,6.22,6.22,0,0,1,.71,2.41A12.38,12.38,0,0,1,290.58,276.35Z" transform="translate(0 0)"/><path class="cls-3" d="M288.26,266.63a12.18,12.18,0,0,1,.91,4.92,6.22,6.22,0,0,1-.71-2.41A6.44,6.44,0,0,1,288.26,266.63Z" transform="translate(0 0)"/><path class="cls-3" d="M287.9,256.64a12.38,12.38,0,0,1-.07,5,6,6,0,0,1-.23-2.5A5.88,5.88,0,0,1,287.9,256.64Z" transform="translate(0 0)"/><path class="cls-3" d="M289.52,246.81a6.24,6.24,0,0,1-.27,2.5,6.35,6.35,0,0,1-.78,2.39A12.1,12.1,0,0,1,289.52,246.81Z" transform="translate(0 0)"/><path class="cls-3" d="M293.12,237.46a12.14,12.14,0,0,1-2.05,4.56,6.36,6.36,0,0,1,.79-2.39C292.43,238.36,293,237.39,293.12,237.46Z" transform="translate(0 0)"/><path class="cls-3" d="M298.63,229.12a6.36,6.36,0,0,1-1.28,2.17,7.3,7.3,0,0,1-1.69,1.86c-.14-.09.44-1.06,1.27-2.17S298.52,229,298.63,229.12Z" transform="translate(0 0)"/><path class="cls-3" d="M305.35,221.72c.11.1-.58,1-1.53,2s-1.81,1.72-1.92,1.63.58-1,1.54-2S305.25,221.61,305.35,221.72Z" transform="translate(0 0)"/><path class="cls-3" d="M312.39,214.6c.11.1-.6,1-1.57,2s-1.84,1.7-1.94,1.6.6-1,1.57-2S312.29,214.5,312.39,214.6Z" transform="translate(0 0)"/><path class="cls-3" d="M319,207.06a6.31,6.31,0,0,1-1.39,2.1c-.88,1.08-1.68,1.87-1.79,1.77a6.86,6.86,0,0,1,1.39-2.1A8.13,8.13,0,0,1,319,207.06Z" transform="translate(0 0)"/><path class="cls-3" d="M324.07,198.48a5.49,5.49,0,0,1-.84,2.38,5.56,5.56,0,0,1-1.45,2.07,7,7,0,0,1,1-2.31A7.54,7.54,0,0,1,324.07,198.48Z" transform="translate(0 0)"/><path class="cls-3" d="M326.5,188.81a8.74,8.74,0,0,1-.82,4.93,7.74,7.74,0,0,1,.26-2.49A7.61,7.61,0,0,1,326.5,188.81Z" transform="translate(0 0)"/><path class="cls-3" d="M325.76,178.88a8.51,8.51,0,0,1,.74,4.94,18.32,18.32,0,0,1-.74-4.94Z" transform="translate(0 0)"/><path class="cls-3" d="M321.83,169.73c.12-.08.85.79,1.51,2a5,5,0,0,1,.85,2.38,8.49,8.49,0,0,1-1.31-2.13A8.11,8.11,0,0,1,321.83,169.73Z" transform="translate(0 0)"/><path class="cls-3" d="M314.9,162.63a5.33,5.33,0,0,1,2.16,1.31c1.07.9,1.77,1.8,1.67,1.9s-1-.62-2-1.5S314.77,162.75,314.9,162.63Z" transform="translate(0 0)"/><path class="cls-3" d="M305.77,158.57a5.3,5.3,0,0,1,2.48.46,5.07,5.07,0,0,1,2.24,1.16,8.08,8.08,0,0,1-2.41-.67A7.19,7.19,0,0,1,305.77,158.57Z" transform="translate(0 0)"/><path class="cls-3" d="M295.83,158.12a8.18,8.18,0,0,1,5-.26,8.35,8.35,0,0,1-2.49.26A8.06,8.06,0,0,1,295.83,158.12Z" transform="translate(0 0)"/><path class="cls-3" d="M286.6,161.81c-.08-.12.78-.87,2-1.53a4.77,4.77,0,0,1,2.39-.83,8.68,8.68,0,0,1-2.15,1.28A8.13,8.13,0,0,1,286.6,161.81Z" transform="translate(0 0)"/><path class="cls-3" d="M279.74,169a5,5,0,0,1,1.22-2.21c.86-1.11,1.74-1.84,1.84-1.74a8,8,0,0,1-1.42,2.06C280.55,168.16,279.9,169.06,279.74,169Z" transform="translate(0 0)"/><path class="cls-3" d="M276.37,178.33a4.91,4.91,0,0,1,.19-2.52,5,5,0,0,1,1-2.34,8.25,8.25,0,0,1-.47,2.46A8.42,8.42,0,0,1,276.37,178.33Z" transform="translate(0 0)"/><path class="cls-3" d="M277.56,188.18a5,5,0,0,1-1-2.34,4.81,4.81,0,0,1-.2-2.52,8.71,8.71,0,0,1,.7,2.4A8.29,8.29,0,0,1,277.56,188.18Z" transform="translate(0 0)"/><path class="cls-3" d="M282.63,196.74c-.11.1-.94-.68-1.75-1.82a5.2,5.2,0,0,1-1.17-2.24c.13-.07.79.83,1.59,1.94A7.57,7.57,0,0,1,282.63,196.74Z" transform="translate(0 0)"/><path class="cls-3" d="M290,203.49a5.57,5.57,0,0,1-2.15-1.32c-1.09-.87-1.84-1.72-1.74-1.83a7.53,7.53,0,0,1,2.06,1.43C289.23,202.63,290.07,203.37,290,203.49Z" transform="translate(0 0)"/><path class="cls-3" d="M298.66,208.46a12,12,0,0,1-4.46-2.27,6.48,6.48,0,0,1,2.35.9A6.3,6.3,0,0,1,298.66,208.46Z" transform="translate(0 0)"/><path class="cls-3" d="M308.18,211.49a5.49,5.49,0,0,1-2.51-.3,5.4,5.4,0,0,1-2.34-.95,7.44,7.44,0,0,1,2.47.45A7,7,0,0,1,308.18,211.49Z" transform="translate(0 0)"/><path class="cls-3" d="M318.13,212a9.07,9.07,0,0,1-5,.1,18.39,18.39,0,0,1,5-.1Z" transform="translate(0 0)"/><path class="cls-3" d="M327.76,209.43a8.94,8.94,0,0,1-4.7,1.69,7.38,7.38,0,0,1,2.3-1A7.19,7.19,0,0,1,327.76,209.43Z" transform="translate(0 0)"/><path class="cls-3" d="M336.1,204c.1.11-.66,1-1.77,1.8a5.45,5.45,0,0,1-2.19,1.25c-.08-.13.79-.82,1.88-1.66A7.89,7.89,0,0,1,336.1,204Z" transform="translate(0 0)"/><path class="cls-3" d="M342.61,196.4a5.39,5.39,0,0,1-1.23,2.2c-.83,1.12-1.67,1.89-1.77,1.8a8,8,0,0,1,1.36-2.11C341.79,197.18,342.49,196.32,342.61,196.4Z" transform="translate(0 0)"/><path class="cls-3" d="M346.9,187.4a5.26,5.26,0,0,1-.61,2.45c-.52,1.3-1.13,2.26-1.26,2.19a7.38,7.38,0,0,1,.77-2.38A7.65,7.65,0,0,1,346.9,187.4Z" transform="translate(0 0)"/><path class="cls-3" d="M348.9,177.61a9.54,9.54,0,0,1-.68,4.95,7.5,7.5,0,0,1,.15-2.5A7.13,7.13,0,0,1,348.9,177.61Z" transform="translate(0 0)"/><path class="cls-3" d="M348.62,167.62a6.12,6.12,0,0,1,.45,2.47,6.29,6.29,0,0,1-.06,2.52,12.39,12.39,0,0,1-.39-5Z" transform="translate(0 0)"/><path class="cls-3" d="M346.45,157.86a12,12,0,0,1,1.31,4.83,12,12,0,0,1-1.31-4.83Z" transform="translate(0 0)"/><path class="cls-3" d="M342.62,148.62c.13-.07.73.89,1.33,2.14a6.4,6.4,0,0,1,.78,2.4,14.7,14.7,0,0,1-2.11-4.54Z" transform="translate(0 0)"/><path class="cls-3" d="M337.7,139.91c.13-.08.79.83,1.49,2a6.09,6.09,0,0,1,1,2.29,10.95,10.95,0,0,1-2.49-4.29Z" transform="translate(0 0)"/><path class="cls-3" d="M332.74,131.22a11.94,11.94,0,0,1,2.42,4.38,6.48,6.48,0,0,1-1.44-2.07A6.07,6.07,0,0,1,332.74,131.22Z" transform="translate(0 0)"/><path class="cls-3" d="M328.83,122a12,12,0,0,1,1.75,4.69A12.19,12.19,0,0,1,328.83,122Z" transform="translate(0 0)"/><path class="cls-3" d="M327.13,112.19a7.19,7.19,0,0,1,.44,2.47,7.5,7.5,0,0,1,.09,2.5,5.37,5.37,0,0,1-.6-2.45A5.5,5.5,0,0,1,327.13,112.19Z" transform="translate(0 0)"/><path class="cls-3" d="M328,102.24a7.52,7.52,0,0,1-.19,2.5,6.92,6.92,0,0,1-.54,2.45,5.69,5.69,0,0,1,0-2.53A5.46,5.46,0,0,1,328,102.24Z" transform="translate(0 0)"/><path class="cls-3" d="M331.22,92.81a7.44,7.44,0,0,1-.8,2.38,7.62,7.62,0,0,1-1.13,2.24,9.35,9.35,0,0,1,1.93-4.62Z" transform="translate(0 0)"/><path class="cls-3" d="M336.79,84.52c.11.1-.55,1-1.39,2.09s-1.55,2-1.67,1.87A5.35,5.35,0,0,1,335,86.29C335.84,85.19,336.69,84.43,336.79,84.52Z" transform="translate(0 0)"/><path class="cls-3" d="M344.3,77.94c.08.12-.79.83-1.87,1.67A7.33,7.33,0,0,1,340.34,81c-.1-.11.66-1,1.77-1.8A5.35,5.35,0,0,1,344.3,77.94Z" transform="translate(0 0)"/><path class="cls-3" d="M353.2,73.42A7.5,7.5,0,0,1,351,74.57a7.3,7.3,0,0,1-2.36.83c-.07-.13.88-.75,2.16-1.3A5.31,5.31,0,0,1,353.2,73.42Z" transform="translate(0 0)"/><path class="cls-3" d="M360.45,71.58c0,.14-.51.36-1.18.48s-1.25.12-1.28,0,.5-.36,1.18-.49S360.43,71.44,360.45,71.58Z" transform="translate(0 0)"/><path class="cls-8" d="M380.9,42.14s11.74-8.38,28-3c0,0,1.33,13.46-11.7,24.16" transform="translate(0 0)"/><path class="cls-8" d="M343.83,67c.5.75,13.25,21.24,13.25,21.24l38.27-23.58a13.41,13.41,0,0,0,4.38-18.44c-.2-.32-.41-.64-.64-.94h0a13.38,13.38,0,0,0-18.19-3.14Z" transform="translate(0 0)"/><path class="cls-3" d="M357.08,88.24l-.86,14.42s24.8-12,18.61-25.36Z" transform="translate(0 0)"/><path class="cls-3" d="M361.56,55.1s-16.82-7.42-30.66,3.46L343.84,67Z" transform="translate(0 0)"/><path class="cls-3" d="M361.44,67,337.5,82s.83,2.58,1.47,2.36,18.53-10.8,24.36-14.25a1.81,1.81,0,0,0,.63-2.47,1.77,1.77,0,0,0-.16-.22h0A1.8,1.8,0,0,0,361.44,67Z" transform="translate(0 0)"/><circle class="cls-9" cx="383.5" cy="55.67" r="7.66" transform="translate(241.48 416.23) rotate(-76.76)"/><path class="cls-3" d="M391.15,55.66a14,14,0,0,0-.34-1.84,7.67,7.67,0,0,0-2.8-4.1,7.36,7.36,0,0,0-7-1A7.42,7.42,0,0,0,377.56,60a7.4,7.4,0,0,0,3.44,2.6,7.51,7.51,0,0,0,3.9.34,7.35,7.35,0,0,0,3.15-1.37,7.67,7.67,0,0,0,2.8-4.1c.31-1.16.28-1.85.34-1.85a1.4,1.4,0,0,1,0,.5,7.34,7.34,0,0,1-.17,1.4,7.81,7.81,0,0,1-13.9,2.78,7.88,7.88,0,0,1,3.68-12.1,8,8,0,0,1,4.15-.32,7.73,7.73,0,0,1,3.29,1.51A7.58,7.58,0,0,1,391,53.81a7.34,7.34,0,0,1,.17,1.4A1.71,1.71,0,0,1,391.15,55.66Z" transform="translate(0 0)"/><path class="cls-3" d="M400.48,60.81c-.1,0-.21-1.49-.8-3.82a31.25,31.25,0,0,0-1.33-4,28.79,28.79,0,0,0-8.66-11.47c-1.88-1.49-3.19-2.21-3.14-2.3a4.5,4.5,0,0,1,1,.45,11.53,11.53,0,0,1,1.07.63c.4.27.87.55,1.35.93a25.31,25.31,0,0,1,3.21,2.82,26.63,26.63,0,0,1,5.61,8.76A28,28,0,0,1,400,56.9c.15.59.21,1.14.29,1.62a10.26,10.26,0,0,1,.13,1.23A3.77,3.77,0,0,1,400.48,60.81Z" transform="translate(0 0)"/><path class="cls-3" d="M398.42,61.87c-.1,0-.22-1.51-.82-3.88a32.2,32.2,0,0,0-1.35-4.06,33.56,33.56,0,0,0-2.43-4.64,32,32,0,0,0-3.2-4.14,29.9,29.9,0,0,0-3.13-2.93c-1.91-1.53-3.24-2.27-3.19-2.36a4.15,4.15,0,0,1,1,.47,9,9,0,0,1,1.07.65,10.87,10.87,0,0,1,1.37,1A27.16,27.16,0,0,1,391,44.81a27.8,27.8,0,0,1,5.72,8.93A26.28,26.28,0,0,1,398,57.9c.15.6.21,1.16.29,1.64a10.39,10.39,0,0,1,.14,1.25A4.88,4.88,0,0,1,398.42,61.87Z" transform="translate(0 0)"/></g><g id="Plant"><path class="cls-8" d="M54.74,379.81c-.86-3.4,1.39-6.8,3.9-9.25s5.5-4.64,6.82-7.89c2.13-5.26-.66-12.11,3-16.49,2.12-2.58,5.92-3.42,7.8-6.18A13.94,13.94,0,0,0,78,335.07a50.15,50.15,0,0,1,12.62-23.3,43.42,43.42,0,0,1-5,22.49c-1.47,2.76-3.27,5.45-3.76,8.54-.82,5,2,10.19.7,15.11-1.45,5.62-7.79,9.36-8.13,15.15-.28,4.91,4,9.23,3.62,14.13a13.11,13.11,0,0,1-2.21,5.8c-3.92,6.25-9.49,10.56-17.92,10.37l-10.34.3Z" transform="translate(0 0)"/><g class="cls-6"><path d="M54.74,379.81c-.86-3.4,1.39-6.8,3.9-9.25s5.5-4.64,6.82-7.89c2.13-5.26-.66-12.11,3-16.49,2.12-2.58,5.92-3.42,7.8-6.18A13.94,13.94,0,0,0,78,335.07a50.15,50.15,0,0,1,12.62-23.3,43.42,43.42,0,0,1-5,22.49c-1.47,2.76-3.27,5.45-3.76,8.54-.82,5,2,10.19.7,15.11-1.45,5.62-7.79,9.36-8.13,15.15-.28,4.91,4,9.23,3.62,14.13a13.11,13.11,0,0,1-2.21,5.8c-3.92,6.25-9.49,10.56-17.92,10.37l-10.34.3Z" transform="translate(0 0)"/></g><path class="cls-3" d="M45.46,403.92a8,8,0,0,1-2.85-.08,17,17,0,0,1-3.35-.86,14.25,14.25,0,0,1-4.14-2.3,5.68,5.68,0,0,1-1.69-2.28,10.76,10.76,0,0,1-.47-3.09c0-1.12-.09-2.24-.22-3.35a9.28,9.28,0,0,0-1.25-3.33c-1.2-2.15-3.22-4.18-3.85-7.1s-.17-6,.33-9,1-6.48-.19-9.72-3.34-6.17-4.45-9.82-.56-7.64-.78-11.55a15.22,15.22,0,0,0-1.31-5.75c-.83-1.83-2-3.56-2.87-5.49-1.81-3.91-2.11-8.32-2.59-12.65-.23-2.18-.47-4.39-.7-6.61A32.27,32.27,0,0,0,14,304.27a57,57,0,0,0-2.43-6.41,20.81,20.81,0,0,1-1.18-3.35A32.69,32.69,0,0,1,10,291a41.67,41.67,0,0,1,.32-7.15c.29-2.38.74-4.75,1-7.14v-.41l.05-.47.42.21a15.8,15.8,0,0,1,5.54,4.73A25.67,25.67,0,0,1,20.75,287c1.7,4.45,2.29,9.11,3.14,13.55s1.92,8.83,4.17,12.53c1.13,1.85,2.49,3.54,3.68,5.34a14.71,14.71,0,0,1,2.53,5.9c.58,4.38-1.85,8.21-1.37,12.08a13.39,13.39,0,0,0,1.92,5.37c.93,1.66,2,3.19,3.06,4.74a29.78,29.78,0,0,1,2.75,4.78,15,15,0,0,1,1.27,5.2c.23,3.49-.28,6.79,0,9.92A22.86,22.86,0,0,0,44.4,375c1.23,2.55,2.61,4.86,3.76,7.09.57,1.08,1.09,2.18,1.55,3.31a16,16,0,0,1,.89,3.27,20.83,20.83,0,0,1,0,5.9,14.86,14.86,0,0,1-3,7.51,6.49,6.49,0,0,1-.84.9,3.37,3.37,0,0,1-.68.57l-.59.41a12.61,12.61,0,0,0,2-2,15,15,0,0,0,2.85-7.45,20.64,20.64,0,0,0-.1-5.82,16,16,0,0,0-.9-3.2c-.43-1.07-1-2.15-1.55-3.26-1.17-2.21-2.56-4.51-3.82-7.08a23.3,23.3,0,0,1-2.59-8.66c-.26-3.19.24-6.5,0-9.91a14.62,14.62,0,0,0-1.22-5,29.65,29.65,0,0,0-2.72-4.69c-1-1.54-2.14-3.08-3.1-4.77a14.18,14.18,0,0,1-1.94-5.6c-.47-4.13,1.94-8,1.34-12.05a13.9,13.9,0,0,0-2.46-5.62c-1.17-1.77-2.54-3.46-3.7-5.35-2.32-3.81-3.44-8.27-4.27-12.74s-1.45-9.08-3.12-13.44a24.32,24.32,0,0,0-3.3-6.15,15.23,15.23,0,0,0-5.3-4.53l.48-.27-.05.42c-.28,2.42-.72,4.79-1,7.14a40.57,40.57,0,0,0-.32,7.05c.06,1.15.13,2.36.3,3.45a23.38,23.38,0,0,0,1.14,3.23,57.54,57.54,0,0,1,2.46,6.48,33.11,33.11,0,0,1,1.11,6.71c.24,2.22.47,4.43.7,6.61.47,4.35.77,8.69,2.51,12.46.87,1.88,2,3.61,2.86,5.51a15.91,15.91,0,0,1,1.36,6c.2,4-.34,7.89.72,11.43s3.29,6.46,4.41,9.81.67,6.86.16,9.95-1,6.14-.38,8.89,2.53,4.8,3.76,7a9.33,9.33,0,0,1,1.27,3.46,29.65,29.65,0,0,1,.2,3.39,10.12,10.12,0,0,0,.42,3,5.58,5.58,0,0,0,1.59,2.19,14.12,14.12,0,0,0,4,2.3,18,18,0,0,0,3.3.92,13.48,13.48,0,0,0,2.1.22A7.46,7.46,0,0,1,45.46,403.92Z" transform="translate(0 0)"/><path class="cls-3" d="M13.49,282a1.12,1.12,0,0,1,.1.31c.05.25.13.55.22.93.2.82.43,2.05.81,3.59s1.33,3.27,2.12,5.41,1.65,4.58,2.41,7.34,1.46,5.83,2.17,9.11a38.26,38.26,0,0,0,3.25,10.16c.84,1.68,1.78,3.39,2.53,5.25A24.82,24.82,0,0,1,28.56,330a120.37,120.37,0,0,0,2.15,12.52c2,8.48,4,16.56,5.71,23.92s3.42,13.94,4.79,19.51,2.41,10,3.17,13.16l.83,3.59c.08.38.15.69.2.94a1.71,1.71,0,0,1,0,.32,1.15,1.15,0,0,1-.11-.31l-.27-.92c-.23-.86-.55-2.05-1-3.56l-3.38-13.11c-1.4-5.56-3.07-12.16-4.92-19.47S32,351.15,30,342.66a119.16,119.16,0,0,1-2.06-12.61,23.62,23.62,0,0,0-1.4-5.8c-.72-1.81-1.65-3.51-2.49-5.21a38.69,38.69,0,0,1-3.23-10.23c-.69-3.29-1.34-6.35-2.08-9.1s-1.52-5.22-2.31-7.34a50.73,50.73,0,0,1-2-5.48c-.36-1.59-.54-2.79-.69-3.62-.07-.38-.12-.7-.16-.95A1.49,1.49,0,0,1,13.49,282Z" transform="translate(0 0)"/><path class="cls-8" d="M43.63,403.94c-6.73-4.05-8.6-16.24-5.74-23.56s7.83-14,8.63-21.8c.62-6-1.31-12.18.12-18,1.94-7.92,9.71-14,9.67-22.16,0-4.57-2.6-8.89-2.37-13.46.29-5.6,4.61-10,7.3-14.94,4.12-7.53,4.44-16.46,5.88-24.92s4.72-17.52,12.25-21.64c1.07,7.2,2.94,12.14,2.29,21.88-.24,3.49-4.34,10.17-4.94,17.83-.35,4.58-.61,9.17-.91,13.76s-.62,9-2.24,13.17c-1.24,3.19-3.23,6.08-4.16,9.38-1.75,6.21.47,12.95-1,19.24-1.2,5.33-4.92,9.9-5.71,15.3-1.1,7.6,3.77,15.52,1.21,22.76-1.27,3.59-4.24,6.46-5.1,10.17-.67,2.88,0,5.93-.58,8.82-1,4.66-9.9,8.23-14.65,7.92" transform="translate(0 0)"/><path class="cls-3" d="M77.47,250.54a2.81,2.81,0,0,1,0,.41,10.62,10.62,0,0,1-.16,1.18c-.16,1-.34,2.56-.7,4.53s-1.43,4.21-2.26,6.89-1.75,5.77-2.53,9.24-1.45,7.29-2.15,11.41-1.47,8.61-3.54,12.9c-1,2.15-2,4.31-2.84,6.6A30.24,30.24,0,0,0,61.82,311a148.6,148.6,0,0,1-2.07,15.72c-2.13,10.64-4.15,20.78-6,30l-5.16,24.44c-1.49,6.92-2.7,12.53-3.54,16.46-.43,1.91-.76,3.41-1,4.47l-.27,1.16a2.91,2.91,0,0,1-.12.39,2.67,2.67,0,0,1,0-.4c.06-.3.13-.69.21-1.18.21-1.07.5-2.57.88-4.49.79-3.94,1.93-9.57,3.33-16.51s3.13-15.27,5-24.47l6-30a150.12,150.12,0,0,0,2.07-15.66,30.09,30.09,0,0,1,1.52-7.44c.83-2.34,1.92-4.51,2.88-6.64,2.06-4.22,2.8-8.64,3.55-12.75s1.42-8,2.25-11.42,1.72-6.56,2.63-9.24,1.94-4.91,2.35-6.84.63-3.47.83-4.49c.09-.49.17-.87.22-1.17A2.74,2.74,0,0,1,77.47,250.54Z" transform="translate(0 0)"/></g><g id="Character"><path class="cls-3" d="M442,224.88a9.77,9.77,0,0,0,7.07-9.75c-.13-2-.85-3.86-.77-5.82.13-3,2.15-5.61,3.67-8.25s2.53-6.11.76-8.59c-1.14-1.61-3.17-2.33-4.56-3.73s-2-3.27-2.74-5.06-1.67-3.64-3.35-4.59-4.25-.54-4.94,1.27" transform="translate(0 0)"/><path class="cls-3" d="M423.9,175.55c3-1.91,3.71-6.32,2.09-9.47s-5.07-5.07-8.57-5.64a16.34,16.34,0,0,0-14.07,4.66c-1.93,2-3.5,4.59-6.12,5.5-2.3.81-4.85.08-7.27.4a11,11,0,0,0-7.69,5.54,23.6,23.6,0,0,0-2.73,9.35c-.35,3-.59,6.25-2.66,8.42s-5.2,2.57-7.71,4.08A10.57,10.57,0,0,0,366,212.81c1,1.44,2.42,2.77,2.53,4.52s-.93,3-1.41,4.56a7.11,7.11,0,0,0,5.11,8.66,8.05,8.05,0,0,0,1,.18c2.08.12,4.31-.69,6.18.24s2.54,3.16,3.72,4.86a8.92,8.92,0,0,0,10.86,2.8c1.53-.75,3-2,4.68-1.87s3,1.56,4.7,1.88c2.19.42,4.26-1.19,5.56-3s2.21-3.94,3.87-5.42c2.18-1.94,5.24-2.41,8-3.36a22.55,22.55,0,0,0,14-28.67,22.05,22.05,0,0,0-1.24-2.92" transform="translate(0 0)"/><path class="cls-10" d="M430.43,179.48a4.79,4.79,0,0,1,4.27,4.87h0L431.84,249c-.12,7.64-11.28,11.93-19.46,11.74h0c-8.26-.19-8.52-4.24-8.63-11.51-.17-12.14-.15-16.7-.16-16.63s-10.43-1.75-12.56-15.37c-1.06-6.78-.7-17.88-.11-26.95.54-8.17,6-18.18,14.11-17.3Z" transform="translate(0 0)"/><path class="cls-3" d="M393.9,199.11a1.76,1.76,0,0,0,1.68,1.77,1.68,1.68,0,0,0,1.8-1.53v0a1.73,1.73,0,0,0-1.67-1.77,1.67,1.67,0,0,0-1.81,1.52Z" transform="translate(0 0)"/><path class="cls-3" d="M393.32,196.08c.22.23,1.54-.75,3.42-.74s3.25.95,3.46.72-.12-.51-.72-.95a4.73,4.73,0,0,0-2.77-.86,4.57,4.57,0,0,0-2.72.87C393.41,195.56,393.21,196,393.32,196.08Z" transform="translate(0 0)"/><path class="cls-3" d="M412.65,199.11a1.75,1.75,0,0,0,1.68,1.77,1.68,1.68,0,0,0,1.8-1.53v0a1.75,1.75,0,0,0-1.68-1.77,1.68,1.68,0,0,0-1.8,1.53Z" transform="translate(0 0)"/><path class="cls-3" d="M411.79,196.47c.21.23,1.54-.75,3.42-.74s3.25,1,3.46.72-.12-.51-.72-.95a4.73,4.73,0,0,0-2.77-.86,4.64,4.64,0,0,0-2.72.87C411.9,196,411.68,196.37,411.79,196.47Z" transform="translate(0 0)"/><path class="cls-3" d="M404.9,210.39a12.25,12.25,0,0,0-3-.58c-.48-.05-.94-.15-1-.47a2.43,2.43,0,0,1,.33-1.42c.45-1.16.93-2.38,1.42-3.65,2-5.2,3.42-9.48,3.21-9.55s-2,4.07-4,9.26c-.47,1.29-.93,2.51-1.36,3.68a2.73,2.73,0,0,0-.26,1.88,1.2,1.2,0,0,0,.79.7,3.69,3.69,0,0,0,.81.12A12.05,12.05,0,0,0,404.9,210.39Z" transform="translate(0 0)"/><path class="cls-11" d="M403.59,232.62a34.72,34.72,0,0,0,18.25-4.81s-4.63,9.6-18.25,8.29Z" transform="translate(0 0)"/><path class="cls-7" d="M405.72,214.92a3.39,3.39,0,0,1,3-1.25,3.06,3.06,0,0,1,2.18,1.14,2,2,0,0,1,.15,2.24,2.29,2.29,0,0,1-2.47.62,7.25,7.25,0,0,1-2.4-1.44,2,2,0,0,1-.53-.56.64.64,0,0,1,0-.7" transform="translate(0 0)"/><path class="cls-3" d="M410.46,211.7c-.3,0-.31,2-2.06,3.47s-3.92,1.21-3.93,1.5c0,.12.48.39,1.4.42a5,5,0,0,0,3.28-1.14,4.42,4.42,0,0,0,1.6-2.9C410.83,212.2,410.6,211.69,410.46,211.7Z" transform="translate(0 0)"/><path class="cls-3" d="M411,193.18c.18.51,2.06.27,4.26.54s4,.88,4.28.42c.13-.22-.17-.7-.89-1.2a7.55,7.55,0,0,0-6.51-.73C411.28,192.53,410.9,192.94,411,193.18Z" transform="translate(0 0)"/><path class="cls-3" d="M394,190.64c.33.43,1.63,0,3.18,0s2.88.29,3.18-.15c.14-.22-.07-.65-.65-1.05a4.57,4.57,0,0,0-5.12.15C394.06,190,393.9,190.43,394,190.64Z" transform="translate(0 0)"/><path class="cls-3" d="M421.49,175.05a13.21,13.21,0,0,1,10.79-2c3.63,1,6.64,4.32,6.77,8,.08,2.4-1,5,.1,7.13s3.52,2.9,5.3,4.4a8.12,8.12,0,0,1,1.88,9.82c-1.49,2.73-4.61,4.73-4.87,7.81-.25,2.9,2.19,5.35,2.79,8.2.65,3.14-1.09,6.39-3.58,8.48s-5.65,3.24-8.73,4.34c-2.4.87-5,1.75-7.47,1.18a7.66,7.66,0,0,1-5.6-6.38,10.41,10.41,0,0,1,2.83-8.22c1.75-1.93,4.2-3.56,4.62-6.11.66-4-4.06-7.21-3.77-11.21.15-2.06,1.61-3.77,2.82-5.47s2.27-3.83,1.52-5.76c-1-2.52-4.27-3.18-6.27-5a6.11,6.11,0,0,1-1.67-6.19,6.32,6.32,0,0,1,4.95-4.26" transform="translate(0 0)"/><path class="cls-3" d="M423,172a9.31,9.31,0,0,1-9.27,9.35,8.37,8.37,0,0,1-1.73-.15c-2.08-.38-4.36-1.43-6.16-.32s-2,4-3.65,5.47c-2.4,2.09-6.22.13-9.26,1-2.36.7-3.82,2.94-5.39,4.84s-3.9,3.69-6.26,3a27.8,27.8,0,0,1,.94-6.28,9.27,9.27,0,0,1,3.56-5.11,34.6,34.6,0,0,0,3-1.76c2-1.57,2.41-4.32,3.61-6.52a10.24,10.24,0,0,1,7.78-5.16c2.68-.27,5.44.53,8.05-.13,1.93-.48,3.62-1.73,5.57-2.11,3.81-.72,7.35,2,10.11,4.73" transform="translate(0 0)"/><path class="cls-12" d="M447.82,204.53a3,3,0,0,0,.3-1.57,4,4,0,0,0-2.74-3.13,19.55,19.55,0,0,0-3-.81,8.72,8.72,0,0,1-3.39-1.4,4.72,4.72,0,0,1-1.76-3.64,38.21,38.21,0,0,1,.21-4.28,9.83,9.83,0,0,0-.11-2.1,4.67,4.67,0,0,0-.8-1.79,6.91,6.91,0,0,0-3.28-1.88,14.11,14.11,0,0,1-3.34-1.44,11.29,11.29,0,0,1-2.46-2,11.48,11.48,0,0,1-2.4-3.88,7.06,7.06,0,0,1-.35-1.19c-.06-.28-.08-.42-.06-.43s.18.57.59,1.55a12.06,12.06,0,0,0,2.49,3.7,12.25,12.25,0,0,0,5.68,3.25,7.24,7.24,0,0,1,3.52,2,4.94,4.94,0,0,1,.92,2,10.31,10.31,0,0,1,.12,2.22c-.15,1.41-.22,2.82-.23,4.23a4.34,4.34,0,0,0,1.55,3.3,8.64,8.64,0,0,0,3.2,1.35,19.51,19.51,0,0,1,3,.89,4.8,4.8,0,0,1,2.11,1.58,3.72,3.72,0,0,1,.7,1.87,2.41,2.41,0,0,1-.25,1.24C448,204.43,447.83,204.54,447.82,204.53Z" transform="translate(0 0)"/><path class="cls-12" d="M367.63,213l-.23-.11a1.55,1.55,0,0,1-.51-.51,2.76,2.76,0,0,1,.28-2.69,3.52,3.52,0,0,1,1.46-1.4,19.12,19.12,0,0,1,2.19-.92,6.77,6.77,0,0,0,2.29-1.3,4.89,4.89,0,0,0,1.3-2.58c.23-1,.3-2.14.49-3.3a7.2,7.2,0,0,1,1.35-3.44c1.58-2.08,4.18-3.19,6.12-5.15A9.45,9.45,0,0,0,384.5,188a25,25,0,0,0,1-4.36c.42-3,.85-6.34,2.86-9.08a6.57,6.57,0,0,1,4.11-2.65,14.5,14.5,0,0,1,4.74.11,16.88,16.88,0,0,0,4.43.26,5.78,5.78,0,0,0,3.62-1.87c1.86-2,2.92-4.7,5.21-6.08a8.7,8.7,0,0,1,6.88-.95,7.59,7.59,0,0,1,4.52,3.52,8.49,8.49,0,0,1,1.18,4.2,7.19,7.19,0,0,1-.44,2.72,4.1,4.1,0,0,1-.4.88s.12-.31.31-.91a8.09,8.09,0,0,0,.33-2.68,8.45,8.45,0,0,0-1.23-4.06,7.28,7.28,0,0,0-4.37-3.31,8.29,8.29,0,0,0-6.55,1,9.56,9.56,0,0,0-2.63,2.71,32.14,32.14,0,0,1-2.46,3.33,6.8,6.8,0,0,1-1.74,1.37,6.6,6.6,0,0,1-2.17.67,17.43,17.43,0,0,1-4.56-.25,14,14,0,0,0-4.57-.12,6.19,6.19,0,0,0-3.8,2.46,12.91,12.91,0,0,0-1.94,4.27,41.87,41.87,0,0,0-.83,4.58,25,25,0,0,1-1,4.44,9.87,9.87,0,0,1-2.26,3.78c-2.05,2-4.62,3.12-6.12,5.09a6.93,6.93,0,0,0-1.3,3.23c-.19,1.14-.27,2.26-.52,3.32a5.15,5.15,0,0,1-1.44,2.74,7,7,0,0,1-2.41,1.33,19.41,19.41,0,0,0-2.18.87,3.46,3.46,0,0,0-1.4,1.28,2.72,2.72,0,0,0-.36,2.54A2.19,2.19,0,0,0,367.63,213Z" transform="translate(0 0)"/><path class="cls-8" d="M334.21,306.81l24.16-2.21s14.86-39.15,33.18-48.64l11.87,20.73L378,324.42h-49.6Z" transform="translate(0 0)"/><path class="cls-13" d="M334.21,306.81l24.16-2.21s14.86-39.15,33.18-48.64l11.87,20.73L378,324.42h-49.6Z" transform="translate(0 0)"/><path class="cls-9" d="M343.76,317.81a18.57,18.57,0,0,1,2-3.92,20,20,0,0,1,2.48-3.64,18.5,18.5,0,0,1-2,3.91A19.73,19.73,0,0,1,343.76,317.81Z" transform="translate(0 0)"/><path class="cls-9" d="M360.9,317.34a18.5,18.5,0,0,1-3-3.25,18.78,18.78,0,0,1-2.55-3.58,18.22,18.22,0,0,1,2.95,3.25A19,19,0,0,1,360.9,317.34Z" transform="translate(0 0)"/><path class="cls-9" d="M363.84,308.37a19.27,19.27,0,0,1,0-6.34A19.27,19.27,0,0,1,363.84,308.37Z" transform="translate(0 0)"/><path class="cls-9" d="M355.34,322.36a6.52,6.52,0,0,1-2.31-1.19c-1.2-.79-2.1-1.52-2-1.64a7,7,0,0,1,2.31,1.2C354.51,321.51,355.42,322.24,355.34,322.36Z" transform="translate(0 0)"/><path class="cls-9" d="M369.21,286.38a21.92,21.92,0,0,1-1.67,4.36,20.42,20.42,0,0,1-2.15,4.15,41.41,41.41,0,0,1,3.82-8.51Z" transform="translate(0 0)"/><path class="cls-9" d="M379,270.52c.09.11-.77.91-1.92,1.79a7.12,7.12,0,0,1-2.25,1.37c-.08-.12.78-.92,1.93-1.79A6.8,6.8,0,0,1,379,270.52Z" transform="translate(0 0)"/><path class="cls-8" d="M415.12,321.28,427.58,271a17.1,17.1,0,0,1,19.64-12.73h0a17.13,17.13,0,0,1,13.88,19.47l-7.63,49.17a24.61,24.61,0,0,1-20.41,19.93l-9.9,1.54Z" transform="translate(0 0)"/><path class="cls-3" d="M454.37,255a11.18,11.18,0,0,0-4.47-2.18,11.83,11.83,0,0,0-5.36,0,14.49,14.49,0,0,0-5.83,3c-3.65,3.06-5.64,7-7,9.82-.67,1.41-1.18,2.57-1.54,3.37a7.82,7.82,0,0,1-.61,1.23,7.31,7.31,0,0,1,.42-1.3c.31-.83.76-2,1.39-3.46a40.16,40.16,0,0,1,2.56-4.91,21.62,21.62,0,0,1,4.43-5.15,14.63,14.63,0,0,1,6.05-3.11,11.88,11.88,0,0,1,5.56.07,9.42,9.42,0,0,1,3.37,1.63,6.23,6.23,0,0,1,.76.69C454.31,254.89,454.39,255,454.37,255Z" transform="translate(0 0)"/><path class="cls-3" d="M383.81,266.31a2.73,2.73,0,0,1-.35.47l-1.07,1.28c-.92,1.11-2.23,2.73-3.73,4.82a51.43,51.43,0,0,0-8.51,18.06c-1.73,7.67-1.82,14.85-2.11,20-.13,2.58-.25,4.67-.36,6.11-.06.68-.11,1.23-.15,1.66a3.68,3.68,0,0,1-.08.58,1.88,1.88,0,0,1,0-.58c0-.44,0-1,.05-1.67,0-1.51.11-3.58.19-6.11.2-5.14.22-12.35,2-20.1a49.47,49.47,0,0,1,8.71-18.15c1.55-2.08,2.91-3.68,3.88-4.75.48-.54.88-.94,1.14-1.21A3,3,0,0,1,383.81,266.31Z" transform="translate(0 0)"/><path class="cls-8" d="M463.63,266.2c-1.37-9-6.34-11.15-11.48-13.95-1.68-.92-9.79-3-16.22-4.57-.62-3.89-1.72-10.87-2-12.34-.34-2.07-32.76,3.1-33.17,3.88-.27.51-1,8.59-1.49,14l-7.76,2.71-10.09,12.88-5.27,7.48a40.18,40.18,0,0,0-6.53,14.38,78.31,78.31,0,0,0-1.45,17.42l-1.57,33,67.83,19.18,5.25-33.46L457.17,303C458.67,293.36,465.31,277.26,463.63,266.2Z" transform="translate(0 0)"/><path class="cls-3" d="M405.74,254.23a9.88,9.88,0,0,1-.45-2.29c-.21-1.42-.47-3.39-.72-5.57-.12-1.08-.23-2.11-.34-3.08s-.16-1.69-.18-2.54a3,3,0,0,1,.49-1.69c.26-.34.48-.43.5-.41s-.15.18-.33.52a3.18,3.18,0,0,0-.29,1.58c0,.7.18,1.54.29,2.49s.24,2,.38,3.07c.25,2.18.45,4.16.57,5.59A10.09,10.09,0,0,1,405.74,254.23Z" transform="translate(0 0)"/><path class="cls-3" d="M414.39,252.19a7.79,7.79,0,0,1-.72-2.1,33.33,33.33,0,0,1-1-10.62,8.11,8.11,0,0,1,.32-2.19c.16,0-.13,3.37.26,7.49S414.55,252.15,414.39,252.19Z" transform="translate(0 0)"/><path class="cls-3" d="M430.49,249.81a35.1,35.1,0,0,0-.19-7.46,33.49,33.49,0,0,0-2.34-7.09,6.78,6.78,0,0,1,1.19,1.89A19,19,0,0,1,431,247.64,7.34,7.34,0,0,1,430.49,249.81Z" transform="translate(0 0)"/><path class="cls-9" d="M384.43,279.27a30.56,30.56,0,0,1,6-7.93Q387.63,275.45,384.43,279.27Z" transform="translate(0 0)"/><path class="cls-9" d="M399.7,266.81a16.55,16.55,0,0,1-2.69-3.1,15.93,15.93,0,0,1-2.28-3.42,16.92,16.92,0,0,1,2.69,3.1A15.93,15.93,0,0,1,399.7,266.81Z" transform="translate(0 0)"/><path class="cls-9" d="M415.67,259a28.62,28.62,0,0,1-3.19,3.23,31.39,31.39,0,0,1-3.31,3.11,26.19,26.19,0,0,1,6.5-6.34Z" transform="translate(0 0)"/><path class="cls-9" d="M411.19,249.51a18.33,18.33,0,0,1-4.64-4.2,9.66,9.66,0,0,1,2.49,1.91A10.16,10.16,0,0,1,411.19,249.51Z" transform="translate(0 0)"/><path class="cls-9" d="M425.18,242.05a11.69,11.69,0,0,1-3.37,1,12,12,0,0,1-3.47.48,23.08,23.08,0,0,1,6.84-1.48Z" transform="translate(0 0)"/><path class="cls-9" d="M428,264.2a11.73,11.73,0,0,1-.44-3.49,12.14,12.14,0,0,1,.08-3.51,11.73,11.73,0,0,1,.44,3.49A12.14,12.14,0,0,1,428,264.2Z" transform="translate(0 0)"/><path class="cls-9" d="M422.9,274.81a35.74,35.74,0,0,1-3-8.23,18.85,18.85,0,0,1,1.75,4.05A18.49,18.49,0,0,1,422.9,274.81Z" transform="translate(0 0)"/><path class="cls-9" d="M409,282.36a41.63,41.63,0,0,1-3.36-8.66,21.88,21.88,0,0,1,1.92,4.24A21.55,21.55,0,0,1,409,282.36Z" transform="translate(0 0)"/><path class="cls-9" d="M396,290.87a17.32,17.32,0,0,1-1.13-4.19,18.28,18.28,0,0,1-.61-4.29,18.4,18.4,0,0,1,1.12,4.19A18.83,18.83,0,0,1,396,290.87Z" transform="translate(0 0)"/><path class="cls-9" d="M380.48,291.21a35.54,35.54,0,0,1-3.72-7.64A35.54,35.54,0,0,1,380.48,291.21Z" transform="translate(0 0)"/><path class="cls-9" d="M380.15,301.15a22.52,22.52,0,0,1-4.06,2.29,20.91,20.91,0,0,1-4.3,1.83A40.6,40.6,0,0,1,380.15,301.15Z" transform="translate(0 0)"/><path class="cls-9" d="M380.34,316.87a18.06,18.06,0,0,1-2-7.5,20.88,20.88,0,0,1,1.09,3.72A20.42,20.42,0,0,1,380.34,316.87Z" transform="translate(0 0)"/><path class="cls-9" d="M377.13,327.91a17.61,17.61,0,0,1-3.26-2.64,16.54,16.54,0,0,1-2.91-3,18,18,0,0,1,3.26,2.64A16.54,16.54,0,0,1,377.13,327.91Z" transform="translate(0 0)"/><path class="cls-9" d="M397.55,320.37c0,.15-2.26.81-4.94,2s-4.71,2.44-4.81,2.27a16,16,0,0,1,4.6-2.76A15.51,15.51,0,0,1,397.55,320.37Z" transform="translate(0 0)"/><path class="cls-9" d="M391.58,314.9a28,28,0,0,1-2.47-7,13,13,0,0,1,1.47,3.42A13.3,13.3,0,0,1,391.58,314.9Z" transform="translate(0 0)"/><path class="cls-9" d="M403.69,301.38a58.52,58.52,0,0,1-5.91,9.38A58.52,58.52,0,0,1,403.69,301.38Z" transform="translate(0 0)"/><path class="cls-9" d="M416.7,302.67a20.3,20.3,0,0,1-3.32-4.54,19.93,19.93,0,0,1-2.44-5.07c.13-.06,1.3,2.16,2.89,4.81A54.93,54.93,0,0,1,416.7,302.67Z" transform="translate(0 0)"/><path class="cls-9" d="M424.5,289.81a15.2,15.2,0,0,1-7.66.38,245.4,245.4,0,0,1,7.66-.38Z" transform="translate(0 0)"/><path class="cls-9" d="M443,275.2A57.72,57.72,0,0,1,433,280,60,60,0,0,1,443,275.2Z" transform="translate(0 0)"/><path class="cls-9" d="M444.24,265.9a38.6,38.6,0,0,1,4-8,19.27,19.27,0,0,1-1.75,4.13A19.93,19.93,0,0,1,444.24,265.9Z" transform="translate(0 0)"/><path class="cls-9" d="M456,273.2a33.27,33.27,0,0,1-1.52-4.55,32.25,32.25,0,0,1-1.34-4.6A27,27,0,0,1,456,273.2Z" transform="translate(0 0)"/><path class="cls-9" d="M457.84,282.88a15.57,15.57,0,0,1-4.38,1.6,15.06,15.06,0,0,1-4.62.71,193.57,193.57,0,0,1,9-2.31Z" transform="translate(0 0)"/><path class="cls-9" d="M437.69,294.7c-.15,0,.28-2.46.4-5.49s-.08-5.49.07-5.51a16.59,16.59,0,0,1,.45,5.53A16.2,16.2,0,0,1,437.69,294.7Z" transform="translate(0 0)"/><path class="cls-9" d="M433.67,306.87a24.61,24.61,0,0,1-6.5-7.84,48.62,48.62,0,0,1,3.24,3.93A46.89,46.89,0,0,1,433.67,306.87Z" transform="translate(0 0)"/><path class="cls-9" d="M453.9,304.3a20.77,20.77,0,0,1-4.17,2,21.21,21.21,0,0,1-4.37,1.54,42,42,0,0,1,8.54-3.57Z" transform="translate(0 0)"/><path class="cls-9" d="M446.64,327.2a59.45,59.45,0,0,1,.11-11A56.94,56.94,0,0,1,446.64,327.2Z" transform="translate(0 0)"/><path class="cls-9" d="M431.13,325.88a31.44,31.44,0,0,1,2.77-11.07c.14.05-.62,2.48-1.38,5.53S431.27,325.91,431.13,325.88Z" transform="translate(0 0)"/><path class="cls-9" d="M431.84,331.89c0,.15-2.48.39-5.52.9a55,55,0,0,1-5.52.92,20.36,20.36,0,0,1,5.43-1.44A19.93,19.93,0,0,1,431.84,331.89Z" transform="translate(0 0)"/><path class="cls-9" d="M414.68,328a20.14,20.14,0,0,1,3-3.45,19.51,19.51,0,0,1,3.34-3.08,21,21,0,0,1-3,3.45A19.92,19.92,0,0,1,414.68,328Z" transform="translate(0 0)"/><path class="cls-9" d="M403.57,338.81a36.16,36.16,0,0,1-1.36-3.91,33.48,33.48,0,0,1-1.39-3.9A16,16,0,0,1,403.57,338.81Z" transform="translate(0 0)"/><path class="cls-9" d="M421.51,345a55.31,55.31,0,0,1-9.83-4.36,28.91,28.91,0,0,1,5,1.94A29.86,29.86,0,0,1,421.51,345Z" transform="translate(0 0)"/><path class="cls-9" d="M390.24,343.22a27.69,27.69,0,0,1,2.37-7.15,13.6,13.6,0,0,1-.94,3.66A14.33,14.33,0,0,1,390.24,343.22Z" transform="translate(0 0)"/><path class="cls-9" d="M410.84,346.71c0,.15-2.87-.31-6.41-.49s-6.41,0-6.42-.2a31.32,31.32,0,0,1,12.83.69Z" transform="translate(0 0)"/><path class="cls-3" d="M415.12,317.22v-.4a4,4,0,0,1,.16-1.13,2.5,2.5,0,0,1,1.09-1.49,3.47,3.47,0,0,1,2.44-.4l-.2.12c1.09-3.84,2.84-9.44,4.59-15.72,1.64-5.88,2.74-11.29,3.52-15.22.38-1.89.68-3.46.92-4.65a12.18,12.18,0,0,1,.39-1.69,10.07,10.07,0,0,1-.19,1.73c-.16,1.11-.42,2.71-.76,4.68a153.89,153.89,0,0,1-3.38,15.29c-1.75,6.29-3.56,11.87-4.76,15.68l-.05.15h-.15a3.19,3.19,0,0,0-2.23.3,2.36,2.36,0,0,0-1.05,1.31A13.71,13.71,0,0,0,415.12,317.22Z" transform="translate(0 0)"/><path class="cls-3" d="M437.54,331.13c-.08,0-.7-1.32-2-3.34a34.53,34.53,0,0,0-13.6-12.36c-2.13-1.07-3.54-1.56-3.51-1.65a4.35,4.35,0,0,1,1,.27,21,21,0,0,1,2.66,1.05,31.19,31.19,0,0,1,13.81,12.5,24.22,24.22,0,0,1,1.29,2.54A3.16,3.16,0,0,1,437.54,331.13Z" transform="translate(0 0)"/><g class="cls-14"><path d="M419,313.05A34.84,34.84,0,0,1,429.57,315c3.59,1.34,6.91,3.92,8.23,7.52a2.49,2.49,0,0,1-.19,2.59,1.83,1.83,0,0,1-1.89.31,4.88,4.88,0,0,1-1.66-1.14c-2.2-2-4.49-3.84-6.77-5.8s-5.58-4-8.55-4.47" transform="translate(0 0)"/></g><path class="cls-3" d="M411.82,306.67a4.2,4.2,0,0,1-1.05.6,17.77,17.77,0,0,1-3.07,1.16,20.53,20.53,0,0,1-20.14-5.23,18.17,18.17,0,0,1-2.12-2.51,4.29,4.29,0,0,1-.62-1c.08-.06,1,1.4,3,3.28a21.19,21.19,0,0,0,19.78,5.14C410.26,307.41,411.77,306.57,411.82,306.67Z" transform="translate(0 0)"/><g class="cls-14"><path d="M385.36,300.43c1.68,3.66,3.66,7.35,6.86,9.81a11,11,0,0,0,6.31,2.64c3.34.06,6.21-2.22,8.75-4.38-8.25,1.3-17.55-2.45-21.92-8.07" transform="translate(0 0)"/></g><path class="cls-3" d="M422.33,251.43c-.15,0,0-3.44-.37-7.63s-1.23-7.52-1.08-7.56a8.06,8.06,0,0,1,.69,2.15,37.25,37.25,0,0,1,.9,5.36,39.54,39.54,0,0,1,.14,5.44A8.44,8.44,0,0,1,422.33,251.43Z" transform="translate(0 0)"/><path class="cls-8" d="M303.72,385.25s-10.87,2.35-20.58.89c-9.09-1.36-29.46.05-29.45,12,0,13.37,27.17,10.07,37.76,7.95s21.15-4,21.15-4Z" transform="translate(0 0)"/><path class="cls-3" d="M309.74,402.38a44.6,44.6,0,0,1-2.11-9.42,23.36,23.36,0,0,1,1.27,4.65A22.71,22.71,0,0,1,309.74,402.38Z" transform="translate(0 0)"/><path class="cls-3" d="M313.45,402.56a44.67,44.67,0,0,1-1.32-9.62,22.11,22.11,0,0,1,.92,4.77A23.19,23.19,0,0,1,313.45,402.56Z" transform="translate(0 0)"/><path class="cls-3" d="M317,401.16a17.82,17.82,0,0,1-.76-4.17,17.14,17.14,0,0,1-.25-4.23,35,35,0,0,1,1,8.4Z" transform="translate(0 0)"/><path class="cls-3" d="M292.23,399.81a9.88,9.88,0,0,1-1.4-3.58,10.13,10.13,0,0,1-.4-3.83,27.74,27.74,0,0,1,.91,3.7A27.45,27.45,0,0,1,292.23,399.81Z" transform="translate(0 0)"/><path class="cls-3" d="M293.44,394.87a4.47,4.47,0,0,1,1.46-.06,12.11,12.11,0,0,1,3.81.75,4.47,4.47,0,0,1,1.18.63,1.77,1.77,0,0,1,.73,1.33,2,2,0,0,1-2.15,1.84l-.31-.05a5,5,0,0,1-2.83-2,8.85,8.85,0,0,1-.41-10.27,1.4,1.4,0,0,1,.8-.49,1.13,1.13,0,0,1,.91.29,2.4,2.4,0,0,1,.68,1.46,7.08,7.08,0,0,1-.15,2.71,7.54,7.54,0,0,1-1.83,3.43,5.89,5.89,0,0,1-.79.71,1.29,1.29,0,0,1-.32.19s.38-.34,1-1a7.94,7.94,0,0,0,1.63-3.38,7.17,7.17,0,0,0,.07-2.57,2,2,0,0,0-.55-1.18.7.7,0,0,0-1,.09l-.06.09a8.47,8.47,0,0,0,.45,9.63,4.62,4.62,0,0,0,2.52,1.86,1.55,1.55,0,0,0,1.9-1.12,1.16,1.16,0,0,0,0-.18,1.38,1.38,0,0,0-.56-1,3.91,3.91,0,0,0-1.05-.6,13.06,13.06,0,0,0-3.7-.88C293.9,394.89,293.44,394.91,293.44,394.87Z" transform="translate(0 0)"/><path class="cls-3" d="M311.53,400.32a1.31,1.31,0,0,1-.28.09l-.81.2-3.15.72c-2.74.6-6.72,1.45-11.66,2.4s-10.84,2-17.46,2.93a46.64,46.64,0,0,1-10.49.53,23.27,23.27,0,0,1-5.49-1.05,16,16,0,0,1-2.64-1.18,8,8,0,0,1-2.32-1.86h0a5.38,5.38,0,0,1-.94-1.13,7,7,0,0,1-.55-5.85,9.32,9.32,0,0,1,3.48-4.56,17.87,17.87,0,0,1,4.95-2.45c.87-.25,1.71-.55,2.57-.74s1.71-.4,2.56-.52c6.81-1.07,13-.53,18.16-.53,2.58.05,4.91,0,7-.14a50.61,50.61,0,0,0,5.2-.66l1.88-.4,1.41-.31.83-.23a1.36,1.36,0,0,1,.29-.06,1.75,1.75,0,0,1-.27.11l-.82.28-1.34.43-1.88.45a45.88,45.88,0,0,1-5.22.75c-2.05.15-4.39.25-7,.22-5.16.05-11.35-.46-18.07.63-.84.12-1.67.35-2.52.53s-1.68.49-2.53.73a17.31,17.31,0,0,0-4.81,2.39,8.9,8.9,0,0,0-3.29,4.31,6.54,6.54,0,0,0,.5,5.41,5.06,5.06,0,0,0,.85,1h0a7.92,7.92,0,0,0,2.15,1.71,14.83,14.83,0,0,0,2.54,1.14,22.32,22.32,0,0,0,5.37,1,47.53,47.53,0,0,0,10.39-.49c6.6-.87,12.51-1.92,17.45-2.82s8.93-1.7,11.69-2.24l3.17-.62.82-.15A.93.93,0,0,1,311.53,400.32Z" transform="translate(0 0)"/><path class="cls-3" d="M302.21,406.81a18.56,18.56,0,0,1-.27-2.78c-.12-1.71-.32-4.08-.67-6.67s-.77-4.93-1.11-6.62a17,17,0,0,1-.47-2.75,13.12,13.12,0,0,1,.83,2.67,59.63,59.63,0,0,1,1.27,6.63,62.92,62.92,0,0,1,.52,6.72A13.82,13.82,0,0,1,302.21,406.81Z" transform="translate(0 0)"/><polygon class="cls-15" points="300.38 385.83 307.26 403.08 312.61 402.09 302.37 385.25 300.38 385.83"/><path class="cls-3" d="M390.13,338.55c-1.11.36-72.28-19.58-101.07-27.67a27.29,27.29,0,0,0-22.25,3.37l-.35.22a27.32,27.32,0,0,0-11.77,29.15h0A27.29,27.29,0,0,0,267,360.74c19,11.63,59.15,36.09,60.38,35.61,1.61-.62,51.77-1.92,51.77-1.92L318.83,351l28.71,18.56,42.59-31Z" transform="translate(0 0)"/><path class="cls-10" d="M330.71,316.89l15.13-7.83,14.83,9.3,55.55,1.82,8,27-80.32-18.6s-14.63,1.3-15.73-2S330.71,316.89,330.71,316.89Z" transform="translate(0 0)"/><path class="cls-3" d="M376.22,360.23l-7.48,24.58.93,7.49h0a38.43,38.43,0,0,0,50.68,3.41h0a37.66,37.66,0,0,0,14.72-30L435,340.05Z" transform="translate(0 0)"/><path class="cls-12" d="M331.68,360.39c-.08.11-8.76-6.22-19.38-14.14s-19.17-14.44-19.08-14.55,8.76,6.21,19.39,14.13S331.77,360.27,331.68,360.39Z" transform="translate(0 0)"/><path class="cls-11" d="M344.82,314a60.93,60.93,0,0,1-7.4,2.65,61.63,61.63,0,0,1-7.52,2.2,59.28,59.28,0,0,1,7.4-2.65A61.63,61.63,0,0,1,344.82,314Z" transform="translate(0 0)"/><path class="cls-11" d="M346,318.57a15.06,15.06,0,0,1-2.58.49c-1.59.26-3.78.65-6.18,1.2s-4.54,1.16-6.09,1.62a15.77,15.77,0,0,1-2.53.69,11.56,11.56,0,0,1,2.41-1,55.86,55.86,0,0,1,6.09-1.78,55.1,55.1,0,0,1,6.25-1.06A12.2,12.2,0,0,1,346,318.57Z" transform="translate(0 0)"/><path class="cls-11" d="M344.68,322.81a69.8,69.8,0,0,1-8.33,1.92,70.76,70.76,0,0,1-8.44,1.41,70,70,0,0,1,8.34-1.92A70.6,70.6,0,0,1,344.68,322.81Z" transform="translate(0 0)"/><path class="cls-12" d="M325.05,280.61l14,45.92a1.34,1.34,0,0,0,1.17.94l38,2.85a1.32,1.32,0,0,1,1.23,1.33V334a1.32,1.32,0,0,1-1.31,1.33h0l-104-2a1.33,1.33,0,0,1-1.22-.86L254.6,284.6a1.32,1.32,0,0,1,.76-1.72,1.5,1.5,0,0,1,.42-.09l67.91-3.17A1.33,1.33,0,0,1,325.05,280.61Z" transform="translate(0 0)"/><path class="cls-1" d="M295.76,300.39a3.29,3.29,0,0,0-2.06,2.34,3.16,3.16,0,0,0,1.35,2.86,3.42,3.42,0,0,0,3.8.14,3.16,3.16,0,0,0,1-3.83c-.46-1.27-2.78-2.16-4.12-1.51" transform="translate(0 0)"/><path class="cls-3" d="M312.6,402.09,301.6,384l80.81-63.33a32.52,32.52,0,0,1,17.65-7.23h0a32.48,32.48,0,0,1,35.28,29.42,33.54,33.54,0,0,1,0,5.58l-1.29,15.45-53.64,17.23Z" transform="translate(0 0)"/><path class="cls-12" d="M416.22,359.17a2.22,2.22,0,0,1-.21.2l-.66.54L412.78,362l-1.88,1.47c-.68.54-1.49,1-2.32,1.63l-2.68,1.84c-.48.32-1,.67-1.47,1l-1.61,1c-2.19,1.31-4.56,2.81-7.25,4.17-1.33.7-2.69,1.46-4.13,2.17L387,377.36q-10,4.58-20.43,8.14c-14.76,5.09-28.4,8.75-38.17,11.71-2.45.72-4.66,1.4-6.6,2s-3.6,1.11-5,1.57l-3.12,1-.82.25a1.37,1.37,0,0,1-.29.07l.27-.12.8-.3,3.1-1.11c1.34-.49,3-1,4.93-1.66s4.13-1.34,6.58-2.08c9.75-3.06,23.38-6.77,38.11-11.85,7.38-2.51,14.25-5.31,20.4-8.08l4.46-2.09c1.44-.7,2.8-1.45,4.13-2.14,2.69-1.34,5.06-2.82,7.26-4.1l1.61-.95c.51-.32,1-.66,1.48-1l2.7-1.8c.83-.57,1.64-1.06,2.33-1.59l1.89-1.44,2.63-2,.7-.5Z" transform="translate(0 0)"/><path class="cls-12" d="M418.18,367.62a3.15,3.15,0,0,1-.81.43c-.54.24-1.33.57-2.32.93a58.81,58.81,0,0,1-7.92,2.3,60.64,60.64,0,0,1-8.17,1.16c-1,.07-1.91.1-2.5.1a3.53,3.53,0,0,1-.92-.05,32,32,0,0,1,3.39-.42,80.9,80.9,0,0,0,8.09-1.3c3.09-.67,5.91-1.49,7.91-2.13A30.6,30.6,0,0,1,418.18,367.62Z" transform="translate(0 0)"/><path class="cls-12" d="M379.18,323.72c.09.12-17.2,13.71-38.62,30.35S301.7,384.13,301.62,384s17.2-13.7,38.62-30.35S379.1,323.61,379.18,323.72Z" transform="translate(0 0)"/><path class="cls-8" d="M374.51,390.92c-3.87-2.06-8.22-.84-11.93.41-2.47.83-5,2.15-7.54,1.44-1.82-.51-3.16-2-4.55-3.25A28.54,28.54,0,0,0,329.61,382a8.57,8.57,0,0,0-5.74,2.59c-3.81,4.13-.94,9.49,2.47,13a37.57,37.57,0,0,0,22.71,11c7.09.74,16.84-.24,24-3.32,4.43-1.9,6.7-7.13,4.38-11.35A7.23,7.23,0,0,0,374.51,390.92Z" transform="translate(0 0)"/><g class="cls-16"><path d="M374.5,394.22c-3.87-2.06-8.22-.84-11.93.41-2.47.83-5,2.15-7.54,1.44-1.81-.51-3.16-2-4.55-3.25a28.54,28.54,0,0,0-20.88-7.49,8.57,8.57,0,0,0-5.74,2.59,6.64,6.64,0,0,0-1.6,2.9,15.09,15.09,0,0,0,4.07,6.76,37.57,37.57,0,0,0,22.71,11c7.09.74,16.84-.24,24-3.32a8.77,8.77,0,0,0,5.11-6.09,7.39,7.39,0,0,0-3.68-4.91Z" transform="translate(0 0)"/></g><path class="cls-3" d="M378.18,399.13a6.64,6.64,0,0,0-.95-2.3,7.72,7.72,0,0,0-2.07-2,8.37,8.37,0,0,0-3.57-1.36c-2.87-.34-6.21.87-9.91,1.87-1.83.49-3.83,1.23-6,1a8,8,0,0,1-3.1-1.08,19.88,19.88,0,0,1-2.66-2,27.79,27.79,0,0,0-10.6-6.3,27.23,27.23,0,0,0-5.27-1.22,16.82,16.82,0,0,0-4.7,0,10.41,10.41,0,0,0-3.62,1.26,9.4,9.4,0,0,0-2.23,1.89c-1,1.25-1.37,2.1-1.43,2.06a8.17,8.17,0,0,1,1.28-2.19,8.83,8.83,0,0,1,2.22-2,10.15,10.15,0,0,1,3.72-1.38,16.16,16.16,0,0,1,4.81,0,28.33,28.33,0,0,1,5.37,1.19A31.35,31.35,0,0,1,345,389a22.84,22.84,0,0,1,2.71,1.76c.86.68,1.68,1.42,2.52,2.14a18.53,18.53,0,0,0,2.58,2,7.54,7.54,0,0,0,2.9,1c2,.27,4-.43,5.83-.91,3.69-1,7.08-2.17,10.09-1.78a8.35,8.35,0,0,1,5.76,3.65,5.58,5.58,0,0,1,.72,1.75A2.7,2.7,0,0,1,378.18,399.13Z" transform="translate(0 0)"/><path class="cls-3" d="M378.18,399.13a6.64,6.64,0,0,0-.95-2.3,7.72,7.72,0,0,0-2.07-2,8.37,8.37,0,0,0-3.57-1.36c-2.87-.34-6.21.87-9.91,1.87-1.83.49-3.83,1.23-6,1a8,8,0,0,1-3.1-1.08,19.88,19.88,0,0,1-2.66-2,27.79,27.79,0,0,0-10.6-6.3,27.23,27.23,0,0,0-5.27-1.22,16.82,16.82,0,0,0-4.7,0,10.41,10.41,0,0,0-3.62,1.26,9.4,9.4,0,0,0-2.23,1.89c-1,1.25-1.37,2.1-1.43,2.06a8.17,8.17,0,0,1,1.28-2.19,8.83,8.83,0,0,1,2.22-2,10.15,10.15,0,0,1,3.72-1.38,16.16,16.16,0,0,1,4.81,0,28.33,28.33,0,0,1,5.37,1.19A31.35,31.35,0,0,1,345,389a22.84,22.84,0,0,1,2.71,1.76c.86.68,1.68,1.42,2.52,2.14a18.53,18.53,0,0,0,2.58,2,7.54,7.54,0,0,0,2.9,1c2,.27,4-.43,5.83-.91,3.69-1,7.08-2.17,10.09-1.78a8.35,8.35,0,0,1,5.76,3.65,5.58,5.58,0,0,1,.72,1.75A2.7,2.7,0,0,1,378.18,399.13Z" transform="translate(0 0)"/><path class="cls-3" d="M330.11,398.19a9.72,9.72,0,0,1,2-1.37,54.8,54.8,0,0,1,5.13-2.74,55.94,55.94,0,0,1,5.39-2.21,11,11,0,0,1,2.32-.65,12.72,12.72,0,0,1-2.19,1c-1.37.57-3.25,1.37-5.3,2.33s-3.86,1.9-5.17,2.59A12.5,12.5,0,0,1,330.11,398.19Z" transform="translate(0 0)"/><path class="cls-3" d="M331.44,402.07a69.73,69.73,0,0,1,7.57-3.95,69.69,69.69,0,0,1,7.8-3.48,69.73,69.73,0,0,1-7.57,3.95A69.69,69.69,0,0,1,331.44,402.07Z" transform="translate(0 0)"/><path class="cls-3" d="M347.5,403.75c-.08.12-4.21-2.34-9.22-5.5s-9-5.83-8.95-5.95,4.2,2.34,9.22,5.51S347.58,403.63,347.5,403.75Z" transform="translate(0 0)"/><path class="cls-3" d="M349.82,399.73a13,13,0,0,1-2-1.35c-1.21-.88-2.89-2.09-4.77-3.39s-3.59-2.45-4.84-3.28a12.71,12.71,0,0,1-2-1.42,11.1,11.1,0,0,1,2.17,1.11c1.3.75,3.07,1.86,4.95,3.16s3.53,2.57,4.7,3.53A9.94,9.94,0,0,1,349.82,399.73Z" transform="translate(0 0)"/></g></svg>