<svg id="Layer_1" data-name="Layer 1" xmlns="http://www.w3.org/2000/svg" viewBox="0 0 230.34 225.97"><defs><style>.cls-1{fill:#e2e2e2;}</style></defs><title>banner-bg3</title><path class="cls-1" d="M669.08,1143.87l-.9-15.15a4.69,4.69,0,0,0-6.94-3.83l-29.39,16.23a4.71,4.71,0,0,0-2.42,4.15v3.12A98.71,98.71,0,1,0,551.06,1308l-6.42,22.31a4.69,4.69,0,1,0,8.85,3.1,4.91,4.91,0,0,0,.15-.51l7.29-25.3A98.58,98.58,0,0,0,630,1269.46l25.3,7.31a4.68,4.68,0,1,0,2.6-9l-22.3-6.45a99.06,99.06,0,0,0,8.69-86.18l2.4,1.54a4.65,4.65,0,0,0,4.8.16L681,1160.62a4.69,4.69,0,0,0,1.84-6.37,4.63,4.63,0,0,0-1.37-1.55ZM595,1287.55a89.44,89.44,0,1,1,32.31-126l-11.15,6.16a76.71,76.71,0,1,0,4.59,8.18l11.14-6.15A89.49,89.49,0,0,1,595,1287.52Zm-17.77-98.34a32.47,32.47,0,1,0,4.67,8.14l30.59-16.89a67.35,67.35,0,1,1-4.6-8.17Zm-23.49,23.68,19.86-11a23.1,23.1,0,1,1-4.73-8.1l-19.64,10.9a4.68,4.68,0,1,0,4.53,8.2Zm108-62.7,8.12,5.81-20.43,11.28-10.53-6.78-.13-12.53,20.46-11.28.59,10a4.69,4.69,0,0,0,2,3.53Z" transform="translate(-453.05 -1110.6)"/></svg>