<svg id="_лой_1" data-name="‘лой_1" xmlns="http://www.w3.org/2000/svg" viewBox="0 0 844.37 899.18"><defs><style>.cls-1{fill:#a073a8;}.cls-2{fill:#343434;}.cls-3{fill:#fff;}.cls-4{fill:#111;}</style></defs><title>banner-table</title><rect class="cls-1" width="844.37" height="899.18"/><rect class="cls-2" x="443.98" y="737.35" width="161.38" height="10.44" rx="0.25"/><path class="cls-2" d="M444.21,713.61H645.1a.24.24,0,0,1,.24.24v10a.24.24,0,0,1-.24.24H444.22a.24.24,0,0,1-.24-.24v-10A.23.23,0,0,1,444.21,713.61Z"/><rect class="cls-3" x="73.25" y="151.84" width="697.88" height="491.01"/><rect class="cls-2" x="236.89" y="124.13" width="1.12" height="518.72"/><rect class="cls-2" x="673.9" y="124.13" width="1.12" height="518.72"/><rect class="cls-2" x="311.1" y="124.13" width="1.12" height="518.72"/><rect class="cls-2" x="73.25" y="550.98" width="697.88" height="1.12"/><rect class="cls-2" x="73.25" y="448.22" width="697.88" height="1.12"/><rect class="cls-2" x="73.25" y="345.46" width="697.88" height="1.12"/><rect class="cls-2" x="73.25" y="242.7" width="697.88" height="1.12"/><rect class="cls-4" x="73.25" y="63.05" width="697.88" height="99.64"/><path class="cls-4" d="M4370.35,1239.76c-15.73,4.81-31.08,7.32-43.15,6.38-18.4-1.45-28.75-10.55-29.16-25.64-.33-12,4.93-22.45,15.24-31-.1-.81-.18-1.63-.25-2.45-.68-8.44,1.23-14,5.67-16.66,7.19-4.23,17.86,1.55,18.31,1.8l-2.39,3.86c-2.39-1.32-9.49-4.21-13.42-1.88-3.39,2-3.8,7.53-3.5,12,8.39-5.74,19.35-10.42,32.71-13.83a185.22,185.22,0,0,1,30.82-5,26.57,26.57,0,0,1,.26-2.76c.33-2.07,1.09-4.49,3.24-5,.82-.17,2.41-.15,3.82,1.88A10.25,10.25,0,0,1,4390,1167c3.43-.07,6.61,0,9.43.18l.08-.17a48.26,48.26,0,0,1,.72-15.54c1.2-5.17,3.16-7.78,5.91-8a3.62,3.62,0,0,1,3.75,2.19c1.54,3.5-1.35,13-5.53,22a.11.11,0,0,1,0,0c3.92.63,6.58,1.65,7.42,3.08a3.21,3.21,0,0,1-.95,4.19c-3.17,2.75-5.69,2.06-6.92,1.4a6.57,6.57,0,0,1-2.53-2.74c-3.16,5.91-6.6,11-9.31,13.1a4.87,4.87,0,0,1-5.5.75,5,5,0,0,1-1.19-.9,60.9,60.9,0,0,1-3.6,7c-4.94,8.19-10.51,12.41-16.1,12.16a9.36,9.36,0,0,1-6-2.52,81.7,81.7,0,0,1-10.84,16.83c-3.93,4.58-8.93,6.25-14.11,4.73-9.17-2.71-17.46-15.23-20.56-30.07q-11.76,10.86-11.38,25.63c.35,12.86,8.7,20,24.83,21.3,40.7,3.2,112.08-32.54,117.49-58.84h0C4440.68,1204.23,4406.81,1228.6,4370.35,1239.76Zm-52.06-48.42c2.48,15.65,10.77,27.15,17.81,29.23,3.31,1,6.35-.14,9-3.28a75.88,75.88,0,0,0,11.38-18.37,25.77,25.77,0,0,1-2-5.82c-1.14-5.16-1.32-12.24,0-17.1a125,125,0,0,0-22.28,7.33A73.47,73.47,0,0,0,4318.29,1191.34Zm43.45,7.32a5.45,5.45,0,0,0,4.16,2.67c3.57.14,7.88-3.46,11.78-9.91a57.09,57.09,0,0,0,4.87-10.4,41.71,41.71,0,0,1-1.33-9.07c-5.24.4-10.94,1.06-16.82,2.07C4367.46,1179.65,4365.69,1189.17,4361.74,1198.66Zm25.74-17.56c.73,2.1,1.4,2.51,1.4,2.51,2.64-2.14,5.66-6.79,8.4-12.07-2.24-.08-4.77-.09-7.52,0A51.94,51.94,0,0,1,4387.48,1181.1Zm-27.73-5.73c-1.2,2.36-2.07,9.94-.61,16.68C4361.51,1184.66,4362,1178.26,4359.75,1175.37Zm46.52-2.85h0Zm-.7-22.9a25.68,25.68,0,0,0-1.12,4.67A35,35,0,0,0,4405.57,1149.62Z" transform="translate(-3665.1 -424.99)"/></svg>