<svg id="Layer_1" data-name="Layer 1" xmlns="http://www.w3.org/2000/svg" viewBox="0 0 203.78 219.21"><defs><style>.cls-1{fill:#e2e2e2;}.cls-2{fill:#f2f2f2;}</style></defs><title>banner-bg5</title><path class="cls-1" d="M610.47,1128.59l-45.78,79.24a4.2,4.2,0,0,0,1.53,5.75h0l79.3,45.83a4.24,4.24,0,0,0,5.77-1.54,95.79,95.79,0,0,0-35.06-130.83,4.22,4.22,0,0,0-5.77,1.53Zm35.58,121.31-10.12-5.85.82-.21a4.22,4.22,0,1,0-2.18-8.16l-9,2.4-18-10.37,31.3-8.38a4.22,4.22,0,0,0-2.18-8.15l-39.45,10.55-18-10.38,27.4-7.33a4.22,4.22,0,0,0-1.95-8.22l-.23.07-27.41,7.34,10.38-18,39.5-10.57a4.26,4.26,0,0,0,2.57-2,4.34,4.34,0,0,0,.42-3.21,4.23,4.23,0,0,0-5.17-3l-31.35,8.39,10.38-18,9-2.41a4.22,4.22,0,0,0-2.19-8.16l-.87.24,5.85-10.12a87.48,87.48,0,0,1,30.4,113.4Z" transform="translate(-460.36 -1107.68)"/><path class="cls-1" d="M473.22,1183.22A95.76,95.76,0,0,0,639.05,1279a4.23,4.23,0,0,0-1.54-5.77h0L479,1181.68a4.22,4.22,0,0,0-5.77,1.53h0Zm156.29,95.18a87.3,87.3,0,0,1-151-87.25Z" transform="translate(-460.36 -1107.68)"/><path class="cls-2" d="M467.1,1153.48l79.24,45.79L592.16,1120A91.55,91.55,0,0,0,467.1,1153.48Z" transform="translate(-460.36 -1107.68)"/></svg>