<svg id="_лой_1" data-name="‘лой_1" xmlns="http://www.w3.org/2000/svg" viewBox="0 0 2077.7 1382.15"><defs><style>.cls-1{fill:#f2f2f2;}.cls-2{fill:#e2e2e2;}.cls-3{fill:#2e3552;}.cls-4{opacity:0.5;}</style></defs><title>banner-bg</title><path class="cls-1" d="M1115.42,628a49.9,49.9,0,1,0,67.74,19.6,49.94,49.94,0,0,0-67.74-19.6ZM1153,696a27.78,27.78,0,1,1,10.86-37.73A27.76,27.76,0,0,1,1153,696Zm0,0" transform="translate(-504.64 -346.44)"/><path class="cls-2" d="M1256.86,606.25l-.9-15.15a4.68,4.68,0,0,0-6.94-3.83l-29.39,16.23a4.72,4.72,0,0,0-2.42,4.15l0,3.12a98.71,98.71,0,1,0-78.37,159.63l-6.42,22.31a4.69,4.69,0,1,0,9,2.59l7.29-25.3a98.59,98.59,0,0,0,69.11-38.16l25.3,7.31a4.68,4.68,0,1,0,2.6-9l-22.3-6.45a99.05,99.05,0,0,0,8.69-86.18l2.4,1.54a4.67,4.67,0,0,0,4.8.16L1268.74,623a4.69,4.69,0,0,0,.47-7.92Zm-74.09,143.68a89.44,89.44,0,1,1,32.31-126l-11.15,6.16a76.7,76.7,0,1,0,4.59,8.18l11.14-6.15a89.48,89.48,0,0,1-36.89,117.78ZM1165,651.59a32.47,32.47,0,1,0,4.67,8.14l30.59-16.89a67.35,67.35,0,1,1-4.6-8.17L1165,651.59Zm-23.49,23.68,19.86-11a23.1,23.1,0,1,1-4.73-8.1L1137,667.07a4.68,4.68,0,1,0,4.53,8.2Zm108-62.7,8.12,5.81-20.43,11.28-10.53-6.78-.13-12.53L1247,599.07l.59,10a4.71,4.71,0,0,0,2,3.53Zm0,0" transform="translate(-504.64 -346.44)"/><path class="cls-2" d="M1960.42,577l-45.78,79.24a4.21,4.21,0,0,0,1.54,5.76l79.3,45.83a4.23,4.23,0,0,0,5.77-1.54,95.78,95.78,0,0,0-35.06-130.83,4.22,4.22,0,0,0-5.77,1.54ZM1996,698.31l-10.12-5.85.82-.21a4.22,4.22,0,0,0-2.18-8.16l-9,2.4-18-10.37,31.3-8.38a4.22,4.22,0,0,0-2.18-8.15l-39.45,10.55-18-10.38,27.4-7.33a4.22,4.22,0,1,0-2.18-8.15L1927,651.62l10.38-18,39.5-10.57a4.21,4.21,0,0,0,2.57-2,4.28,4.28,0,0,0,.42-3.21,4.23,4.23,0,0,0-5.17-3l-31.35,8.39,10.38-18,9-2.41a4.22,4.22,0,0,0-2.19-8.16l-.87.24,5.85-10.12a87.47,87.47,0,0,1,30.4,113.4Zm0,0" transform="translate(-504.64 -346.44)"/><path class="cls-2" d="M1823.17,631.63A95.74,95.74,0,1,0,1989,727.43a4.22,4.22,0,0,0-1.54-5.77l-158.48-91.57a4.22,4.22,0,0,0-5.77,1.54Zm156.29,95.18a87.3,87.3,0,0,1-151-87.25Zm0,0" transform="translate(-504.64 -346.44)"/><path class="cls-1" d="M1817.05,601.89l79.24,45.79,45.82-79.31a91.56,91.56,0,0,0-125.06,33.52Zm0,0" transform="translate(-504.64 -346.44)"/><rect class="cls-3" y="1375.12" width="2076.33" height="7.02" rx="2.95"/><g class="cls-4"><path class="cls-1" d="M2519.92,687.5l61.78,236.33a19.67,19.67,0,0,1-14,23.92l-414.58,108.37a19.66,19.66,0,0,1-23.92-14l-61.78-236.33a19.66,19.66,0,0,1,14-23.91L2496,673.49A19.66,19.66,0,0,1,2519.92,687.5Z" transform="translate(-504.64 -346.44)"/><path class="cls-2" d="M2348,954.68l-110.49,28.88a8.81,8.81,0,0,1-10.72-6.28l-.28-1.06a8.81,8.81,0,0,1,6.28-10.72l110.49-28.88a8.8,8.8,0,0,1,10.72,6.27l.28,1.07A8.81,8.81,0,0,1,2348,954.68Z" transform="translate(-504.64 -346.44)"/><path class="cls-2" d="M2290.21,846.83a21.29,21.29,0,0,1,.48,10.45,9.63,9.63,0,0,1-16.37,4.28,25.33,25.33,0,0,1-5.21-19.75,9.69,9.69,0,0,1,16.45-4.3A21.18,21.18,0,0,1,2290.21,846.83Zm-5.07,1.31a21.1,21.1,0,0,0-2.53-6.15c-1.55-2.34-3.33-3.26-5.33-2.73s-3.18,2.19-3.37,5a20.29,20.29,0,0,0,.78,6.64q2.7,10.3,8,8.93c2-.53,3.13-2.21,3.3-5A21,21,0,0,0,2285.14,848.14Z" transform="translate(-504.64 -346.44)"/><path class="cls-2" d="M2312.9,840.9a21.29,21.29,0,0,1,.48,10.45,9.63,9.63,0,0,1-16.37,4.28,25.23,25.23,0,0,1-5.21-19.75,9.69,9.69,0,0,1,16.45-4.3A21.4,21.4,0,0,1,2312.9,840.9Zm-5.08,1.3a21.15,21.15,0,0,0-2.52-6.14c-1.56-2.34-3.34-3.26-5.34-2.73s-3.17,2.19-3.36,5a20.29,20.29,0,0,0,.78,6.64q2.68,10.3,7.95,8.93,3-.79,3.31-5A20.82,20.82,0,0,0,2307.82,842.2Z" transform="translate(-504.64 -346.44)"/><path class="cls-2" d="M2347.28,831.91a21.29,21.29,0,0,1,.48,10.45,9.62,9.62,0,0,1-16.37,4.28,25.33,25.33,0,0,1-5.21-19.75,9.7,9.7,0,0,1,16.45-4.3A21.24,21.24,0,0,1,2347.28,831.91Zm-5.07,1.31a21.18,21.18,0,0,0-2.53-6.14q-2.32-3.52-5.33-2.74c-2.06.54-3.18,2.19-3.37,5a20.26,20.26,0,0,0,.78,6.64q2.7,10.31,8,8.93,3-.79,3.3-5A21.06,21.06,0,0,0,2342.21,833.22Z" transform="translate(-504.64 -346.44)"/><path class="cls-2" d="M2370,826a21.29,21.29,0,0,1,.48,10.45,9.62,9.62,0,0,1-16.37,4.28,25.23,25.23,0,0,1-5.21-19.75,9.7,9.7,0,0,1,16.45-4.3A21.45,21.45,0,0,1,2370,826Zm-5.08,1.31a21.1,21.1,0,0,0-2.52-6.15q-2.34-3.51-5.34-2.73c-2.05.54-3.17,2.19-3.36,5a20.26,20.26,0,0,0,.78,6.64q2.68,10.31,8,8.93,3-.8,3.31-5A20.75,20.75,0,0,0,2364.89,827.29Z" transform="translate(-504.64 -346.44)"/><path class="cls-2" d="M2392.65,820.05a21.18,21.18,0,0,1,.49,10.45,9.63,9.63,0,0,1-16.38,4.28,25.27,25.27,0,0,1-5.2-19.75,9.7,9.7,0,0,1,16.45-4.3A21.34,21.34,0,0,1,2392.65,820.05Zm-5.07,1.31a21.1,21.1,0,0,0-2.52-6.15q-2.34-3.51-5.34-2.73c-2,.54-3.17,2.19-3.37,5a20.81,20.81,0,0,0,.78,6.64q2.7,10.3,8,8.93,3-.79,3.31-5A21,21,0,0,0,2387.58,821.36Z" transform="translate(-504.64 -346.44)"/><path class="cls-2" d="M2415.34,814.12a21.29,21.29,0,0,1,.48,10.45,9.62,9.62,0,0,1-16.37,4.28,25.27,25.27,0,0,1-5.2-19.75,9.7,9.7,0,0,1,16.45-4.3A21.28,21.28,0,0,1,2415.34,814.12Zm-5.07,1.31a21.1,21.1,0,0,0-2.52-6.15c-1.56-2.34-3.34-3.26-5.34-2.73s-3.18,2.19-3.37,5a20.29,20.29,0,0,0,.78,6.64q2.7,10.3,8,8.93,3-.8,3.3-5A21,21,0,0,0,2410.27,815.43Z" transform="translate(-504.64 -346.44)"/><path class="cls-2" d="M2449.72,805.13a21.22,21.22,0,0,1,.49,10.46,9.63,9.63,0,0,1-16.38,4.27,25.27,25.27,0,0,1-5.2-19.75,9.7,9.7,0,0,1,16.45-4.3A21.34,21.34,0,0,1,2449.72,805.13Zm-5.07,1.31a20.91,20.91,0,0,0-2.52-6.14q-2.34-3.52-5.34-2.74c-2.05.54-3.18,2.19-3.37,5a20.81,20.81,0,0,0,.78,6.64q2.7,10.3,8,8.93c2-.53,3.13-2.2,3.31-5A21.41,21.41,0,0,0,2444.65,806.44Z" transform="translate(-504.64 -346.44)"/><path class="cls-2" d="M2472.41,799.2a21.29,21.29,0,0,1,.48,10.45,9.62,9.62,0,0,1-16.37,4.28,25.33,25.33,0,0,1-5.21-19.75,9.7,9.7,0,0,1,16.45-4.3A21.24,21.24,0,0,1,2472.41,799.2Zm-5.07,1.31a20.91,20.91,0,0,0-2.53-6.14q-2.32-3.52-5.33-2.74c-2.06.54-3.18,2.19-3.37,5a20.26,20.26,0,0,0,.78,6.64q2.7,10.31,8,8.93c2-.53,3.13-2.21,3.3-5A21.06,21.06,0,0,0,2467.34,800.51Z" transform="translate(-504.64 -346.44)"/><path class="cls-2" d="M2495.1,793.27a21.29,21.29,0,0,1,.48,10.45,9.62,9.62,0,0,1-16.37,4.28,25.23,25.23,0,0,1-5.21-19.75,9.7,9.7,0,0,1,16.45-4.3A21.35,21.35,0,0,1,2495.1,793.27Zm-5.08,1.31a20.91,20.91,0,0,0-2.52-6.14c-1.56-2.35-3.33-3.26-5.34-2.74s-3.17,2.19-3.36,5a20.26,20.26,0,0,0,.78,6.64q2.68,10.31,8,8.93,3-.79,3.3-5A20.79,20.79,0,0,0,2490,794.58Z" transform="translate(-504.64 -346.44)"/><path class="cls-2" d="M2517.79,787.34a21.29,21.29,0,0,1,.48,10.45,9.62,9.62,0,0,1-16.37,4.28,21.14,21.14,0,0,1-4.7-9.35,21.39,21.39,0,0,1-.51-10.4,9.7,9.7,0,0,1,16.45-4.3A21.45,21.45,0,0,1,2517.79,787.34Zm-5.08,1.31a21.1,21.1,0,0,0-2.52-6.15q-2.34-3.51-5.34-2.73c-2,.54-3.17,2.19-3.36,5a20.49,20.49,0,0,0,.77,6.64q2.7,10.3,8,8.93,3-.79,3.31-5A20.75,20.75,0,0,0,2512.71,788.65Z" transform="translate(-504.64 -346.44)"/><path class="cls-2" d="M2218.63,784.59,2110.5,812.86a8.81,8.81,0,0,1-10.72-6.28h0a8.81,8.81,0,0,1,6.28-10.72l108.13-28.27a8.82,8.82,0,0,1,10.72,6.28h0A8.81,8.81,0,0,1,2218.63,784.59Z" transform="translate(-504.64 -346.44)"/><path class="cls-2" d="M2480.22,735.54a13.42,13.42,0,0,0-5-7.41,1.44,1.44,0,0,0-2.11.44l-.37.64a1.43,1.43,0,0,0,.37,1.85,9.87,9.87,0,0,1,3.1,11.87,1.43,1.43,0,0,0,.58,1.79l.65.39a1.44,1.44,0,0,0,2-.65A13.44,13.44,0,0,0,2480.22,735.54Z" transform="translate(-504.64 -346.44)"/><path class="cls-2" d="M2487.23,733.71a20.67,20.67,0,0,0-8.47-11.94,1.44,1.44,0,0,0-2,.5l-.21.36a1.44,1.44,0,0,0,.46,1.91,17.41,17.41,0,0,1,5.8,22.19,1.44,1.44,0,0,0,.54,1.89l.36.21a1.43,1.43,0,0,0,2-.56A20.59,20.59,0,0,0,2487.23,733.71Z" transform="translate(-504.64 -346.44)"/><path class="cls-2" d="M2493.37,732.11a27,27,0,0,0-11.46-15.86,1.43,1.43,0,0,0-2,.5h0a1.42,1.42,0,0,0,.46,1.91,24.18,24.18,0,0,1,8.25,31.54,1.43,1.43,0,0,0,.53,1.9h0a1.44,1.44,0,0,0,2-.56A27,27,0,0,0,2493.37,732.11Z" transform="translate(-504.64 -346.44)"/><path class="cls-2" d="M2500,730.37a33.85,33.85,0,0,0-14.69-20.09,1.45,1.45,0,0,0-2,.5l-.37.64a1.43,1.43,0,0,0,.48,1.92,30.32,30.32,0,0,1,10.45,40,1.43,1.43,0,0,0,.53,1.91l.63.37a1.44,1.44,0,0,0,2-.55A33.84,33.84,0,0,0,2500,730.37Z" transform="translate(-504.64 -346.44)"/></g><g class="cls-4"><path class="cls-1" d="M1034.16,742.48l61.77,236.33a19.65,19.65,0,0,1-14,23.92L667.35,1111.1a19.66,19.66,0,0,1-23.92-14L581.65,860.77a19.67,19.67,0,0,1,14-23.92l414.58-108.37A19.67,19.67,0,0,1,1034.16,742.48Z" transform="translate(-504.64 -346.44)"/><path class="cls-2" d="M862.25,1009.66l-110.49,28.89a8.81,8.81,0,0,1-10.72-6.28l-.28-1.06a8.82,8.82,0,0,1,6.28-10.73L857.53,991.6a8.81,8.81,0,0,1,10.72,6.28l.28,1.06A8.81,8.81,0,0,1,862.25,1009.66Z" transform="translate(-504.64 -346.44)"/><path class="cls-2" d="M804.44,901.81a21.33,21.33,0,0,1,.48,10.46,9.63,9.63,0,0,1-16.37,4.28,25.28,25.28,0,0,1-5.2-19.76,9.7,9.7,0,0,1,16.45-4.3A21.4,21.4,0,0,1,804.44,901.81Zm-5.07,1.31a21,21,0,0,0-2.52-6.14q-2.34-3.53-5.34-2.74c-2,.54-3.18,2.2-3.37,5a20.23,20.23,0,0,0,.78,6.64q2.7,10.32,8,8.94,3-.79,3.31-5A21.41,21.41,0,0,0,799.37,903.12Z" transform="translate(-504.64 -346.44)"/><path class="cls-2" d="M827.13,895.88a21.33,21.33,0,0,1,.48,10.46,9.63,9.63,0,0,1-16.37,4.28A25.37,25.37,0,0,1,806,890.86a9.7,9.7,0,0,1,16.45-4.3A21.3,21.3,0,0,1,827.13,895.88Zm-5.07,1.31a21,21,0,0,0-2.53-6.14q-2.32-3.52-5.33-2.74t-3.37,5a20.23,20.23,0,0,0,.78,6.64q2.68,10.3,8,8.94,3-.79,3.3-5A21.06,21.06,0,0,0,822.06,897.19Z" transform="translate(-504.64 -346.44)"/><path class="cls-2" d="M861.51,886.9a21.29,21.29,0,0,1,.48,10.45,9.63,9.63,0,0,1-16.37,4.28,25.34,25.34,0,0,1-5.21-19.76,9.7,9.7,0,0,1,16.46-4.3A21.38,21.38,0,0,1,861.51,886.9Zm-5.07,1.3a21.15,21.15,0,0,0-2.52-6.14q-2.34-3.52-5.34-2.74t-3.37,5a20.23,20.23,0,0,0,.78,6.64q2.7,10.32,8,8.94,3-.79,3.3-5A21.06,21.06,0,0,0,856.44,888.2Z" transform="translate(-504.64 -346.44)"/><path class="cls-2" d="M884.2,881a21.29,21.29,0,0,1,.48,10.45,9.63,9.63,0,0,1-16.37,4.28,25.24,25.24,0,0,1-5.21-19.76,9.7,9.7,0,0,1,16.45-4.3A21.28,21.28,0,0,1,884.2,881Zm-5.08,1.3a21.15,21.15,0,0,0-2.52-6.14q-2.33-3.52-5.33-2.74t-3.37,5a20.23,20.23,0,0,0,.78,6.64q2.69,10.32,8,8.94,3-.8,3.3-5A20.82,20.82,0,0,0,879.12,882.27Z" transform="translate(-504.64 -346.44)"/><path class="cls-2" d="M906.89,875a21.29,21.29,0,0,1,.48,10.45A9.63,9.63,0,0,1,891,889.77,25.24,25.24,0,0,1,885.79,870a9.7,9.7,0,0,1,16.45-4.3A21.5,21.5,0,0,1,906.89,875Zm-5.08,1.3a21.15,21.15,0,0,0-2.52-6.14q-2.34-3.53-5.34-2.74t-3.36,5a20.47,20.47,0,0,0,.77,6.64q2.7,10.32,8,8.94,3-.79,3.31-5A20.82,20.82,0,0,0,901.81,876.34Z" transform="translate(-504.64 -346.44)"/><path class="cls-2" d="M929.57,869.1a21.22,21.22,0,0,1,.49,10.46,9.64,9.64,0,0,1-16.38,4.28,25.28,25.28,0,0,1-5.2-19.76,9.7,9.7,0,0,1,16.45-4.3A21.4,21.4,0,0,1,929.57,869.1Zm-5.07,1.31a21,21,0,0,0-2.52-6.14q-2.34-3.53-5.34-2.74t-3.37,5a20.78,20.78,0,0,0,.78,6.64q2.7,10.32,8,8.94,3-.8,3.31-5A21.41,21.41,0,0,0,924.5,870.41Z" transform="translate(-504.64 -346.44)"/><path class="cls-2" d="M964,860.12a21.18,21.18,0,0,1,.49,10.45,9.64,9.64,0,0,1-16.38,4.28,25.27,25.27,0,0,1-5.2-19.75,9.69,9.69,0,0,1,16.45-4.31A21.38,21.38,0,0,1,964,860.12Zm-5.07,1.3a21.15,21.15,0,0,0-2.52-6.14q-2.34-3.53-5.34-2.74t-3.36,5a20.47,20.47,0,0,0,.77,6.64q2.7,10.32,8,8.94,3-.8,3.31-5A20.82,20.82,0,0,0,958.88,861.42Z" transform="translate(-504.64 -346.44)"/><path class="cls-2" d="M986.64,854.19a21.17,21.17,0,0,1,.48,10.45,9.63,9.63,0,0,1-16.37,4.28,25.28,25.28,0,0,1-5.2-19.76,9.7,9.7,0,0,1,16.45-4.3A21.38,21.38,0,0,1,986.64,854.19Zm-5.07,1.3a21.15,21.15,0,0,0-2.52-6.14q-2.34-3.52-5.34-2.74c-2.05.54-3.18,2.2-3.37,5a20.23,20.23,0,0,0,.78,6.64q2.7,10.32,8,8.94,3-.79,3.31-5A21.41,21.41,0,0,0,981.57,855.49Z" transform="translate(-504.64 -346.44)"/><path class="cls-2" d="M1009.33,848.26a21.29,21.29,0,0,1,.48,10.45A9.63,9.63,0,0,1,993.44,863a25.34,25.34,0,0,1-5.21-19.76,9.7,9.7,0,0,1,16.45-4.3A21.28,21.28,0,0,1,1009.33,848.26Zm-5.07,1.3a21.14,21.14,0,0,0-2.53-6.14q-2.33-3.52-5.33-2.74t-3.37,5a20.23,20.23,0,0,0,.78,6.64q2.7,10.32,8,8.94c2-.53,3.13-2.21,3.3-5A21.06,21.06,0,0,0,1004.26,849.56Z" transform="translate(-504.64 -346.44)"/><path class="cls-2" d="M1032,842.33a21.29,21.29,0,0,1,.48,10.45,9.63,9.63,0,0,1-16.37,4.28,25.24,25.24,0,0,1-5.21-19.76,9.7,9.7,0,0,1,16.45-4.3A21.39,21.39,0,0,1,1032,842.33Zm-5.08,1.3a21.15,21.15,0,0,0-2.52-6.14c-1.56-2.35-3.33-3.26-5.34-2.74s-3.17,2.2-3.36,5a20.23,20.23,0,0,0,.78,6.64q2.68,10.32,8,8.94,3-.79,3.31-5A20.82,20.82,0,0,0,1026.94,843.63Z" transform="translate(-504.64 -346.44)"/><path class="cls-2" d="M732.86,839.58,624.73,867.84A8.8,8.8,0,0,1,614,861.57h0a8.82,8.82,0,0,1,6.28-10.73l108.13-28.26a8.81,8.81,0,0,1,10.72,6.28h0A8.81,8.81,0,0,1,732.86,839.58Z" transform="translate(-504.64 -346.44)"/><path class="cls-2" d="M994.46,790.53a13.48,13.48,0,0,0-5-7.42,1.44,1.44,0,0,0-2.11.44l-.37.65a1.44,1.44,0,0,0,.37,1.85,9.85,9.85,0,0,1,3.1,11.86,1.43,1.43,0,0,0,.59,1.8l.64.38a1.44,1.44,0,0,0,2.05-.65A13.48,13.48,0,0,0,994.46,790.53Z" transform="translate(-504.64 -346.44)"/><path class="cls-2" d="M1001.46,788.7A20.6,20.6,0,0,0,993,776.76a1.43,1.43,0,0,0-2,.49l-.21.37a1.44,1.44,0,0,0,.45,1.91,17.4,17.4,0,0,1,5.8,22.18,1.44,1.44,0,0,0,.54,1.89l.36.22a1.43,1.43,0,0,0,2-.57A20.57,20.57,0,0,0,1001.46,788.7Z" transform="translate(-504.64 -346.44)"/><path class="cls-2" d="M1007.6,787.09a27,27,0,0,0-11.46-15.86,1.44,1.44,0,0,0-2,.5h0a1.44,1.44,0,0,0,.46,1.92,24.15,24.15,0,0,1,8.25,31.54,1.43,1.43,0,0,0,.53,1.89h0a1.44,1.44,0,0,0,2-.55A27,27,0,0,0,1007.6,787.09Z" transform="translate(-504.64 -346.44)"/><path class="cls-2" d="M1014.25,785.35a33.86,33.86,0,0,0-14.69-20.08,1.44,1.44,0,0,0-2,.5l-.36.63a1.43,1.43,0,0,0,.47,1.93,30.31,30.31,0,0,1,10.46,40,1.42,1.42,0,0,0,.52,1.9l.63.38a1.44,1.44,0,0,0,2-.55A33.87,33.87,0,0,0,1014.25,785.35Z" transform="translate(-504.64 -346.44)"/></g><path class="cls-1" d="M2443,1280.65,2359.58,1364l11.53-62.57,63.92-63.91Zm0,0" transform="translate(-504.64 -346.44)"/><path class="cls-1" d="M2426.42,1190.83l8.61,46.73,7.94,43.09,11.9,64.53,26.08-21.41Zm0,0" transform="translate(-504.64 -346.44)"/><path class="cls-2" d="M2466.23,1376.62l-34-184.56,14.87-27.39a5.49,5.49,0,0,0-.95-6.5l-16.85-16.77a5.46,5.46,0,0,0-3.86-1.6h-32.91a5.46,5.46,0,0,0-3.87,1.6l-16.85,16.77a5.49,5.49,0,0,0-.95,6.5l14.87,27.39-34,184.56a5.48,5.48,0,0,0,2.19,5.45l51.89,37.21a5.47,5.47,0,0,0,6.39,0l51.88-37.21a5.48,5.48,0,0,0,2.19-5.45Zm-70.16-180.31h25.78l.57,3.08-33,33Zm-1.3-45.55h28.39L2435.5,1163l-12.11,22.31h-28.86L2382.42,1163Zm-8.85,100.64,38.91-38.92,18.79,101.91-69,69-11.48-8.24Zm23,156.69-25.35-18.19,62.42-62.42,8.8,47.71Zm0,0" transform="translate(-504.64 -346.44)"/><path class="cls-1" d="M766.25,1268.18l-103.61,17.24,40.76-39.37,79.41-13.21Zm0,0" transform="translate(-504.64 -346.44)"/><path class="cls-1" d="M800.77,1194.53l-18,38.31-16.56,35.34-24.8,52.91,30-2Zm0,0" transform="translate(-504.64 -346.44)"/><path class="cls-2" d="M733.4,1349.76l70.93-151.34,25-12.15a4.86,4.86,0,0,0,2.67-5.19l-3.52-20.89a4.84,4.84,0,0,0-2-3.15l-23.85-17a4.86,4.86,0,0,0-3.62-.84l-20.9,3.43a4.86,4.86,0,0,0-4.05,4.21l-3.41,27.55L650.41,1290.45a4.87,4.87,0,0,0-1.23,5.08l18.32,53.83a4.91,4.91,0,0,0,4.63,3.31l56.86-.1a4.87,4.87,0,0,0,4.41-2.81Zm42.54-167,18.68,13.35-1.18,2.53-41,6.83Zm22.65-33.68,20.56,14.71,2.58,15.29L801.41,1189l-20.91-15,2.78-22.42Zm-58.53,68.34,48.35-8L749.24,1293l-85.77,14.27-4.06-11.91ZM675.61,1342.9l-9-26.3,77.55-12.91-18.33,39.13Zm0,0" transform="translate(-504.64 -346.44)"/><path class="cls-1" d="M1556.62,440.23l38.2-64.19-73.7,8.09,11,17.44-89.73,58,13.43,21.23,89.73-58Zm0,0" transform="translate(-504.64 -346.44)"/><path class="cls-2" d="M1669.91,370.4l5.19-18a4.71,4.71,0,0,0-4.52-6h-49a4.7,4.7,0,0,0-4.71,4.7v75.14h-14a4.7,4.7,0,0,0-4.71,4.7v19.46h-13a4.7,4.7,0,0,0-4.71,4.7V479.9H1512.1a4.7,4.7,0,0,0-4.7,4.71v24.76h-68.26a4.7,4.7,0,0,0-4.71,4.7v41.52a4.7,4.7,0,0,0,4.71,4.7H1658a4.7,4.7,0,0,0,4.71-4.7V455.14a4.7,4.7,0,0,0-4.71-4.7h-13V431a4.7,4.7,0,0,0-4.71-4.7h-14.06V394.36h44.33a4.71,4.71,0,0,0,4.52-6ZM1443.84,518.77h63.56v32.12h-63.56Zm73-29.46h63.56v61.58H1516.8Zm136.53,61.58h-63.56v-91h63.55v91Zm-17.72-100.45h-28.12V435.69h28.12Zm24.89-78.73,3.82,13.24h-38.07v-29.1h38.07l-3.82,13.25a4.64,4.64,0,0,0,0,2.61Zm0,0" transform="translate(-504.64 -346.44)"/></svg>