<svg id="Layer_1" data-name="Layer 1" xmlns="http://www.w3.org/2000/svg" viewBox="0 0 129.77 52.97"><defs><style>.cls-1{fill:#fff;}.cls-2{fill:#65256d;}.cls-3{opacity:0.3;}</style></defs><title>BCardImg</title><rect class="cls-1" x="0.23" y="0.2" width="129.42" height="52.57"/><path class="cls-2" d="M344.61,170.1s0-.33,0-.94,0-1.54,0-2.73c0-2.4,0-5.92,0-10.46,0-9.08,0-22.2-.08-38.44l.15.14-129.41.06h0l.2-.2c0,18.41,0,36.17,0,52.57l-.19-.2L308,170l26.92.06,7.2,0H344l.64,0h-2.46l-7.16,0-26.88.06-92.92.09H215v-.19c0-16.4,0-34.16,0-52.57v-.21h.22l129.41.06h.14v.15c0,16.28-.06,29.43-.08,38.52,0,4.53,0,8,0,10.43,0,1.19,0,2.09,0,2.71S344.61,170.1,344.61,170.1Z" transform="translate(-214.98 -117.32)"/><path class="cls-2" d="M215.32,124.62c0-.12,28.92-.21,64.6-.21s64.61.09,64.61.21-28.92.2-64.61.2S215.32,124.73,215.32,124.62Z" transform="translate(-214.98 -117.32)"/><g class="cls-3"><path class="cls-2" d="M220.73,121.44a.94.94,0,1,1-.94-.93A.94.94,0,0,1,220.73,121.44Z" transform="translate(-214.98 -117.32)"/></g><g class="cls-3"><path class="cls-2" d="M224,121.44a.94.94,0,1,1-.94-.93A.94.94,0,0,1,224,121.44Z" transform="translate(-214.98 -117.32)"/></g><g class="cls-3"><path class="cls-2" d="M227.12,121.44a.94.94,0,1,1-.93-.93A.94.94,0,0,1,227.12,121.44Z" transform="translate(-214.98 -117.32)"/></g><g class="cls-3"><rect class="cls-2" x="11.2" y="15.84" width="31.26" height="31.26"/></g><path class="cls-2" d="M335.65,141.54c0,.11-16.08.2-35.92.2s-35.93-.09-35.93-.2,16.08-.21,35.93-.21S335.65,141.42,335.65,141.54Z" transform="translate(-214.98 -117.32)"/><path class="cls-2" d="M335.65,147.91c0,.11-16.08.2-35.92.2s-35.93-.09-35.93-.2,16.08-.21,35.93-.21S335.65,147.79,335.65,147.91Z" transform="translate(-214.98 -117.32)"/><path class="cls-2" d="M310.06,154.27a1.63,1.63,0,0,1-.47,0l-1.35,0-5,.07-16.35.06-16.36-.06-4.95-.07-1.35,0a1.57,1.57,0,0,1-.47,0,3.45,3.45,0,0,1,.47,0l1.35,0,4.95-.06,16.36-.06,16.35.06,5,.06,1.35,0A3.71,3.71,0,0,1,310.06,154.27Z" transform="translate(-214.98 -117.32)"/></svg>