<svg id="Layer_1" data-name="Layer 1" xmlns="http://www.w3.org/2000/svg" viewBox="0 0 39.28 39.28"><defs><style>.cls-1{opacity:0.8;}.cls-2{fill:#fff;}.cls-2,.cls-3{fill-rule:evenodd;}.cls-3{fill:#65256d;}</style></defs><title>BSettImg3</title><g class="cls-1"><path class="cls-2" d="M287.31,129.54a15.82,15.82,0,0,1,3.48,2.45l3.72-1.32,3.49,5.51-2.78,2.8a16.29,16.29,0,0,1,.73,4.19l3.56,1.7-1.43,6.37h-3.95a15.82,15.82,0,0,1-2.45,3.48l1.33,3.71-5.52,3.5-2.8-2.79a15.47,15.47,0,0,1-4.19.73l-1.69,3.57L272.44,162v-4a15.58,15.58,0,0,1-3.48-2.45L265.23,157l-3.5-5.52,2.79-2.8a15.87,15.87,0,0,1-.73-4.19l-3.56-1.69,1.42-6.38h4a15.58,15.58,0,0,1,2.45-3.48l-1.32-3.72,5.51-3.5,2.8,2.79a15.47,15.47,0,0,1,4.19-.73l1.7-3.57,6.37,1.43v3.95Zm-5.62,7.5a7,7,0,1,0,5.3,8.36A7,7,0,0,0,281.69,137Z" transform="translate(-260.23 -124.16)"/></g><path class="cls-3" d="M287.31,129.54a15.82,15.82,0,0,1,3.48,2.45l3.72-1.32,3.49,5.51-2.78,2.8a16.29,16.29,0,0,1,.73,4.19l3.56,1.7-1.43,6.37h-3.95a15.82,15.82,0,0,1-2.45,3.48l1.33,3.71-5.52,3.5-2.8-2.79a15.47,15.47,0,0,1-4.19.73l-1.69,3.57L272.44,162v-4a15.58,15.58,0,0,1-3.48-2.45L265.23,157l-3.5-5.52,2.79-2.8a15.87,15.87,0,0,1-.73-4.19l-3.56-1.69,1.42-6.38h4a15.58,15.58,0,0,1,2.45-3.48l-1.32-3.72,5.51-3.5,2.8,2.79a15.47,15.47,0,0,1,4.19-.73l1.7-3.57,6.37,1.43v3.95Zm-5.62,7.5a7,7,0,1,0,5.3,8.36A7,7,0,0,0,281.69,137Z" transform="translate(-260.23 -124.16)"/><g class="cls-1"><path class="cls-2" d="M287.31,129.54a15.82,15.82,0,0,1,3.48,2.45l3.72-1.32,3.49,5.51-2.78,2.8a16.29,16.29,0,0,1,.73,4.19l3.56,1.7-1.43,6.37h-3.95a15.82,15.82,0,0,1-2.45,3.48l1.33,3.71-5.52,3.5-2.8-2.79a15.47,15.47,0,0,1-4.19.73l-1.69,3.57L272.44,162v-4a15.58,15.58,0,0,1-3.48-2.45L265.23,157l-3.5-5.52,2.79-2.8a15.87,15.87,0,0,1-.73-4.19l-3.56-1.69,1.42-6.38h4a15.58,15.58,0,0,1,2.45-3.48l-1.32-3.72,5.51-3.5,2.8,2.79a15.47,15.47,0,0,1,4.19-.73l1.7-3.57,6.37,1.43v3.95Zm-5.62,7.5a7,7,0,1,0,5.3,8.36A7,7,0,0,0,281.69,137Z" transform="translate(-260.23 -124.16)"/></g></svg>