<svg id="Layer_1" data-name="Layer 1" xmlns="http://www.w3.org/2000/svg" viewBox="0 0 22.87 22.87"><defs><style>.cls-1{fill:#65256d;}.cls-1,.cls-3{fill-rule:evenodd;}.cls-2{opacity:0.4;}.cls-3{fill:#fff;}</style></defs><title>BSettImg4</title><path class="cls-1" d="M284.2,135.5a9.34,9.34,0,0,1,2,1.43l2.17-.77,2,3.21L288.8,141a9.46,9.46,0,0,1,.43,2.44l2.07,1-.83,3.71h-2.3a9.3,9.3,0,0,1-1.42,2l.77,2.17-3.21,2-1.63-1.62a9.61,9.61,0,0,1-2.44.43l-1,2.07-3.71-.83v-2.3a9.16,9.16,0,0,1-2-1.43l-2.16.78-2-3.22,1.62-1.62a9.6,9.6,0,0,1-.42-2.45l-2.08-1,.83-3.71h2.3a9.16,9.16,0,0,1,1.43-2l-.77-2.17,3.21-2,1.63,1.62a9,9,0,0,1,2.44-.42l1-2.08,3.71.83v2.3Zm-3.27,4.36a4.08,4.08,0,1,0,3.08,4.88A4.08,4.08,0,0,0,280.93,139.86Z" transform="translate(-268.43 -132.37)"/><g class="cls-2"><path class="cls-3" d="M284.2,135.5a9.34,9.34,0,0,1,2,1.43l2.17-.77,2,3.21L288.8,141a9.46,9.46,0,0,1,.43,2.44l2.07,1-.83,3.71h-2.3a9.3,9.3,0,0,1-1.42,2l.77,2.17-3.21,2-1.63-1.62a9.61,9.61,0,0,1-2.44.43l-1,2.07-3.71-.83v-2.3a9.16,9.16,0,0,1-2-1.43l-2.16.78-2-3.22,1.62-1.62a9.6,9.6,0,0,1-.42-2.45l-2.08-1,.83-3.71h2.3a9.16,9.16,0,0,1,1.43-2l-.77-2.17,3.21-2,1.63,1.62a9,9,0,0,1,2.44-.42l1-2.08,3.71.83v2.3Zm-3.27,4.36a4.08,4.08,0,1,0,3.08,4.88A4.08,4.08,0,0,0,280.93,139.86Z" transform="translate(-268.43 -132.37)"/></g></svg>