<svg id="Layer_1" data-name="Layer 1" xmlns="http://www.w3.org/2000/svg" viewBox="0 0 35.89 35.85"><defs><style>.cls-1{fill:#263238;}.cls-2{fill:#65256d;}</style></defs><title>BSettImg5</title><path class="cls-1" d="M281.53,137.63a4.8,4.8,0,0,1,1.5.47,6.3,6.3,0,0,1,3,3,6.4,6.4,0,0,1-.4,6.19,6.05,6.05,0,0,1-1.22,1.42,6.21,6.21,0,0,1-1.64,1.05,6.5,6.5,0,0,1-7.52-1.69,6.57,6.57,0,0,1-1.54-3.45,6.43,6.43,0,0,1,2.29-5.77,6.3,6.3,0,0,1,4-1.45,4.6,4.6,0,0,1,1.55.21c0,.05-.55-.11-1.55-.07a6.25,6.25,0,0,0-3.83,1.51,6.11,6.11,0,0,0-1.68,2.3,6.19,6.19,0,0,0-.44,3.23,5.88,5.88,0,0,0,.49,1.7,5.72,5.72,0,0,0,1,1.56,6.14,6.14,0,0,0,7.1,1.59,6,6,0,0,0,1.57-1,5.89,5.89,0,0,0,1.16-1.34,6.17,6.17,0,0,0,1-3.1,6,6,0,0,0-.54-2.8,6.3,6.3,0,0,0-2.81-3C282.08,137.77,281.52,137.68,281.53,137.63Z" transform="translate(-261.92 -125.88)"/><path class="cls-2" d="M286.61,130.85s0-.07,0-.22,0-.39,0-.68c0-.62,0-1.51,0-2.67l0,.06-5.77-1.26.11,0-1.52,3.23,0,.06h-.06a14.48,14.48,0,0,0-3.77.67l-.06,0-.06,0-2.53-2.51h.16l-5,3.18.05-.17c.38,1,.79,2.18,1.21,3.36l0,.08-.06.07a14,14,0,0,0-2.19,3.12l-.05.08H267l-3.57,0,.16-.13c-.41,1.81-.84,3.76-1.29,5.76l-.09-.19,3.22,1.53.1.05v.1a14.58,14.58,0,0,0,.66,3.75l0,.1-.07.08-2.52,2.53,0-.22,3.17,5-.22-.07,3.37-1.2.1,0,.08.07a14.44,14.44,0,0,0,3.11,2.19h0l.1.16h0v3.56l-.14-.18,5.77,1.3-.21.1,1.54-3.23,0-.09h.11a14.24,14.24,0,0,0,3.75-.65l.1,0,.07.07L286.9,160l-.21,0,5-3.15-.07.19c-.4-1.14-.8-2.26-1.19-3.36l0-.1.06-.07a14.07,14.07,0,0,0,2.2-3.11l.05-.08h3.66l-.15.11c.46-2,.89-3.93,1.31-5.76l.07.16-3.22-1.54-.07,0v-.08a14.2,14.2,0,0,0-.65-3.76l0-.07.05-.05,2.53-2.53v.14c-1.22-1.94-2.26-3.59-3.14-5l.09,0-3.37,1.17h0l0,0a15.4,15.4,0,0,0-2.29-1.77l-.61-.37-.21-.12.22.1c.14.07.36.18.63.34A14.27,14.27,0,0,1,289.8,133h-.06l3.36-1.22.06,0,0,.06,3.19,5,0,.07-.06.07-2.51,2.53,0-.12a14.73,14.73,0,0,1,.68,3.83l-.08-.11,3.23,1.52.1,0,0,.1c-.41,1.83-.83,3.74-1.28,5.77l0,.12h-3.69l.14-.08a14.66,14.66,0,0,1-2.24,3.18l0-.16,1.2,3.36,0,.13-.11.07-5,3.16-.11.08-.1-.1c-.83-.83-1.68-1.66-2.53-2.52l.17.05a14.45,14.45,0,0,1-3.84.67l.16-.1c-.51,1.06-1,2.13-1.53,3.22l-.06.13-.14,0-5.77-1.29-.14,0v-3.71h0l.1.16h0a14.91,14.91,0,0,1-3.19-2.24l.19,0-3.37,1.2-.13.05-.08-.12-3.16-5-.08-.12.11-.1,2.52-2.53-.05.17a14.67,14.67,0,0,1-.66-3.83l.1.14L262,143l-.12-.06,0-.13,1.3-5.76,0-.13H267l-.14.08a14.28,14.28,0,0,1,2.25-3.17l0,.15-1.2-3.37,0-.11.09-.06q2.64-1.65,5-3.15l.09,0,.07.07,2.52,2.53-.12,0a14.44,14.44,0,0,1,3.83-.65l-.09.06c.55-1.16,1.07-2.25,1.54-3.22l0-.07.07,0,5.76,1.32,0,0v0c0,1.15,0,2,0,2.65,0,.29,0,.51,0,.68A1.1,1.1,0,0,1,286.61,130.85Z" transform="translate(-261.92 -125.88)"/></svg>