<svg id="Layer_1" data-name="Layer 1" xmlns="http://www.w3.org/2000/svg" viewBox="0 0 70.29 70.29"><defs><style>.cls-1{opacity:0.8;}.cls-2{fill:#ebebeb;fill-rule:evenodd;}</style></defs><title>BSettImg1</title><g class="cls-1"><path class="cls-2" d="M293.18,118.28a28.56,28.56,0,0,1,6.22,4.38l6.66-2.36,6.25,9.87-5,5a28.48,28.48,0,0,1,1.3,7.5l6.38,3-2.56,11.4-7.06,0a28.56,28.56,0,0,1-4.38,6.22l2.37,6.66-9.87,6.25-5-5a28.48,28.48,0,0,1-7.5,1.3L278,179l-11.4-2.56v-7.06a28.62,28.62,0,0,1-6.23-4.38l-6.65,2.37-6.26-9.87,5-5a28.49,28.49,0,0,1-1.31-7.5l-6.38-3,2.56-11.4h7.06a28.32,28.32,0,0,1,4.39-6.23l-2.37-6.66,9.87-6.25,5,5a28.49,28.49,0,0,1,7.5-1.31l3-6.38,11.4,2.56,0,7.06Zm-10.05,13.41a12.53,12.53,0,1,0,9.48,15A12.53,12.53,0,0,0,283.13,131.69Z" transform="translate(-244.72 -108.66)"/></g></svg>