<svg id="Layer_1" data-name="Layer 1" xmlns="http://www.w3.org/2000/svg" viewBox="0 0 124.06 104.74"><defs><style>.cls-1{fill:#d5d5d5;}.cls-2{fill:#fff;}.cls-3{fill:#bcbcbc;}</style></defs><title>choose-bg1</title><path class="cls-1" d="M624.28,1217.31a52.1,52.1,0,1,1-52.09-52.09A52.09,52.09,0,0,1,624.28,1217.31Z" transform="translate(-500.22 -1165.22)"/><circle class="cls-2" cx="572.19" cy="1217.31" r="43.87" transform="translate(-922.51 -853.59) rotate(-22.5)"/><path class="cls-1" d="M608.11,1217.31a35.93,35.93,0,1,1-35.92-35.93A35.92,35.92,0,0,1,608.11,1217.31Z" transform="translate(-500.22 -1165.22)"/><path class="cls-2" d="M588.25,1217.31a16.07,16.07,0,1,1-16.06-16.07A16.06,16.06,0,0,1,588.25,1217.31Z" transform="translate(-500.22 -1165.22)"/><path class="cls-1" d="M580.7,1217.31a8.52,8.52,0,1,1-8.51-8.52A8.51,8.51,0,0,1,580.7,1217.31Z" transform="translate(-500.22 -1165.22)"/><polygon class="cls-3" points="7.61 91.78 0 96.09 6.51 98.11 14.12 93.8 7.61 91.78"/><polygon class="cls-3" points="12.51 100.42 4.9 104.74 6.51 98.11 14.12 93.8 12.51 100.42"/><path class="cls-3" d="M509.48,1261.77c-.68-1.19,6.67-6.63,18.13-13.13s28.17-13.1,28.17-13.1-14.26,10.93-25.72,17.43S510.15,1263,509.48,1261.77Z" transform="translate(-500.22 -1165.22)"/><path class="cls-1" d="M506.73,1263.33c4-2.49,8-4.89,12.08-7.27s8.14-4.7,12.21-7,8.19-4.6,12.32-6.85,8.26-4.48,12.44-6.62c-4,2.49-8,4.89-12.08,7.27s-8.14,4.7-12.21,7-8.19,4.61-12.31,6.85S510.92,1261.19,506.73,1263.33Z" transform="translate(-500.22 -1165.22)"/><polygon class="cls-3" points="35.42 14.95 28.75 9.29 29.09 16.1 35.76 21.76 35.42 14.95"/><polygon class="cls-3" points="28.99 22.53 22.32 16.86 29.09 16.1 35.76 21.76 28.99 22.53"/><path class="cls-3" d="M531.72,1183.36c.89-1,8.52,4,18.56,12.51s22,21.94,22,21.94-15.17-9.63-25.21-18.16S530.83,1184.4,531.72,1183.36Z" transform="translate(-500.22 -1165.22)"/><path class="cls-1" d="M529.31,1181.31c3.71,2.89,7.35,5.86,11,8.84s7.21,6,10.82,9,7.14,6.11,10.67,9.21,7.05,6.21,10.5,9.41c-3.71-2.89-7.35-5.86-11-8.84s-7.21-6-10.82-9-7.14-6.11-10.67-9.21S532.76,1184.51,529.31,1181.31Z" transform="translate(-500.22 -1165.22)"/></svg>