<svg id="OBJECTS" xmlns="http://www.w3.org/2000/svg" viewBox="0 0 657.48 292.91"><defs><style>.cls-1{fill:#fdab00;}.cls-2{fill:#ff7800;}.cls-3{fill:#ff9407;}.cls-4{fill:#4b1654;}.cls-5{fill:#611f69;}.cls-6{fill:none;stroke:#ff7800;stroke-miterlimit:10;stroke-width:0.72px;}.cls-7{fill:#ffc29f;}.cls-8{fill:#ffa980;}.cls-9{fill:#2b2f3a;}.cls-10{fill:#dd8e03;}.cls-11{fill:#21323f;}.cls-12{fill:#a2c5d2;}.cls-13{fill:#91b9c4;}.cls-14{fill:#192730;}.cls-15{fill:#c3dbe6;}</style></defs><title>ChooseImg</title><path class="cls-1" d="M1444.35,430s18.55-5.22,17.32-17-15.36-14.09-7.17-24.5,10.45-15.77,4.73-21.27,4.74-9.25,4.3-19.4-10.59-12.23-17-7.71-1.86,12.41-4.4,18.61-11.73,8.28-13.29,16,6.74,14.13,6.84,19.75-10.58,11.85-10.57,20.12S1440.84,429.86,1444.35,430Z" transform="translate(-837.93 -162.17)"/><path class="cls-2" d="M1446.05,433.4a177,177,0,0,1-2-21.26,188.82,188.82,0,0,1,.47-21.41,144.33,144.33,0,0,1,3.33-21.17,108,108,0,0,1,7.11-20.23,108.92,108.92,0,0,0-7.67,20.09,146.25,146.25,0,0,0-3.92,21.2,191.36,191.36,0,0,0-1,21.55,177.92,177.92,0,0,0,1.43,21.6Z" transform="translate(-837.93 -162.17)"/><path class="cls-2" d="M1441.12,446.71s-12.2-8.39-8.88-17.27,6.26-6.95,6-19.24,4.22-19.41,17.59-20.74,18.84-6.18,25.63-8.31,11.49-.93,13.28,3.47,0,11.25-8.67,12.49S1472.82,400.93,1472,410s-5,11.28-13,12.8S1460.53,444.24,1441.12,446.71Z" transform="translate(-837.93 -162.17)"/><path class="cls-1" d="M1440.79,444.92a68.26,68.26,0,0,1,11.38-34.46,59.52,59.52,0,0,1,28.08-22.38A59,59,0,0,0,1453,411a66.68,66.68,0,0,0-10.18,34Z" transform="translate(-837.93 -162.17)"/><path class="cls-3" d="M1436,433.76s-14.22-1.94-16.59-10.23,3.3-11.35-4.72-14.39-13.91-2-15.52-9.95-4.11-13.52-10.42-16.87-1-12.41,5.75-9.6,8.94,8.15,18.49,7.33c10.78-.92,17,1.79,16,10.21-.82,6.55.79,7.44,7.83,10.35,12,5,9.7,17.33,5.85,25.56S1436,433.76,1436,433.76Z" transform="translate(-837.93 -162.17)"/><path class="cls-2" d="M1433.23,431.46a36.84,36.84,0,0,0-2.94-16.65,58.32,58.32,0,0,0-9-14.68,79.75,79.75,0,0,0-12.44-12.06,90.27,90.27,0,0,0-14.68-9.34,90.77,90.77,0,0,1,15,9A80.18,80.18,0,0,1,1422,399.54a59.56,59.56,0,0,1,9.54,14.73,38.34,38.34,0,0,1,3.5,17.32Z" transform="translate(-837.93 -162.17)"/><path class="cls-4" d="M1455.78,429h-30.87s-2.53,13.42,4.55,26.07h21.77C1458.32,442.42,1455.78,429,1455.78,429Z" transform="translate(-837.93 -162.17)"/><path class="cls-5" d="M1457.87,434.5a54.17,54.17,0,0,0-.43-5.5h-34.19a54.17,54.17,0,0,0-.43,5.5Z" transform="translate(-837.93 -162.17)"/><path class="cls-2" d="M896.86,435.48c0-4.91,9.53-18.72,8.08-24.23-2.9-11-13.4-7.76-12.37-20.12.58-7.11-3.91-13.7-17.45-12.75s-16.66-4.32-23.65-6-11.63-.11-13.12,4.45.8,11.33,9.63,11.94S860.05,391,861.57,400s9.12,3.72,15.75,8.5c5.37,3.88-3,7.54,2.37,14.5C883,427.24,894.24,428.19,896.86,435.48Z" transform="translate(-837.93 -162.17)"/><path class="cls-1" d="M895,433.89a67.41,67.41,0,0,0-12.73-33.48,59.61,59.61,0,0,0-29.08-21.12,60.15,60.15,0,0,1,29.87,20.52A68.81,68.81,0,0,1,897,433.67Z" transform="translate(-837.93 -162.17)"/><path class="cls-1" d="M908.94,433.45s-19.93-2.9-20.24-15.24,10.85-16.35,1-26-9.82-15.27-4.63-21.74-6.16-8.95-7.07-19.53,9.31-14.1,16.52-10.29,3.61,12.62,7.08,18.71,13.27,7,15.93,14.77-.39,14.37.26,20.21,7.89,12,9,20.61S912.56,432.87,908.94,433.45Z" transform="translate(-837.93 -162.17)"/><path class="cls-2" d="M907.85,437.24a183.48,183.48,0,0,0-.88-22.33,197.18,197.18,0,0,0-3.43-22.13,153,153,0,0,0-6.36-21.48,113.85,113.85,0,0,0-10.16-20,113.88,113.88,0,0,1,10.62,19.8,153,153,0,0,1,6.87,21.45,200.92,200.92,0,0,1,4,22.19,186.27,186.27,0,0,1,1.38,22.56Z" transform="translate(-837.93 -162.17)"/><path class="cls-2" d="M934.19,423.29c2-9.06-5.16-6.63,3.24-10.41s10.82-4,12-12.68,3.52-14.77,10.06-18.78.26-13.37-6.8-9.91-9,9.32-19.34,9.08c-11.62-.27-18.13,3.05-16.45,12,1.31,7-1,12.93-8.37,16.52-12.54,6.12.57,17.48,4.41,29.93C919.59,421.94,932.19,432.34,934.19,423.29Z" transform="translate(-837.93 -162.17)"/><path class="cls-1" d="M913.08,437.31a41.24,41.24,0,0,1,2.61-18.8,63.75,63.75,0,0,1,9.25-16.43,86,86,0,0,1,13-13.54,97,97,0,0,1,15.44-10.61,97.23,97.23,0,0,0-15.12,11,86.08,86.08,0,0,0-12.54,13.76A62.49,62.49,0,0,0,917.1,419a39.52,39.52,0,0,0-2.05,18Z" transform="translate(-837.93 -162.17)"/><path class="cls-4" d="M891.35,429h30.88s2.53,13.42-4.55,26.07H895.91C888.82,442.42,891.35,429,891.35,429Z" transform="translate(-837.93 -162.17)"/><path class="cls-5" d="M889.27,434.5a54.17,54.17,0,0,1,.43-5.5h34.19a54.17,54.17,0,0,1,.43,5.5Z" transform="translate(-837.93 -162.17)"/><path class="cls-3" d="M1190.64,380.82a18,18,0,0,0-4.47-9.22,44.31,44.31,0,0,0-7.87-6.77c-3.59-2.58-7.47-5.09-11.86-5.6a9.92,9.92,0,0,0-6.11,1.08,6.27,6.27,0,0,0-3.22,5.1c0,2.57,1.8,4.79,3.81,6.39s4.33,2.9,5.91,4.93c2,2.63,2.56,6.12,4.22,9a12.9,12.9,0,0,0,7.26,5.83c2.71.85,7.41,1.2,9.48-1.16A12.39,12.39,0,0,0,1190.64,380.82Z" transform="translate(-837.93 -162.17)"/><path class="cls-1" d="M1191.36,381.07a13.07,13.07,0,0,1-.8-7.7c.69-2.95,2.67-5.43,3.7-8.27s1.11-6.17,2.75-8.76a8.3,8.3,0,0,1,9.3-3.37,8,8,0,0,1,5.29,8.29c-.3,2.45-1.77,4.6-2.43,7-.94,3.41-.19,7.13-1.24,10.51a10.42,10.42,0,0,1-5.73,6.4c-1.29.55-2.66.88-4,1.37-.86.33-1.86.92-2.82.66C1193.44,386.64,1192,382.77,1191.36,381.07Z" transform="translate(-837.93 -162.17)"/><path class="cls-2" d="M1197.93,402.79a8.31,8.31,0,0,1,6.75-4.24c2-.1,3.91.52,5.88.68,2.19.19,4.43-.18,6.57.3s4.28,2.24,4.11,4.43a4.32,4.32,0,0,1-3,3.44,11.8,11.8,0,0,1-4.74.41,14.65,14.65,0,0,0-4.77.19c-1.85.5-3.4,1.72-5.1,2.59s-4.7,1.71-5.92-.34S1196.78,404.9,1197.93,402.79Z" transform="translate(-837.93 -162.17)"/><path class="cls-6" d="M1192.21,430.31s2.11-26.31,15.86-27.76" transform="translate(-837.93 -162.17)"/><path class="cls-6" d="M1192.39,436.34s-2.18-41,8.68-70.47" transform="translate(-837.93 -162.17)"/><path class="cls-6" d="M1192.67,412s.44-28.22-23.45-43.91" transform="translate(-837.93 -162.17)"/><path class="cls-4" d="M1207.46,429.31h-30.52s-2.5,13.26,4.5,25.76H1203C1210,442.57,1207.46,429.31,1207.46,429.31Z" transform="translate(-837.93 -162.17)"/><path class="cls-5" d="M1209.52,434.74a52.69,52.69,0,0,0-.43-5.43H1175.3s-.3,2.05-.43,5.43Z" transform="translate(-837.93 -162.17)"/><polygon class="cls-7" points="174.2 283.67 164.19 283.67 163.21 267.45 172.98 266.83 174.2 283.67"/><polygon class="cls-7" points="120.9 283.31 111.12 283.01 112.87 268.79 121.92 270.18 120.9 283.31"/><polygon class="cls-5" points="129.68 114.78 110.08 277.25 122.08 277.25 150.55 159.02 162.68 277.25 174.54 277.25 171.63 114.78 129.68 114.78"/><path class="cls-7" d="M1039,217.15s2-3.82,1.83-5.58-.5-4.27,1.28-7c.42-.63,1.58-2.3,1.58-2.3a2.06,2.06,0,0,1,.46,2.1,19.49,19.49,0,0,0-.83,2.24s.86-1.57,4.15-2.53c1.54-.45,7.61-2,7.61-2,.86,0,.74,1.24-.95,2,0,0,.76.78-.63,1.56,0,0,1,.73-1,1.8,0,0,.77.61-1.21,1.8-1.77,1.06-4.64,2.59-5.27,3.6a41,41,0,0,0-2.21,6Z" transform="translate(-837.93 -162.17)"/><path class="cls-1" d="M976.11,199.72s-12.2,3.57-15,4.3,0,18.38,3.79,38.65,2.68,34.27,2.68,34.27h41.95s1.74-65.45.78-67.67c-1.75-4-19.35-9.6-19.35-9.6Z" transform="translate(-837.93 -162.17)"/><path class="cls-8" d="M978.56,185.22s.42,10.05-1.33,14.08l2.14,4.06,5.64,3.43,3.57-2.68,1-3.06V185.22Z" transform="translate(-837.93 -162.17)"/><path class="cls-9" d="M974.1,177.8a5.26,5.26,0,0,1,.12-4c.46-1,1.25-1.88,1.75-2.89a9.23,9.23,0,0,1,1.37-2.6,3.11,3.11,0,0,1,2.77-.74,5.09,5.09,0,0,1,2.55,1.48,7.43,7.43,0,0,1,1.94,3.56,12,12,0,0,1-.14,4.95,8.28,8.28,0,0,1-1.74,4.11,4.8,4.8,0,0,1-3.12,1.53c-1.17.1-2.87-.23-3.52-1.33-.32-.53-.48-1.17-.76-1.73A22.12,22.12,0,0,1,974.1,177.8Z" transform="translate(-837.93 -162.17)"/><path class="cls-7" d="M995.56,169.21s2.43,22.27-4.09,25.47c-4.21,2.08-10.94-.14-12-10.06s3.45-14.75,8.66-15.41A24.8,24.8,0,0,1,995.56,169.21Z" transform="translate(-837.93 -162.17)"/><path class="cls-7" d="M979.37,180.29a1.93,1.93,0,0,0-3,0c-1.46,1.66,1.21,5.11,3.23,5.28Z" transform="translate(-837.93 -162.17)"/><path class="cls-9" d="M982.78,172.39c1.2.16,2.43,0,3.64.17a19.81,19.81,0,0,1,4.07,1.28,14.17,14.17,0,0,0,6.23,1,7.69,7.69,0,0,0,5.43-2.92,6.13,6.13,0,0,0-4.46-9.7c-2.41-.2-4.67,1-6.94,1.84a23.54,23.54,0,0,1-7.57,1.41,14.49,14.49,0,0,0-3.16.22,3.44,3.44,0,0,0-2.43,1.87c-.51,1.27.32,2.25,1.25,3A8.12,8.12,0,0,0,982.78,172.39Z" transform="translate(-837.93 -162.17)"/><path class="cls-10" d="M977.65,198.09s1.4,4.86,7.36,8.7c-.2,1.82-5.3,5.52-7.48-.57a31.28,31.28,0,0,1-1.42-6.5Z" transform="translate(-837.93 -162.17)"/><path class="cls-10" d="M985,206.79a11.5,11.5,0,0,0,4.62-8.54l1.36,1.42s1,6.07-1.12,8.87C988.4,210.46,985.2,208,985,206.79Z" transform="translate(-837.93 -162.17)"/><path class="cls-7" d="M964.73,277.58s4.23,6.41,6.06,7.87A14.8,14.8,0,0,1,974,290l-5.37,7.31a7.15,7.15,0,0,1-4.25-4.94c-1-3.86-2-4.29-3.67-8l-1.67-3.72Z" transform="translate(-837.93 -162.17)"/><path class="cls-1" d="M960.5,204.66s-6.22.38-9.14,11.76-6.54,30.08-7.51,38.06c-.42,3.37,17.54,33,17.54,33s3.57-3.24,6.75-5.94c0,0-9.93-20.75-9.93-28.33,0,0,8.91-24.75,9.2-32.23S967.74,205.44,960.5,204.66Z" transform="translate(-837.93 -162.17)"/><path class="cls-1" d="M1010.34,209.27c2.32.35,9.43,16.19,13.95,24.36l4.52,8.16,10.94-28a6.21,6.21,0,0,1,5.83,2.63s-5.83,37.77-7.29,42-6,7.29-14-2.77-21.88-29.61-23-31.8S996.87,207.23,1010.34,209.27Z" transform="translate(-837.93 -162.17)"/><path class="cls-11" d="M1002.12,444.67h9.34s1,0,4.08,3.21,12,.15,15.31,6.57h-29.46S998.62,449.34,1002.12,444.67Z" transform="translate(-837.93 -162.17)"/><path class="cls-11" d="M945.68,454.45c-1.12-3.75,1.5-6.47,2.33-9.78.51-2,10.75-3.3,11.76,1.17a24.36,24.36,0,0,1,.2,8.61Z" transform="translate(-837.93 -162.17)"/><rect class="cls-4" x="964.28" y="291.77" width="14.73" height="2.33" transform="translate(-656.28 767.8) rotate(-55.66)"/><rect class="cls-4" x="129.68" y="114.78" width="42" height="3.01"/><polygon class="cls-4" points="150.55 159.02 156.39 137.21 152.54 178.44 150.55 159.02"/><polygon class="cls-10" points="172.5 74.95 172.7 58.96 176.41 80.34 172.5 74.95"/><path class="cls-10" d="M963.78,236.4l2.72-9.9-1,19.35S963.84,237.39,963.78,236.4Z" transform="translate(-837.93 -162.17)"/><path class="cls-5" d="M1366.72,453.08l-19.42-85h7.26l15,85A1.44,1.44,0,0,1,1366.72,453.08Z" transform="translate(-837.93 -162.17)"/><path class="cls-5" d="M1317.66,453.08l-19.42-85h7.26l15,85A1.44,1.44,0,0,1,1317.66,453.08Z" transform="translate(-837.93 -162.17)"/><path class="cls-12" d="M1250.45,453.08l19.42-85h-7.26l-15,85A1.44,1.44,0,0,0,1250.45,453.08Z" transform="translate(-837.93 -162.17)"/><path class="cls-12" d="M1374.1,300.78h-39.49a6.06,6.06,0,0,0-5.69,4l-19.32,53.06a6.06,6.06,0,0,0,5.69,8.13h39.5a6,6,0,0,0,5.69-4l19.31-53.06A6.05,6.05,0,0,0,1374.1,300.78Z" transform="translate(-837.93 -162.17)"/><path class="cls-12" d="M1358.61,370.19H1257.12a2.12,2.12,0,0,1-2.12-2.12h0a2.12,2.12,0,0,1,2.12-2.11h101.49a2.12,2.12,0,0,1,2.12,2.11h0A2.12,2.12,0,0,1,1358.61,370.19Z" transform="translate(-837.93 -162.17)"/><path class="cls-13" d="M1358.61,370.19h-40.94a2.12,2.12,0,0,1-2.11-2.12h0a2.12,2.12,0,0,1,2.11-2.11h40.94a2.12,2.12,0,0,1,2.12,2.11h0A2.12,2.12,0,0,1,1358.61,370.19Z" transform="translate(-837.93 -162.17)"/><path class="cls-12" d="M1296.3,453.08l19.43-85h-7.26l-15,85A1.44,1.44,0,0,0,1296.3,453.08Z" transform="translate(-837.93 -162.17)"/><path class="cls-11" d="M1328.66,246.05a6.85,6.85,0,0,0-6.32,6.63c-.48,6.32.65,9.6-2.07,15.92s-4.93,14.81,6.45,15.58,14.87.3,18.37,3,15.44-5.54,11.16-12.84-5.91-11.47-4.16-17.11-1.93-11.82-8.75-14.49C1337.62,240.53,1332.94,240.87,1328.66,246.05Z" transform="translate(-837.93 -162.17)"/><path class="cls-1" d="M1325.71,282.24s1.59,5-2.33,19.25-5.18,19-8.87,21.69c-2.28,1.65-28.15,1.65-28.15,1.65v-7.29l22.76-2.77s2.88-14.12,5.79-23c1-3.06,2.69-11,6.29-12.59S1325.71,282.24,1325.71,282.24Z" transform="translate(-837.93 -162.17)"/><path class="cls-1" d="M1354.92,306.65c-1.07,8.06-4,27.81-4,27.81h-30.24s.91-12.08-.57-18.64a9.56,9.56,0,0,0-1.08-2.95c-2.34-3.75-4.44-7.25-4.47-11.11a11,11,0,0,1,.39-2.89c1.35-5.05,3.39-16.24,5.93-19.35S1336,276.8,1336,276.8s16.48.05,21.42,2.82c1.32.73,1.82,2.39,1.93,4.37C1359.71,290.16,1355.73,300.55,1354.92,306.65Z" transform="translate(-837.93 -162.17)"/><path class="cls-10" d="M1350,309.28s-23,1.85-29.92,6.54a9.56,9.56,0,0,0-1.08-2.95c-2.34-3.75-4.44-7.25-4.47-11.11,1.53,3.17,5.43,7.39,15.35,7.52C1345.87,309.46,1350,309.28,1350,309.28Z" transform="translate(-837.93 -162.17)"/><path class="cls-10" d="M1354.92,306.65c-1.07,8.06-4,27.81-4,27.81l1.45-46.67,7-3.8C1359.71,290.16,1355.73,300.55,1354.92,306.65Z" transform="translate(-837.93 -162.17)"/><path class="cls-7" d="M1343.29,318.46s-14.42.54-19,.83a31.56,31.56,0,0,0-6.67-1.75c-3.86-.3-7.26,3.57-8.28,7.29h33.43Z" transform="translate(-837.93 -162.17)"/><path class="cls-1" d="M1358.73,281.16a94,94,0,0,1,7,18.44c2.77,10.5,6.56,21.15,3.06,24.06s-26,1.75-26,1.75l-.59-7.87,17.12-2.77s-6.47-16.19-7.49-19.11-1.79-11.89,1.8-13.45S1358.73,281.16,1358.73,281.16Z" transform="translate(-837.93 -162.17)"/><polygon class="cls-7" points="438.38 283.98 433.23 283.98 432.56 276.37 438.85 275.75 438.38 283.98"/><path class="cls-14" d="M1276.31,446.15s1.9,2,1.27,6.35c-.29,2.08-4.81,1.94-12.44,1.94h-7.6a1.37,1.37,0,0,1-.87-2.43,5.81,5.81,0,0,1,2-1.05,72.51,72.51,0,0,0,12.47-4.81Z" transform="translate(-837.93 -162.17)"/><path class="cls-4" d="M1337.33,334.46c0,2.62,6,11.52,4.79,20.2-.79,5.68-5.67,11.3-17.07,11.3-15.56,0-40.35-.17-44.41,0-3.21.13-4.75.2-2.86,6.27,4.47,14.37.69,38.83-.48,71.94h-6.8s-6-34.36-8.53-51c-3.89-25.86-9.79-36,1.46-41.37,11.9-5.67,57.3-17.35,57.3-17.35Z" transform="translate(-837.93 -162.17)"/><polygon class="cls-7" points="453.05 283.98 447.9 283.98 447.22 276.37 453.51 275.75 453.05 283.98"/><path class="cls-11" d="M1291,446.15s1.9,2,1.27,6.35c-.3,2.08-4.82,1.94-12.44,1.94h-7.6a1.37,1.37,0,0,1-.88-2.43,6,6,0,0,1,2-1.05,72.51,72.51,0,0,0,12.47-4.81Z" transform="translate(-837.93 -162.17)"/><path class="cls-5" d="M1350.93,334.46c0,2.62,6,11.52,4.78,20.2-.78,5.68-5.67,11.3-17.06,11.3h-44.41c-3.22,0-4.75.2-2.87,6.27,4.47,14.37,2.48,39.12.24,71.94h-6.81s-6.73-34.36-9.23-51c-3.89-25.86-9.8-36,1.45-41.37,11.91-5.67,53.83-17.35,53.83-17.35Z" transform="translate(-837.93 -162.17)"/><path class="cls-7" d="M1327.79,277.16s-.09,6.44,4.28,10.14c0,0,9.27-4.33,12.63-10.13A87.77,87.77,0,0,0,1327.79,277.16Z" transform="translate(-837.93 -162.17)"/><path class="cls-7" d="M1329.68,277a2.68,2.68,0,0,0,2.28-2.91c0-2.69.27-7.79.27-7.79l8.6.73s-.72,8.43.66,10l1.39,1.55S1331.06,280.53,1329.68,277Z" transform="translate(-837.93 -162.17)"/><path class="cls-8" d="M1332,273s5.66.87,8.68-1.53l.19-4.45-8.87,1.92Z" transform="translate(-837.93 -162.17)"/><path class="cls-7" d="M1327,249.19s-7.58,20.8,3.06,23.13,12.84-8.75,12.84-8.75,2.75-.65,3.18-3-2.79-1.43-2.79-1.43,2.83-8.55-3.6-11.43C1332.89,244.65,1328.27,246.23,1327,249.19Z" transform="translate(-837.93 -162.17)"/><path class="cls-11" d="M1328,246.65s2.43,11.67,15.27,12.45c0,0,3.3-8.27,1.07-11.77S1331.77,241.65,1328,246.65Z" transform="translate(-837.93 -162.17)"/><path class="cls-11" d="M1316.26,322.49h-50.69l-12.14-33.36a2.17,2.17,0,0,1,2-2.92h46.06a2.18,2.18,0,0,1,2,1.43Z" transform="translate(-837.93 -162.17)"/><path class="cls-11" d="M1346.38,325.64H1296a1.57,1.57,0,0,1-1.57-1.57h0a1.57,1.57,0,0,1,1.57-1.58h50.37a1.58,1.58,0,0,1,1.58,1.58h0A1.57,1.57,0,0,1,1346.38,325.64Z" transform="translate(-837.93 -162.17)"/><path class="cls-11" d="M1316.1,325.64h-50.37a1.57,1.57,0,0,1-1.58-1.57h0a1.58,1.58,0,0,1,1.58-1.58h50.37a1.57,1.57,0,0,1,1.57,1.58h0A1.57,1.57,0,0,1,1316.1,325.64Z" transform="translate(-837.93 -162.17)"/><path class="cls-5" d="M1435.77,452.45l-28.3-123.86h10.58L1440,452.45A2.1,2.1,0,0,1,1435.77,452.45Z" transform="translate(-837.93 -162.17)"/><path class="cls-5" d="M1150.1,452.45l-28.3-123.86h10.58l21.91,123.86A2.1,2.1,0,0,1,1150.1,452.45Z" transform="translate(-837.93 -162.17)"/><path class="cls-15" d="M1038.19,452.45l28.3-123.86h-10.57L1034,452.45A2.1,2.1,0,0,0,1038.19,452.45Z" transform="translate(-837.93 -162.17)"/><path class="cls-15" d="M1310,452.45l28.29-123.86h-10.57l-21.92,123.86A2.1,2.1,0,0,0,1310,452.45Z" transform="translate(-837.93 -162.17)"/><rect class="cls-12" x="196.07" y="163.47" width="408.77" height="5.9" rx="2.55"/><path class="cls-13" d="M1350,331.54h89.82a3,3,0,0,0,3-3h0a3,3,0,0,0-3-2.95H1350a3,3,0,0,0-2.94,2.95h0A3,3,0,0,0,1350,331.54Z" transform="translate(-837.93 -162.17)"/><path class="cls-11" d="M1122.41,322.49h50.69l12.14-33.36a2.17,2.17,0,0,0-2-2.92h-46.06a2.18,2.18,0,0,0-2,1.43Z" transform="translate(-837.93 -162.17)"/><path class="cls-11" d="M1092.29,325.64h50.37a1.57,1.57,0,0,0,1.57-1.57h0a1.57,1.57,0,0,0-1.57-1.58h-50.37a1.58,1.58,0,0,0-1.58,1.58h0A1.57,1.57,0,0,0,1092.29,325.64Z" transform="translate(-837.93 -162.17)"/><path class="cls-11" d="M1122.57,325.64h50.37a1.57,1.57,0,0,0,1.58-1.57h0a1.58,1.58,0,0,0-1.58-1.58h-50.37a1.57,1.57,0,0,0-1.57,1.58h0A1.57,1.57,0,0,0,1122.57,325.64Z" transform="translate(-837.93 -162.17)"/></svg>