<svg id="Layer_1" data-name="Layer 1" xmlns="http://www.w3.org/2000/svg" xmlns:xlink="http://www.w3.org/1999/xlink" viewBox="0 0 216.02 152"><defs><style>.cls-1,.cls-2{fill:none;}.cls-2{stroke:#5dd8ee;stroke-width:0.3px;}.cls-3{fill:#11c7dc;}.cls-4{fill:url(#Unnamed_Pattern_5);}.cls-5{fill:url(#Unnamed_Pattern_5-3);}.cls-6{fill:#ffd006;}.cls-7{fill:#ffbe08;}.cls-8{fill:#fca531;}.cls-9{fill:#d69f37;}.cls-10{fill:#ffefa1;}.cls-11{fill:#865313;}.cls-12{fill:#efe8d3;}.cls-13{fill:#ffcc8f;}.cls-14{fill:#efb06c;}.cls-15{fill:#dd9247;}.cls-16{fill:#ffefde;}.cls-17{fill:#fff4eb;}.cls-18{fill:#f25928;}.cls-19{fill:#9a1d00;}.cls-20{fill:#d4e6f2;}.cls-21{fill:#ff8d68;}.cls-22{fill:#b82b07;}.cls-23{fill:#fd621a;}.cls-24{fill:#fcffff;}.cls-25{fill:#b2f478;}.cls-26{fill:#8edd43;}.cls-27{fill:#7ccc27;}.cls-28{fill:#7f4721;}.cls-29{fill:#af6b38;}.cls-30{fill:#d18959;}.cls-31{fill:#5b3318;}</style><pattern id="Unnamed_Pattern_5" data-name="Unnamed Pattern 5" width="57.6" height="57.6" patternTransform="matrix(0.34, -0.4, 0.38, 0.36, 88.62, 193.64)" patternUnits="userSpaceOnUse" viewBox="0 0 57.6 57.6"><rect class="cls-1" width="57.6" height="57.6"/><rect class="cls-1" width="57.6" height="57.6"/><rect class="cls-1" width="57.6" height="57.6"/><line class="cls-2" x1="52.5" y1="3.6" x2="55.5" y2="3.6"/><line class="cls-2" x1="38.1" y1="3.6" x2="41.1" y2="3.6"/><line class="cls-2" x1="23.7" y1="3.6" x2="26.7" y2="3.6"/><line class="cls-2" x1="9.3" y1="3.6" x2="12.3" y2="3.6"/><line class="cls-2" x1="45.3" y1="10.8" x2="48.3" y2="10.8"/><line class="cls-2" x1="30.9" y1="10.8" x2="33.9" y2="10.8"/><line class="cls-2" x1="16.5" y1="10.8" x2="19.5" y2="10.8"/><line class="cls-2" x1="2.1" y1="10.8" x2="5.1" y2="10.8"/><line class="cls-2" x1="52.5" y1="18" x2="55.5" y2="18"/><line class="cls-2" x1="38.1" y1="18" x2="41.1" y2="18"/><line class="cls-2" x1="23.7" y1="18" x2="26.7" y2="18"/><line class="cls-2" x1="9.3" y1="18" x2="12.3" y2="18"/><line class="cls-2" x1="45.3" y1="25.2" x2="48.3" y2="25.2"/><line class="cls-2" x1="30.9" y1="25.2" x2="33.9" y2="25.2"/><line class="cls-2" x1="16.5" y1="25.2" x2="19.5" y2="25.2"/><line class="cls-2" x1="2.1" y1="25.2" x2="5.1" y2="25.2"/><line class="cls-2" x1="52.5" y1="32.4" x2="55.5" y2="32.4"/><line class="cls-2" x1="38.1" y1="32.4" x2="41.1" y2="32.4"/><line class="cls-2" x1="23.7" y1="32.4" x2="26.7" y2="32.4"/><line class="cls-2" x1="9.3" y1="32.4" x2="12.3" y2="32.4"/><line class="cls-2" x1="45.3" y1="39.6" x2="48.3" y2="39.6"/><line class="cls-2" x1="30.9" y1="39.6" x2="33.9" y2="39.6"/><line class="cls-2" x1="16.5" y1="39.6" x2="19.5" y2="39.6"/><line class="cls-2" x1="2.1" y1="39.6" x2="5.1" y2="39.6"/><line class="cls-2" x1="52.5" y1="46.8" x2="55.5" y2="46.8"/><line class="cls-2" x1="38.1" y1="46.8" x2="41.1" y2="46.8"/><line class="cls-2" x1="23.7" y1="46.8" x2="26.7" y2="46.8"/><line class="cls-2" x1="9.3" y1="46.8" x2="12.3" y2="46.8"/><line class="cls-2" x1="45.3" y1="54" x2="48.3" y2="54"/><line class="cls-2" x1="30.9" y1="54" x2="33.9" y2="54"/><line class="cls-2" x1="16.5" y1="54" x2="19.5" y2="54"/><line class="cls-2" x1="2.1" y1="54" x2="5.1" y2="54"/><line class="cls-2" x1="54" y1="2.1" x2="54" y2="5.1"/><line class="cls-2" x1="39.6" y1="2.1" x2="39.6" y2="5.1"/><line class="cls-2" x1="25.2" y1="2.1" x2="25.2" y2="5.1"/><line class="cls-2" x1="10.8" y1="2.1" x2="10.8" y2="5.1"/><line class="cls-2" x1="46.8" y1="9.3" x2="46.8" y2="12.3"/><line class="cls-2" x1="32.4" y1="9.3" x2="32.4" y2="12.3"/><line class="cls-2" x1="18" y1="9.3" x2="18" y2="12.3"/><line class="cls-2" x1="3.6" y1="9.3" x2="3.6" y2="12.3"/><line class="cls-2" x1="54" y1="16.5" x2="54" y2="19.5"/><line class="cls-2" x1="39.6" y1="16.5" x2="39.6" y2="19.5"/><line class="cls-2" x1="25.2" y1="16.5" x2="25.2" y2="19.5"/><line class="cls-2" x1="10.8" y1="16.5" x2="10.8" y2="19.5"/><line class="cls-2" x1="46.8" y1="23.7" x2="46.8" y2="26.7"/><line class="cls-2" x1="32.4" y1="23.7" x2="32.4" y2="26.7"/><line class="cls-2" x1="18" y1="23.7" x2="18" y2="26.7"/><line class="cls-2" x1="3.6" y1="23.7" x2="3.6" y2="26.7"/><line class="cls-2" x1="54" y1="30.9" x2="54" y2="33.9"/><line class="cls-2" x1="39.6" y1="30.9" x2="39.6" y2="33.9"/><line class="cls-2" x1="25.2" y1="30.9" x2="25.2" y2="33.9"/><line class="cls-2" x1="10.8" y1="30.9" x2="10.8" y2="33.9"/><line class="cls-2" x1="46.8" y1="38.1" x2="46.8" y2="41.1"/><line class="cls-2" x1="32.4" y1="38.1" x2="32.4" y2="41.1"/><line class="cls-2" x1="18" y1="38.1" x2="18" y2="41.1"/><line class="cls-2" x1="3.6" y1="38.1" x2="3.6" y2="41.1"/><line class="cls-2" x1="54" y1="45.3" x2="54" y2="48.3"/><line class="cls-2" x1="39.6" y1="45.3" x2="39.6" y2="48.3"/><line class="cls-2" x1="25.2" y1="45.3" x2="25.2" y2="48.3"/><line class="cls-2" x1="10.8" y1="45.3" x2="10.8" y2="48.3"/><line class="cls-2" x1="46.8" y1="52.5" x2="46.8" y2="55.5"/><line class="cls-2" x1="32.4" y1="52.5" x2="32.4" y2="55.5"/><line class="cls-2" x1="18" y1="52.5" x2="18" y2="55.5"/><line class="cls-2" x1="3.6" y1="52.5" x2="3.6" y2="55.5"/></pattern><pattern id="Unnamed_Pattern_5-3" data-name="Unnamed Pattern 5-3" width="57.6" height="57.6" patternTransform="matrix(0.34, -0.4, 0.38, 0.36, 87.54, 235.87)" patternUnits="userSpaceOnUse" viewBox="0 0 57.6 57.6"><rect class="cls-1" width="57.6" height="57.6"/><rect class="cls-1" width="57.6" height="57.6"/><rect class="cls-1" width="57.6" height="57.6"/><line class="cls-2" x1="52.5" y1="3.6" x2="55.5" y2="3.6"/><line class="cls-2" x1="38.1" y1="3.6" x2="41.1" y2="3.6"/><line class="cls-2" x1="23.7" y1="3.6" x2="26.7" y2="3.6"/><line class="cls-2" x1="9.3" y1="3.6" x2="12.3" y2="3.6"/><line class="cls-2" x1="45.3" y1="10.8" x2="48.3" y2="10.8"/><line class="cls-2" x1="30.9" y1="10.8" x2="33.9" y2="10.8"/><line class="cls-2" x1="16.5" y1="10.8" x2="19.5" y2="10.8"/><line class="cls-2" x1="2.1" y1="10.8" x2="5.1" y2="10.8"/><line class="cls-2" x1="52.5" y1="18" x2="55.5" y2="18"/><line class="cls-2" x1="38.1" y1="18" x2="41.1" y2="18"/><line class="cls-2" x1="23.7" y1="18" x2="26.7" y2="18"/><line class="cls-2" x1="9.3" y1="18" x2="12.3" y2="18"/><line class="cls-2" x1="45.3" y1="25.2" x2="48.3" y2="25.2"/><line class="cls-2" x1="30.9" y1="25.2" x2="33.9" y2="25.2"/><line class="cls-2" x1="16.5" y1="25.2" x2="19.5" y2="25.2"/><line class="cls-2" x1="2.1" y1="25.2" x2="5.1" y2="25.2"/><line class="cls-2" x1="52.5" y1="32.4" x2="55.5" y2="32.4"/><line class="cls-2" x1="38.1" y1="32.4" x2="41.1" y2="32.4"/><line class="cls-2" x1="23.7" y1="32.4" x2="26.7" y2="32.4"/><line class="cls-2" x1="9.3" y1="32.4" x2="12.3" y2="32.4"/><line class="cls-2" x1="45.3" y1="39.6" x2="48.3" y2="39.6"/><line class="cls-2" x1="30.9" y1="39.6" x2="33.9" y2="39.6"/><line class="cls-2" x1="16.5" y1="39.6" x2="19.5" y2="39.6"/><line class="cls-2" x1="2.1" y1="39.6" x2="5.1" y2="39.6"/><line class="cls-2" x1="52.5" y1="46.8" x2="55.5" y2="46.8"/><line class="cls-2" x1="38.1" y1="46.8" x2="41.1" y2="46.8"/><line class="cls-2" x1="23.7" y1="46.8" x2="26.7" y2="46.8"/><line class="cls-2" x1="9.3" y1="46.8" x2="12.3" y2="46.8"/><line class="cls-2" x1="45.3" y1="54" x2="48.3" y2="54"/><line class="cls-2" x1="30.9" y1="54" x2="33.9" y2="54"/><line class="cls-2" x1="16.5" y1="54" x2="19.5" y2="54"/><line class="cls-2" x1="2.1" y1="54" x2="5.1" y2="54"/><line class="cls-2" x1="54" y1="2.1" x2="54" y2="5.1"/><line class="cls-2" x1="39.6" y1="2.1" x2="39.6" y2="5.1"/><line class="cls-2" x1="25.2" y1="2.1" x2="25.2" y2="5.1"/><line class="cls-2" x1="10.8" y1="2.1" x2="10.8" y2="5.1"/><line class="cls-2" x1="46.8" y1="9.3" x2="46.8" y2="12.3"/><line class="cls-2" x1="32.4" y1="9.3" x2="32.4" y2="12.3"/><line class="cls-2" x1="18" y1="9.3" x2="18" y2="12.3"/><line class="cls-2" x1="3.6" y1="9.3" x2="3.6" y2="12.3"/><line class="cls-2" x1="54" y1="16.5" x2="54" y2="19.5"/><line class="cls-2" x1="39.6" y1="16.5" x2="39.6" y2="19.5"/><line class="cls-2" x1="25.2" y1="16.5" x2="25.2" y2="19.5"/><line class="cls-2" x1="10.8" y1="16.5" x2="10.8" y2="19.5"/><line class="cls-2" x1="46.8" y1="23.7" x2="46.8" y2="26.7"/><line class="cls-2" x1="32.4" y1="23.7" x2="32.4" y2="26.7"/><line class="cls-2" x1="18" y1="23.7" x2="18" y2="26.7"/><line class="cls-2" x1="3.6" y1="23.7" x2="3.6" y2="26.7"/><line class="cls-2" x1="54" y1="30.9" x2="54" y2="33.9"/><line class="cls-2" x1="39.6" y1="30.9" x2="39.6" y2="33.9"/><line class="cls-2" x1="25.2" y1="30.9" x2="25.2" y2="33.9"/><line class="cls-2" x1="10.8" y1="30.9" x2="10.8" y2="33.9"/><line class="cls-2" x1="46.8" y1="38.1" x2="46.8" y2="41.1"/><line class="cls-2" x1="32.4" y1="38.1" x2="32.4" y2="41.1"/><line class="cls-2" x1="18" y1="38.1" x2="18" y2="41.1"/><line class="cls-2" x1="3.6" y1="38.1" x2="3.6" y2="41.1"/><line class="cls-2" x1="54" y1="45.3" x2="54" y2="48.3"/><line class="cls-2" x1="39.6" y1="45.3" x2="39.6" y2="48.3"/><line class="cls-2" x1="25.2" y1="45.3" x2="25.2" y2="48.3"/><line class="cls-2" x1="10.8" y1="45.3" x2="10.8" y2="48.3"/><line class="cls-2" x1="46.8" y1="52.5" x2="46.8" y2="55.5"/><line class="cls-2" x1="32.4" y1="52.5" x2="32.4" y2="55.5"/><line class="cls-2" x1="18" y1="52.5" x2="18" y2="55.5"/><line class="cls-2" x1="3.6" y1="52.5" x2="3.6" y2="55.5"/></pattern></defs><title>cod-img</title><g id="OBJECTS"><path class="cls-3" d="M35.83,127.44a24.38,24.38,0,0,0,2,5.17,36.24,36.24,0,0,0,11.28,12.25A37,37,0,0,0,69.3,152c17.86.39,26-16.59,38.15-27.16,9.17-8,18.52-9,29.86-9.74a82.29,82.29,0,0,0,22.87-4.61c14.23-5.25,27.88-17,32.63-32.45,6-19.42-6.62-38.68-23.61-46.16a42.26,42.26,0,0,0-29.13-1.76c-9.35,2.84-19,6.74-28.77,3.59-8.76-2.82-15.1-10.56-21.66-17.29C78,4.57,62.52-1,50,12.82c-6.64,7.35-11.11,18.49-7,27.7,2.77,6.3,8.83,10.24,12.18,16.18,5.62,10,1.1,20.58-4.34,29.4-4,6.47-8.79,12.46-12.12,19.34S33.89,120.13,35.83,127.44Z" transform="translate(0.01 0)"/><ellipse class="cls-4" cx="65.43" cy="45.55" rx="24.04" ry="25.25"/><ellipse class="cls-5" cx="151.07" cy="99.63" rx="24.04" ry="25.25"/><path class="cls-6" d="M131.45,139.8c-.24,0-71.49-15.75-78.57-17.26L69.94,51.73l20.93,5.45,21.67,5.65,22.58,5.89,11.94,3.15Z" transform="translate(0.01 0)"/><path class="cls-7" d="M131.45,139.8c-.24,0-8.75-1.9-12.6-2.69l16.23-68.34h.06l11.94,3.15Z" transform="translate(0.01 0)"/><polygon class="cls-8" points="106.6 89.14 84.87 83.71 90.88 57.18 112.56 62.83 106.6 89.14"/><path class="cls-9" d="M95.24,112.77l2-8.09a1.67,1.67,0,0,1,2-1.27l19.52,5.26a1.78,1.78,0,0,1,1.21,2.15l-2,8.09a1.68,1.68,0,0,1-2,1.27l-19.52-5.26A1.78,1.78,0,0,1,95.24,112.77Z" transform="translate(0.01 0)"/><path class="cls-10" d="M97.27,114a1.38,1.38,0,0,1-.88-1.66L98,105.62a1.31,1.31,0,0,1,1.6-1h0l18.23,4.91h.07a1.4,1.4,0,0,1,.87,1.66L117.14,118a1.32,1.32,0,0,1-1.57,1h0L97.3,114.08Z" transform="translate(0.01 0)"/><polygon class="cls-9" points="97 108.69 97.25 107.64 118.61 113.42 118.35 114.47 97 108.69"/><path class="cls-11" d="M106,102.65,107.16,98l-.77-.21-1.33,5.32,1.75.48.17-.68Zm-2.44-.71.42-1.69.88.24.17-.68-.88-.24.39-1.56.92.27.18-.71-1.71-.46-1.34,5.33,1.74.47.18-.71Zm-.76-3.68a1.87,1.87,0,0,0,0-1.05,1,1,0,0,0-.74-.57l-1.14-.32-1.33,5.33,1.11.3a1,1,0,0,0,.93-.14,2.3,2.3,0,0,0,.55-1.06Zm-1.66,2.94a.37.37,0,0,1-.35.06l-.25-.07,1-4.07.22.06a.38.38,0,0,1,.29.27,1.3,1.3,0,0,1,0,.62l-.68,2.63a1,1,0,0,1-.22.5Zm7.58-2.78-1.33,5.33.77.22,1.33-5.33Zm8.37,5.38a.52.52,0,0,0-.27-.47.61.61,0,0,0,.45-.24,2.76,2.76,0,0,0,.28-.72,4.31,4.31,0,0,0,.13-.8.76.76,0,0,0-.14-.53.92.92,0,0,0-.55-.34l-1.27-.34-1.33,5.36.78.22.62-2.52.25.09a.42.42,0,0,1,.3.21,1,1,0,0,1,0,.49c-.31,1.23-.46,1.87-.45,1.91l.77.22a8.48,8.48,0,0,1,.25-1.11,5.79,5.79,0,0,0,.19-1.43Zm-.44-1.2a.45.45,0,0,1-.16.22.26.26,0,0,1-.24,0l-.3-.08.38-1.55.27.07a.28.28,0,0,1,.28.22,1.47,1.47,0,0,1-.07.59h0a1.73,1.73,0,0,1-.16.52Zm4.12-.85-.77-.23-.94,1.88h0v-2.1l-.74-.21.06,3.44-.54,2.1.78.22.53-2.1Zm-7.89,2.76.42-1.7.88.24.17-.68-.88-.24.39-1.54.92.25.18-.7-1.7-.47L111.94,105l1.73.48.18-.7ZM111,101.63l-.6,1.65h0l.22-1.76L110.9,99l-.74-.21-.54,5.55,1,.26,2.06-5.12-.72-.2Z" transform="translate(0.01 0)"/><polygon class="cls-12" points="60.13 92.52 134.31 127.4 131.12 140.94 52.89 122.54 60.13 92.52"/><path class="cls-13" d="M148.48,142.83a93.8,93.8,0,0,1-11,3c-.53.12-1.06.21-1.6.32a5.55,5.55,0,0,1-1,.09c-2.65,0-14.87.12-16.43,0h0l-1.1.23c-2,.43-3.87.81-5.42,1.11a28.7,28.7,0,0,1-5.85.47c-5.71-.15-17.92-.86-28.06-4.2,0,0-54.51-14.84-54.77-15.43l-.22-.08c1.63-4.84,3.93-11.73,5.9-17.54l.28.1c19.51,5.13,24.61.09,25-.39a9.68,9.68,0,0,0,2.5-.36,32.74,32.74,0,0,1,7.29-1.06,35,35,0,0,1,6.3.39h0a33,33,0,0,1,17.34,8.57v.23l3.14.72c5.34,1.26,12.23,3.15,16.27,5.08,0,0,5.46,2.1,4.19,7.13a5.11,5.11,0,0,1-.34,1.11,5.4,5.4,0,0,1-.85,1.38l.14.14a77.06,77.06,0,0,0,12.52.59l.67-.08c2-.25,12.54-1.31,15.66,3.15a6.65,6.65,0,0,1,.33.58l.14-.6c1.69,0,7,0,8.86,3.4a5.49,5.49,0,0,1,.48,1.24.57.57,0,0,1-.42.67Z" transform="translate(0.01 0)"/><path class="cls-14" d="M28.87,110.81c.74-2.11,1.41-4.21,2-5.85.91.23,18.45,4.81,23.24,5.55h.08c-.43.48-5.53,5.53-25,.39Z" transform="translate(0.01 0)"/><path class="cls-15" d="M102.25,135.46l.14-.51,2.11.45-.07.54A10.24,10.24,0,0,1,102.25,135.46Z" transform="translate(0.01 0)"/><path class="cls-14" d="M139,137.56c-7.38-2.42-15.15-1.14-18.91-.24a14.36,14.36,0,0,1-5.54.21c-3.63-.54-7.69-1.35-10.09-1.87a6.4,6.4,0,0,0,6.39-3.33,5.54,5.54,0,0,1-.84,1.38l.13.14a76.12,76.12,0,0,0,12.53.58l.66-.07C125.31,134.08,135.87,133,139,137.56Z" transform="translate(0.01 0)"/><path class="cls-14" d="M90.7,119.3,81.18,117c-2.89-4.72-10.54-7.4-10.88-7.52a33,33,0,0,1,17.34,8.57v.23l3.14.72Z" transform="translate(0.01 0)"/><path class="cls-15" d="M76.31,115.81c2.61.44,5.22.94,7.81,1.49s5.17,1.13,7.75,1.75,5.16,1.3,7.7,2c1.28.36,2.55.75,3.82,1.16a29.73,29.73,0,0,1,3.77,1.47h0a8.79,8.79,0,0,1,2,1.24,7.4,7.4,0,0,1,1.56,1.74,5.33,5.33,0,0,1,.53,4.55,5.73,5.73,0,0,0,0-2.26,4.84,4.84,0,0,0-.91-2,7.3,7.3,0,0,0-1.55-1.49,9.17,9.17,0,0,0-1.85-1h0a69.1,69.1,0,0,0-7.53-2.36c-2.53-.73-5.1-1.38-7.67-2.11l-7.68-2.1Z" transform="translate(0.01 0)"/><path class="cls-14" d="M148.34,140.93a12.09,12.09,0,0,0-12.43,5.26,5.55,5.55,0,0,1-1,.09c-2.64,0-14.86.12-16.42,0h0c6-1.38,20-4.14,20-4.14a2.06,2.06,0,0,0,1.44-.94l-.08-1.85-.74-1.74a2.84,2.84,0,0,1,.33.56l.14-.6C141.15,137.49,146.49,137.58,148.34,140.93Z" transform="translate(0.01 0)"/><path class="cls-16" d="M103,127.56c-.18,1.18-.44,2.93-.62,4.05a1.58,1.58,0,0,0,.85,1.65,14.64,14.64,0,0,0,4.15,1.15,2.42,2.42,0,0,0,2.31-.91,5.4,5.4,0,0,0,.74-4.76,2.56,2.56,0,0,0-1.6-1.75,15,15,0,0,0-4.3-.72A1.52,1.52,0,0,0,103,127.56Z" transform="translate(0.01 0)"/><path class="cls-17" d="M142,144.77a10.78,10.78,0,0,1,4.2-2.8,1,1,0,0,1,.84.21,2.21,2.21,0,0,0,1.47.63S143.88,145.23,142,144.77Z" transform="translate(0.01 0)"/><path class="cls-16" d="M140.34,141.43a.33.33,0,0,1,0,.14.86.86,0,0,1-.2.33,1.53,1.53,0,0,1-.42.34,4.41,4.41,0,0,1-.78.32,9.55,9.55,0,0,1-1.5.33c-.5.07-1,.11-1.45.18s-.94.14-1.41.24l-2,.39-.29-.24a4.36,4.36,0,0,1,.57-.83c1.8-2.1,5.23-2.22,6.5-2.2h.48Z" transform="translate(0.01 0)"/><path class="cls-15" d="M108.93,134.67a6.46,6.46,0,0,1-1.52.84,7.82,7.82,0,0,1-1.71.38,11.89,11.89,0,0,1-3.47-.21h0c-1.43-.1-2.85-.25-4.28-.38l-4.27-.46c-1.42-.14-2.84-.33-4.26-.5s-2.83-.39-4.25-.57h.06a28,28,0,0,1-4.46-.61A31.78,31.78,0,0,1,76.5,132a28.33,28.33,0,0,1-4.1-1.83l-1-.55-.94-.6c-.64-.38-1.21-.89-1.81-1.33a37.26,37.26,0,0,0,4,1.87l1,.39,1,.36c.69.22,1.39.43,2.09.61,1.4.38,2.81.67,4.24.91a36.19,36.19,0,0,0,4.26.44h.06c1.42.18,2.85.33,4.27.54l4.25.58c1.42.2,2.84.42,4.26.67s2.83.46,4.24.72h0a13.86,13.86,0,0,0,3.25.58A6.74,6.74,0,0,0,108.93,134.67Z" transform="translate(0.01 0)"/><path class="cls-15" d="M140.1,138.75a5.35,5.35,0,0,0-1.25-2.1,8.43,8.43,0,0,0-4-2.1,19.29,19.29,0,0,0-4.34-.58,33.11,33.11,0,0,0-4.34.2,32.73,32.73,0,0,1,4.31.29,21.29,21.29,0,0,1,4.17.85,9.86,9.86,0,0,1,1.92.83,6.25,6.25,0,0,1,1.62,1.23,4.62,4.62,0,0,1,1.16,3.08,4.09,4.09,0,0,1,0,.7v.07l-.14.09a2.56,2.56,0,0,1-.58.22,8.07,8.07,0,0,1-1.36.3c-.46.08-1,.12-1.44.21s-1,.16-1.48.26l-1.47.35-4.19,1c-1.89.46-3.79.92-5.68,1.4s-3.78,1-5.66,1.5c1.93-.29,3.84-.65,5.76-1s3.84-.71,5.75-1.05l3.77-.76,2-.39c.47-.09.94-.18,1.41-.24s1-.11,1.45-.19a9.53,9.53,0,0,0,1.5-.32,4.41,4.41,0,0,0,.78-.32,1.7,1.7,0,0,0,.42-.34,1.38,1.38,0,0,0,.2-.33.38.38,0,0,1,0-.15v-.28A6.25,6.25,0,0,0,140.1,138.75Zm-.74,2.56v-.11l0,.23a.61.61,0,0,1,0-.12Z" transform="translate(0.01 0)"/><path class="cls-18" d="M32.78,99.62c-.06,0-.81,2.1-1.92,5.34l-2,5.85c-.68,2-1.4,4.2-2.13,6.3-1.35,4-2.69,8-3.75,11.2-1.21,3.61-2,6.09-2.1,6.15L14,132.35l.1-.38c.21-.77,2.33-7.35,4.69-14.5,3-9.17,6.43-19.46,6.84-20.5Z" transform="translate(0.01 0)"/><path class="cls-19" d="M18.78,117.55c-2.36,7.2-4.48,13.71-4.69,14.5l-.1.39c-6.07-1.8-13.95-4.13-14-4.07l4.62-14.55c3.19-10.07,6.86-21.7,6.82-21.72s8,2.77,14.18,5C25.21,98.09,21.8,108.38,18.78,117.55Z" transform="translate(0.01 0)"/><path class="cls-20" d="M26.74,117.14c-1.35,4-2.69,8-3.75,11.2-1.21,3.62-2,6.09-2.1,6.15l-6.9-2.1c-6.07-1.8-13.95-4.13-14-4.07l4.62-14.55c.18.11,5.16,3.36,14.16,3.74A44.26,44.26,0,0,0,26.74,117.14Z" transform="translate(0.01 0)"/><path class="cls-21" d="M188.64,84.51A24,24,0,0,1,193,74h0a14.63,14.63,0,0,0-2.61-1.34c-.46-.19-.9-.34-1.32-.48a28.94,28.94,0,0,1-3.1,4.75h0a21,21,0,0,1,.56,5.76,3.49,3.49,0,0,1,0,.71,8.8,8.8,0,0,1-.18,1.49,16.63,16.63,0,0,0,1.1,9.8,13.88,13.88,0,0,1-1.19-2,12,12,0,0,1-1.1-3.68c-.41-3-.81-5.25-1.18-7-.18-.82-.37-1.49-.52-2.1a14.3,14.3,0,0,0-.91,1.38,14.69,14.69,0,0,0-1.65,4.11,12.13,12.13,0,0,0-.29,4.2l-.08.08A50.82,50.82,0,0,0,190.36,99l.15-.22A25,25,0,0,1,188.64,84.51ZM193,61.4v-.09a16.89,16.89,0,0,1-2.35-.26h-.08c-.1.22-.67,1.28-1.51,2.82l.25.16s2.06,1.6.74,5.81c1,.61,2.15,1.33,3.09,2l.15-.25C195,65,193,61.45,193,61.45Zm8.44,36.39h-.07a9.59,9.59,0,0,1-3.57-6.91,13.37,13.37,0,0,1,0-2.53,15,15,0,0,1,1.42-5.43c.9-1.88,1.64-3.6,2.25-5.17,5.35-13.76.69-16.24.69-16.24v-.07a23.67,23.67,0,0,0-4.12-.22h-.15v.17s4.18,5.11,0,13.8l-.11.19a30,30,0,0,0,2.9,2,9.33,9.33,0,0,1-3.49-1,41.3,41.3,0,0,0-4.06,11c-.92,4.61-.88,9.82,1.85,14.27l-.06.11a25.86,25.86,0,0,0,3.88,1.74s1.06-2.32,2.67-5.71Z" transform="translate(0.01 0)"/><path class="cls-22" d="M197.79,75.32c-.4-.31-.79-.63-1.16-1a23,23,0,0,0-2.73-2.1l-.72-.48c-.94-.63-2-1.36-3.09-2a9.55,9.55,0,0,0-3.23-1.47l-.16-.1c-.56,1.05-1.16,2.1-1.76,3.23h0a12.18,12.18,0,0,1,4.18.69,12.46,12.46,0,0,1,1.32.47A15.07,15.07,0,0,1,193,73.92c.19.12.37.24.57.39a25.67,25.67,0,0,0,3.57,2.1,9.33,9.33,0,0,0,3.49,1A30.23,30.23,0,0,1,197.79,75.32Z" transform="translate(0.01 0)"/><path class="cls-23" d="M197.92,61.33v-.18a31.7,31.7,0,0,1-4.87.13v.09s1.93,3.53.3,10.11l-.14.25.71.48a23.14,23.14,0,0,1,2.74,2.1c.36.34.76.66,1.15,1l.11-.19C202.1,66.43,197.88,61.37,197.92,61.33Zm4.25,0v.07s4.66,2.47-.69,16.23c-.61,1.58-1.35,3.3-2.25,5.19a15.18,15.18,0,0,0-1.39,8,9.66,9.66,0,0,0,3.57,6.92h.07c.37-.8.79-1.67,1.22-2.59C207.77,84.51,216,67.34,216,67.34a26.6,26.6,0,0,0-13.84-6Zm-9,26a40.77,40.77,0,0,1,4.06-11,27.82,27.82,0,0,1-3.57-2.1,5.23,5.23,0,0,0-.57-.39h0a24.09,24.09,0,0,0-4.4,10.5,24.85,24.85,0,0,0,1.91,14.19l-.15.22a43.48,43.48,0,0,0,4.55,2.81v-.11c-2.73-4.45-2.78-9.66-1.85-14.27Zm-3.79-23.39-.26-.15c-.65,1.22-1.47,2.72-2.39,4.4l.16.09a9.55,9.55,0,0,1,3.23,1.47C191.43,65.53,189.38,63.92,189.38,63.92ZM181,85.39a14.69,14.69,0,0,1,1.65-4.11,13.56,13.56,0,0,1,.91-1.37c-.86-3-1.47-3-1.47-3H182c-.63,1.15-1.25,2.26-1.81,3.27-1.63,3-2.8,5-2.81,5h0c1.07,1.61,2.17,3.07,3.27,4.42l.08-.07a12.12,12.12,0,0,1,.24-4.16Zm4-14h0l-.8,1.45.13.07a11.37,11.37,0,0,1,1.73,4,28.77,28.77,0,0,0,3.1-4.73,12.76,12.76,0,0,0-4.19-.71Z" transform="translate(0.01 0)"/><path class="cls-24" d="M190.64,60.93h0c-.1.22-.67,1.28-1.51,2.83-.65,1.22-1.47,2.72-2.39,4.4L185,71.38l-.8,1.45c-.73,1.37-1.5,2.71-2.21,4-.63,1.16-1.25,2.27-1.81,3.28-1.63,3-2.8,5-2.81,5l-4.94-3.39V81.7l2.1-3.76c3.61-6.43,10.62-18.95,11.07-19.72C185.74,58.38,190.51,60.91,190.64,60.93Z" transform="translate(0.01 0)"/><path class="cls-22" d="M186.36,84.82a17.87,17.87,0,0,0,.23-2.19,21.14,21.14,0,0,0-.56-5.77h0A11.08,11.08,0,0,0,184.27,73l-.13-.08c-.74,1.36-1.51,2.71-2.22,4H182s.61,0,1.47,3a67.16,67.16,0,0,1,1.7,9,11.84,11.84,0,0,0,1.1,3.66,13.35,13.35,0,0,0,1.19,2A16.46,16.46,0,0,1,186.36,84.82Z" transform="translate(0.01 0)"/><path class="cls-20" d="M201.47,97.76c-1.61,3.38-2.67,5.65-2.65,5.7a26.85,26.85,0,0,1-3.88-1.73,43.34,43.34,0,0,1-4.54-2.81,50.9,50.9,0,0,1-9.85-9.22q-1.74-2.13-3.27-4.42h0c-.07,0-4.94-3.4-4.94-3.4V81.8L174.45,78s2.23.69,5.67,2.18c.77.34,1.59.72,2.47,1.14.46.21.94.44,1.42.69q1.23.61,2.55,1.32c.68.37,1.38.78,2.09,1.17,1.46.85,3,1.8,4.51,2.84s3.12,2.21,4.68,3.48,3.32,2.83,4.87,4.37C202.26,96.1,201.85,97,201.47,97.76Z" transform="translate(0.01 0)"/><path class="cls-25" d="M124.55,24.73s-.28-1.45-.71-3.61c-.54-2.69-1.3-6.52-2-10.18C120.73,5.28,119.68,0,119.69,0a46,46,0,0,1-14,7.55A33.45,33.45,0,0,1,91.08,9.17S89.92,8.9,88,8.58a79.47,79.47,0,0,0-10.21-1c-6.56-.19-14.28.55-20,4,0,0,8.38,34.32,8.34,33.61a43.54,43.54,0,0,1,18.27-5.4A46.57,46.57,0,0,1,94,40l1,.17a44.88,44.88,0,0,0,11.69.37A28.66,28.66,0,0,0,113,39.08a19.64,19.64,0,0,0,4.59-2.33s5.83-3.15,8.85-3.81Z" transform="translate(0.01 0)"/><path class="cls-26" d="M94.89,40.14l-1-.17a46.68,46.68,0,0,0-9.6-.2L77.76,7.59a79.32,79.32,0,0,1,10.2,1Z" transform="translate(0.01 0)"/><path class="cls-27" d="M113,39.08a29,29,0,0,1-6.43,1.43,44.88,44.88,0,0,1-11.69-.37L88,8.58c1.93.32,3.09.59,3.09.59a33.45,33.45,0,0,0,14.61-1.62Z" transform="translate(0.01 0)"/><path d="M96.54,32.63l.59,2.66-1.85-.44-.57-2.58a12.76,12.76,0,0,1-5-3l.3-2.64a11.39,11.39,0,0,0,4,2.52l-.89-3.95c-2.21-1.12-4.7-2.54-5.45-5.92-.57-2.51.39-4.32,3.23-4l-.58-2.63,1.84.43.58,2.59A12.07,12.07,0,0,1,96.83,18l-.3,2.71a11,11,0,0,0-3.12-1.9l1,4c2.21,1,4.66,2.51,5.4,5.85C100.29,31.08,99.35,32.87,96.54,32.63ZM92.35,21.71l-.74-3.36c-.92,0-1.16.65-1,1.43A3.26,3.26,0,0,0,92.35,21.71Zm4.46,6.46a3.23,3.23,0,0,0-1.7-2l.74,3.27c.86,0,1.16-.54,1-1.29Z" transform="translate(0.01 0)"/><path class="cls-28" d="M172.33,81.76a97.66,97.66,0,0,0-14-8.33,7,7,0,0,0-1.24-.49h0a9,9,0,0,0,6.74-4.8,22.66,22.66,0,0,0,10.41,9.78l.15.1Z" transform="translate(0.01 0)"/><path class="cls-28" d="M123.84,21.11a44.39,44.39,0,0,1,5-.53h.08a10.23,10.23,0,0,0,1.41,5.33V26a28.92,28.92,0,0,1-5.79-1.26h0s-.28-1.44-.71-3.61Z" transform="translate(0.01 0)"/><path class="cls-29" d="M185.53,58.24h0c-.46.78-7.48,13.3-11.06,19.74l-.16-.11a22.66,22.66,0,0,1-10.4-9.79,9,9,0,0,1-6.74,4.8h0l-.74-.21a29.66,29.66,0,0,1-18.72-14.21c-.34-.64-.73-1.25-1.12-1.84a32.84,32.84,0,0,0-4.7-5.72,9.73,9.73,0,0,0-1.43-1.13,9.09,9.09,0,0,1-4-2.46h0a17.19,17.19,0,0,0-7,1.85,17.28,17.28,0,0,1-1.95.91,37.55,37.55,0,0,0-4.8,2.57,4.35,4.35,0,0,1-2.52.67,2.42,2.42,0,0,1-2.58-2.67,4,4,0,0,1,.09-.84h0v-.2c-3.29,1.51-4.5.06-4.5.06a2.25,2.25,0,0,1-.92-2.37c.34-2.21,2.64-4.93,3.74-6.12l.59-.62v-.09a28.47,28.47,0,0,0,6.86-1.58,20.46,20.46,0,0,0,4.17-2.18c-4.13-2.1-7.33-3.45-7.33-3.45-16.2-7.14-11-14.56-11-14.56,3.06-5.59,16.1,2,16.1,2a54.23,54.23,0,0,0,9.16,4A27.37,27.37,0,0,0,130.35,26v-.07A10.18,10.18,0,0,1,129,20.56h-.08a40.17,40.17,0,0,0-5,.52h0c-.54-2.69-1.29-6.51-2-10.17l.26-.06a31,31,0,0,1,12-2.1,18,18,0,0,1,14.46,8.86l7.08,11.82a30,30,0,0,0,1.94,2.91C172.83,53.12,185.53,58.33,185.53,58.24Z" transform="translate(0.01 0)"/><path class="cls-28" d="M134.7,49.67a16.76,16.76,0,0,1-2.84,1.27,9.17,9.17,0,0,0-1.43-1.14,9.09,9.09,0,0,1-4-2.46,15.91,15.91,0,0,0-9.73-4.87,3.6,3.6,0,0,0-3.32-3.55,19.72,19.72,0,0,0,4.18-2.16C127.4,41.11,134.7,49.67,134.7,49.67Z" transform="translate(0.01 0)"/><path class="cls-30" d="M106.49,25.74l1.85-3.52a1.77,1.77,0,0,0-.34-2.1,13.19,13.19,0,0,0-4.6-2.81,2.68,2.68,0,0,0-1.85,0A3.75,3.75,0,0,0,99,21.9a3.29,3.29,0,0,0,.87,1.58,12.74,12.74,0,0,0,4.84,3A1.48,1.48,0,0,0,106.49,25.74Z" transform="translate(0.01 0)"/><path class="cls-30" d="M106,41.21l-2.83,6.21a3.1,3.1,0,0,0-.91-.1C102.59,45.14,104.89,42.41,106,41.21Z" transform="translate(0.01 0)"/><path class="cls-30" d="M112.06,46.91c0,2-2.76,4.3-2.76,4.3a2.59,2.59,0,0,0-1.67-.52,4,4,0,0,1,.09-.84h0A35.19,35.19,0,0,1,112.06,46.91Z" transform="translate(0.01 0)"/><path class="cls-31" d="M129.61,14.64c0,2-.19,3.87-.15,5.74a15.87,15.87,0,0,0,.87,5.56,5.9,5.9,0,0,1-1.48-2.56,10.72,10.72,0,0,1-.43-3,14,14,0,0,1,.28-3A11.54,11.54,0,0,1,129.61,14.64Z" transform="translate(0.01 0)"/><path class="cls-31" d="M135.48,25.64a7.12,7.12,0,0,1-2.59.73,13.35,13.35,0,0,1-2.68.07,22.86,22.86,0,0,1-5.24-1,33.88,33.88,0,0,1-5-2,32.56,32.56,0,0,1-4.63-2.71l5,2c1.64.62,3.29,1.21,5,1.7a38.31,38.31,0,0,0,5.06,1.19,22.29,22.29,0,0,0,2.58.24A10.33,10.33,0,0,0,135.48,25.64Z" transform="translate(0.01 0)"/><path class="cls-31" d="M126.39,45.21a1.46,1.46,0,0,0-.25.81,1.56,1.56,0,0,0,.22.78,3.86,3.86,0,0,0,1.19,1.05,9.46,9.46,0,0,0,1.48.77,13.25,13.25,0,0,0,1.57.64h.06a9.47,9.47,0,0,1,1.2.91c.37.33.72.68,1.06,1a22,22,0,0,1,1.87,2.21,28.33,28.33,0,0,1,1.62,2.42l.37.63.32.66q.32.66.6,1.32l-.89-1.05-.42-.57-.45-.55c-.59-.74-1.2-1.46-1.81-2.17s-1.24-1.4-1.89-2.1l-1-1a8.63,8.63,0,0,0-1-.81h.07a12.67,12.67,0,0,1-3.1-1.8A4,4,0,0,1,126,47a1.6,1.6,0,0,1-.09-1A1.37,1.37,0,0,1,126.39,45.21Z" transform="translate(0.01 0)"/><path class="cls-31" d="M103.17,49.72a2.47,2.47,0,0,0,1.31.44,4.46,4.46,0,0,0,1.36-.18,7.41,7.41,0,0,0,1.29-.48,12.24,12.24,0,0,0,1.23-.67,29.5,29.5,0,0,0,4.46-3.52,13.34,13.34,0,0,0,1-1,13.52,13.52,0,0,1,1.08-1,16.45,16.45,0,0,1,2.41-1.75A9.89,9.89,0,0,1,122.86,40a12.82,12.82,0,0,0-5.13,2.28,22.25,22.25,0,0,0-2.2,1.81,9.16,9.16,0,0,0-1,1c-.34.41-.7.69-1.06,1.05a22.18,22.18,0,0,1-4.76,3.44,8.52,8.52,0,0,1-2.81.92,4,4,0,0,1-1.47,0A2.38,2.38,0,0,1,103.17,49.72Z" transform="translate(0.01 0)"/><path class="cls-31" d="M110.27,33.26a77.05,77.05,0,0,1,11.07,5,49.09,49.09,0,0,1,10,7.1c.37.37.74.74,1.11,1.14s.67.78,1,1.14c.69.74,1.41,1.47,2.14,2.17a49.58,49.58,0,0,0,4.59,4A31.17,31.17,0,0,0,145.27,57,15.09,15.09,0,0,0,151,58.72a13.59,13.59,0,0,1-5.92-1.17,27.9,27.9,0,0,1-5.35-3A45.23,45.23,0,0,1,135,50.63c-.76-.7-1.48-1.44-2.22-2.2a11.57,11.57,0,0,1-1-1.15,7.44,7.44,0,0,0-1-1.05A42.31,42.31,0,0,0,126,42.38c-1.63-1.19-3.34-2.27-5.06-3.33s-3.49-2-5.27-3S112.09,34.19,110.27,33.26Z" transform="translate(0.01 0)"/><ellipse class="cls-6" cx="47.14" cy="66.42" rx="11.28" ry="11.85"/><path class="cls-6" d="M40.13,48.56c-4.43-.53-4.84-1-5.37-5.61-.52,4.64-.94,5.09-5.35,5.64,4.43.54,4.84,1,5.37,5.62C35.29,49.57,35.7,49.13,40.13,48.56Z" transform="translate(0.01 0)"/><ellipse class="cls-6" cx="48.93" cy="37.28" rx="5.36" ry="5.63"/><path class="cls-8" d="M29.83,63.77a2.59,2.59,0,1,0-2.6,2.71h0a2.66,2.66,0,0,0,2.59-2.7Z" transform="translate(0.01 0)"/><ellipse class="cls-6" cx="153.31" cy="112.68" rx="11.28" ry="11.85"/><ellipse class="cls-6" cx="169.54" cy="95.25" rx="5.36" ry="5.63"/><ellipse class="cls-6" cx="171.75" cy="120" rx="5.36" ry="5.63"/><path class="cls-8" d="M184.42,103.37a2.58,2.58,0,1,0-2.6,2.69,2.65,2.65,0,0,0,2.6-2.69Z" transform="translate(0.01 0)"/></g></svg>