<svg xmlns="http://www.w3.org/2000/svg" width="512" height="500.25" viewBox="0 0 512 500.25">
  <g id="friendly" transform="translate(0 0)">
    <path id="Path_56" data-name="Path 56" d="M210.359,447.887l-1.5,7.348,1.449-7.355a7.5,7.5,0,1,0-2.9,14.715c.012,0,.125.023.137.027a7.644,7.644,0,0,0,1.418.137,7.5,7.5,0,0,0,1.4-14.871Zm0,0" fill="#09687c"/>
    <path id="Path_57" data-name="Path 57" d="M267.7,450.3l.746,7.461-.77-7.457a7.5,7.5,0,0,0,.758,14.961c.258,0,.52-.016.777-.039l.207-.023a7.5,7.5,0,0,0-1.719-14.9Zm0,0" fill="#09687c"/>
    <path id="Path_58" data-name="Path 58" d="M238.992,451.242l-.109,0a7.458,7.458,0,0,0-7.773,7.16,7.542,7.542,0,0,0,7.2,7.828c.117.008.23.008.348.008a7.5,7.5,0,0,0,.332-14.992Zm0,0" fill="#09687c"/>
    <path id="Path_59" data-name="Path 59" d="M182.656,440.266l-.094-.035a7.458,7.458,0,0,0-9.547,4.539,7.524,7.524,0,1,0,9.641-4.5Zm0,0" fill="#09687c"/>
    <path id="Path_60" data-name="Path 60" d="M296.008,445.047l1.848,7.27-1.871-7.262a7.5,7.5,0,1,0,3.742,14.523c.031-.008.164-.043.2-.051a7.5,7.5,0,0,0-3.918-14.48Zm0,0" fill="#09687c"/>
    <path id="Path_61" data-name="Path 61" d="M323.121,435.59l2.973,6.883-3-6.875a7.5,7.5,0,1,0,5.988,13.754c.031-.016.152-.066.184-.082a7.5,7.5,0,0,0-6.148-13.68Zm0,0" fill="#09687c"/>
    <path id="Path_62" data-name="Path 62" d="M154.008,93.7a7.5,7.5,0,1,0-3.5-14.125l-.09.047A7.489,7.489,0,0,0,154.008,93.7Zm0,0" fill="#09687c"/>
    <path id="Path_63" data-name="Path 63" d="M67.254,177.469a7.5,7.5,0,0,0,10.129-3.16l.133-.262a7.5,7.5,0,1,0-10.262,3.422Zm0,0" fill="#09687c"/>
    <path id="Path_64" data-name="Path 64" d="M56.7,205.684a7.49,7.49,0,0,0,9.508-4.7l.1-.3a7.5,7.5,0,1,0-9.605,5Zm0,0" fill="#09687c"/>
    <path id="Path_65" data-name="Path 65" d="M82.051,151.23a7.494,7.494,0,0,0,10.477-1.652l.1-.133a7.5,7.5,0,0,0-12.2-8.723l6.043,4.445L80.4,140.753a7.5,7.5,0,0,0,1.652,10.477Zm0,0" fill="#09687c"/>
    <path id="Path_66" data-name="Path 66" d="M128.547,109.9A7.532,7.532,0,1,0,124.2,96.269l-.187.137a7.508,7.508,0,0,0,4.531,13.492Zm0,0" fill="#09687c"/>
    <path id="Path_67" data-name="Path 67" d="M50,319.426a7.5,7.5,0,1,0-.1-.328l.1.328Zm0,0" fill="#09687c"/>
    <path id="Path_68" data-name="Path 68" d="M105.891,129.664a7.524,7.524,0,1,0-5.238-12.859l-.125.125a7.494,7.494,0,0,0,5.363,12.734Zm0,0" fill="#09687c"/>
    <path id="Path_69" data-name="Path 69" d="M58.289,286.727A7.5,7.5,0,0,0,43.4,288.582l.043.3a7.5,7.5,0,0,0,14.844-2.156Zm0,0" fill="#09687c"/>
    <path id="Path_70" data-name="Path 70" d="M48.867,265.246c.078,0,.152,0,.227,0a7.5,7.5,0,0,0,7.492-7.281l.008-.32a7.5,7.5,0,1,0-7.727,7.6Zm0,0" fill="#09687c"/>
    <path id="Path_71" data-name="Path 71" d="M50.512,235.168a7.74,7.74,0,0,0,1.332.117,7.507,7.507,0,0,0,7.375-6.18c.02-.109.035-.219.051-.328a7.5,7.5,0,1,0-8.758,6.391Zm0,0" fill="#09687c"/>
    <path id="Path_72" data-name="Path 72" d="M404.3,153.6a7.5,7.5,0,0,0,12.348-8.516l-6.234,4.172,6.211-4.207a7.5,7.5,0,1,0-12.418,8.418Zm0,0" fill="#09687c"/>
    <path id="Path_73" data-name="Path 73" d="M442.6,229.07a7.5,7.5,0,0,0-6.613,8.293l.039.324a7.5,7.5,0,0,0,7.418,6.438,7.665,7.665,0,0,0,1.07-.074,7.553,7.553,0,0,0-1.914-14.98Zm0,0" fill="#09687c"/>
    <path id="Path_74" data-name="Path 74" d="M429.945,207.906l.031.1a7.5,7.5,0,0,0,7.191,5.387,7.388,7.388,0,0,0,2.117-.309,7.5,7.5,0,0,0,5.082-9.312l-.031-.1a7.5,7.5,0,0,0-14.391,4.234Zm0,0" fill="#09687c"/>
    <path id="Path_75" data-name="Path 75" d="M419.352,179.863a7.539,7.539,0,0,0,6.766,4.211,7.495,7.495,0,0,0,6.715-10.785l-6.8,3.168,6.789-3.184a7.5,7.5,0,0,0-13.582,6.367Zm0,0" fill="#09687c"/>
    <path id="Path_76" data-name="Path 76" d="M385.41,130.176a7.555,7.555,0,1,0-.227-.238Zm0,0" fill="#09687c"/>
    <path id="Path_77" data-name="Path 77" d="M445.039,260.387a7.547,7.547,0,0,0-.641,15.078c.145.008.281.012.426.012a7.5,7.5,0,0,0,7.48-7.086l.012-.309A7.489,7.489,0,0,0,445.039,260.387Zm0,0" fill="#09687c"/>
    <path id="Path_78" data-name="Path 78" d="M337.449,93.348l.18.1a7.471,7.471,0,0,0,10.1-3.082,7.524,7.524,0,0,0-3.047-10.152l-3.629,6.563L344.66,80.2a7.5,7.5,0,1,0-7.211,13.152Zm0,0" fill="#09687c"/>
    <path id="Path_79" data-name="Path 79" d="M362.816,109.8l.117.09A7.5,7.5,0,0,0,372,97.934l-.051-.035a7.5,7.5,0,1,0-9.133,11.9Zm0,0" fill="#09687c"/>
    <path id="Path_80" data-name="Path 80" d="M507.371,373.93l-35.207-35.27a15.839,15.839,0,0,0-22.426,0l-.816.816-2.312-2.312a30.272,30.272,0,0,1-6.566-9.824,7.309,7.309,0,0,0-.535-1.391,30.329,30.329,0,0,1-1.746-10.187v-9.977a7.554,7.554,0,1,0-.047-13.332,42.283,42.283,0,0,0-12.395-28.2l-34.156-34.215a40.526,40.526,0,0,0-51.82-4.652l-3.625-3.645V135.957a42.588,42.588,0,0,0-10.566-28.086,30.266,30.266,0,0,1-7.516-19.977V81.61h.516A15.875,15.875,0,0,0,334.008,65.75V15.86A15.875,15.875,0,0,0,318.152,0h-140.1A15.875,15.875,0,0,0,162.2,15.86V65.75A15.875,15.875,0,0,0,178.054,81.61h1.156V84.9a30.091,30.091,0,0,1-8.852,21.4L155.238,121.45a42.313,42.313,0,0,0-12.441,30.09v48.387a40.441,40.441,0,0,0,4.355,18.281,40.273,40.273,0,0,0-26.316,11.828L86.679,264.25a42.32,42.32,0,0,0-12.441,30.09v21.422a30.088,30.088,0,0,1-8.848,21.4l-2.285,2.289a.17.17,0,0,0-.027.023l-.812-.816a15.839,15.839,0,0,0-22.426,0L4.629,373.93a15.9,15.9,0,0,0,0,22.43l12.059,12.074a7.5,7.5,0,1,0,10.613-10.6L15.246,385.758a.87.87,0,0,1,0-1.23l35.211-35.27a.841.841,0,0,1,1.191,0l6.121,6.133h0l83.582,83.727,9.363,9.383a.87.87,0,0,1,0,1.23L115.511,485a.842.842,0,0,1-1.2,0L48.535,419.106a7.5,7.5,0,1,0-10.617,10.6L103.7,495.6a15.838,15.838,0,0,0,22.426,0l35.207-35.27a15.9,15.9,0,0,0,0-22.426l-.383-.383,4.441-4.449a30.137,30.137,0,0,1,19.4-8.8A42.439,42.439,0,0,0,212.1,411.891l32.344-32.414a25.68,25.68,0,0,0,18.562-19.562,25.573,25.573,0,0,0,36.543-23.141V318.965a25.562,25.562,0,0,0,36.16-23.313V243l23.07,23.184a7.5,7.5,0,0,0,10.633-10.582l-19.234-19.328a25.544,25.544,0,0,1,30.363,4.359L414.7,274.848a27.418,27.418,0,0,1,8.059,19.492v21.422a45,45,0,0,0,13.23,32l2.328,2.332-10.879,10.9-65.8,65.91-3.668-3.676c-.039-.035-.074-.074-.113-.109l-.645-.648A45.157,45.157,0,0,0,328.175,409.3a27.5,27.5,0,0,1-17.687-8.027l-24.645-24.512A7.5,7.5,0,1,0,275.265,387.4l24.629,24.492a42.44,42.44,0,0,0,27.313,12.383,30.151,30.151,0,0,1,19.4,8.793l.363.363a7.216,7.216,0,0,0,.621.625l3.457,3.461-.383.387a15.9,15.9,0,0,0,0,22.426L385.87,495.6a15.843,15.843,0,0,0,22.43,0l99.07-99.242a15.9,15.9,0,0,0,0-22.426Zm-64.582-74.578-.141-.023-1.367-.277Zm-241.3,101.941a27.451,27.451,0,0,1-17.66,8.012,45.158,45.158,0,0,0-29.047,13.164l-4.426,4.434-3.984-3.992c-.051-.051-.1-.105-.152-.152L73.679,350.094l2.328-2.332a45,45,0,0,0,13.23-32V294.34A27.4,27.4,0,0,1,97.3,274.848l34.156-34.211a25.539,25.539,0,0,1,30.4-4.336L142.59,255.6a7.5,7.5,0,0,0,10.617,10.6l23.012-23.055v93.633A25.574,25.574,0,0,0,212.9,359.848a25.7,25.7,0,0,0,12.711,17.27Zm119.23-105.637a10.582,10.582,0,1,1-21.164,0V212a7.5,7.5,0,1,0-15,0V336.777a10.574,10.574,0,0,1-21.008,1.754V211.91A7.579,7.579,0,0,0,248.39,212V336.773a25.716,25.716,0,0,0,.156,2.813V354.7a10.58,10.58,0,1,1-21.16,0V211.819a7.5,7.5,0,0,0-15,0V336.772a10.58,10.58,0,1,1-21.16,0V197.26a7.5,7.5,0,1,0-15,0v25.8a7.363,7.363,0,0,0-1.8.863,25.665,25.665,0,0,1-16.621-24V151.538a27.418,27.418,0,0,1,8.059-19.492L180.976,116.9a44.986,44.986,0,0,0,13.234-32V81.608h15.078a7.5,7.5,0,0,0,0-15H178.054a.859.859,0,0,1-.855-.859V15.858a.859.859,0,0,1,.855-.859H318.148a.859.859,0,0,1,.859.859V65.749a.857.857,0,0,1-.859.859H244.5a7.5,7.5,0,0,0,0,15h58.137v6.285a45.287,45.287,0,0,0,11.234,29.871,27.574,27.574,0,0,1,6.848,18.191Zm176.035,90.1L397.683,485a.8.8,0,0,1-.6.25.815.815,0,0,1-.6-.25L361.28,449.73a.87.87,0,0,1,0-1.23l5.668-5.68,0,0,57.512-57.609,35.887-35.949a.837.837,0,0,1,1.191,0l35.211,35.27a.87.87,0,0,1,0,1.23Zm0,0" fill="#09687c"/>
    <path id="Path_81" data-name="Path 81" d="M201.8,32.8a8,8,0,1,0,7.988,8A8,8,0,0,0,201.8,32.8Zm0,0" fill="#09687c"/>
    <path id="Path_82" data-name="Path 82" d="M463.4,374.688a8,8,0,1,0,7.984,8A8,8,0,0,0,463.4,374.688Zm0,0" fill="#09687c"/>
    <path id="Path_83" data-name="Path 83" d="M124.984,451.2a7.986,7.986,0,1,0-7.984,8A8,8,0,0,0,124.984,451.2Zm0,0" fill="#09687c"/>
  </g>
</svg>
