<svg id="OBJECTS" xmlns="http://www.w3.org/2000/svg" viewBox="0 0 657.48 375.3"><defs><style>.cls-1{fill:#fdab00;}.cls-2{fill:#ff7800;}.cls-3{fill:#ff9407;}.cls-4{fill:#4b1654;}.cls-5{fill:#611f69;}.cls-20,.cls-21,.cls-22,.cls-24,.cls-25,.cls-26,.cls-6{fill:none;}.cls-6{stroke:#ff7800;stroke-width:0.72px;}.cls-21,.cls-22,.cls-23,.cls-6{stroke-miterlimit:10;}.cls-7{fill:#ffc29f;}.cls-8{fill:#ffa980;}.cls-9{fill:#2b2f3a;}.cls-10{fill:#dd8e03;}.cls-11{fill:#21323f;}.cls-12{fill:#a2c5d2;}.cls-13{fill:#91b9c4;}.cls-14{fill:#192730;}.cls-15{fill:#c3dbe6;}.cls-16{opacity:0.6;}.cls-17{fill:#ddd;}.cls-18,.cls-23{fill:#fff;}.cls-19{fill:#ccc;}.cls-20,.cls-21,.cls-22,.cls-23,.cls-24{stroke:#ddd;}.cls-20,.cls-24,.cls-25,.cls-26{stroke-linecap:round;stroke-linejoin:round;}.cls-20{stroke-width:3px;}.cls-21{stroke-width:0.79px;}.cls-22{stroke-width:6.32px;}.cls-23{stroke-width:2.73px;}.cls-24{stroke-width:2px;}.cls-25,.cls-26{stroke:#fff;}.cls-25{stroke-width:2.22px;}.cls-26{stroke-width:3.31px;}</style></defs><title>HomeImg</title><path class="cls-1" d="M643,383.74s18.55-5.22,17.32-17-15.36-14.1-7.17-24.5,10.45-15.78,4.73-21.27,4.74-9.25,4.3-19.41-10.59-12.22-16.95-7.71-1.86,12.41-4.4,18.62-11.73,8.27-13.29,16,6.74,14.13,6.84,19.75-10.58,11.85-10.57,20.12S639.48,383.64,643,383.74Z" transform="translate(-36.57 -33.55)"/><path class="cls-2" d="M644.69,387.17a177,177,0,0,1-2-21.26,188.87,188.87,0,0,1,.47-21.41,144.2,144.2,0,0,1,3.33-21.16,108.08,108.08,0,0,1,7.11-20.24A108.92,108.92,0,0,0,646,323.19a146.5,146.5,0,0,0-3.92,21.2A191.65,191.65,0,0,0,641,366a178.19,178.19,0,0,0,1.43,21.6Z" transform="translate(-36.57 -33.55)"/><path class="cls-2" d="M639.76,400.48s-12.2-8.38-8.88-17.27,6.26-6.94,6-19.24,4.22-19.41,17.59-20.74,18.84-6.17,25.63-8.3,11.49-.94,13.28,3.47,0,11.25-8.67,12.48-13.29,3.83-14.14,12.84-5.05,11.29-13,12.8S659.17,398,639.76,400.48Z" transform="translate(-36.57 -33.55)"/><path class="cls-1" d="M639.43,398.7a68.3,68.3,0,0,1,11.38-34.47,59.64,59.64,0,0,1,28.08-22.38,59.07,59.07,0,0,0-27.22,22.95,66.71,66.71,0,0,0-10.18,34Z" transform="translate(-36.57 -33.55)"/><path class="cls-3" d="M634.62,387.54S620.4,385.6,618,377.3s3.3-11.35-4.72-14.38-13.91-2-15.52-10-4.11-13.51-10.42-16.87-1-12.4,5.75-9.59,8.94,8.14,18.49,7.33c10.78-.92,17,1.78,16,10.2-.82,6.56.79,7.44,7.83,10.35,12,5,9.7,17.33,5.85,25.56S634.62,387.54,634.62,387.54Z" transform="translate(-36.57 -33.55)"/><path class="cls-2" d="M631.87,385.23a36.82,36.82,0,0,0-2.94-16.64,58.32,58.32,0,0,0-9-14.68,79.81,79.81,0,0,0-12.44-12.07,90.21,90.21,0,0,0-14.68-9.33,90,90,0,0,1,15,9,80.64,80.64,0,0,1,12.87,11.84,59.62,59.62,0,0,1,9.54,14.74,38.3,38.3,0,0,1,3.5,17.31Z" transform="translate(-36.57 -33.55)"/><path class="cls-4" d="M654.42,382.78H623.55s-2.54,13.41,4.55,26.07h21.77C657,396.19,654.42,382.78,654.42,382.78Z" transform="translate(-36.57 -33.55)"/><path class="cls-5" d="M656.51,388.27a54.12,54.12,0,0,0-.43-5.49H621.89a54.12,54.12,0,0,0-.43,5.49Z" transform="translate(-36.57 -33.55)"/><path class="cls-2" d="M95.5,389.26c0-4.92,9.53-18.73,8.08-24.24-2.9-11-13.4-7.75-12.37-20.12.58-7.11-3.91-13.7-17.45-12.75s-16.66-4.31-23.65-6-11.63-.11-13.12,4.46.8,11.33,9.63,11.94,12.07,2.18,13.59,11.19,9.12,3.73,15.75,8.5c5.37,3.88-3,7.54,2.37,14.5C81.59,381,92.88,382,95.5,389.26Z" transform="translate(-36.57 -33.55)"/><path class="cls-1" d="M93.68,387.66A67.41,67.41,0,0,0,81,354.18a59.59,59.59,0,0,0-29.08-21.11,60.13,60.13,0,0,1,29.87,20.51,68.85,68.85,0,0,1,13.92,33.86Z" transform="translate(-36.57 -33.55)"/><path class="cls-1" d="M107.58,387.22S87.65,384.32,87.34,372s10.85-16.36,1-26-9.82-15.28-4.63-21.74-6.16-9-7.07-19.54,9.31-14.1,16.52-10.28,3.61,12.61,7.08,18.7,13.27,7,15.93,14.77-.39,14.38.26,20.21,7.89,12,9,20.61S111.2,386.64,107.58,387.22Z" transform="translate(-36.57 -33.55)"/><path class="cls-2" d="M106.49,391a183.32,183.32,0,0,0-.88-22.33,196.83,196.83,0,0,0-3.43-22.13,153.13,153.13,0,0,0-6.36-21.49,113.76,113.76,0,0,0-10.16-20,113.52,113.52,0,0,1,10.62,19.8,152.87,152.87,0,0,1,6.87,21.44,201.1,201.1,0,0,1,3.95,22.2,188.28,188.28,0,0,1,1.38,22.55Z" transform="translate(-36.57 -33.55)"/><path class="cls-2" d="M132.83,377.06c2-9.05-5.16-6.62,3.24-10.41s10.82-4,12-12.68,3.52-14.76,10.06-18.78.26-13.36-6.8-9.91-9,9.33-19.34,9.09c-11.62-.27-18.13,3-16.45,12,1.31,7-1,12.93-8.37,16.52-12.54,6.11.57,17.48,4.41,29.92C118.23,375.71,130.83,386.12,132.83,377.06Z" transform="translate(-36.57 -33.55)"/><path class="cls-1" d="M111.72,391.08a41.2,41.2,0,0,1,2.61-18.79,63.59,63.59,0,0,1,9.25-16.43,86.08,86.08,0,0,1,13-13.55A96.26,96.26,0,0,1,152,331.71a96.58,96.58,0,0,0-15.12,11,85.2,85.2,0,0,0-12.54,13.76,62.27,62.27,0,0,0-8.64,16.33,39.58,39.58,0,0,0-2,18Z" transform="translate(-36.57 -33.55)"/><path class="cls-4" d="M90,382.78h30.88s2.53,13.41-4.55,26.07H94.55C87.46,396.19,90,382.78,90,382.78Z" transform="translate(-36.57 -33.55)"/><path class="cls-5" d="M87.91,388.27a54.12,54.12,0,0,1,.43-5.49h34.19a54.12,54.12,0,0,1,.43,5.49Z" transform="translate(-36.57 -33.55)"/><path class="cls-3" d="M389.28,334.6a17.94,17.94,0,0,0-4.47-9.23,44.25,44.25,0,0,0-7.87-6.76c-3.59-2.58-7.47-5.1-11.86-5.6a9.91,9.91,0,0,0-6.11,1.07,6.27,6.27,0,0,0-3.22,5.1c0,2.58,1.8,4.79,3.81,6.4s4.33,2.9,5.91,4.93c2,2.63,2.56,6.12,4.22,9a12.92,12.92,0,0,0,7.26,5.82c2.71.85,7.41,1.2,9.48-1.15A12.41,12.41,0,0,0,389.28,334.6Z" transform="translate(-36.57 -33.55)"/><path class="cls-1" d="M390,334.84a13.07,13.07,0,0,1-.8-7.7c.69-2.95,2.67-5.42,3.7-8.27s1.11-6.16,2.75-8.76a8.28,8.28,0,0,1,9.3-3.36,8,8,0,0,1,5.29,8.29c-.3,2.45-1.77,4.59-2.43,7-.94,3.4-.19,7.12-1.24,10.5a10.39,10.39,0,0,1-5.73,6.4c-1.29.56-2.66.89-4,1.38-.86.32-1.86.92-2.82.65C392.08,340.41,390.68,336.55,390,334.84Z" transform="translate(-36.57 -33.55)"/><path class="cls-2" d="M396.57,356.56a8.34,8.34,0,0,1,6.75-4.24c2-.1,3.91.52,5.88.69,2.19.18,4.43-.19,6.57.3s4.28,2.24,4.11,4.43a4.33,4.33,0,0,1-3,3.44,11.63,11.63,0,0,1-4.74.4,15.23,15.23,0,0,0-4.77.19c-1.85.5-3.4,1.72-5.1,2.59s-4.7,1.72-5.92-.33S395.42,358.67,396.57,356.56Z" transform="translate(-36.57 -33.55)"/><path class="cls-6" d="M390.85,384.08s2.11-26.3,15.86-27.75" transform="translate(-36.57 -33.55)"/><path class="cls-6" d="M391,390.11s-2.18-41,8.68-70.46" transform="translate(-36.57 -33.55)"/><path class="cls-6" d="M391.31,365.73s.44-28.22-23.45-43.91" transform="translate(-36.57 -33.55)"/><path class="cls-4" d="M406.1,383.08H375.58s-2.5,13.26,4.5,25.77h21.51C408.6,396.34,406.1,383.08,406.1,383.08Z" transform="translate(-36.57 -33.55)"/><path class="cls-5" d="M408.16,388.51a53.06,53.06,0,0,0-.43-5.43H373.94s-.3,2.06-.43,5.43Z" transform="translate(-36.57 -33.55)"/><polygon class="cls-7" points="174.2 366.06 164.19 366.06 163.21 349.85 172.98 349.23 174.2 366.06"/><polygon class="cls-7" points="120.9 365.7 111.12 365.41 112.87 351.19 121.92 352.57 120.9 365.7"/><polygon class="cls-5" points="129.68 197.17 110.08 359.65 122.08 359.65 150.55 241.41 162.68 359.65 174.54 359.65 171.63 197.17 129.68 197.17"/><path class="cls-7" d="M237.67,170.92s2-3.82,1.83-5.57-.5-4.28,1.28-7c.42-.63,1.58-2.31,1.58-2.31a2.07,2.07,0,0,1,.46,2.1,20,20,0,0,0-.83,2.25s.86-1.58,4.15-2.54c1.54-.44,7.61-2,7.61-2,.86,0,.74,1.24-.95,2,0,0,.76.78-.63,1.55,0,0,1,.73-.95,1.8,0,0,.77.62-1.21,1.8-1.77,1.06-4.64,2.6-5.27,3.61a41,41,0,0,0-2.21,6Z" transform="translate(-36.57 -33.55)"/><path class="cls-1" d="M174.75,153.49s-12.2,3.57-15,4.3,0,18.38,3.79,38.65,2.68,34.28,2.68,34.28H208.2s1.74-65.46.78-67.68c-1.75-4-19.35-9.59-19.35-9.59Z" transform="translate(-36.57 -33.55)"/><path class="cls-8" d="M177.2,139s.42,10-1.33,14.09l2.14,4.06,5.64,3.42,3.57-2.67,1.05-3.06V139Z" transform="translate(-36.57 -33.55)"/><path class="cls-9" d="M172.74,131.57a5.26,5.26,0,0,1,.12-4c.46-1,1.25-1.88,1.75-2.89a9,9,0,0,1,1.37-2.59,3.06,3.06,0,0,1,2.77-.74,5,5,0,0,1,2.55,1.48,7.4,7.4,0,0,1,1.94,3.55,12,12,0,0,1-.14,5,8.28,8.28,0,0,1-1.74,4.11,4.81,4.81,0,0,1-3.12,1.54c-1.17.09-2.87-.24-3.52-1.33-.32-.54-.48-1.17-.76-1.73A23.32,23.32,0,0,1,172.74,131.57Z" transform="translate(-36.57 -33.55)"/><path class="cls-7" d="M194.2,123s2.43,22.27-4.09,25.48c-4.21,2.07-10.94-.15-12-10.07s3.45-14.74,8.66-15.41A24.8,24.8,0,0,1,194.2,123Z" transform="translate(-36.57 -33.55)"/><path class="cls-7" d="M178,134.07a1.92,1.92,0,0,0-3,0c-1.46,1.65,1.21,5.11,3.23,5.27Z" transform="translate(-36.57 -33.55)"/><path class="cls-9" d="M181.42,126.16c1.2.17,2.43,0,3.64.18a19.78,19.78,0,0,1,4.07,1.27,14,14,0,0,0,6.23,1,7.65,7.65,0,0,0,5.43-2.92,6.12,6.12,0,0,0-4.46-9.69c-2.41-.21-4.67,1-6.94,1.83a23.28,23.28,0,0,1-7.57,1.42,13.35,13.35,0,0,0-3.16.22,3.4,3.4,0,0,0-2.43,1.86c-.51,1.27.32,2.25,1.25,3A8.1,8.1,0,0,0,181.42,126.16Z" transform="translate(-36.57 -33.55)"/><path class="cls-10" d="M176.29,151.86s1.4,4.86,7.36,8.7c-.2,1.83-5.3,5.52-7.48-.57a31.28,31.28,0,0,1-1.42-6.5Z" transform="translate(-36.57 -33.55)"/><path class="cls-10" d="M183.65,160.56a11.48,11.48,0,0,0,4.62-8.53l1.36,1.42s1,6.07-1.12,8.86C187,164.23,183.84,161.74,183.65,160.56Z" transform="translate(-36.57 -33.55)"/><path class="cls-7" d="M163.37,231.35s4.23,6.42,6.06,7.88a14.69,14.69,0,0,1,3.22,4.54l-5.37,7.31a7.15,7.15,0,0,1-4.25-4.93c-1-3.87-2-4.3-3.67-8l-1.67-3.72Z" transform="translate(-36.57 -33.55)"/><path class="cls-1" d="M159.14,158.43s-6.22.38-9.14,11.76-6.54,30.09-7.51,38.06c-.42,3.38,17.54,33,17.54,33s3.57-3.24,6.75-5.95c0,0-9.93-20.74-9.93-28.33,0,0,8.91-24.74,9.2-32.23S166.38,159.21,159.14,158.43Z" transform="translate(-36.57 -33.55)"/><path class="cls-1" d="M209,163c2.32.36,9.43,16.19,14,24.36l4.52,8.17,10.94-28a6.19,6.19,0,0,1,5.83,2.62s-5.83,37.78-7.29,42-6,7.29-14-2.78-21.88-29.6-23-31.79S195.51,161,209,163Z" transform="translate(-36.57 -33.55)"/><path class="cls-11" d="M200.76,398.45h9.34s1,0,4.08,3.21,12,.14,15.31,6.56H200S197.26,403.12,200.76,398.45Z" transform="translate(-36.57 -33.55)"/><path class="cls-11" d="M144.32,408.22c-1.12-3.74,1.5-6.47,2.33-9.77.51-2,10.75-3.3,11.76,1.16a24.36,24.36,0,0,1,.2,8.61Z" transform="translate(-36.57 -33.55)"/><rect class="cls-4" x="162.92" y="245.54" width="14.73" height="2.33" transform="translate(-166.05 214.59) rotate(-55.66)"/><rect class="cls-4" x="129.68" y="197.17" width="42" height="3.01"/><polygon class="cls-4" points="150.55 241.41 156.39 219.6 152.54 260.83 150.55 241.41"/><polygon class="cls-10" points="172.5 157.35 172.7 141.36 176.41 162.73 172.5 157.35"/><path class="cls-10" d="M162.42,190.18l2.72-9.91-1,19.36S162.48,191.17,162.42,190.18Z" transform="translate(-36.57 -33.55)"/><path class="cls-5" d="M565.36,406.85l-19.42-85h7.26l15,85A1.44,1.44,0,0,1,565.36,406.85Z" transform="translate(-36.57 -33.55)"/><path class="cls-5" d="M516.3,406.85l-19.42-85h7.26l15,85A1.44,1.44,0,0,1,516.3,406.85Z" transform="translate(-36.57 -33.55)"/><path class="cls-12" d="M449.09,406.85l19.42-85h-7.26l-15,85A1.44,1.44,0,0,0,449.09,406.85Z" transform="translate(-36.57 -33.55)"/><path class="cls-12" d="M572.74,254.56H533.25a6,6,0,0,0-5.69,4l-19.32,53.07a6.05,6.05,0,0,0,5.69,8.12h39.5a6,6,0,0,0,5.69-4l19.31-53.06A6.05,6.05,0,0,0,572.74,254.56Z" transform="translate(-36.57 -33.55)"/><path class="cls-12" d="M557.25,324H455.76a2.11,2.11,0,0,1-2.12-2.11h0a2.12,2.12,0,0,1,2.12-2.12H557.25a2.12,2.12,0,0,1,2.12,2.12h0A2.11,2.11,0,0,1,557.25,324Z" transform="translate(-36.57 -33.55)"/><path class="cls-13" d="M557.25,324H516.31a2.11,2.11,0,0,1-2.11-2.11h0a2.12,2.12,0,0,1,2.11-2.12h40.94a2.12,2.12,0,0,1,2.12,2.12h0A2.11,2.11,0,0,1,557.25,324Z" transform="translate(-36.57 -33.55)"/><path class="cls-12" d="M494.94,406.85l19.43-85h-7.26l-15,85A1.44,1.44,0,0,0,494.94,406.85Z" transform="translate(-36.57 -33.55)"/><path class="cls-11" d="M527.3,199.82a6.87,6.87,0,0,0-6.32,6.64c-.48,6.32.65,9.6-2.07,15.92S514,237.18,525.36,238s14.87.29,18.37,3,15.44-5.54,11.16-12.83S549,216.67,550.73,211,548.8,199.2,542,196.54C536.26,194.3,531.58,194.65,527.3,199.82Z" transform="translate(-36.57 -33.55)"/><path class="cls-1" d="M524.35,236s1.59,5-2.33,19.26-5.18,19-8.87,21.68C510.87,278.6,485,278.6,485,278.6v-7.29l22.76-2.77s2.88-14.12,5.79-23c1-3.07,2.69-11,6.29-12.6S524.35,236,524.35,236Z" transform="translate(-36.57 -33.55)"/><path class="cls-1" d="M553.56,260.42c-1.07,8.07-4,27.81-4,27.81H519.33s.91-12.08-.57-18.63a9.63,9.63,0,0,0-1.08-3c-2.34-3.74-4.44-7.24-4.47-11.1a11,11,0,0,1,.39-2.9c1.35-5,3.39-16.24,5.93-19.34s15.13-2.72,15.13-2.72,16.48,0,21.42,2.81c1.32.74,1.82,2.39,1.93,4.37C558.35,243.94,554.37,254.32,553.56,260.42Z" transform="translate(-36.57 -33.55)"/><path class="cls-10" d="M548.68,263.05s-23,1.86-29.92,6.55a9.63,9.63,0,0,0-1.08-3c-2.34-3.74-4.44-7.24-4.47-11.1,1.53,3.17,5.43,7.38,15.35,7.51C544.51,263.24,548.68,263.05,548.68,263.05Z" transform="translate(-36.57 -33.55)"/><path class="cls-10" d="M553.56,260.42c-1.07,8.07-4,27.81-4,27.81L551,241.57l7-3.81C558.35,243.94,554.37,254.32,553.56,260.42Z" transform="translate(-36.57 -33.55)"/><path class="cls-7" d="M541.93,272.24s-14.42.53-18.95.82a31.56,31.56,0,0,0-6.67-1.75c-3.86-.29-7.26,3.57-8.28,7.29h33.43Z" transform="translate(-36.57 -33.55)"/><path class="cls-1" d="M557.37,234.93a94,94,0,0,1,7,18.44c2.77,10.5,6.56,21.15,3.06,24.07s-26,1.75-26,1.75l-.59-7.88L558,268.54s-6.47-16.19-7.49-19.11-1.79-11.88,1.8-13.45S557.37,234.93,557.37,234.93Z" transform="translate(-36.57 -33.55)"/><polygon class="cls-7" points="438.38 366.37 433.23 366.37 432.56 358.76 438.85 358.14 438.38 366.37"/><path class="cls-14" d="M475,399.92s1.9,2,1.27,6.36c-.29,2.07-4.81,1.94-12.44,1.94h-7.6a1.38,1.38,0,0,1-.87-2.44,5.65,5.65,0,0,1,2-1,72.9,72.9,0,0,0,12.47-4.82Z" transform="translate(-36.57 -33.55)"/><path class="cls-4" d="M536,288.23c0,2.62,6,11.53,4.79,20.2-.79,5.69-5.67,11.3-17.07,11.3-15.56,0-40.35-.16-44.41,0-3.21.14-4.75.21-2.86,6.28,4.47,14.36.69,38.82-.48,71.93h-6.8s-6-34.36-8.53-51c-3.89-25.87-9.79-36,1.46-41.37,11.9-5.68,57.3-17.36,57.3-17.36Z" transform="translate(-36.57 -33.55)"/><polygon class="cls-7" points="453.05 366.37 447.9 366.37 447.22 358.76 453.51 358.14 453.05 366.37"/><path class="cls-11" d="M489.62,399.92s1.9,2,1.27,6.36c-.3,2.07-4.82,1.94-12.44,1.94h-7.6a1.38,1.38,0,0,1-.88-2.44,5.79,5.79,0,0,1,2-1,72.9,72.9,0,0,0,12.47-4.82Z" transform="translate(-36.57 -33.55)"/><path class="cls-5" d="M549.57,288.23c-.05,2.62,6,11.53,4.78,20.2-.78,5.69-5.67,11.3-17.06,11.3H492.88c-3.22,0-4.75.21-2.87,6.28,4.47,14.36,2.48,39.11.24,71.93h-6.81s-6.73-34.36-9.23-51c-3.89-25.87-9.8-36,1.45-41.37,11.91-5.68,53.83-17.36,53.83-17.36Z" transform="translate(-36.57 -33.55)"/><path class="cls-7" d="M526.43,230.93s-.09,6.45,4.28,10.14c0,0,9.27-4.33,12.63-10.12A87.33,87.33,0,0,0,526.43,230.93Z" transform="translate(-36.57 -33.55)"/><path class="cls-7" d="M528.32,230.75a2.69,2.69,0,0,0,2.28-2.92c0-2.68.27-7.79.27-7.79l8.6.73s-.72,8.43.66,10l1.39,1.55S529.7,234.31,528.32,230.75Z" transform="translate(-36.57 -33.55)"/><path class="cls-8" d="M530.6,226.75s5.66.88,8.68-1.53l.19-4.45-8.87,1.92Z" transform="translate(-36.57 -33.55)"/><path class="cls-7" d="M525.6,203s-7.58,20.79,3.06,23.13,12.84-8.75,12.84-8.75,2.75-.66,3.18-3-2.79-1.44-2.79-1.44,2.83-8.55-3.6-11.42C531.53,198.43,526.91,200,525.6,203Z" transform="translate(-36.57 -33.55)"/><path class="cls-11" d="M526.62,200.43a16.39,16.39,0,0,0,15.27,12.44s3.3-8.26,1.07-11.76S530.41,195.42,526.62,200.43Z" transform="translate(-36.57 -33.55)"/><path class="cls-11" d="M514.9,276.27H464.21L452.07,242.9a2.17,2.17,0,0,1,2-2.91h46.06a2.17,2.17,0,0,1,2,1.43Z" transform="translate(-36.57 -33.55)"/><path class="cls-11" d="M545,279.42H494.65a1.57,1.57,0,0,1-1.57-1.58h0a1.57,1.57,0,0,1,1.57-1.57H545a1.57,1.57,0,0,1,1.58,1.57h0A1.58,1.58,0,0,1,545,279.42Z" transform="translate(-36.57 -33.55)"/><path class="cls-11" d="M514.74,279.42H464.37a1.58,1.58,0,0,1-1.58-1.58h0a1.57,1.57,0,0,1,1.58-1.57h50.37a1.57,1.57,0,0,1,1.57,1.57h0A1.57,1.57,0,0,1,514.74,279.42Z" transform="translate(-36.57 -33.55)"/><path class="cls-5" d="M634.41,406.23l-28.3-123.86h10.58L638.6,406.23A2.1,2.1,0,0,1,634.41,406.23Z" transform="translate(-36.57 -33.55)"/><path class="cls-5" d="M348.74,406.23l-28.3-123.86H331l21.91,123.86A2.1,2.1,0,0,1,348.74,406.23Z" transform="translate(-36.57 -33.55)"/><path class="cls-15" d="M236.83,406.23l28.3-123.86H254.56L232.64,406.23A2.1,2.1,0,0,0,236.83,406.23Z" transform="translate(-36.57 -33.55)"/><path class="cls-15" d="M508.65,406.23l28.29-123.86H526.37L504.45,406.23A2.1,2.1,0,0,0,508.65,406.23Z" transform="translate(-36.57 -33.55)"/><rect class="cls-12" x="196.07" y="245.87" width="408.77" height="5.9" rx="2.55"/><path class="cls-13" d="M548.65,285.31h89.82a3,3,0,0,0,2.95-2.94h0a3,3,0,0,0-2.95-2.95H548.65a3,3,0,0,0-2.94,2.95h0A2.94,2.94,0,0,0,548.65,285.31Z" transform="translate(-36.57 -33.55)"/><path class="cls-11" d="M321.05,276.27h50.69l12.14-33.37a2.17,2.17,0,0,0-2-2.91H335.78a2.17,2.17,0,0,0-2,1.43Z" transform="translate(-36.57 -33.55)"/><path class="cls-11" d="M290.93,279.42H341.3a1.57,1.57,0,0,0,1.57-1.58h0a1.57,1.57,0,0,0-1.57-1.57H290.93a1.57,1.57,0,0,0-1.58,1.57h0A1.58,1.58,0,0,0,290.93,279.42Z" transform="translate(-36.57 -33.55)"/><path class="cls-11" d="M321.21,279.42h50.37a1.58,1.58,0,0,0,1.58-1.58h0a1.57,1.57,0,0,0-1.58-1.57H321.21a1.57,1.57,0,0,0-1.57,1.57h0A1.57,1.57,0,0,0,321.21,279.42Z" transform="translate(-36.57 -33.55)"/><g class="cls-16"><path class="cls-17" d="M277,68.81a35.26,35.26,0,1,1-35.26-35.26A35.26,35.26,0,0,1,277,68.81Z" transform="translate(-36.57 -33.55)"/><circle class="cls-18" cx="241.75" cy="68.81" r="29.69" transform="translate(-44.5 64.2) rotate(-22.5)"/><path class="cls-17" d="M266.07,68.81a24.32,24.32,0,1,1-24.32-24.32A24.32,24.32,0,0,1,266.07,68.81Z" transform="translate(-36.57 -33.55)"/><path class="cls-18" d="M252.62,68.81a10.87,10.87,0,1,1-10.87-10.87A10.87,10.87,0,0,1,252.62,68.81Z" transform="translate(-36.57 -33.55)"/><path class="cls-17" d="M247.51,68.81a5.76,5.76,0,1,1-5.76-5.76A5.76,5.76,0,0,1,247.51,68.81Z" transform="translate(-36.57 -33.55)"/><polygon class="cls-19" points="161.62 62.12 156.47 65.04 160.87 66.41 166.03 63.49 161.62 62.12"/><polygon class="cls-19" points="164.94 67.97 159.78 70.89 160.87 66.41 166.03 63.49 164.94 67.97"/><path class="cls-19" d="M199.3,98.91c-.45-.81,4.52-4.5,12.28-8.89a187.56,187.56,0,0,1,19.07-8.87A188.09,188.09,0,0,1,213.24,93C205.48,97.34,199.76,99.71,199.3,98.91Z" transform="translate(-36.57 -33.55)"/><path class="cls-17" d="M197.44,100c2.71-1.69,5.44-3.31,8.18-4.92s5.51-3.18,8.26-4.77,5.55-3.12,8.34-4.64,5.59-3,8.43-4.48c-2.7,1.69-5.44,3.31-8.18,4.92s-5.51,3.18-8.26,4.77-5.55,3.11-8.34,4.64S200.28,98.51,197.44,100Z" transform="translate(-36.57 -33.55)"/><polygon class="cls-19" points="180.44 10.12 175.93 6.29 176.16 10.89 180.67 14.73 180.44 10.12"/><polygon class="cls-19" points="176.09 15.25 171.57 11.41 176.16 10.89 180.67 14.73 176.09 15.25"/><path class="cls-19" d="M214.36,45.83c.6-.71,5.77,2.7,12.56,8.47a185.26,185.26,0,0,1,14.89,14.85,186.15,186.15,0,0,1-17.06-12.29C218,51.09,213.76,46.54,214.36,45.83Z" transform="translate(-36.57 -33.55)"/><path class="cls-17" d="M212.73,44.45c2.51,1.95,5,4,7.43,6s4.88,4.08,7.32,6.12,4.84,4.13,7.23,6.23,4.77,4.21,7.1,6.37c-2.51-2-5-4-7.43-6s-4.88-4.07-7.32-6.11-4.83-4.14-7.22-6.24S215.07,46.61,212.73,44.45Z" transform="translate(-36.57 -33.55)"/><rect class="cls-17" x="248.02" y="0.26" width="250.54" height="154.64" rx="12.64"/><path class="cls-18" d="M297.91,185.75a10.61,10.61,0,0,1-10.61-10.61V46.68a10.16,10.16,0,0,1,10.15-10.16H522.27a10.15,10.15,0,0,1,10.15,10.16V175.14a10.61,10.61,0,0,1-10.61,10.61Z" transform="translate(-36.57 -33.55)"/><path class="cls-19" d="M296.92,36.52H522.27a10.15,10.15,0,0,1,10.15,10.16v8.17H286.77V46.68A10.16,10.16,0,0,1,296.92,36.52Z" transform="translate(-36.57 -33.55)"/><path class="cls-19" d="M302.92,45.69a2.34,2.34,0,1,1-2.34-2.35A2.34,2.34,0,0,1,302.92,45.69Z" transform="translate(-36.57 -33.55)"/><path class="cls-19" d="M316.88,45.69a2.35,2.35,0,1,1-2.35-2.35A2.35,2.35,0,0,1,316.88,45.69Z" transform="translate(-36.57 -33.55)"/><path class="cls-19" d="M330.83,45.69a2.34,2.34,0,1,1-2.34-2.35A2.34,2.34,0,0,1,330.83,45.69Z" transform="translate(-36.57 -33.55)"/><line class="cls-20" x1="263.4" y1="127.64" x2="403.17" y2="127.64"/><line class="cls-20" x1="263.4" y1="135.7" x2="372.58" y2="135.7"/><line class="cls-20" x1="263.4" y1="143.76" x2="331.38" y2="143.76"/><line class="cls-20" x1="422.82" y1="127.64" x2="435.74" y2="127.64"/><line class="cls-20" x1="422.82" y1="135.7" x2="435.74" y2="135.7"/><line class="cls-20" x1="422.82" y1="143.76" x2="435.74" y2="143.76"/><line class="cls-20" x1="446.54" y1="127.64" x2="459.46" y2="127.64"/><line class="cls-20" x1="446.54" y1="135.7" x2="459.46" y2="135.7"/><line class="cls-20" x1="446.54" y1="143.76" x2="459.46" y2="143.76"/><line class="cls-20" x1="470.26" y1="127.64" x2="483.18" y2="127.64"/><line class="cls-20" x1="470.26" y1="135.7" x2="483.18" y2="135.7"/><line class="cls-20" x1="470.26" y1="143.76" x2="483.18" y2="143.76"/><line class="cls-21" x1="482.24" y1="25.82" x2="482.24" y2="56.85"/><line class="cls-22" x1="482.24" y1="35.45" x2="482.24" y2="49.57"/><line class="cls-21" x1="475.35" y1="31.07" x2="475.35" y2="62.1"/><line class="cls-22" x1="475.35" y1="45.51" x2="475.35" y2="54.82"/><line class="cls-21" x1="468.45" y1="33.8" x2="468.45" y2="64.82"/><line class="cls-22" x1="468.45" y1="49.61" x2="468.45" y2="64.17"/><line class="cls-21" x1="461.56" y1="32.26" x2="461.56" y2="63.29"/><line class="cls-22" x1="461.56" y1="36.8" x2="461.56" y2="56.01"/><line class="cls-21" x1="454.67" y1="42.88" x2="454.67" y2="66.15"/><line class="cls-22" x1="454.67" y1="48.89" x2="454.67" y2="59.15"/><line class="cls-21" x1="447.78" y1="46.22" x2="447.78" y2="73.91"/><line class="cls-22" x1="447.78" y1="53.5" x2="447.78" y2="69.97"/><line class="cls-21" x1="440.88" y1="41.33" x2="440.88" y2="65.44"/><line class="cls-22" x1="440.88" y1="46.98" x2="440.88" y2="60.66"/><line class="cls-21" x1="433.99" y1="31.66" x2="433.99" y2="60.54"/><line class="cls-22" x1="433.99" y1="37.27" x2="433.99" y2="55.41"/><line class="cls-21" x1="427.1" y1="45.32" x2="427.1" y2="68.24"/><line class="cls-22" x1="427.1" y1="50.81" x2="427.1" y2="61.91"/><line class="cls-21" x1="420.2" y1="54.7" x2="420.2" y2="77.73"/><line class="cls-22" x1="420.2" y1="61.98" x2="420.2" y2="70.45"/><line class="cls-21" x1="413.31" y1="48.73" x2="413.31" y2="72.24"/><line class="cls-22" x1="413.31" y1="56.01" x2="413.31" y2="64.88"/><line class="cls-21" x1="406.42" y1="54.7" x2="406.42" y2="83.22"/><line class="cls-22" x1="406.42" y1="61.98" x2="406.42" y2="78.45"/><line class="cls-21" x1="399.53" y1="54.7" x2="399.53" y2="74.45"/><line class="cls-22" x1="399.53" y1="61.98" x2="399.53" y2="70.02"/><line class="cls-21" x1="392.63" y1="51.6" x2="392.63" y2="72.24"/><line class="cls-22" x1="392.63" y1="58.88" x2="392.63" y2="64.88"/><line class="cls-21" x1="385.74" y1="54.7" x2="385.74" y2="94.2"/><line class="cls-22" x1="385.74" y1="61.98" x2="385.74" y2="89.91"/><line class="cls-21" x1="378.85" y1="65.8" x2="378.85" y2="96.83"/><line class="cls-22" x1="378.85" y1="73.08" x2="378.85" y2="89.55"/><line class="cls-21" x1="371.95" y1="67.11" x2="371.95" y2="102.44"/><line class="cls-22" x1="371.95" y1="73.79" x2="371.95" y2="95.16"/><line class="cls-21" x1="365.06" y1="87.4" x2="365.06" y2="116.04"/><line class="cls-22" x1="365.06" y1="92.29" x2="365.06" y2="108.76"/><line class="cls-21" x1="358.17" y1="59.8" x2="358.17" y2="90.83"/><line class="cls-22" x1="358.17" y1="67.08" x2="358.17" y2="87.37"/><line class="cls-21" x1="351.28" y1="62.34" x2="351.28" y2="93.37"/><line class="cls-22" x1="351.28" y1="74.03" x2="351.28" y2="86.09"/><line class="cls-21" x1="344.38" y1="74.03" x2="344.38" y2="105.06"/><line class="cls-22" x1="344.38" y1="87.28" x2="344.38" y2="97.78"/><line class="cls-21" x1="337.49" y1="81.31" x2="337.49" y2="112.34"/><line class="cls-22" x1="337.49" y1="96.83" x2="337.49" y2="105.06"/><line class="cls-21" x1="330.6" y1="77.02" x2="330.6" y2="108.05"/><line class="cls-22" x1="330.6" y1="90.74" x2="330.6" y2="100.77"/><line class="cls-21" x1="323.71" y1="74.03" x2="323.71" y2="105.06"/><line class="cls-22" x1="323.71" y1="85.25" x2="323.71" y2="97.78"/><line class="cls-21" x1="316.81" y1="81.68" x2="316.81" y2="112.71"/><line class="cls-22" x1="316.81" y1="86.1" x2="316.81" y2="105.43"/><line class="cls-21" x1="309.92" y1="68.77" x2="309.92" y2="99.8"/><line class="cls-22" x1="309.92" y1="76.05" x2="309.92" y2="94.79"/><line class="cls-21" x1="303.03" y1="56.01" x2="303.03" y2="87.04"/><line class="cls-22" x1="303.03" y1="63.29" x2="303.03" y2="82.26"/><line class="cls-21" x1="296.13" y1="61.26" x2="296.13" y2="92.29"/><line class="cls-22" x1="296.13" y1="66.51" x2="296.13" y2="85.01"/><line class="cls-21" x1="289.24" y1="54.82" x2="289.24" y2="85.85"/><line class="cls-22" x1="289.24" y1="62.1" x2="289.24" y2="67.23"/><line class="cls-21" x1="282.35" y1="47.78" x2="282.35" y2="78.81"/><line class="cls-22" x1="282.35" y1="55.06" x2="282.35" y2="63.29"/><line class="cls-21" x1="275.46" y1="62.76" x2="275.46" y2="99.57"/><line class="cls-22" x1="275.46" y1="66.57" x2="275.46" y2="92.29"/><line class="cls-21" x1="268.56" y1="83.82" x2="268.56" y2="114.85"/><line class="cls-22" x1="268.56" y1="75.95" x2="268.56" y2="89.91"/><line class="cls-21" x1="261.67" y1="81.67" x2="261.67" y2="112.7"/><line class="cls-22" x1="261.67" y1="87.28" x2="261.67" y2="105.42"/><path class="cls-19" d="M593,132.5l-9.15,14.08h-16.8a17.38,17.38,0,0,1,17.35-16.37A17.16,17.16,0,0,1,593,132.5Z" transform="translate(-36.57 -33.55)"/><path class="cls-17" d="M601.81,147.59a17.22,17.22,0,0,1-2.52,9l-13.47-9.27,8.91-13.71A17.35,17.35,0,0,1,601.81,147.59Z" transform="translate(-36.57 -33.55)"/><path class="cls-19" d="M598.14,158.26a17.37,17.37,0,0,1-31.06-9.65h17Z" transform="translate(-36.57 -33.55)"/><rect class="cls-23" x="474.87" y="73.03" width="43.89" height="31.53" rx="2.3"/><path class="cls-24" d="M514.63,134.15c3.13,0,3.13-4.27,6.25-4.27s3.13-7.54,6.25-7.54,2.26,4.92,5.39,4.92,4-12.87,7.11-12.87,3.13,5.65,6.25,5.65,3.13-5.65,6.26-5.65" transform="translate(-36.57 -33.55)"/><rect class="cls-17" x="535.26" y="146.8" width="11" height="11" rx="1.55"/><polyline class="cls-25" points="538.13 152.87 539.38 154.26 543.38 150.33"/><rect class="cls-17" x="190.7" y="82.08" width="16.39" height="16.39" rx="2.32"/><polyline class="cls-26" points="194.98 91.13 196.84 93.2 202.81 87.35"/></g></svg>