<svg xmlns="http://www.w3.org/2000/svg" viewBox="0 0 511.68 511.8" fill="#5280d6"><path d="M326.67,283.82l24.11,23.88c1.9-2.46,3.64-5.41,6-7.65,4.22-4,9-3.85,13.54-.22,1.16.93,84.6,84.38,125.22,125.07,15.14,15.16,19.71,33,13.25,53.58C500.34,505.37,466,520,441,506.91a70.29,70.29,0,0,1-16.82-12.23q-60.56-60-120.66-120.45c-8.57-8.57-8.55-12.55,0-21.21,1-1,2-2.15,2.73-2.88l-23-22.92c-45.43,30.65-95.66,40.48-149.67,26.43C89.7,342.18,54.78,316.87,29.78,279A179.85,179.85,0,0,1,292.42,39.57a176.17,176.17,0,0,1,53.64,71.59A179.5,179.5,0,0,1,326.67,283.82ZM19.78,180C20.07,268,92,339.92,179.53,339.8c88.55-.12,160.44-72,160.25-160.2S267.4,19.5,179.6,19.82C91.42,20.11,19.53,92.2,19.78,180ZM364.29,406.51c25.35,25.41,78.42,78.26,79.61,79.17a29.73,29.73,0,0,0,40.16-4c11.15-12.82,10.22-29.71-2.56-42.58-19.71-19.84-69.74-70-74.7-75.1Zm26.13-56.69-26.64-26.68c-13.56,13.45-27.53,27.33-41.34,41L349.22,391Zm-69.75-15.54,13.11-13.09-19.71-19.72-13,13Z"/><path d="M39.87,180C39.7,103,102.56,40,179.69,39.79c76.94-.13,139.9,62.74,140.11,139.9.16,77-62.73,140-139.8,140.11S40.05,257.09,39.87,180Zm20-.8c-.71,65.67,52.91,120,119.15,120.67,65.89.6,119.82-52.58,120.73-119,.89-65.83-53-120.39-119.4-120.9-65.8-.6-119.76,52.9-120.47,119.23Z"/><path d="M189.78,89.82c.06,5.8-4.28,9.81-11.31,10.08-11.78.45-23.09,2.85-33.66,8.14a79.37,79.37,0,0,0-38.75,41.25c-.58,1.38-1,2.81-1.67,4.16-2.87,6.18-7.82,8.63-13.18,6.54-5.55-2.16-8.15-8-5.17-14,4.57-9.36,8.83-19.19,15.15-27.32,19.21-25,45.12-37.64,76.59-38.78C184.78,79.64,189.68,83.82,189.78,89.82Z"/><path d="M90.38,180.69a10.12,10.12,0,0,1,10.12,9.67,10.23,10.23,0,0,1-9.78,10.06,9.94,9.94,0,0,1-10-9.72,9.79,9.79,0,0,1,9.57-10Z"/></svg>