<svg id="Layer_1" data-name="Layer 1" xmlns="http://www.w3.org/2000/svg" viewBox="0 0 129.31 280.51"><defs><style>.cls-1{fill:#f2f2f2;}.cls-2{fill:#e2e2e2;}</style></defs><title>banner-bg2</title><path class="cls-1" d="M589.1,1218l-83.42,83.35,11.53-62.57,63.92-63.91Z" transform="translate(-497.74 -1077.16)"/><path class="cls-1" d="M572.52,1128.19l8.61,46.73,7.94,43.09,11.9,64.53,26.08-21.41Z" transform="translate(-497.74 -1077.16)"/><path class="cls-2" d="M612.33,1314l-34-184.56L593.2,1102a5.49,5.49,0,0,0-1-6.5l-16.85-16.77a5.42,5.42,0,0,0-3.86-1.6H538.63a5.46,5.46,0,0,0-3.87,1.6l-16.85,16.77a5.5,5.5,0,0,0-.95,6.5l14.87,27.39-34,184.56a5.5,5.5,0,0,0,2.19,5.45l51.89,37.21a5.48,5.48,0,0,0,6.39,0l51.88-37.21a5.46,5.46,0,0,0,2.19-5.45Zm-70.16-180.31H568l.57,3.08-33,33Zm-1.3-45.55h28.39l12.34,12.24-12.11,22.31H540.63l-12.11-22.31ZM532,1188.76l38.91-38.92,18.79,101.91-69,69-11.48-8.24Zm23,156.69-25.35-18.19,62.42-62.42,8.8,47.71Z" transform="translate(-497.74 -1077.16)"/></svg>