<svg id="Layer_1" data-name="Layer 1" xmlns="http://www.w3.org/2000/svg" viewBox="0 0 515.53 383.89"><defs><style>.cls-1{opacity:0.5;}.cls-2{fill:#f2f2f2;}.cls-3{fill:#e2e2e2;}</style></defs><title>banner-bg-card</title><g class="cls-1"><path class="cls-2" d="M757.61,1040.28l61.78,236.33a19.67,19.67,0,0,1-14,23.92L390.81,1408.9a19.66,19.66,0,0,1-23.92-14l-61.78-236.33a19.66,19.66,0,0,1,14-23.91l414.58-108.39A19.65,19.65,0,0,1,757.61,1040.28Z" transform="translate(-304.48 -1025.64)"/><path class="cls-3" d="M585.69,1307.46,475.2,1336.34a8.82,8.82,0,0,1-10.72-6.28l-.28-1.06a8.81,8.81,0,0,1,6.28-10.72L581,1289.4a8.8,8.8,0,0,1,10.72,6.27l.28,1.07A8.81,8.81,0,0,1,585.69,1307.46Z" transform="translate(-304.48 -1025.64)"/><path class="cls-3" d="M527.9,1199.61a21.27,21.27,0,0,1,.48,10.45,9.63,9.63,0,0,1-16.37,4.28,25.35,25.35,0,0,1-5.21-19.75,9.69,9.69,0,0,1,16.45-4.3A21.17,21.17,0,0,1,527.9,1199.61Zm-5.07,1.31a21.08,21.08,0,0,0-2.53-6.15c-1.55-2.34-3.33-3.26-5.33-2.73s-3.18,2.19-3.37,5a20.16,20.16,0,0,0,.78,6.64q2.7,10.29,8,8.93c2-.53,3.13-2.21,3.3-5A21,21,0,0,0,522.83,1200.92Z" transform="translate(-304.48 -1025.64)"/><path class="cls-3" d="M550.59,1193.68a21.27,21.27,0,0,1,.48,10.45,9.63,9.63,0,0,1-16.37,4.28,25.23,25.23,0,0,1-5.21-19.75,9.69,9.69,0,0,1,16.45-4.3A21.43,21.43,0,0,1,550.59,1193.68Zm-5.08,1.3a21,21,0,0,0-2.52-6.14c-1.56-2.34-3.34-3.26-5.34-2.73s-3.17,2.19-3.36,5a20.16,20.16,0,0,0,.78,6.64q2.68,10.29,7.95,8.93,3-.79,3.31-5a20.75,20.75,0,0,0-.82-6.7Z" transform="translate(-304.48 -1025.64)"/><path class="cls-3" d="M585,1184.69a21.27,21.27,0,0,1,.48,10.45,9.62,9.62,0,0,1-16.37,4.28,25.35,25.35,0,0,1-5.21-19.75,9.7,9.7,0,0,1,16.45-4.3A21.17,21.17,0,0,1,585,1184.69ZM579.9,1186a21.29,21.29,0,0,0-2.53-6.14c-1.55-2.35-3.32-3.26-5.33-2.74s-3.18,2.19-3.37,5a20.16,20.16,0,0,0,.78,6.64q2.7,10.31,8,8.93,3-.8,3.3-5A21,21,0,0,0,579.9,1186Z" transform="translate(-304.48 -1025.64)"/><path class="cls-3" d="M607.69,1178.78a21.27,21.27,0,0,1,.48,10.45,9.62,9.62,0,0,1-16.37,4.28,25.23,25.23,0,0,1-5.21-19.75,9.7,9.7,0,0,1,16.45-4.3A21.49,21.49,0,0,1,607.69,1178.78Zm-5.08,1.31a21.05,21.05,0,0,0-2.52-6.15q-2.34-3.51-5.34-2.73c-2,.54-3.17,2.19-3.36,5a20.16,20.16,0,0,0,.78,6.64q2.69,10.31,8,8.93c2-.54,3.1-2.2,3.31-5a20.87,20.87,0,0,0-.9-6.71Z" transform="translate(-304.48 -1025.64)"/><path class="cls-3" d="M630.34,1172.83a21.27,21.27,0,0,1,.49,10.45,9.63,9.63,0,0,1-16.38,4.28,25.3,25.3,0,0,1-5.2-19.75,9.7,9.7,0,0,1,16.45-4.3A21.31,21.31,0,0,1,630.34,1172.83Zm-5.07,1.31a21.05,21.05,0,0,0-2.52-6.15q-2.34-3.51-5.34-2.73c-2,.54-3.17,2.19-3.37,5a20.7,20.7,0,0,0,.78,6.64q2.7,10.29,8,8.93,3-.8,3.31-5a21,21,0,0,0-.86-6.69Z" transform="translate(-304.48 -1025.64)"/><path class="cls-3" d="M653,1166.9a21.27,21.27,0,0,1,.48,10.45,9.62,9.62,0,0,1-16.37,4.28,25.26,25.26,0,0,1-5.2-19.75,9.7,9.7,0,0,1,16.45-4.3A21.31,21.31,0,0,1,653,1166.9Zm-5.07,1.31a21.05,21.05,0,0,0-2.52-6.15c-1.56-2.34-3.34-3.26-5.34-2.73s-3.18,2.19-3.37,5a20.16,20.16,0,0,0,.78,6.64q2.7,10.29,8,8.93c2-.54,3.1-2.2,3.3-5A21,21,0,0,0,648,1168.21Z" transform="translate(-304.48 -1025.64)"/><path class="cls-3" d="M687.41,1157.91a21.31,21.31,0,0,1,.49,10.46,9.63,9.63,0,0,1-16.38,4.27,25.3,25.3,0,0,1-5.2-19.75,9.7,9.7,0,0,1,16.45-4.3A21.31,21.31,0,0,1,687.41,1157.91Zm-5.07,1.31a21,21,0,0,0-2.52-6.14q-2.34-3.52-5.34-2.74c-2.05.54-3.18,2.19-3.37,5a20.7,20.7,0,0,0,.78,6.64q2.7,10.29,8,8.93c2-.53,3.13-2.2,3.31-5A21.32,21.32,0,0,0,682.34,1159.22Z" transform="translate(-304.48 -1025.64)"/><path class="cls-3" d="M710.1,1152a21.27,21.27,0,0,1,.48,10.45,9.62,9.62,0,0,1-16.37,4.28A25.35,25.35,0,0,1,689,1147a9.7,9.7,0,0,1,16.45-4.3A21.17,21.17,0,0,1,710.1,1152Zm-5.07,1.31a21,21,0,0,0-2.53-6.14c-1.55-2.35-3.32-3.26-5.33-2.74s-3.18,2.19-3.37,5a20.16,20.16,0,0,0,.78,6.64q2.7,10.31,8,8.93c2-.53,3.13-2.21,3.3-5a21,21,0,0,0-.85-6.69Z" transform="translate(-304.48 -1025.64)"/><path class="cls-3" d="M732.79,1146.05a21.27,21.27,0,0,1,.48,10.45,9.62,9.62,0,0,1-16.37,4.28,25.23,25.23,0,0,1-5.21-19.75,9.7,9.7,0,0,1,16.45-4.3A21.33,21.33,0,0,1,732.79,1146.05Zm-5.08,1.31a21,21,0,0,0-2.52-6.14c-1.56-2.35-3.33-3.26-5.34-2.74s-3.17,2.19-3.36,5a20.16,20.16,0,0,0,.78,6.64q2.68,10.31,8,8.93,3-.79,3.3-5a20.74,20.74,0,0,0-.88-6.69Z" transform="translate(-304.48 -1025.64)"/><path class="cls-3" d="M755.48,1140.12a21.27,21.27,0,0,1,.48,10.45,9.62,9.62,0,0,1-16.37,4.28,21.15,21.15,0,0,1-4.7-9.35,21.43,21.43,0,0,1-.51-10.4,9.7,9.7,0,0,1,16.45-4.3A21.49,21.49,0,0,1,755.48,1140.12Zm-5.08,1.31a21.05,21.05,0,0,0-2.52-6.15q-2.34-3.51-5.34-2.73c-2,.54-3.17,2.19-3.36,5a20.42,20.42,0,0,0,.77,6.64q2.7,10.29,8,8.93,3-.8,3.31-5A20.76,20.76,0,0,0,750.4,1141.43Z" transform="translate(-304.48 -1025.64)"/><path class="cls-3" d="M456.32,1137.37l-108.13,28.27a8.82,8.82,0,0,1-10.72-6.28h0a8.81,8.81,0,0,1,6.28-10.72l108.13-28.27a8.82,8.82,0,0,1,10.72,6.28h0A8.81,8.81,0,0,1,456.32,1137.37Z" transform="translate(-304.48 -1025.64)"/><path class="cls-3" d="M717.91,1088.32a13.41,13.41,0,0,0-5-7.41,1.45,1.45,0,0,0-2,.29l-.09.15-.37.64a1.43,1.43,0,0,0,.37,1.85,9.86,9.86,0,0,1,3.1,11.87,1.44,1.44,0,0,0,.58,1.79l.65.39a1.45,1.45,0,0,0,2-.57l0-.08A13.44,13.44,0,0,0,717.91,1088.32Z" transform="translate(-304.48 -1025.64)"/><path class="cls-3" d="M724.92,1086.49a20.63,20.63,0,0,0-8.47-11.94,1.43,1.43,0,0,0-2,.47l0,0-.21.36a1.44,1.44,0,0,0,.46,1.91,17.41,17.41,0,0,1,5.8,22.19,1.44,1.44,0,0,0,.54,1.89l.36.21a1.44,1.44,0,0,0,2-.49l0-.07A20.64,20.64,0,0,0,724.92,1086.49Z" transform="translate(-304.48 -1025.64)"/><path class="cls-3" d="M731.06,1084.89A27,27,0,0,0,719.6,1069a1.43,1.43,0,0,0-2,.45l0,0h0a1.42,1.42,0,0,0,.46,1.91,24.17,24.17,0,0,1,8.25,31.54,1.42,1.42,0,0,0,.53,1.9h0a1.44,1.44,0,0,0,2-.51l0,0A27,27,0,0,0,731.06,1084.89Z" transform="translate(-304.48 -1025.64)"/><path class="cls-3" d="M737.69,1083.15A33.86,33.86,0,0,0,723,1063.06a1.45,1.45,0,0,0-2,.48v0l-.37.64a1.43,1.43,0,0,0,.48,1.92,30.32,30.32,0,0,1,10.45,40,1.43,1.43,0,0,0,.53,1.91l.63.37a1.44,1.44,0,0,0,2-.51l0,0A33.85,33.85,0,0,0,737.69,1083.15Z" transform="translate(-304.48 -1025.64)"/></g></svg>