<svg id="Layer_1" data-name="Layer 1" xmlns="http://www.w3.org/2000/svg" viewBox="0 0 466.66 288.39"><defs><style>.cls-1{fill:#e0e0e0;}.cls-2{opacity:0.8;}.cls-3{fill:#ebebeb;}.cls-3,.cls-8,.cls-9{fill-rule:evenodd;}.cls-4,.cls-9{fill:#fff;}.cls-5,.cls-8{fill:#65256d;}.cls-6{opacity:0.3;}.cls-7{fill:#263238;}.cls-10{opacity:0.4;}</style></defs><title>banner-img2</title><path class="cls-1" d="M488.06,79.1a4.8,4.8,0,0,1,1.5.47,6.4,6.4,0,0,1,3.59,5.94,6.46,6.46,0,0,1-1,3.28,6.59,6.59,0,0,1-2.87,2.46,6.57,6.57,0,0,1-4,.4,6.49,6.49,0,0,1-3.48-2.09,6,6,0,0,1-1-1.65,6.12,6.12,0,0,1-.5-1.8,6.48,6.48,0,0,1,.49-3.39,6.43,6.43,0,0,1,5.79-3.83,5,5,0,0,1,1.55.21c0,.05-.55-.11-1.55-.07a6.38,6.38,0,0,0-3.83,1.51,6.23,6.23,0,0,0-2.12,5.53,5.85,5.85,0,0,0,.48,1.7,5.76,5.76,0,0,0,1,1.56,6.14,6.14,0,0,0,7.1,1.59,5.57,5.57,0,0,0,1.56-1,5.89,5.89,0,0,0,1.17-1.33,6.23,6.23,0,0,0,.44-5.91,6.35,6.35,0,0,0-2.81-3C488.61,79.24,488.05,79.15,488.06,79.1Z" transform="translate(-46.54 0.39)"/><path class="cls-1" d="M493.14,72.32a1.76,1.76,0,0,1,0-.22c0-.17,0-.39,0-.68q0-.93,0-2.67l0,.06-5.77-1.26.1,0-1.51,3.23,0,.06h-.07a14.48,14.48,0,0,0-3.76.67l-.07,0-.05,0-2.53-2.51h.16l-5,3.18.06-.17c.38,1,.79,2.19,1.21,3.36l0,.09-.06.06a14.22,14.22,0,0,0-2.19,3.12l0,.08h-3.66l.16-.13c-.41,1.81-.84,3.77-1.29,5.77l-.09-.19,3.22,1.52.1,0v.1a14.51,14.51,0,0,0,.66,3.75l0,.1-.08.08-2.51,2.53,0-.22,3.16,5-.21-.08,3.36-1.19.11,0,.08.07a14,14,0,0,0,3.1,2.19h0c0,.07-.1-.16.09.16h0v3.56l-.14-.17,5.76,1.29-.2.1,1.53-3.22.05-.1H487a14.31,14.31,0,0,0,3.75-.65l.1,0,.07.08,2.53,2.52-.21,0,5-3.15-.07.2c-.4-1.15-.8-2.27-1.19-3.37l0-.09L497,95a14.24,14.24,0,0,0,2.2-3.1l0-.09h3.67l-.15.12,1.3-5.76.08.15-3.22-1.54-.07,0v-.08a14.27,14.27,0,0,0-.65-3.76l0-.07,0,0,2.53-2.52,0,.13-3.13-5,.09,0-3.37,1.17,0,0,0,0A15.18,15.18,0,0,0,494,72.82l-.62-.37a1.53,1.53,0,0,1-.2-.13l.22.1c.14.07.35.18.63.35a13.69,13.69,0,0,1,2.34,1.73l-.06,0,3.36-1.21.06,0,0,.06c.9,1.4,1.95,3,3.19,5l0,.08-.06.06L500.38,81l0-.12a14.57,14.57,0,0,1,.68,3.82l-.08-.11,3.23,1.52.1,0,0,.11C503.91,88,503.49,90,503,92l0,.12h-.12l-3.57,0,.14-.09a15,15,0,0,1-2.24,3.19l0-.17c.4,1.1.8,2.22,1.21,3.36l0,.13-.11.07-5,3.17-.11.07-.1-.1c-.84-.82-1.68-1.66-2.54-2.51l.18,0A14.52,14.52,0,0,1,487,100l.16-.1c-.51,1.06-1,2.14-1.53,3.22l-.06.13-.14,0-5.77-1.29-.14,0V98.16h0c.2.33.05.09.1.16h0a14.57,14.57,0,0,1-3.19-2.24l.19,0-3.37,1.19-.13,0-.08-.12-3.16-5-.08-.12.1-.1,2.52-2.53,0,.18a14.4,14.4,0,0,1-.66-3.84l.09.15-3.22-1.54-.12-.06,0-.13,1.3-5.76,0-.13h3.7l-.14.09a14.65,14.65,0,0,1,2.24-3.18l0,.15c-.41-1.18-.82-2.32-1.19-3.37l0-.1.1-.06,5-3.15.08-.06.08.07,2.52,2.53-.12,0a14.44,14.44,0,0,1,3.83-.65l-.1.06,1.55-3.22,0-.07.07,0,5.76,1.33h0v0c0,1.15,0,2,0,2.65,0,.29,0,.52,0,.69A1,1,0,0,1,493.14,72.32Z" transform="translate(-46.54 0.39)"/><g class="cls-2"><path class="cls-3" d="M462.36,9.23a28.62,28.62,0,0,1,6.23,4.38l6.65-2.37,6.25,9.87-5,5a28.49,28.49,0,0,1,1.31,7.5l6.37,3-2.55,11.4h-7.06a28.66,28.66,0,0,1-4.39,6.23l2.37,6.65-9.87,6.26-5-5a28.64,28.64,0,0,1-7.51,1.31l-3,6.38-11.4-2.56V60.28a28.32,28.32,0,0,1-6.23-4.39l-6.65,2.37-6.25-9.87,5-5a28.64,28.64,0,0,1-1.31-7.5l-6.37-3,2.55-11.4,7.06,0a28.66,28.66,0,0,1,4.39-6.23l-2.37-6.65,9.87-6.25,5,5A28.63,28.63,0,0,1,447.92,6l3-6.38,11.4,2.56V9.23ZM452.31,22.64a12.53,12.53,0,1,0,9.49,15A12.53,12.53,0,0,0,452.31,22.64Z" transform="translate(-46.54 0.39)"/></g><rect class="cls-4" x="11.32" y="127.49" width="129.42" height="52.57"/><path class="cls-5" d="M187.26,179.67s0-.32,0-.94,0-1.53,0-2.73c0-2.4,0-5.92,0-10.46,0-9.07-.05-22.2-.08-38.44l.15.14-129.42.07h0l.21-.21c0,18.41,0,36.18,0,52.57l-.2-.2,92.8.1,26.91.05,7.21,0h.05l-7.17,0-26.87.05-92.93.1h-.19v-.2c0-16.39,0-34.16,0-52.57v-.2h.21l129.42.06h.14v.14c0,16.28-.06,29.43-.08,38.53,0,4.52,0,8,0,10.43,0,1.18,0,2.08,0,2.7S187.26,179.67,187.26,179.67Z" transform="translate(-46.54 0.39)"/><path class="cls-5" d="M58,134.19c0-.11,28.93-.21,64.61-.21s64.61.1,64.61.21-28.92.2-64.61.2S58,134.3,58,134.19Z" transform="translate(-46.54 0.39)"/><g class="cls-6"><path class="cls-5" d="M63.38,131a.94.94,0,1,1-.94-.94A.94.94,0,0,1,63.38,131Z" transform="translate(-46.54 0.39)"/></g><g class="cls-6"><path class="cls-5" d="M66.6,131a.94.94,0,1,1-.94-.94A.94.94,0,0,1,66.6,131Z" transform="translate(-46.54 0.39)"/></g><g class="cls-6"><path class="cls-5" d="M69.77,131a.94.94,0,1,1-.94-.94A.94.94,0,0,1,69.77,131Z" transform="translate(-46.54 0.39)"/></g><g class="cls-6"><rect class="cls-5" x="22.3" y="143.12" width="31.26" height="31.26"/></g><path class="cls-5" d="M178.3,151.11c0,.11-16.09.21-35.92.21s-35.93-.1-35.93-.21,16.08-.2,35.93-.2S178.3,151,178.3,151.11Z" transform="translate(-46.54 0.39)"/><path class="cls-5" d="M178.3,157.48c0,.11-16.09.2-35.92.2s-35.93-.09-35.93-.2,16.08-.21,35.93-.21S178.3,157.37,178.3,157.48Z" transform="translate(-46.54 0.39)"/><path class="cls-5" d="M152.7,163.85a2.15,2.15,0,0,1-.47,0l-1.35,0-4.95.06-16.35.06L113.22,164l-5-.06-1.34,0a2.15,2.15,0,0,1-.47,0,1.57,1.57,0,0,1,.47,0l1.34,0,5-.07,16.36-.06,16.35.06,4.95.07,1.35,0A1.57,1.57,0,0,1,152.7,163.85Z" transform="translate(-46.54 0.39)"/><rect class="cls-5" x="419.56" y="235.08" width="6.97" height="22.52"/><rect class="cls-5" x="432.39" y="225.81" width="6.97" height="31.78"/><rect class="cls-5" x="446.04" y="221.49" width="6.97" height="36.11"/><rect class="cls-5" x="459.69" y="216.92" width="6.97" height="40.68"/><path class="cls-7" d="M91.14,263.9a4.8,4.8,0,0,1,1.5.47,6.35,6.35,0,0,1,3.59,5.94,6.46,6.46,0,0,1-1,3.28,6.59,6.59,0,0,1-2.87,2.46,6.57,6.57,0,0,1-4,.4,6.49,6.49,0,0,1-3.48-2.09,6.57,6.57,0,0,1-1.54-3.45,6.48,6.48,0,0,1,.49-3.39,6.39,6.39,0,0,1,1.8-2.38,6.3,6.3,0,0,1,4-1.45,5,5,0,0,1,1.55.21c0,.05-.55-.11-1.55-.07a6.38,6.38,0,0,0-3.83,1.51,6.2,6.2,0,0,0-1.64,7.23,5.76,5.76,0,0,0,1,1.56,6.14,6.14,0,0,0,7.1,1.59,5.57,5.57,0,0,0,1.56-1A5.5,5.5,0,0,0,95,273.4a6.14,6.14,0,0,0,1-3.1,6,6,0,0,0-.54-2.8,6.35,6.35,0,0,0-2.81-3C91.69,264,91.13,264,91.14,263.9Z" transform="translate(-46.54 0.39)"/><path class="cls-5" d="M96.22,257.12a1.76,1.76,0,0,1,0-.22c0-.17,0-.39,0-.68,0-.62,0-1.51,0-2.67l0,.06-5.77-1.26.1,0c-.45,1-1,2.07-1.51,3.23l0,.06h-.06a14.48,14.48,0,0,0-3.77.67l-.07,0,0,0-2.53-2.51h.16l-5,3.18.06-.17c.38,1,.79,2.18,1.21,3.36l0,.08-.06.07a14.22,14.22,0,0,0-2.19,3.12l0,.08h-.09l-3.57,0,.16-.13c-.41,1.81-.84,3.76-1.29,5.77l-.09-.19L75,270.44l.1.05v.1a14.51,14.51,0,0,0,.66,3.75l0,.1-.08.08-2.51,2.53,0-.22c1,1.58,2.08,3.27,3.16,5l-.21-.08,3.36-1.2.11,0,.08.07a14.37,14.37,0,0,0,3.1,2.19h0l.1.16h0v3.56l-.14-.17,5.76,1.29-.2.1c.52-1.09,1-2.16,1.53-3.23l0-.09h.11a14.31,14.31,0,0,0,3.75-.65l.1,0,.07.08,2.53,2.52-.21,0,5-3.15-.07.19c-.4-1.14-.8-2.26-1.19-3.36l0-.09.07-.08a14.07,14.07,0,0,0,2.2-3.11l0-.08H106l-.15.12c.46-2,.89-3.94,1.31-5.76l.07.15L104,269.57l-.07,0v-.08a14.27,14.27,0,0,0-.65-3.76l0-.07.05-.05,2.53-2.52,0,.13-3.13-5,.09,0-3.37,1.17,0,0,0,0A15.18,15.18,0,0,0,97,257.62l-.61-.37-.21-.13.22.1c.14.07.35.18.63.35a13.69,13.69,0,0,1,2.34,1.73l-.06,0,3.36-1.21.06,0,0,.06c.9,1.4,2,3,3.19,5l0,.08-.06.06-2.51,2.54,0-.12a14.57,14.57,0,0,1,.68,3.82l-.08-.11,3.23,1.52.1.05,0,.11c-.41,1.82-.83,3.73-1.28,5.76l0,.12H102.4l.14-.08A15,15,0,0,1,100.3,280l0-.17c.4,1.1.8,2.22,1.21,3.36l0,.13-.11.07-5,3.17-.11.07-.1-.1c-.84-.82-1.68-1.66-2.53-2.51l.17,0a14.45,14.45,0,0,1-3.84.67l.16-.1c-.51,1.06-1,2.14-1.53,3.22l-.06.13-.14,0-5.77-1.29-.14,0v-3.71h0c.2.33.06.09.1.16h0a14.57,14.57,0,0,1-3.19-2.24l.19,0-3.37,1.19-.13.05L76.1,282l-3.16-5-.08-.12.1-.1,2.53-2.53,0,.18a14.4,14.4,0,0,1-.66-3.84l.1.15-3.23-1.54-.12-.06,0-.13,1.3-5.76,0-.13h3.7l-.14.09a14.35,14.35,0,0,1,2.25-3.18l0,.15c-.41-1.18-.82-2.32-1.19-3.37l0-.1.1-.06,5-3.15.09-.06.07.07,2.52,2.53-.12,0a14.44,14.44,0,0,1,3.83-.65l-.1.06,1.55-3.22,0-.07.07,0,5.76,1.33h0v0c0,1.15,0,2,0,2.65,0,.29,0,.52,0,.68A1.1,1.1,0,0,1,96.22,257.12Z" transform="translate(-46.54 0.39)"/><path class="cls-8" d="M85.34,212.26a16.26,16.26,0,0,1,3.48,2.45l3.72-1.32L96,218.91l-2.78,2.79a16.44,16.44,0,0,1,.73,4.2l3.56,1.69L96.11,234H92.17a16.26,16.26,0,0,1-2.45,3.48L91,241.17l-5.51,3.49-2.8-2.78a16.36,16.36,0,0,1-4.2.73l-1.69,3.56-6.37-1.43V240.8A16.51,16.51,0,0,1,67,238.35l-3.72,1.32-3.49-5.52,2.78-2.79a16.44,16.44,0,0,1-.73-4.2l-3.56-1.69,1.43-6.37h3.94a16,16,0,0,1,2.46-3.48l-1.33-3.72,5.52-3.49,2.79,2.78a16.44,16.44,0,0,1,4.2-.73L79,206.89l6.37,1.43v3.94Zm-5.62,7.5A7,7,0,1,0,85,228.13,7,7,0,0,0,79.72,219.76Z" transform="translate(-46.54 0.39)"/><g class="cls-2"><path class="cls-9" d="M85.34,212.26a16.26,16.26,0,0,1,3.48,2.45l3.72-1.32L96,218.91l-2.78,2.79a16.44,16.44,0,0,1,.73,4.2l3.56,1.69L96.11,234H92.17a16.26,16.26,0,0,1-2.45,3.48L91,241.17l-5.51,3.49-2.8-2.78a16.36,16.36,0,0,1-4.2.73l-1.69,3.56-6.37-1.43V240.8A16.51,16.51,0,0,1,67,238.35l-3.72,1.32-3.49-5.52,2.78-2.79a16.44,16.44,0,0,1-.73-4.2l-3.56-1.69,1.43-6.37h3.94a16,16,0,0,1,2.46-3.48l-1.33-3.72,5.52-3.49,2.79,2.78a16.44,16.44,0,0,1,4.2-.73L79,206.89l6.37,1.43v3.94Zm-5.62,7.5A7,7,0,1,0,85,228.13,7,7,0,0,0,79.72,219.76Z" transform="translate(-46.54 0.39)"/></g><path class="cls-8" d="M62.3,249.8a9.36,9.36,0,0,1,2,1.42l2.16-.77,2,3.21-1.63,1.63a9.05,9.05,0,0,1,.43,2.44l2.07,1-.83,3.71H66.28a9.16,9.16,0,0,1-1.43,2l.77,2.16-3.21,2L60.78,267a9.45,9.45,0,0,1-2.44.42l-1,2.08-3.71-.84v-2.29a9.4,9.4,0,0,1-2-1.43l-2.16.77-2-3.21L49,260.91a9.05,9.05,0,0,1-.43-2.44l-2.07-1,.83-3.71h2.29a9.34,9.34,0,0,1,1.43-2l-.77-2.17,3.21-2,1.63,1.62a9.46,9.46,0,0,1,2.44-.43l1-2.07,3.71.83v2.3ZM59,254.16A4.08,4.08,0,1,0,62.12,259,4.08,4.08,0,0,0,59,254.16Z" transform="translate(-46.54 0.39)"/><g class="cls-10"><path class="cls-9" d="M62.3,249.8a9.36,9.36,0,0,1,2,1.42l2.16-.77,2,3.21-1.63,1.63a9.05,9.05,0,0,1,.43,2.44l2.07,1-.83,3.71H66.28a9.16,9.16,0,0,1-1.43,2l.77,2.16-3.21,2L60.78,267a9.45,9.45,0,0,1-2.44.42l-1,2.08-3.71-.84v-2.29a9.4,9.4,0,0,1-2-1.43l-2.16.77-2-3.21L49,260.91a9.05,9.05,0,0,1-.43-2.44l-2.07-1,.83-3.71h2.29a9.34,9.34,0,0,1,1.43-2l-.77-2.17,3.21-2,1.63,1.62a9.46,9.46,0,0,1,2.44-.43l1-2.07,3.71.83v2.3ZM59,254.16A4.08,4.08,0,1,0,62.12,259,4.08,4.08,0,0,0,59,254.16Z" transform="translate(-46.54 0.39)"/></g></svg>