<svg id="Layer_1" data-name="Layer 1" xmlns="http://www.w3.org/2000/svg" viewBox="0 0 240.85 213.89"><defs><style>.cls-1{fill:#f2f2f2;}.cls-2{fill:#e2e2e2;}</style></defs><title>banner-bg1</title><path class="cls-1" d="M563.75,1204.47l38.2-64.19-73.7,8.09,11,17.44-89.73,58L463,1245l89.73-58Z" transform="translate(-441.56 -1110.64)"/><path class="cls-2" d="M677,1134.64l5.19-18a4.71,4.71,0,0,0-3.24-5.82,4.65,4.65,0,0,0-1.28-.18h-49a4.69,4.69,0,0,0-4.71,4.69h0v75.14H610a4.69,4.69,0,0,0-4.71,4.69h0v19.46h-13a4.69,4.69,0,0,0-4.71,4.69h0v24.8H519.23a4.69,4.69,0,0,0-4.7,4.7h0v24.76H446.27a4.69,4.69,0,0,0-4.71,4.69h0v41.52a4.7,4.7,0,0,0,4.7,4.7H665.13a4.71,4.71,0,0,0,4.71-4.69h0V1219.38a4.7,4.7,0,0,0-4.7-4.7h-13v-19.44a4.7,4.7,0,0,0-4.7-4.7H633.36V1158.6h44.33a4.72,4.72,0,0,0,4.7-4.72,4.6,4.6,0,0,0-.18-1.28ZM451,1283h63.56v32.12H451Zm73-29.46h63.56v61.58h-63.6Zm136.53,61.58H596.94v-91h63.55v91Zm-17.72-100.45H614.66v-14.75h28.12ZM667.67,1136l3.82,13.24H633.42v-29.1h38.07l-3.82,13.25a4.64,4.64,0,0,0,0,2.61Z" transform="translate(-441.56 -1110.64)"/></svg>