<svg id="Layer_1" data-name="Layer 1" xmlns="http://www.w3.org/2000/svg" viewBox="0 0 370.14 228.47"><defs><style>.cls-1{fill:#d5d5d5;}.cls-2{fill:#fff;}.cls-3{fill:#bcbcbc;}.cls-4{fill:#e8e8e8;}.cls-5,.cls-6,.cls-7{fill:none;stroke:#d5d5d5;}.cls-5{stroke-linecap:round;stroke-linejoin:round;stroke-width:3px;}.cls-6,.cls-7{stroke-miterlimit:10;}.cls-6{stroke-width:0.79px;}.cls-7{stroke-width:6.32px;}</style></defs><title>choose-bg-graph</title><rect class="cls-1" width="370.14" height="228.47" rx="18.68"/><path class="cls-2" d="M396.86,1327.82a15.68,15.68,0,0,1-15.68-15.68V1122.35a15,15,0,0,1,15-15H728.32a15,15,0,0,1,15,15v189.79a15.68,15.68,0,0,1-15.68,15.68Z" transform="translate(-377.18 -1103.35)"/><path class="cls-3" d="M395.4,1107.35H728.32a15,15,0,0,1,15,15v12.08H380.4v-12.08A15,15,0,0,1,395.4,1107.35Z" transform="translate(-377.18 -1103.35)"/><path class="cls-4" d="M404.26,1120.89a3.46,3.46,0,1,1-3.46-3.46A3.46,3.46,0,0,1,404.26,1120.89Z" transform="translate(-377.18 -1103.35)"/><path class="cls-4" d="M424.87,1120.89a3.46,3.46,0,1,1-3.46-3.46A3.46,3.46,0,0,1,424.87,1120.89Z" transform="translate(-377.18 -1103.35)"/><path class="cls-4" d="M445.49,1120.89a3.46,3.46,0,1,1-3.46-3.46A3.46,3.46,0,0,1,445.49,1120.89Z" transform="translate(-377.18 -1103.35)"/><line class="cls-5" x1="22.71" y1="188.18" x2="229.21" y2="188.18"/><line class="cls-5" x1="22.71" y1="200.09" x2="184.02" y2="200.09"/><line class="cls-5" x1="22.71" y1="212" x2="123.16" y2="212"/><line class="cls-5" x1="258.25" y1="188.18" x2="277.34" y2="188.18"/><line class="cls-5" x1="258.25" y1="200.09" x2="277.34" y2="200.09"/><line class="cls-5" x1="258.25" y1="212" x2="277.34" y2="212"/><line class="cls-5" x1="293.29" y1="188.18" x2="312.38" y2="188.18"/><line class="cls-5" x1="293.29" y1="200.09" x2="312.38" y2="200.09"/><line class="cls-5" x1="293.29" y1="212" x2="312.38" y2="212"/><line class="cls-5" x1="328.34" y1="188.18" x2="347.43" y2="188.18"/><line class="cls-5" x1="328.34" y1="200.09" x2="347.43" y2="200.09"/><line class="cls-5" x1="328.34" y1="212" x2="347.43" y2="212"/><line class="cls-6" x1="346.04" y1="37.75" x2="346.04" y2="83.6"/><line class="cls-7" x1="346.04" y1="51.98" x2="346.04" y2="72.84"/><line class="cls-6" x1="335.85" y1="45.51" x2="335.85" y2="91.35"/><line class="cls-7" x1="335.85" y1="66.85" x2="335.85" y2="80.6"/><line class="cls-6" x1="325.67" y1="49.54" x2="325.67" y2="95.38"/><line class="cls-7" x1="325.67" y1="72.9" x2="325.67" y2="94.41"/><line class="cls-6" x1="315.48" y1="47.27" x2="315.48" y2="93.12"/><line class="cls-7" x1="315.48" y1="53.98" x2="315.48" y2="82.36"/><line class="cls-6" x1="305.3" y1="62.96" x2="305.3" y2="97.34"/><line class="cls-7" x1="305.3" y1="71.84" x2="305.3" y2="87"/><line class="cls-6" x1="295.12" y1="67.9" x2="295.12" y2="108.8"/><line class="cls-7" x1="295.12" y1="78.65" x2="295.12" y2="102.99"/><line class="cls-6" x1="284.93" y1="60.67" x2="284.93" y2="96.29"/><line class="cls-7" x1="284.93" y1="69.02" x2="284.93" y2="89.23"/><line class="cls-6" x1="274.75" y1="46.39" x2="274.75" y2="89.06"/><line class="cls-7" x1="274.75" y1="54.67" x2="274.75" y2="81.47"/><line class="cls-6" x1="264.57" y1="66.57" x2="264.57" y2="100.42"/><line class="cls-7" x1="264.57" y1="74.68" x2="264.57" y2="91.08"/><line class="cls-6" x1="254.38" y1="80.42" x2="254.38" y2="114.45"/><line class="cls-7" x1="254.38" y1="91.18" x2="254.38" y2="103.7"/><line class="cls-6" x1="244.2" y1="71.61" x2="244.2" y2="106.34"/><line class="cls-7" x1="244.2" y1="82.36" x2="244.2" y2="95.47"/><line class="cls-6" x1="234.02" y1="80.42" x2="234.02" y2="122.56"/><line class="cls-7" x1="234.02" y1="91.18" x2="234.02" y2="115.51"/><line class="cls-6" x1="223.83" y1="80.42" x2="223.83" y2="109.6"/><line class="cls-7" x1="223.83" y1="91.18" x2="223.83" y2="103.05"/><line class="cls-6" x1="213.65" y1="75.84" x2="213.65" y2="106.34"/><line class="cls-7" x1="213.65" y1="86.59" x2="213.65" y2="95.47"/><line class="cls-6" x1="203.47" y1="80.42" x2="203.47" y2="138.78"/><line class="cls-7" x1="203.47" y1="91.18" x2="203.47" y2="132.44"/><line class="cls-6" x1="193.28" y1="96.82" x2="193.28" y2="142.66"/><line class="cls-7" x1="193.28" y1="107.58" x2="193.28" y2="131.91"/><line class="cls-6" x1="183.1" y1="98.76" x2="183.1" y2="150.95"/><line class="cls-7" x1="183.1" y1="108.63" x2="183.1" y2="140.19"/><line class="cls-6" x1="172.92" y1="128.74" x2="172.92" y2="171.05"/><line class="cls-7" x1="172.92" y1="135.96" x2="172.92" y2="160.3"/><line class="cls-6" x1="162.73" y1="87.96" x2="162.73" y2="133.8"/><line class="cls-7" x1="162.73" y1="98.72" x2="162.73" y2="128.69"/><line class="cls-6" x1="152.55" y1="91.71" x2="152.55" y2="137.55"/><line class="cls-7" x1="152.55" y1="108.99" x2="152.55" y2="126.79"/><line class="cls-6" x1="142.37" y1="108.99" x2="142.37" y2="154.83"/><line class="cls-7" x1="142.37" y1="128.56" x2="142.37" y2="144.07"/><line class="cls-6" x1="132.18" y1="119.74" x2="132.18" y2="165.58"/><line class="cls-7" x1="132.18" y1="142.66" x2="132.18" y2="154.83"/><line class="cls-6" x1="122" y1="113.39" x2="122" y2="159.24"/><line class="cls-7" x1="122" y1="133.67" x2="122" y2="148.48"/><line class="cls-6" x1="111.81" y1="108.99" x2="111.81" y2="154.83"/><line class="cls-7" x1="111.81" y1="125.56" x2="111.81" y2="144.07"/><line class="cls-6" x1="101.63" y1="120.28" x2="101.63" y2="166.13"/><line class="cls-7" x1="101.63" y1="126.81" x2="101.63" y2="155.37"/><line class="cls-6" x1="91.45" y1="101.21" x2="91.45" y2="147.06"/><line class="cls-7" x1="91.45" y1="111.97" x2="91.45" y2="139.65"/><line class="cls-6" x1="81.26" y1="82.36" x2="81.26" y2="128.2"/><line class="cls-7" x1="81.26" y1="93.11" x2="81.26" y2="121.15"/><line class="cls-6" x1="71.08" y1="90.11" x2="71.08" y2="135.96"/><line class="cls-7" x1="71.08" y1="97.87" x2="71.08" y2="125.2"/><line class="cls-6" x1="60.9" y1="80.6" x2="60.9" y2="126.44"/><line class="cls-7" x1="60.9" y1="91.35" x2="60.9" y2="98.94"/><line class="cls-6" x1="50.71" y1="70.2" x2="50.71" y2="116.04"/><line class="cls-7" x1="50.71" y1="80.95" x2="50.71" y2="93.12"/><line class="cls-6" x1="40.53" y1="92.32" x2="40.53" y2="146.72"/><line class="cls-7" x1="40.53" y1="97.97" x2="40.53" y2="135.96"/><line class="cls-6" x1="30.35" y1="123.44" x2="30.35" y2="169.29"/><line class="cls-7" x1="30.35" y1="111.81" x2="30.35" y2="132.44"/><line class="cls-6" x1="20.16" y1="120.28" x2="20.16" y2="166.12"/><line class="cls-7" x1="20.16" y1="128.56" x2="20.16" y2="155.36"/></svg>