<?xml version="1.0" encoding="utf-8"?>
<!-- Generator: Adobe Illustrator 23.0.6, SVG Export Plug-In . SVG Version: 6.00 Build 0)  -->
<svg version="1.1" xmlns="http://www.w3.org/2000/svg" xmlns:xlink="http://www.w3.org/1999/xlink" x="0px" y="0px"
	 viewBox="0 0 500 372.61" style="enable-background:new 0 0 500 372.61;" xml:space="preserve">
<style type="text/css">
	.st0{fill:#EBEBEB;}
	.st1{fill:#E0E0E0;}
	.st2{fill:#F5F5F5;}
	.st3{fill:#E6E6E6;}
	.st4{fill:#F0F0F0;}
	.st5{fill:#F0F0F0;stroke:#E0E0E0;stroke-width:2;stroke-linecap:round;stroke-linejoin:round;stroke-miterlimit:10;}
	.st6{opacity:0.2;fill:#E0E0E0;enable-background:new    ;}
	.st7{fill:#407BFF;}
	.st8{opacity:0.2;enable-background:new    ;}
	.st9{opacity:0.5;fill:#FFFFFF;enable-background:new    ;}
	.st10{opacity:0.2;fill:#FFFFFF;enable-background:new    ;}
	.st11{fill:#263238;}
	.st12{opacity:0.3;fill:#FFFFFF;enable-background:new    ;}
	.st13{opacity:0.6;fill:#FFFFFF;enable-background:new    ;}
	.st14{fill:#E4897B;}
	.st15{opacity:0.1;enable-background:new    ;}
	.st16{fill:#FFFFFF;}
	.st17{fill:#DE5753;}
	.st18{fill:none;stroke:#263238;stroke-width:0.7247;stroke-linecap:round;stroke-linejoin:round;stroke-miterlimit:10;}
	.st19{fill:none;stroke:#263238;stroke-width:0.5;stroke-linecap:round;stroke-linejoin:round;stroke-miterlimit:10;}
	.st20{opacity:0.4;enable-background:new    ;}
	.st21{opacity:0.7;fill:#FFFFFF;enable-background:new    ;}
	.st22{opacity:0.4;fill:#FFFFFF;enable-background:new    ;}
	.st23{fill:none;stroke:#407BFF;stroke-width:0.75;stroke-linecap:round;stroke-linejoin:round;}
	.st24{fill:none;stroke:#407BFF;stroke-width:0.75;stroke-linecap:round;stroke-linejoin:round;stroke-dasharray:6.0301,6.0301;}
	.st25{opacity:0.1;fill:#FFFFFF;enable-background:new    ;}
</style>
<g id="Background_Complete">
	<polyline class="st0" points="0,327.45 500,327.45 500,327.7 0,327.7 	"/>
	<rect x="416.78" y="343.54" class="st0" width="33.12" height="0.25"/>
	<rect x="322.53" y="346.26" class="st0" width="8.69" height="0.25"/>
	<rect x="396.59" y="334.26" class="st0" width="19.19" height="0.25"/>
	<rect x="52.46" y="335.94" class="st0" width="43.19" height="0.25"/>
	<rect x="104.56" y="335.94" class="st0" width="6.33" height="0.25"/>
	<rect x="131.47" y="340.16" class="st0" width="93.68" height="0.25"/>
	<path class="st0" d="M237.01,282.85H43.92c-3.15,0-5.71-2.56-5.71-5.71V5.71c0-3.15,2.56-5.71,5.71-5.71h193.1
		c3.15,0,5.71,2.56,5.71,5.71v271.43C242.72,280.29,240.16,282.85,237.01,282.85z M43.92,0.25c-3.01,0-5.46,2.45-5.46,5.46v271.43
		c0,3.01,2.45,5.46,5.46,5.46h193.1c3.01,0,5.46-2.45,5.46-5.46V5.71c0-3.01-2.45-5.46-5.46-5.46H43.92z"/>
	<path class="st0" d="M453.31,282.85h-193.1c-3.15,0-5.71-2.56-5.71-5.71V5.71c0-3.15,2.56-5.71,5.71-5.71h193.1
		c3.15,0,5.71,2.56,5.71,5.71v271.43C459.02,280.29,456.46,282.85,453.31,282.85z M260.21,0.25c-3.01,0-5.46,2.45-5.46,5.46v271.43
		c0,3.01,2.45,5.46,5.46,5.46h193.1c3.01,0,5.46-2.45,5.46-5.46V5.71c0-3.01-2.45-5.46-5.46-5.46H260.21z"/>
	<g>
		<g>
			<rect x="203.14" y="62.22" class="st1" width="242.28" height="233.54"/>
			<rect x="207.03" y="66.46" class="st2" width="238.39" height="225.22"/>
			<g>
				<polygon class="st3" points="208.79,237.14 208.79,169.4 215.82,169.4 215.82,160.45 231.66,153.04 231.66,143.89 234.3,143.89 
					234.3,169.4 236.94,169.4 236.94,237.14 240.46,237.14 240.46,201.95 248.38,201.95 248.38,183.48 251.02,183.48 251.02,237.14 
					257.17,237.14 257.17,216.91 261.57,216.91 261.57,211.63 271.25,211.63 271.25,193.15 276.53,193.15 276.53,180.84 
					282.69,180.84 282.69,162.36 285.33,162.36 285.33,180.84 291.49,180.84 291.49,193.15 296.76,193.15 296.76,211.63 
					306.44,211.63 306.44,216.91 310.84,216.91 310.84,237.14 316.12,237.14 316.12,211.63 325.8,211.63 325.8,155.32 
					328.44,155.32 328.44,149.16 349.55,149.16 349.55,155.32 353.95,155.32 353.95,195.79 371.55,195.79 371.55,200.19 
					377.7,200.19 377.7,202.83 371.55,202.83 371.55,218.67 390.02,218.67 390.02,165.88 393.54,165.88 393.54,155.32 
					402.34,155.32 402.34,114.85 404.98,114.85 404.98,155.32 411.14,155.32 411.14,165.88 445.42,165.88 445.42,291.69 
					207.03,291.69 207.03,237.14 				"/>
				<g>
					<rect x="424.61" y="168.64" class="st4" width="2.49" height="2.49"/>
					<rect x="424.61" y="172.82" class="st4" width="2.49" height="2.49"/>
					<rect x="424.61" y="189.53" class="st4" width="2.49" height="2.49"/>
					<rect x="424.61" y="193.71" class="st4" width="2.49" height="2.49"/>
					<rect x="424.61" y="197.89" class="st4" width="2.49" height="2.49"/>
					<rect x="424.61" y="210.43" class="st4" width="2.49" height="2.49"/>
					<rect x="424.61" y="214.61" class="st4" width="2.49" height="2.49"/>
					<rect x="420.65" y="185.35" class="st4" width="2.49" height="2.49"/>
					<rect x="420.65" y="189.53" class="st4" width="2.49" height="2.49"/>
					<rect x="420.65" y="193.71" class="st4" width="2.49" height="2.49"/>
					<rect x="420.65" y="197.89" class="st4" width="2.49" height="2.49"/>
					<rect x="420.65" y="202.07" class="st4" width="2.49" height="2.49"/>
					<rect x="420.65" y="210.43" class="st4" width="2.49" height="2.49"/>
					<rect x="420.65" y="214.61" class="st4" width="2.49" height="2.49"/>
					<rect x="416.69" y="168.64" class="st4" width="2.49" height="2.49"/>
					<rect x="416.69" y="172.82" class="st4" width="2.49" height="2.49"/>
					<rect x="416.69" y="177" class="st4" width="2.49" height="2.49"/>
					<rect x="416.69" y="181.18" class="st4" width="2.49" height="2.49"/>
					<rect x="416.69" y="185.35" class="st4" width="2.49" height="2.49"/>
					<rect x="416.69" y="189.53" class="st4" width="2.49" height="2.49"/>
					<rect x="416.69" y="193.71" class="st4" width="2.49" height="2.49"/>
					<rect x="416.69" y="197.89" class="st4" width="2.49" height="2.49"/>
					<rect x="416.69" y="202.07" class="st4" width="2.49" height="2.49"/>
					<rect x="416.69" y="206.25" class="st4" width="2.49" height="2.49"/>
					<rect x="416.69" y="214.61" class="st4" width="2.49" height="2.49"/>
					<rect x="412.73" y="168.64" class="st4" width="2.49" height="2.49"/>
					<rect x="412.73" y="172.82" class="st4" width="2.49" height="2.49"/>
					<rect x="412.73" y="177" class="st4" width="2.49" height="2.49"/>
					<rect x="412.73" y="181.18" class="st4" width="2.49" height="2.49"/>
					<rect x="412.73" y="185.35" class="st4" width="2.49" height="2.49"/>
					<rect x="412.73" y="189.53" class="st4" width="2.49" height="2.49"/>
					<rect x="412.73" y="193.71" class="st4" width="2.49" height="2.49"/>
					<rect x="412.73" y="231.32" class="st4" width="2.49" height="2.49"/>
					<rect x="408.77" y="168.64" class="st4" width="2.49" height="2.49"/>
					<rect x="408.77" y="172.82" class="st4" width="2.49" height="2.49"/>
					<rect x="408.77" y="177" class="st4" width="2.49" height="2.49"/>
					<rect x="408.77" y="181.18" class="st4" width="2.49" height="2.49"/>
					<rect x="408.77" y="185.35" class="st4" width="2.49" height="2.49"/>
					<rect x="408.77" y="189.53" class="st4" width="2.49" height="2.49"/>
					<rect x="408.77" y="193.71" class="st4" width="2.49" height="2.49"/>
					<rect x="408.77" y="197.89" class="st4" width="2.49" height="2.49"/>
					<rect x="408.77" y="222.97" class="st4" width="2.49" height="2.49"/>
					<rect x="408.77" y="227.14" class="st4" width="2.49" height="2.49"/>
					<rect x="408.77" y="231.32" class="st4" width="2.49" height="2.49"/>
					<rect x="408.77" y="235.5" class="st4" width="2.49" height="2.49"/>
					<rect x="408.77" y="252.22" class="st4" width="2.49" height="2.49"/>
					<rect x="404.81" y="168.64" class="st4" width="2.49" height="2.49"/>
					<rect x="404.81" y="172.82" class="st4" width="2.49" height="2.49"/>
					<rect x="404.81" y="177" class="st4" width="2.49" height="2.49"/>
					<rect x="404.81" y="181.18" class="st4" width="2.49" height="2.49"/>
					<rect x="404.81" y="185.35" class="st4" width="2.49" height="2.49"/>
					<rect x="404.81" y="189.53" class="st4" width="2.49" height="2.49"/>
					<rect x="404.81" y="193.71" class="st4" width="2.49" height="2.49"/>
					<rect x="404.81" y="197.89" class="st4" width="2.49" height="2.49"/>
					<rect x="404.81" y="202.07" class="st4" width="2.49" height="2.49"/>
					<rect x="404.81" y="206.25" class="st4" width="2.49" height="2.49"/>
					<rect x="404.81" y="218.79" class="st4" width="2.49" height="2.49"/>
					<rect x="404.81" y="222.97" class="st4" width="2.49" height="2.49"/>
					<rect x="404.81" y="227.14" class="st4" width="2.49" height="2.49"/>
					<rect x="404.81" y="231.32" class="st4" width="2.49" height="2.49"/>
					<rect x="404.81" y="235.5" class="st4" width="2.49" height="2.49"/>
					<rect x="404.81" y="252.22" class="st4" width="2.49" height="2.49"/>
					<rect x="400.85" y="168.64" class="st4" width="2.49" height="2.49"/>
					<rect x="400.85" y="172.82" class="st4" width="2.49" height="2.49"/>
					<rect x="400.85" y="177" class="st4" width="2.49" height="2.49"/>
					<rect x="400.85" y="181.18" class="st4" width="2.49" height="2.49"/>
					<rect x="400.85" y="185.35" class="st4" width="2.49" height="2.49"/>
					<rect x="400.85" y="189.53" class="st4" width="2.49" height="2.49"/>
					<rect x="400.85" y="193.71" class="st4" width="2.49" height="2.49"/>
					<rect x="400.85" y="197.89" class="st4" width="2.49" height="2.49"/>
					<rect x="400.85" y="202.07" class="st4" width="2.49" height="2.49"/>
					<rect x="400.85" y="206.25" class="st4" width="2.49" height="2.49"/>
					<rect x="400.85" y="210.43" class="st4" width="2.49" height="2.49"/>
					<rect x="400.85" y="214.61" class="st4" width="2.49" height="2.49"/>
					<rect x="400.85" y="218.79" class="st4" width="2.49" height="2.49"/>
					<rect x="400.85" y="222.97" class="st4" width="2.49" height="2.49"/>
					<rect x="400.85" y="227.14" class="st4" width="2.49" height="2.49"/>
					<rect x="400.85" y="231.32" class="st4" width="2.49" height="2.49"/>
					<rect x="400.85" y="235.5" class="st4" width="2.49" height="2.49"/>
					<rect x="400.85" y="239.68" class="st4" width="2.49" height="2.49"/>
					<rect x="396.89" y="168.64" class="st4" width="2.49" height="2.49"/>
					<rect x="396.89" y="172.82" class="st4" width="2.49" height="2.49"/>
					<rect x="396.89" y="177" class="st4" width="2.49" height="2.49"/>
					<rect x="396.89" y="181.18" class="st4" width="2.49" height="2.49"/>
					<rect x="396.89" y="185.35" class="st4" width="2.49" height="2.49"/>
					<rect x="396.89" y="189.53" class="st4" width="2.49" height="2.49"/>
					<rect x="396.89" y="193.71" class="st4" width="2.49" height="2.49"/>
					<rect x="396.89" y="197.89" class="st4" width="2.49" height="2.49"/>
					<rect x="396.89" y="202.07" class="st4" width="2.49" height="2.49"/>
					<rect x="396.89" y="206.25" class="st4" width="2.49" height="2.49"/>
					<rect x="396.89" y="218.79" class="st4" width="2.49" height="2.49"/>
					<rect x="396.89" y="222.97" class="st4" width="2.49" height="2.49"/>
					<rect x="396.89" y="227.14" class="st4" width="2.49" height="2.49"/>
					<rect x="396.89" y="231.32" class="st4" width="2.49" height="2.49"/>
					<rect x="392.94" y="168.64" class="st4" width="2.49" height="2.49"/>
					<rect x="392.94" y="172.82" class="st4" width="2.49" height="2.49"/>
					<rect x="392.94" y="177" class="st4" width="2.49" height="2.49"/>
					<rect x="392.94" y="181.18" class="st4" width="2.49" height="2.49"/>
					<rect x="392.94" y="185.35" class="st4" width="2.49" height="2.49"/>
					<rect x="392.94" y="189.53" class="st4" width="2.49" height="2.49"/>
					<rect x="392.94" y="193.71" class="st4" width="2.49" height="2.49"/>
					<rect x="392.94" y="197.89" class="st4" width="2.49" height="2.49"/>
					<rect x="392.94" y="202.07" class="st4" width="2.49" height="2.49"/>
					<rect x="392.94" y="206.25" class="st4" width="2.49" height="2.49"/>
					<rect x="392.94" y="218.79" class="st4" width="2.49" height="2.49"/>
					<rect x="392.94" y="222.97" class="st4" width="2.49" height="2.49"/>
					<rect x="392.94" y="227.14" class="st4" width="2.49" height="2.49"/>
					<rect x="348.36" y="157.79" class="st4" width="2.49" height="2.49"/>
					<rect x="348.36" y="161.97" class="st4" width="2.49" height="2.49"/>
					<rect x="348.36" y="166.15" class="st4" width="2.49" height="2.49"/>
					<rect x="348.36" y="170.32" class="st4" width="2.49" height="2.49"/>
					<rect x="348.36" y="174.5" class="st4" width="2.49" height="2.49"/>
					<rect x="348.36" y="178.68" class="st4" width="2.49" height="2.49"/>
					<rect x="348.36" y="182.86" class="st4" width="2.49" height="2.49"/>
					<rect x="348.36" y="187.04" class="st4" width="2.49" height="2.49"/>
					<rect x="348.36" y="199.58" class="st4" width="2.49" height="2.49"/>
					<rect x="348.36" y="203.76" class="st4" width="2.49" height="2.49"/>
					<rect x="344.4" y="157.79" class="st4" width="2.49" height="2.49"/>
					<rect x="344.4" y="161.97" class="st4" width="2.49" height="2.49"/>
					<rect x="344.4" y="166.15" class="st4" width="2.49" height="2.49"/>
					<rect x="344.4" y="170.32" class="st4" width="2.49" height="2.49"/>
					<rect x="344.4" y="174.5" class="st4" width="2.49" height="2.49"/>
					<rect x="344.4" y="178.68" class="st4" width="2.49" height="2.49"/>
					<rect x="344.4" y="182.86" class="st4" width="2.49" height="2.49"/>
					<rect x="344.4" y="187.04" class="st4" width="2.49" height="2.49"/>
					<rect x="344.4" y="203.76" class="st4" width="2.49" height="2.49"/>
					<rect x="340.44" y="157.79" class="st4" width="2.49" height="2.49"/>
					<rect x="340.44" y="161.97" class="st4" width="2.49" height="2.49"/>
					<rect x="340.44" y="166.15" class="st4" width="2.49" height="2.49"/>
					<rect x="340.44" y="170.32" class="st4" width="2.49" height="2.49"/>
					<rect x="340.44" y="174.5" class="st4" width="2.49" height="2.49"/>
					<rect x="340.44" y="178.68" class="st4" width="2.49" height="2.49"/>
					<rect x="340.44" y="182.86" class="st4" width="2.49" height="2.49"/>
					<rect x="340.44" y="187.04" class="st4" width="2.49" height="2.49"/>
					<rect x="336.48" y="157.79" class="st4" width="2.49" height="2.49"/>
					<rect x="336.48" y="161.97" class="st4" width="2.49" height="2.49"/>
					<rect x="336.48" y="166.15" class="st4" width="2.49" height="2.49"/>
					<rect x="336.48" y="170.32" class="st4" width="2.49" height="2.49"/>
					<rect x="336.48" y="174.5" class="st4" width="2.49" height="2.49"/>
					<rect x="336.48" y="178.68" class="st4" width="2.49" height="2.49"/>
					<rect x="336.48" y="187.04" class="st4" width="2.49" height="2.49"/>
					<rect x="336.48" y="191.22" class="st4" width="2.49" height="2.49"/>
					<rect x="336.48" y="203.76" class="st4" width="2.49" height="2.49"/>
					<rect x="336.48" y="207.94" class="st4" width="2.49" height="2.49"/>
					<rect x="336.48" y="212.11" class="st4" width="2.49" height="2.49"/>
					<rect x="336.48" y="216.29" class="st4" width="2.49" height="2.49"/>
					<rect x="336.48" y="220.47" class="st4" width="2.49" height="2.49"/>
					<rect x="336.48" y="224.65" class="st4" width="2.49" height="2.49"/>
					<rect x="336.48" y="228.83" class="st4" width="2.49" height="2.49"/>
					<rect x="332.52" y="157.79" class="st4" width="2.49" height="2.49"/>
					<rect x="332.52" y="161.97" class="st4" width="2.49" height="2.49"/>
					<rect x="332.52" y="166.15" class="st4" width="2.49" height="2.49"/>
					<rect x="332.52" y="170.32" class="st4" width="2.49" height="2.49"/>
					<rect x="332.52" y="174.5" class="st4" width="2.49" height="2.49"/>
					<rect x="332.52" y="178.68" class="st4" width="2.49" height="2.49"/>
					<rect x="332.52" y="191.22" class="st4" width="2.49" height="2.49"/>
					<rect x="332.52" y="195.4" class="st4" width="2.49" height="2.49"/>
					<rect x="332.52" y="199.58" class="st4" width="2.49" height="2.49"/>
					<rect x="332.52" y="203.76" class="st4" width="2.49" height="2.49"/>
					<rect x="332.52" y="207.94" class="st4" width="2.49" height="2.49"/>
					<rect x="332.52" y="212.11" class="st4" width="2.49" height="2.49"/>
					<rect x="332.52" y="216.29" class="st4" width="2.49" height="2.49"/>
					<rect x="332.52" y="220.47" class="st4" width="2.49" height="2.49"/>
					<rect x="332.52" y="224.65" class="st4" width="2.49" height="2.49"/>
					<rect x="332.52" y="228.83" class="st4" width="2.49" height="2.49"/>
					<rect x="332.52" y="233.01" class="st4" width="2.49" height="2.49"/>
					<rect x="332.52" y="241.37" class="st4" width="2.49" height="2.49"/>
					<rect x="328.56" y="157.79" class="st4" width="2.49" height="2.49"/>
					<rect x="328.56" y="161.97" class="st4" width="2.49" height="2.49"/>
					<rect x="328.56" y="166.15" class="st4" width="2.49" height="2.49"/>
					<rect x="328.56" y="170.32" class="st4" width="2.49" height="2.49"/>
					<rect x="328.56" y="174.5" class="st4" width="2.49" height="2.49"/>
					<rect x="328.56" y="178.68" class="st4" width="2.49" height="2.49"/>
					<rect x="328.56" y="191.22" class="st4" width="2.49" height="2.49"/>
					<rect x="328.56" y="195.4" class="st4" width="2.49" height="2.49"/>
					<rect x="328.56" y="199.58" class="st4" width="2.49" height="2.49"/>
					<rect x="328.56" y="203.76" class="st4" width="2.49" height="2.49"/>
					<rect x="328.56" y="216.29" class="st4" width="2.49" height="2.49"/>
					<rect x="328.56" y="220.47" class="st4" width="2.49" height="2.49"/>
					<rect x="328.56" y="224.65" class="st4" width="2.49" height="2.49"/>
					<rect x="328.56" y="228.83" class="st4" width="2.49" height="2.49"/>
					<rect x="328.56" y="233.01" class="st4" width="2.49" height="2.49"/>
					<rect x="328.56" y="241.37" class="st4" width="2.49" height="2.49"/>
					<rect x="328.56" y="245.55" class="st4" width="2.49" height="2.49"/>
					<rect x="292.64" y="196.65" class="st4" width="2.49" height="2.49"/>
					<rect x="292.64" y="200.82" class="st4" width="2.49" height="2.49"/>
					<rect x="292.64" y="205" class="st4" width="2.49" height="2.49"/>
					<rect x="292.64" y="209.18" class="st4" width="2.49" height="2.49"/>
					<rect x="292.64" y="213.36" class="st4" width="2.49" height="2.49"/>
					<rect x="292.64" y="217.54" class="st4" width="2.49" height="2.49"/>
					<rect x="292.64" y="221.72" class="st4" width="2.49" height="2.49"/>
					<rect x="292.64" y="234.26" class="st4" width="2.49" height="2.49"/>
					<rect x="292.64" y="238.43" class="st4" width="2.49" height="2.49"/>
					<rect x="292.64" y="242.61" class="st4" width="2.49" height="2.49"/>
					<rect x="288.68" y="196.65" class="st4" width="2.49" height="2.49"/>
					<rect x="288.68" y="200.82" class="st4" width="2.49" height="2.49"/>
					<rect x="288.68" y="205" class="st4" width="2.49" height="2.49"/>
					<rect x="288.68" y="209.18" class="st4" width="2.49" height="2.49"/>
					<rect x="288.68" y="213.36" class="st4" width="2.49" height="2.49"/>
					<rect x="288.68" y="217.54" class="st4" width="2.49" height="2.49"/>
					<rect x="288.68" y="221.72" class="st4" width="2.49" height="2.49"/>
					<rect x="284.72" y="196.65" class="st4" width="2.49" height="2.49"/>
					<rect x="284.72" y="200.82" class="st4" width="2.49" height="2.49"/>
					<rect x="284.72" y="205" class="st4" width="2.49" height="2.49"/>
					<rect x="284.72" y="209.18" class="st4" width="2.49" height="2.49"/>
					<rect x="284.72" y="213.36" class="st4" width="2.49" height="2.49"/>
					<rect x="284.72" y="217.54" class="st4" width="2.49" height="2.49"/>
					<rect x="284.72" y="221.72" class="st4" width="2.49" height="2.49"/>
					<rect x="280.76" y="196.65" class="st4" width="2.49" height="2.49"/>
					<rect x="280.76" y="200.82" class="st4" width="2.49" height="2.49"/>
					<rect x="280.76" y="205" class="st4" width="2.49" height="2.49"/>
					<rect x="280.76" y="209.18" class="st4" width="2.49" height="2.49"/>
					<rect x="280.76" y="213.36" class="st4" width="2.49" height="2.49"/>
					<rect x="280.76" y="217.54" class="st4" width="2.49" height="2.49"/>
					<rect x="280.76" y="221.72" class="st4" width="2.49" height="2.49"/>
					<rect x="280.76" y="225.9" class="st4" width="2.49" height="2.49"/>
					<rect x="280.76" y="230.08" class="st4" width="2.49" height="2.49"/>
					<rect x="280.76" y="234.26" class="st4" width="2.49" height="2.49"/>
					<rect x="280.76" y="238.43" class="st4" width="2.49" height="2.49"/>
					<rect x="276.8" y="196.65" class="st4" width="2.49" height="2.49"/>
					<rect x="276.8" y="200.82" class="st4" width="2.49" height="2.49"/>
					<rect x="276.8" y="205" class="st4" width="2.49" height="2.49"/>
					<rect x="276.8" y="209.18" class="st4" width="2.49" height="2.49"/>
					<rect x="276.8" y="213.36" class="st4" width="2.49" height="2.49"/>
					<rect x="276.8" y="217.54" class="st4" width="2.49" height="2.49"/>
					<rect x="276.8" y="221.72" class="st4" width="2.49" height="2.49"/>
					<rect x="276.8" y="225.9" class="st4" width="2.49" height="2.49"/>
					<rect x="276.8" y="230.08" class="st4" width="2.49" height="2.49"/>
					<rect x="276.8" y="234.26" class="st4" width="2.49" height="2.49"/>
					<rect x="276.8" y="238.43" class="st4" width="2.49" height="2.49"/>
					<rect x="276.8" y="242.61" class="st4" width="2.49" height="2.49"/>
					<rect x="276.8" y="255.15" class="st4" width="2.49" height="2.49"/>
					<rect x="276.8" y="259.33" class="st4" width="2.49" height="2.49"/>
					<rect x="272.84" y="196.65" class="st4" width="2.49" height="2.49"/>
					<rect x="272.84" y="200.82" class="st4" width="2.49" height="2.49"/>
					<rect x="272.84" y="205" class="st4" width="2.49" height="2.49"/>
					<rect x="272.84" y="217.54" class="st4" width="2.49" height="2.49"/>
					<rect x="272.84" y="221.72" class="st4" width="2.49" height="2.49"/>
					<rect x="272.84" y="225.9" class="st4" width="2.49" height="2.49"/>
					<rect x="272.84" y="230.08" class="st4" width="2.49" height="2.49"/>
					<rect x="272.84" y="234.26" class="st4" width="2.49" height="2.49"/>
					<rect x="272.84" y="238.43" class="st4" width="2.49" height="2.49"/>
					<rect x="272.84" y="242.61" class="st4" width="2.49" height="2.49"/>
					<rect x="272.84" y="255.15" class="st4" width="2.49" height="2.49"/>
					<rect x="272.84" y="259.33" class="st4" width="2.49" height="2.49"/>
					<rect x="272.84" y="263.51" class="st4" width="2.49" height="2.49"/>
					<rect x="231.35" y="171.57" class="st4" width="2.49" height="2.49"/>
					<rect x="231.35" y="175.75" class="st4" width="2.49" height="2.49"/>
					<rect x="231.35" y="179.93" class="st4" width="2.49" height="2.49"/>
					<rect x="231.35" y="184.11" class="st4" width="2.49" height="2.49"/>
					<rect x="231.35" y="188.29" class="st4" width="2.49" height="2.49"/>
					<rect x="231.35" y="192.47" class="st4" width="2.49" height="2.49"/>
					<rect x="231.35" y="196.65" class="st4" width="2.49" height="2.49"/>
					<rect x="231.35" y="200.82" class="st4" width="2.49" height="2.49"/>
					<rect x="231.35" y="205" class="st4" width="2.49" height="2.49"/>
					<rect x="231.35" y="209.18" class="st4" width="2.49" height="2.49"/>
					<rect x="231.35" y="213.36" class="st4" width="2.49" height="2.49"/>
					<rect x="231.35" y="217.54" class="st4" width="2.49" height="2.49"/>
					<rect x="231.35" y="221.72" class="st4" width="2.49" height="2.49"/>
					<rect x="231.35" y="225.9" class="st4" width="2.49" height="2.49"/>
					<rect x="231.35" y="230.08" class="st4" width="2.49" height="2.49"/>
					<rect x="231.35" y="234.26" class="st4" width="2.49" height="2.49"/>
					<rect x="231.35" y="238.43" class="st4" width="2.49" height="2.49"/>
					<rect x="231.35" y="242.61" class="st4" width="2.49" height="2.49"/>
					<rect x="231.35" y="246.79" class="st4" width="2.49" height="2.49"/>
					<rect x="231.35" y="250.97" class="st4" width="2.49" height="2.49"/>
					<rect x="231.35" y="255.15" class="st4" width="2.49" height="2.49"/>
					<rect x="231.35" y="259.33" class="st4" width="2.49" height="2.49"/>
					<rect x="231.35" y="263.51" class="st4" width="2.49" height="2.49"/>
					<rect x="227.39" y="171.57" class="st4" width="2.49" height="2.49"/>
					<rect x="227.39" y="175.75" class="st4" width="2.49" height="2.49"/>
					<rect x="227.39" y="179.93" class="st4" width="2.49" height="2.49"/>
					<rect x="227.39" y="184.11" class="st4" width="2.49" height="2.49"/>
					<rect x="227.39" y="188.29" class="st4" width="2.49" height="2.49"/>
					<rect x="227.39" y="192.47" class="st4" width="2.49" height="2.49"/>
					<rect x="227.39" y="196.65" class="st4" width="2.49" height="2.49"/>
					<rect x="227.39" y="200.82" class="st4" width="2.49" height="2.49"/>
					<rect x="227.39" y="205" class="st4" width="2.49" height="2.49"/>
					<rect x="227.39" y="209.18" class="st4" width="2.49" height="2.49"/>
					<rect x="227.39" y="213.36" class="st4" width="2.49" height="2.49"/>
					<rect x="227.39" y="217.54" class="st4" width="2.49" height="2.49"/>
					<rect x="227.39" y="221.72" class="st4" width="2.49" height="2.49"/>
					<rect x="227.39" y="225.9" class="st4" width="2.49" height="2.49"/>
					<rect x="227.39" y="230.08" class="st4" width="2.49" height="2.49"/>
					<rect x="227.39" y="234.26" class="st4" width="2.49" height="2.49"/>
					<rect x="227.39" y="238.43" class="st4" width="2.49" height="2.49"/>
					<rect x="227.39" y="242.61" class="st4" width="2.49" height="2.49"/>
					<rect x="227.39" y="246.79" class="st4" width="2.49" height="2.49"/>
					<rect x="223.43" y="171.57" class="st4" width="2.49" height="2.49"/>
					<rect x="223.43" y="175.75" class="st4" width="2.49" height="2.49"/>
					<rect x="223.43" y="179.93" class="st4" width="2.49" height="2.49"/>
					<rect x="223.43" y="184.11" class="st4" width="2.49" height="2.49"/>
					<rect x="223.43" y="188.29" class="st4" width="2.49" height="2.49"/>
					<rect x="223.43" y="192.47" class="st4" width="2.49" height="2.49"/>
					<rect x="223.43" y="196.65" class="st4" width="2.49" height="2.49"/>
					<rect x="223.43" y="200.82" class="st4" width="2.49" height="2.49"/>
					<rect x="223.43" y="205" class="st4" width="2.49" height="2.49"/>
					<rect x="223.43" y="209.18" class="st4" width="2.49" height="2.49"/>
					<rect x="223.43" y="213.36" class="st4" width="2.49" height="2.49"/>
					<rect x="223.43" y="217.54" class="st4" width="2.49" height="2.49"/>
					<rect x="223.43" y="221.72" class="st4" width="2.49" height="2.49"/>
					<rect x="223.43" y="225.9" class="st4" width="2.49" height="2.49"/>
					<rect x="223.43" y="230.08" class="st4" width="2.49" height="2.49"/>
					<rect x="223.43" y="234.26" class="st4" width="2.49" height="2.49"/>
					<rect x="223.43" y="238.43" class="st4" width="2.49" height="2.49"/>
					<rect x="223.43" y="242.61" class="st4" width="2.49" height="2.49"/>
					<rect x="223.43" y="246.79" class="st4" width="2.49" height="2.49"/>
					<rect x="219.47" y="171.57" class="st4" width="2.49" height="2.49"/>
					<rect x="219.47" y="175.75" class="st4" width="2.49" height="2.49"/>
					<rect x="219.47" y="179.93" class="st4" width="2.49" height="2.49"/>
					<rect x="219.47" y="184.11" class="st4" width="2.49" height="2.49"/>
					<rect x="219.47" y="188.29" class="st4" width="2.49" height="2.49"/>
					<rect x="219.47" y="192.47" class="st4" width="2.49" height="2.49"/>
					<rect x="219.47" y="196.65" class="st4" width="2.49" height="2.49"/>
					<rect x="219.47" y="200.82" class="st4" width="2.49" height="2.49"/>
					<rect x="219.47" y="205" class="st4" width="2.49" height="2.49"/>
					<rect x="219.47" y="209.18" class="st4" width="2.49" height="2.49"/>
					<rect x="219.47" y="213.36" class="st4" width="2.49" height="2.49"/>
					<rect x="219.47" y="217.54" class="st4" width="2.49" height="2.49"/>
					<rect x="219.47" y="221.72" class="st4" width="2.49" height="2.49"/>
					<rect x="219.47" y="225.9" class="st4" width="2.49" height="2.49"/>
					<rect x="219.47" y="230.08" class="st4" width="2.49" height="2.49"/>
					<rect x="215.51" y="171.57" class="st4" width="2.49" height="2.49"/>
					<rect x="215.51" y="175.75" class="st4" width="2.49" height="2.49"/>
					<rect x="215.51" y="179.93" class="st4" width="2.49" height="2.49"/>
					<rect x="215.51" y="184.11" class="st4" width="2.49" height="2.49"/>
					<rect x="215.51" y="188.29" class="st4" width="2.49" height="2.49"/>
					<rect x="215.51" y="192.47" class="st4" width="2.49" height="2.49"/>
					<rect x="215.51" y="196.65" class="st4" width="2.49" height="2.49"/>
					<rect x="215.51" y="200.82" class="st4" width="2.49" height="2.49"/>
					<rect x="215.51" y="205" class="st4" width="2.49" height="2.49"/>
					<rect x="215.51" y="209.18" class="st4" width="2.49" height="2.49"/>
					<rect x="215.51" y="213.36" class="st4" width="2.49" height="2.49"/>
					<rect x="215.51" y="217.54" class="st4" width="2.49" height="2.49"/>
					<rect x="215.51" y="221.72" class="st4" width="2.49" height="2.49"/>
					<rect x="211.55" y="171.57" class="st4" width="2.49" height="2.49"/>
					<rect x="211.55" y="175.75" class="st4" width="2.49" height="2.49"/>
					<rect x="211.55" y="179.93" class="st4" width="2.49" height="2.49"/>
					<rect x="211.55" y="184.11" class="st4" width="2.49" height="2.49"/>
					<rect x="211.55" y="188.29" class="st4" width="2.49" height="2.49"/>
					<rect x="211.55" y="192.47" class="st4" width="2.49" height="2.49"/>
					<rect x="211.55" y="196.65" class="st4" width="2.49" height="2.49"/>
					<rect x="211.55" y="200.82" class="st4" width="2.49" height="2.49"/>
					<rect x="211.55" y="205" class="st4" width="2.49" height="2.49"/>
					<rect x="211.55" y="209.18" class="st4" width="2.49" height="2.49"/>
					<rect x="211.55" y="213.36" class="st4" width="2.49" height="2.49"/>
					<rect x="211.55" y="217.54" class="st4" width="2.49" height="2.49"/>
					<rect x="442.64" y="170.32" class="st4" width="2.49" height="2.49"/>
					<rect x="442.64" y="174.5" class="st4" width="2.49" height="2.49"/>
					<rect x="442.64" y="178.68" class="st4" width="2.49" height="2.49"/>
					<rect x="442.64" y="182.86" class="st4" width="2.49" height="2.49"/>
					<rect x="442.64" y="187.04" class="st4" width="2.49" height="2.49"/>
					<rect x="442.64" y="191.22" class="st4" width="2.49" height="2.49"/>
					<rect x="442.64" y="195.4" class="st4" width="2.49" height="2.49"/>
					<rect x="442.64" y="199.58" class="st4" width="2.49" height="2.49"/>
					<rect x="442.64" y="203.76" class="st4" width="2.49" height="2.49"/>
					<rect x="442.64" y="207.94" class="st4" width="2.49" height="2.49"/>
					<rect x="442.64" y="212.11" class="st4" width="2.49" height="2.49"/>
					<rect x="442.64" y="216.29" class="st4" width="2.49" height="2.49"/>
					<rect x="442.64" y="220.47" class="st4" width="2.49" height="2.49"/>
					<rect x="442.64" y="224.65" class="st4" width="2.49" height="2.49"/>
					<rect x="442.64" y="228.83" class="st4" width="2.49" height="2.49"/>
					<rect x="442.64" y="233.01" class="st4" width="2.49" height="2.49"/>
					<rect x="442.64" y="237.19" class="st4" width="2.49" height="2.49"/>
					<rect x="442.64" y="245.55" class="st4" width="2.49" height="2.49"/>
					<rect x="442.64" y="249.73" class="st4" width="2.49" height="2.49"/>
					<rect x="442.64" y="253.9" class="st4" width="2.49" height="2.49"/>
					<rect x="442.64" y="258.08" class="st4" width="2.49" height="2.49"/>
					<rect x="442.64" y="262.26" class="st4" width="2.49" height="2.49"/>
					<rect x="438.68" y="170.32" class="st4" width="2.49" height="2.49"/>
					<rect x="438.68" y="174.5" class="st4" width="2.49" height="2.49"/>
					<rect x="438.68" y="178.68" class="st4" width="2.49" height="2.49"/>
					<rect x="438.68" y="182.86" class="st4" width="2.49" height="2.49"/>
					<rect x="438.68" y="187.04" class="st4" width="2.49" height="2.49"/>
					<rect x="438.68" y="191.22" class="st4" width="2.49" height="2.49"/>
					<rect x="438.68" y="195.4" class="st4" width="2.49" height="2.49"/>
					<rect x="438.68" y="199.58" class="st4" width="2.49" height="2.49"/>
					<rect x="438.68" y="203.76" class="st4" width="2.49" height="2.49"/>
					<rect x="438.68" y="207.94" class="st4" width="2.49" height="2.49"/>
					<rect x="438.68" y="212.11" class="st4" width="2.49" height="2.49"/>
					<rect x="438.68" y="216.29" class="st4" width="2.49" height="2.49"/>
					<rect x="438.68" y="220.47" class="st4" width="2.49" height="2.49"/>
					<rect x="438.68" y="224.65" class="st4" width="2.49" height="2.49"/>
					<rect x="438.68" y="228.83" class="st4" width="2.49" height="2.49"/>
					<rect x="438.68" y="233.01" class="st4" width="2.49" height="2.49"/>
					<rect x="438.68" y="258.08" class="st4" width="2.49" height="2.49"/>
					<rect x="438.68" y="262.26" class="st4" width="2.49" height="2.49"/>
					<rect x="434.73" y="170.32" class="st4" width="2.49" height="2.49"/>
					<rect x="434.73" y="174.5" class="st4" width="2.49" height="2.49"/>
					<rect x="434.73" y="178.68" class="st4" width="2.49" height="2.49"/>
					<rect x="434.73" y="182.86" class="st4" width="2.49" height="2.49"/>
					<rect x="434.73" y="187.04" class="st4" width="2.49" height="2.49"/>
					<rect x="434.73" y="191.22" class="st4" width="2.49" height="2.49"/>
					<rect x="434.73" y="195.4" class="st4" width="2.49" height="2.49"/>
					<rect x="434.73" y="199.58" class="st4" width="2.49" height="2.49"/>
					<rect x="434.73" y="203.76" class="st4" width="2.49" height="2.49"/>
					<rect x="434.73" y="207.94" class="st4" width="2.49" height="2.49"/>
					<rect x="434.73" y="212.11" class="st4" width="2.49" height="2.49"/>
					<rect x="434.73" y="216.29" class="st4" width="2.49" height="2.49"/>
					<rect x="434.73" y="220.47" class="st4" width="2.49" height="2.49"/>
					<rect x="434.73" y="224.65" class="st4" width="2.49" height="2.49"/>
					<rect x="434.73" y="228.83" class="st4" width="2.49" height="2.49"/>
					<rect x="434.73" y="233.01" class="st4" width="2.49" height="2.49"/>
					<rect x="434.73" y="241.37" class="st4" width="2.49" height="2.49"/>
					<rect x="434.73" y="245.55" class="st4" width="2.49" height="2.49"/>
					<rect x="434.73" y="249.73" class="st4" width="2.49" height="2.49"/>
					<rect x="434.73" y="253.9" class="st4" width="2.49" height="2.49"/>
					<rect x="434.73" y="262.26" class="st4" width="2.49" height="2.49"/>
					<rect x="365.66" y="199.58" class="st4" width="2.49" height="2.49"/>
					<rect x="365.66" y="203.76" class="st4" width="2.49" height="2.49"/>
					<rect x="365.66" y="207.94" class="st4" width="2.49" height="2.49"/>
					<rect x="365.66" y="212.11" class="st4" width="2.49" height="2.49"/>
					<rect x="365.66" y="216.29" class="st4" width="2.49" height="2.49"/>
					<rect x="365.66" y="220.47" class="st4" width="2.49" height="2.49"/>
					<rect x="365.66" y="224.65" class="st4" width="2.49" height="2.49"/>
					<rect x="365.66" y="228.83" class="st4" width="2.49" height="2.49"/>
					<rect x="365.66" y="233.01" class="st4" width="2.49" height="2.49"/>
					<rect x="365.66" y="237.19" class="st4" width="2.49" height="2.49"/>
					<rect x="365.66" y="241.37" class="st4" width="2.49" height="2.49"/>
					<rect x="365.66" y="245.55" class="st4" width="2.49" height="2.49"/>
					<rect x="365.66" y="249.73" class="st4" width="2.49" height="2.49"/>
					<rect x="365.66" y="258.08" class="st4" width="2.49" height="2.49"/>
					<rect x="365.66" y="262.26" class="st4" width="2.49" height="2.49"/>
					<rect x="365.66" y="266.44" class="st4" width="2.49" height="2.49"/>
					<rect x="365.66" y="270.62" class="st4" width="2.49" height="2.49"/>
					<rect x="365.66" y="278.98" class="st4" width="2.49" height="2.49"/>
					<rect x="365.66" y="283.16" class="st4" width="2.49" height="2.49"/>
					<rect x="365.66" y="287.34" class="st4" width="2.49" height="2.49"/>
					<rect x="361.7" y="199.58" class="st4" width="2.49" height="2.49"/>
					<rect x="361.7" y="203.76" class="st4" width="2.49" height="2.49"/>
					<rect x="361.7" y="207.94" class="st4" width="2.49" height="2.49"/>
					<rect x="361.7" y="212.11" class="st4" width="2.49" height="2.49"/>
					<rect x="361.7" y="216.29" class="st4" width="2.49" height="2.49"/>
					<rect x="361.7" y="220.47" class="st4" width="2.49" height="2.49"/>
					<rect x="361.7" y="224.65" class="st4" width="2.49" height="2.49"/>
					<rect x="361.7" y="228.83" class="st4" width="2.49" height="2.49"/>
					<rect x="361.7" y="233.01" class="st4" width="2.49" height="2.49"/>
					<rect x="361.7" y="237.19" class="st4" width="2.49" height="2.49"/>
					<rect x="361.7" y="241.37" class="st4" width="2.49" height="2.49"/>
					<rect x="361.7" y="245.55" class="st4" width="2.49" height="2.49"/>
					<rect x="361.7" y="249.73" class="st4" width="2.49" height="2.49"/>
					<rect x="361.7" y="262.26" class="st4" width="2.49" height="2.49"/>
					<rect x="361.7" y="266.44" class="st4" width="2.49" height="2.49"/>
					<rect x="361.7" y="274.8" class="st4" width="2.49" height="2.49"/>
					<rect x="361.7" y="278.98" class="st4" width="2.49" height="2.49"/>
					<rect x="361.7" y="283.16" class="st4" width="2.49" height="2.49"/>
					<rect x="361.7" y="287.34" class="st4" width="2.49" height="2.49"/>
					<rect x="357.74" y="199.58" class="st4" width="2.49" height="2.49"/>
					<rect x="357.74" y="203.76" class="st4" width="2.49" height="2.49"/>
					<rect x="357.74" y="207.94" class="st4" width="2.49" height="2.49"/>
					<rect x="357.74" y="212.11" class="st4" width="2.49" height="2.49"/>
					<rect x="357.74" y="216.29" class="st4" width="2.49" height="2.49"/>
					<rect x="357.74" y="220.47" class="st4" width="2.49" height="2.49"/>
					<rect x="357.74" y="224.65" class="st4" width="2.49" height="2.49"/>
					<rect x="357.74" y="228.83" class="st4" width="2.49" height="2.49"/>
					<rect x="357.74" y="233.01" class="st4" width="2.49" height="2.49"/>
					<rect x="357.74" y="237.19" class="st4" width="2.49" height="2.49"/>
					<rect x="357.74" y="241.37" class="st4" width="2.49" height="2.49"/>
					<rect x="357.74" y="245.55" class="st4" width="2.49" height="2.49"/>
					<rect x="357.74" y="249.73" class="st4" width="2.49" height="2.49"/>
					<rect x="357.74" y="253.9" class="st4" width="2.49" height="2.49"/>
					<rect x="357.74" y="262.26" class="st4" width="2.49" height="2.49"/>
					<rect x="357.74" y="270.62" class="st4" width="2.49" height="2.49"/>
					<rect x="357.74" y="274.8" class="st4" width="2.49" height="2.49"/>
					<rect x="357.74" y="278.98" class="st4" width="2.49" height="2.49"/>
					<rect x="357.74" y="283.16" class="st4" width="2.49" height="2.49"/>
					<rect x="357.74" y="287.34" class="st4" width="2.49" height="2.49"/>
					<rect x="381.79" y="223.41" class="st4" width="2.49" height="2.49"/>
					<rect x="381.79" y="227.58" class="st4" width="2.49" height="2.49"/>
					<rect x="381.79" y="231.76" class="st4" width="2.49" height="2.49"/>
					<rect x="381.79" y="235.94" class="st4" width="2.49" height="2.49"/>
					<rect x="381.79" y="240.12" class="st4" width="2.49" height="2.49"/>
					<rect x="381.79" y="244.3" class="st4" width="2.49" height="2.49"/>
					<rect x="381.79" y="256.84" class="st4" width="2.49" height="2.49"/>
					<rect x="381.79" y="261.02" class="st4" width="2.49" height="2.49"/>
					<rect x="381.79" y="265.19" class="st4" width="2.49" height="2.49"/>
					<rect x="381.79" y="269.37" class="st4" width="2.49" height="2.49"/>
					<rect x="381.79" y="273.55" class="st4" width="2.49" height="2.49"/>
					<rect x="381.79" y="277.73" class="st4" width="2.49" height="2.49"/>
					<rect x="381.79" y="281.91" class="st4" width="2.49" height="2.49"/>
					<rect x="377.83" y="223.41" class="st4" width="2.49" height="2.49"/>
					<rect x="377.83" y="227.58" class="st4" width="2.49" height="2.49"/>
					<rect x="377.83" y="231.76" class="st4" width="2.49" height="2.49"/>
					<rect x="377.83" y="235.94" class="st4" width="2.49" height="2.49"/>
					<rect x="377.83" y="240.12" class="st4" width="2.49" height="2.49"/>
					<rect x="377.83" y="244.3" class="st4" width="2.49" height="2.49"/>
					<rect x="377.83" y="256.84" class="st4" width="2.49" height="2.49"/>
					<rect x="377.83" y="261.02" class="st4" width="2.49" height="2.49"/>
					<rect x="377.83" y="265.19" class="st4" width="2.49" height="2.49"/>
					<rect x="377.83" y="269.37" class="st4" width="2.49" height="2.49"/>
					<rect x="377.83" y="273.55" class="st4" width="2.49" height="2.49"/>
					<rect x="377.83" y="277.73" class="st4" width="2.49" height="2.49"/>
					<rect x="377.83" y="286.09" class="st4" width="2.49" height="2.49"/>
					<rect x="246.3" y="205" class="st4" width="2.49" height="2.49"/>
					<rect x="246.3" y="209.18" class="st4" width="2.49" height="2.49"/>
					<rect x="246.3" y="213.36" class="st4" width="2.49" height="2.49"/>
					<rect x="246.3" y="217.54" class="st4" width="2.49" height="2.49"/>
					<rect x="246.3" y="221.72" class="st4" width="2.49" height="2.49"/>
					<rect x="246.3" y="225.9" class="st4" width="2.49" height="2.49"/>
					<rect x="246.3" y="230.08" class="st4" width="2.49" height="2.49"/>
					<rect x="246.3" y="234.26" class="st4" width="2.49" height="2.49"/>
					<rect x="246.3" y="238.43" class="st4" width="2.49" height="2.49"/>
					<rect x="246.3" y="242.61" class="st4" width="2.49" height="2.49"/>
					<rect x="246.3" y="246.79" class="st4" width="2.49" height="2.49"/>
					<rect x="246.3" y="255.15" class="st4" width="2.49" height="2.49"/>
					<rect x="246.3" y="259.33" class="st4" width="2.49" height="2.49"/>
					<rect x="246.3" y="263.51" class="st4" width="2.49" height="2.49"/>
					<rect x="246.3" y="267.69" class="st4" width="2.49" height="2.49"/>
					<rect x="246.3" y="271.87" class="st4" width="2.49" height="2.49"/>
					<rect x="246.3" y="276.05" class="st4" width="2.49" height="2.49"/>
					<rect x="246.3" y="280.22" class="st4" width="2.49" height="2.49"/>
					<rect x="246.3" y="284.4" class="st4" width="2.49" height="2.49"/>
					<rect x="242.35" y="205" class="st4" width="2.49" height="2.49"/>
					<rect x="242.35" y="209.18" class="st4" width="2.49" height="2.49"/>
					<rect x="242.35" y="213.36" class="st4" width="2.49" height="2.49"/>
					<rect x="242.35" y="217.54" class="st4" width="2.49" height="2.49"/>
					<rect x="242.35" y="221.72" class="st4" width="2.49" height="2.49"/>
					<rect x="242.35" y="225.9" class="st4" width="2.49" height="2.49"/>
					<rect x="242.35" y="230.08" class="st4" width="2.49" height="2.49"/>
					<rect x="242.35" y="234.26" class="st4" width="2.49" height="2.49"/>
					<rect x="242.35" y="238.43" class="st4" width="2.49" height="2.49"/>
					<rect x="242.35" y="242.61" class="st4" width="2.49" height="2.49"/>
					<rect x="242.35" y="246.79" class="st4" width="2.49" height="2.49"/>
					<rect x="242.35" y="250.97" class="st4" width="2.49" height="2.49"/>
					<rect x="242.35" y="255.15" class="st4" width="2.49" height="2.49"/>
					<rect x="242.35" y="259.33" class="st4" width="2.49" height="2.49"/>
					<rect x="242.35" y="263.51" class="st4" width="2.49" height="2.49"/>
					<rect x="242.35" y="267.69" class="st4" width="2.49" height="2.49"/>
					<rect x="242.35" y="271.87" class="st4" width="2.49" height="2.49"/>
					<rect x="242.35" y="276.05" class="st4" width="2.49" height="2.49"/>
					<rect x="242.35" y="280.22" class="st4" width="2.49" height="2.49"/>
					<rect x="242.35" y="284.4" class="st4" width="2.49" height="2.49"/>
					<rect x="265.81" y="221.28" class="st4" width="2.49" height="2.49"/>
					<rect x="265.81" y="225.46" class="st4" width="2.49" height="2.49"/>
					<rect x="265.81" y="229.64" class="st4" width="2.49" height="2.49"/>
					<rect x="265.81" y="233.82" class="st4" width="2.49" height="2.49"/>
					<rect x="265.81" y="237.99" class="st4" width="2.49" height="2.49"/>
					<rect x="265.81" y="242.17" class="st4" width="2.49" height="2.49"/>
					<rect x="265.81" y="246.35" class="st4" width="2.49" height="2.49"/>
					<rect x="265.81" y="250.53" class="st4" width="2.49" height="2.49"/>
					<rect x="265.81" y="254.71" class="st4" width="2.49" height="2.49"/>
					<rect x="265.81" y="258.89" class="st4" width="2.49" height="2.49"/>
					<rect x="261.85" y="221.28" class="st4" width="2.49" height="2.49"/>
					<rect x="261.85" y="225.46" class="st4" width="2.49" height="2.49"/>
					<rect x="261.85" y="229.64" class="st4" width="2.49" height="2.49"/>
					<rect x="261.85" y="233.82" class="st4" width="2.49" height="2.49"/>
					<rect x="261.85" y="237.99" class="st4" width="2.49" height="2.49"/>
					<rect x="261.85" y="242.17" class="st4" width="2.49" height="2.49"/>
					<rect x="261.85" y="246.35" class="st4" width="2.49" height="2.49"/>
					<rect x="261.85" y="250.53" class="st4" width="2.49" height="2.49"/>
					<rect x="261.85" y="254.71" class="st4" width="2.49" height="2.49"/>
				</g>
			</g>
			<g>
				<rect x="283.71" y="62.69" class="st1" width="4.18" height="233.08"/>
				<rect x="362.42" y="62.69" class="st1" width="4.18" height="233.08"/>
				<rect x="441.12" y="62.69" class="st1" width="4.18" height="233.08"/>
			</g>
		</g>
		<g>
			<path class="st4" d="M178.01,327.33h-34.59V277.5c0-2.43,1.97-4.41,4.41-4.41h25.78c2.43,0,4.41,1.97,4.41,4.41V327.33z"/>
			<rect x="143.42" y="280.42" class="st3" width="34.59" height="3.89"/>
			<path class="st1" d="M171.7,320.76h-8.62c-1.31,0-2.37,1.06-2.37,2.37v4.2h13.36v-4.2C174.08,321.82,173.01,320.76,171.7,320.76z
				"/>
			<path class="st3" d="M174.12,327.33h-9.59c-0.85,0-1.54-0.69-1.54-1.54l0,0c0-0.85,0.69-1.54,1.54-1.54h9.59
				c0.85,0,1.54,0.69,1.54,1.54l0,0C175.66,326.64,174.97,327.33,174.12,327.33z"/>
		</g>
		<g>
			
				<ellipse transform="matrix(0.9732 -0.2298 0.2298 0.9732 2.0018 74.8203)" class="st1" cx="322.3" cy="28.81" rx="23.55" ry="23.55"/>
			
				<ellipse transform="matrix(0.9871 -0.1602 0.1602 0.9871 -0.4537 51.9989)" class="st4" cx="322.3" cy="28.81" rx="20.03" ry="20.03"/>
			<polyline class="st5" points="323.24,15.08 323.24,29.08 332.52,23.83 			"/>
		</g>
		<g>
			<g>
				<path class="st1" d="M96.93,258.69c-1.8-2.96-4.76-0.39-4.76-0.39c0.42-5.68-4.8-9.56-4.8-9.56s6.07,0,6.92-5.79
					c0.85-5.79-2.12-3.1-4.9-3.14c-2.78-0.04-5.69,8.09-2.02,12.65c3.67,4.57,2.68,12.37-5.78,19.87c-2.07,1.83-3.47,4.27-4.42,6.9
					c0.64-6.89,1-16.6-1.03-23.08c-3.44-11.01,3.12-13.97,5.02-19.48c1.91-5.51-5.02-10.16-5.02-10.16s6.51-2.96,3.33-6.35
					c-3.18-3.39-9.74-2.93-9.74,1.5c0,4.43,4.45,6.12,4.45,6.12s5.08,5.29,5.08,8.05c0,2.75-5.08,8.68-5.08,8.68
					s2.33-5.07-2.33-5.29c-4.66-0.22-6.14,5.92-4.23,8.68c1.91,2.75,5.08,0.42,5.08,0.42s0.37,5.93,1.46,9.53
					c0.48,1.58,0.25,7.79-0.15,14.25c-0.94-2.33-2.26-4.47-4.12-6.12c-8.47-7.5-9.45-15.3-5.78-19.87
					c3.67-4.57,0.76-12.69-2.02-12.65c-2.78,0.04-5.75-2.66-4.9,3.14s6.92,5.79,6.92,5.79s-5.23,3.89-4.8,9.56
					c0,0-2.96-2.58-4.76,0.39c-3.21,5.29,4.23,8.57,5.49,5.97c0,0,15.79,11.18,11.98,27.27l0.89,1.31c-0.11,1.3-0.19,2.08-0.19,2.08
					l1.24-0.53l1.41,2.07c-0.07,4.02,0.36,6.99,0.36,6.99l3.78-5.57c-3.81-16.09,11.98-27.27,11.98-27.27
					C92.7,267.26,100.14,263.98,96.93,258.69z"/>
				<path class="st6" d="M96.93,258.69c-1.8-2.96-4.76-0.39-4.76-0.39c0.42-5.68-4.8-9.56-4.8-9.56s6.07,0,6.92-5.79
					c0.85-5.79-2.12-3.1-4.9-3.14c-2.78-0.04-5.69,8.09-2.02,12.65c3.67,4.57,2.68,12.37-5.78,19.87c-2.07,1.83-3.47,4.27-4.42,6.9
					c0.64-6.89,1-16.6-1.03-23.08c-3.44-11.01,3.12-13.97,5.02-19.48c1.91-5.51-5.02-10.16-5.02-10.16s6.51-2.96,3.33-6.35
					c-3.18-3.39-9.74-2.93-9.74,1.5c0,4.43,4.45,6.12,4.45,6.12s5.08,5.29,5.08,8.05c0,2.75-5.08,8.68-5.08,8.68
					s2.33-5.07-2.33-5.29c-4.66-0.22-6.14,5.92-4.23,8.68c1.91,2.75,5.08,0.42,5.08,0.42s0.37,5.93,1.46,9.53
					c0.48,1.58,0.25,7.79-0.15,14.25c-0.94-2.33-2.26-4.47-4.12-6.12c-8.47-7.5-9.45-15.3-5.78-19.87
					c3.67-4.57,0.76-12.69-2.02-12.65c-2.78,0.04-5.75-2.66-4.9,3.14s6.92,5.79,6.92,5.79s-5.23,3.89-4.8,9.56
					c0,0-2.96-2.58-4.76,0.39c-3.21,5.29,4.23,8.57,5.49,5.97c0,0,15.79,11.18,11.98,27.27l0.89,1.31c-0.11,1.3-0.19,2.08-0.19,2.08
					l1.24-0.53l1.41,2.07c-0.07,4.02,0.36,6.99,0.36,6.99l3.78-5.57c-3.81-16.09,11.98-27.27,11.98-27.27
					C92.7,267.26,100.14,263.98,96.93,258.69z"/>
			</g>
			<polygon class="st3" points="93.84,327.33 57.67,327.33 53.76,287.72 97.74,287.72 			"/>
			<rect x="51.83" y="283.35" class="st4" width="47.84" height="8.74"/>
		</g>
	</g>
</g>
<g id="Shadow">
	<ellipse id="_x3C_Path_x3E__359_" class="st2" cx="250" cy="361.29" rx="193.89" ry="11.32"/>
</g>
<g id="Plant">
	<g>
		<g>
			<path class="st7" d="M410.45,329.76c0.15-1.02,3.65-25.17-3.36-33.51c-1.55-1.85-3.51-2.81-5.82-2.87
				c-14.15-0.33-16.09,11.04-16.11,11.15l1.67,0.26c0.06-0.41,1.74-10.03,14.4-9.72c1.83,0.04,3.33,0.79,4.57,2.27
				c6.53,7.76,3.02,31.93,2.98,32.17L410.45,329.76z"/>
		</g>
		<g>
			<path class="st7" d="M411.3,328.66l1.69-0.05c-0.01-0.22-0.56-22.25,10.29-26.8c10.64-4.46,15.42,4.71,15.62,5.1l1.51-0.76
				c-0.06-0.11-5.67-10.98-17.78-5.9C410.71,305.25,411.27,327.71,411.3,328.66z"/>
		</g>
		<g>
			<path class="st7" d="M411.25,330.39c0-0.35,0.1-35.19,6.89-45.38c6.52-9.78,17.04-5.18,17.49-4.98l0.7-1.54
				c-0.12-0.06-12.26-5.41-19.59,5.58c-7.07,10.61-7.18,44.86-7.18,46.32L411.25,330.39z"/>
		</g>
		<path class="st7" d="M399.24,294.23c0,0,6.18,2.28,4.34,7.66s-21.38,14.23-21.38,14.23s-8.18-7.5-0.67-19.7
			C389.05,284.21,399.07,290.38,399.24,294.23z"/>
		<path class="st7" d="M418.45,283.18c0,0-4.39-0.47-4.03-3.14c0.35-2.67,17.05-9.55,26.91,1.57c0,0-6.31,10.84-15.43,10.98
			C416.78,292.73,418.45,283.18,418.45,283.18z"/>
		<path class="st7" d="M422.96,301.03c0,0-3.03-2.44,0.24-3.64c3.27-1.19,19.3-0.85,19.47,15.03c0,0-18.67,3.1-20.98-2.95
			C419.37,303.43,422.96,301.03,422.96,301.03z"/>
		<path class="st8" d="M399.24,294.23c0,0,6.18,2.28,4.34,7.66s-21.38,14.23-21.38,14.23s-8.18-7.5-0.67-19.7
			C389.05,284.21,399.07,290.38,399.24,294.23z"/>
		<path class="st8" d="M418.45,283.18c0,0-4.39-0.47-4.03-3.14c0.35-2.67,17.05-9.55,26.91,1.57c0,0-6.31,10.84-15.43,10.98
			C416.78,292.73,418.45,283.18,418.45,283.18z"/>
		<path class="st8" d="M422.96,301.03c0,0-3.03-2.44,0.24-3.64c3.27-1.19,19.3-0.85,19.47,15.03c0,0-18.67,3.1-20.98-2.95
			C419.37,303.43,422.96,301.03,422.96,301.03z"/>
		<polygon class="st7" points="395.92,362.12 424.9,362.12 428.02,330.39 392.8,330.39 		"/>
		<polygon class="st9" points="395.92,362.12 424.9,362.12 428.02,330.39 392.8,330.39 		"/>
		
			<rect x="391.25" y="326.89" transform="matrix(-1 -1.224647e-16 1.224647e-16 -1 820.8201 660.786)" class="st7" width="38.32" height="7"/>
		
			<rect x="391.25" y="326.89" transform="matrix(-1 -1.224647e-16 1.224647e-16 -1 820.8201 660.786)" class="st10" width="38.32" height="7"/>
	</g>
</g>
<g id="Chair">
	<g>
		<path class="st11" d="M363.12,339.38l-28.81-2.83v-40.49h-11.42v40.48l-28.93,2.84c-2.87,0.28-5.06,2.7-5.06,5.58v4.33h38.58h2.12
			h38.58v-4.33C368.18,342.07,366,339.66,363.12,339.38z"/>
		<path class="st10" d="M363.12,339.38l-28.81-2.83v-40.49h-11.42v40.48l-28.93,2.84c-2.87,0.28-5.06,2.7-5.06,5.58v4.33h38.58h2.12
			h38.58v-4.33C368.18,342.07,366,339.66,363.12,339.38z"/>
		<circle class="st11" cx="291.95" cy="354.65" r="7.47"/>
		<circle class="st11" cx="365.14" cy="354.65" r="7.47"/>
		<path class="st11" d="M332.14,304.76h-7.09c-2.28,0-4.13-1.85-4.13-4.13v-31.93h15.35v31.93
			C336.28,302.91,334.43,304.76,332.14,304.76z"/>
		<path class="st12" d="M332.14,304.76h-7.09c-2.28,0-4.13-1.85-4.13-4.13v-31.93h15.35v31.93
			C336.28,302.91,334.43,304.76,332.14,304.76z"/>
		<path class="st11" d="M355.9,205.4c0,0,2.18,54-12.86,63.29h17.16c0,0,13.3-18.4,9.54-63.29H355.9z"/>
		<path class="st12" d="M355.9,205.4c0,0,2.18,54-12.86,63.29h17.16c0,0,13.3-18.4,9.54-63.29H355.9z"/>
		<path class="st11" d="M294.13,261.14h66.92c2.76,0,5,2.24,5,5v6.69h-76.92v-6.69C289.13,263.38,291.37,261.14,294.13,261.14z"/>
		<g>
			<path class="st11" d="M287.94,266.98h79.31c1.11,0,2.01,0.9,2.01,2.01v1.82c0,1.11-0.9,2.01-2.01,2.01h-79.31
				c-1.11,0-2.01-0.9-2.01-2.01V269C285.93,267.88,286.83,266.98,287.94,266.98z"/>
			<path class="st13" d="M287.94,266.98h79.31c1.11,0,2.01,0.9,2.01,2.01v1.82c0,1.11-0.9,2.01-2.01,2.01h-79.31
				c-1.11,0-2.01-0.9-2.01-2.01V269C285.93,267.88,286.83,266.98,287.94,266.98z"/>
		</g>
		<path class="st11" d="M373.95,216.37h-27.49c-8.05,0-14.58-6.53-14.58-14.58v-10.75c0-8.05,6.53-14.58,14.58-14.58h27.49
			c8.05,0,14.58,6.53,14.58,14.58v10.75C388.54,209.84,382.01,216.37,373.95,216.37z"/>
	</g>
</g>
<g id="Character">
	<g>
		<path class="st14" d="M263.05,132.33l-5.49-14.47c0,0,2.35-2.18,0.74-4.39c-1.61-2.21-11.74-8.43-13.59-7.33
			c-1.85,1.09-5.94,5.21-3.73,7.5c2.22,2.29,12.03,6.1,12.03,6.1l4.85,18.99L263.05,132.33z"/>
		<g>
			<path class="st7" d="M301.38,159.84c0,0-24.97-5.13-27.68-6.36c-2.71-1.23-12.76-30.66-12.76-30.66l-7.7,3.6
				c0,0,6.2,29.54,12.54,36.57c6.34,7.02,33.39,12.97,33.39,12.97L301.38,159.84z"/>
			<path class="st8" d="M299.17,175.94c0,0-0.16-0.03-0.46-0.11c-1.37-0.31-5.63-1.31-10.7-2.8c-8.23-2.39-18.61-6.05-22.23-10.06
				c-6.33-7.03-12.54-36.57-12.54-36.57l7.7-3.6c0,0,10.05,29.44,12.77,30.66c2.71,1.22,27.67,6.35,27.67,6.35L299.17,175.94z"/>
			<polygon class="st7" points="261.07,122.24 262.66,125.31 252.76,128.72 253.14,124.97 			"/>
		</g>
		<path class="st8" d="M299.36,175.54c-1.39-0.2-5.72-0.87-10.89-1.96c2.95-5.09,11.59-7.71,11.59-7.71L299.36,175.54z"/>
		<path class="st11" d="M336.58,139.46c0,0,1.47,13.83-3.66,17.23c-5.12,3.4-30.33-0.58-33.19-6.15c-2.86-5.56,7.9-20.67,7.9-20.67
			L336.58,139.46z"/>
		<polygon class="st14" points="234.59,321.44 241.17,323.03 244.5,313.95 247.52,305.69 240.03,302.5 237.15,312.52 		"/>
		<polygon class="st8" points="237.15,312.52 244.5,313.95 247.52,305.69 240.03,302.5 		"/>
		<g>
			<path class="st7" d="M237.81,307.73l9.12,3.39c0,0,24.33-60.83,29.33-61.04c5-0.21,55.91,23.19,68.67,10.21
				c12.76-12.97-5.69-44.24-5.69-44.24s-30.69-4.38-33,2.55c-0.45,1.34-0.94,3.97-1.3,6.22c-0.35,2.12-0.59,3.9-0.59,3.9
				s-0.01,0-0.02-0.01c-0.95-0.24-31.76-8.19-43.9,0.01C248.1,237.06,237.81,307.73,237.81,307.73z"/>
			<path class="st13" d="M237.81,307.73l9.12,3.39c0,0,24.33-60.83,29.33-61.04c5-0.21,55.91,23.19,68.67,10.21
				c12.76-12.97-5.69-44.24-5.69-44.24s-30.69-4.38-33,2.55c-0.45,1.34-0.94,3.97-1.3,6.22c-0.35,2.12-0.59,3.9-0.59,3.9
				s-0.01,0-0.02-0.01c-0.95-0.24-31.76-8.19-43.9,0.01C248.1,237.06,237.81,307.73,237.81,307.73z"/>
		</g>
		<polygon class="st14" points="290.27,347.39 296.82,345.71 295.56,336.31 294.39,327.69 286.29,328.42 288.39,338.46 		"/>
		<polygon class="st8" points="288.44,338.67 295.6,336.49 294.41,327.78 286.3,328.46 		"/>
		<polygon class="st7" points="250.7,307.74 237.41,303.23 236.85,308.67 246.92,312.23 		"/>
		<g>
			<path class="st7" d="M322.89,263.41c0,0-2.08,0.05-34.27-1.45c0,0,4.81,40.25,7.44,70.37l-9.63,1.64c0,0-23-64.51-22.75-74.76
				s12-13.25,12-13.25S298.61,259.21,322.89,263.41z"/>
			<path class="st13" d="M322.89,263.41c0,0-2.08,0.05-34.27-1.45c0,0,4.81,40.25,7.44,70.37l-9.63,1.64c0,0-23-64.51-22.75-74.76
				s12-13.25,12-13.25S298.61,259.21,322.89,263.41z"/>
			<path class="st15" d="M322.89,263.41c0,0-2.08,0.05-34.27-1.45c0,0,4.81,40.25,7.44,70.37l-9.63,1.64c0,0-23-64.51-22.75-74.76
				s12-13.25,12-13.25S298.61,259.21,322.89,263.41z"/>
		</g>
		<polygon class="st7" points="297.46,329.41 284.23,330.91 286.79,336.1 297.5,334.73 		"/>
		<path class="st15" d="M304.35,228.72l17.95,3.74c0,0-9.92-5.48-17.36-7.64C304.59,226.94,304.35,228.72,304.35,228.72z"/>
		<g>
			<g>
				<polygon class="st11" points="338.5,211.27 339.24,216.05 306.24,218.59 305.36,212.95 				"/>
				<polygon class="st8" points="338.5,211.27 339.24,216.05 306.24,218.59 305.36,212.95 				"/>
			</g>
			
				<rect x="327.66" y="210.85" transform="matrix(-0.9948 0.1023 -0.1023 -0.9948 677.2327 395.338)" class="st7" width="1.64" height="8.35"/>
			
				<rect x="313.25" y="212.71" transform="matrix(-0.9979 0.0641 -0.0641 -0.9979 646.9169 410.1421)" class="st16" width="7.24" height="5.49"/>
			
				<rect x="307.4" y="211.75" transform="matrix(-0.9947 0.1023 -0.1023 -0.9947 636.9194 399.1707)" class="st7" width="1.64" height="8.35"/>
			
				<rect x="327.66" y="210.85" transform="matrix(-0.9948 0.1023 -0.1023 -0.9948 677.2327 395.338)" class="st13" width="1.64" height="8.35"/>
			
				<rect x="307.4" y="211.75" transform="matrix(-0.9947 0.1023 -0.1023 -0.9947 636.9194 399.1707)" class="st13" width="1.64" height="8.35"/>
		</g>
		<path class="st7" d="M300.78,159.38c0,0,8.42,2.64,19.01,2.1c10.59-0.54,23.25,4.6,23.25,4.6l-4.55,45.19l-33.13,1.67
			C305.36,212.95,294.23,175.21,300.78,159.38z"/>
		<path class="st11" d="M306.11,133.86c0,0,1.86-21.95,20.21-13.97c23.03,10.01,4.72,36.74-6.53,31.25
			C308.53,145.65,306.11,133.86,306.11,133.86z"/>
		<path class="st8" d="M311.25,162.71l0.53,12.4l4.11-5.83c0,0-1.47,13.72-0.61,21.18c0,0,0.79-13.39,2.65-21.18l4.37,5.83
			l6.27-12.32C328.58,162.78,318.42,159.14,311.25,162.71z"/>
		<path class="st14" d="M316.93,165.01l9.49-2.68c-5.85-4.02-2.9-13.02-2.9-13.02l-9.4,3.3c0.5,1.56,0.82,2.88,1.01,4.02
			c0.98,5.86-1.67,6.33-1.67,6.33L316.93,165.01z"/>
		<path class="st8" d="M314.12,152.62c0.5,1.56,0.82,2.88,1.01,4.02c4.5-1.8,8.39-7.32,8.39-7.32L314.12,152.62z"/>
		<g>
			<path class="st14" d="M320.26,124.5c-8.32-1.84-11.99,2.02-14.5,10.46c-3.13,10.55-2.44,18.69,8.47,18.7
				C329.05,153.68,334.08,127.56,320.26,124.5z"/>
			<path class="st17" d="M311.24,135.69c0,0-1.63,1.92-3.19,2.92c0,0,0.46,1.29,1.99,1.43L311.24,135.69z"/>
			<g>
				<path class="st11" d="M316.49,136.13c-0.17,0.68,0.06,1.32,0.52,1.43c0.45,0.11,0.96-0.35,1.12-1.03
					c0.17-0.68-0.06-1.32-0.52-1.43C317.16,134.99,316.66,135.45,316.49,136.13z"/>
				<path class="st11" d="M317.79,135.18l-1.34-0.94C316.46,134.24,316.89,135.66,317.79,135.18z"/>
			</g>
			<g>
				<path class="st11" d="M308.07,133.91c-0.17,0.68,0.06,1.32,0.52,1.43c0.45,0.11,0.96-0.35,1.12-1.03
					c0.17-0.68-0.06-1.32-0.52-1.43C308.74,132.77,308.24,133.23,308.07,133.91z"/>
				<path class="st11" d="M309.37,132.96l-1.34-0.94C308.04,132.02,308.47,133.44,309.37,132.96z"/>
			</g>
			<path class="st18" d="M317.84,130.4c0,0,2.41,0.21,3.33,2.06"/>
			<path class="st18" d="M311.87,128.71c0,0-1.35-0.87-3.47-0.05"/>
			<path class="st11" d="M326.25,140.54c0,0-2.38-7.7-0.62-12.85c0,0-15-10.39-19.52,6.17c0,0,1.68-15.22,16.06-12.39
				c14.36,2.83,9.69,23.75,0.92,28.35C323.08,149.83,327.71,145.35,326.25,140.54z"/>
			<path class="st14" d="M324.5,141.99c0.35-1.33,2.24-3.29,4.67-2.47c2.52,0.85,2.57,6.42-4.12,6.27
				C324.08,145.78,323.76,144.76,324.5,141.99z"/>
			<g>
				<path class="st11" d="M308.55,143.19c0.29,1.1,0.43,3.09,0.43,3.09c0.18,0.02,0.37,0.04,0.55,0.05
					c2.48,0.21,3.71-0.51,4.31-1.38c0.33-0.47,0.46-1,0.52-1.43c0.07-0.5,0-0.87,0-0.87c-1.38,0.67-3.72,0.66-4.96,0.59
					C308.88,143.23,308.55,143.19,308.55,143.19z"/>
				<path class="st16" d="M309.4,143.25l0.15,0.91c2.34,0.19,4.02,0.02,4.81-0.63c0.07-0.5,0-0.87,0-0.87
					C312.98,143.33,310.65,143.31,309.4,143.25z"/>
				<path class="st17" d="M309.53,146.33c2.48,0.21,3.71-0.51,4.31-1.38c-0.85-0.04-1.88,0.01-2.81,0.31
					C310.33,145.5,309.86,145.91,309.53,146.33z"/>
			</g>
			<path class="st11" d="M320.29,125.16c0,0,0.32,14.44,8.98,16.17c8.66,1.73-0.81-18.55-0.81-18.55s-12.9-8.42-21.49-2.49
				c-8.6,5.94-0.87,13.57-0.87,13.57S307.92,123.14,320.29,125.16z"/>
			<path class="st19" d="M320.59,124.21c0,0-3.09,9.13,3.01,13.92"/>
		</g>
		<g>
			<path class="st7" d="M331.8,144.3c-1.1,2.94-3.93,4.59-6.32,3.69c-2.39-0.9-3.43-4-2.33-6.94c1.1-2.94,3.93-4.59,6.32-3.69
				C331.86,138.26,332.9,141.37,331.8,144.3z"/>
			<path class="st20" d="M331.8,144.3c-1.1,2.94-3.93,4.59-6.32,3.69c-2.39-0.9-3.43-4-2.33-6.94c1.1-2.94,3.93-4.59,6.32-3.69
				C331.86,138.26,332.9,141.37,331.8,144.3z"/>
			<path class="st7" d="M329.04,139.49c0,0,3.59-16.07-4.46-20.28c0,0,1.68,0.23,2.72,0.53c1.04,0.3,7.47,6.82,4.22,21.26
				L329.04,139.49z"/>
			<path class="st8" d="M329.04,139.49c0,0,3.59-16.07-4.46-20.28c0,0,1.68,0.23,2.72,0.53c1.04,0.3,7.47,6.82,4.22,21.26
				L329.04,139.49z"/>
			<g>
				<g>
					<path class="st7" d="M313.95,148.69c-0.2-0.03-0.4-0.06-0.6-0.09l0.16-0.99c7.25,1.18,12.64-2.65,12.69-2.69l0.59,0.81
						C326.57,145.89,321.32,149.66,313.95,148.69z"/>
				</g>
				<g class="st8">
					<path d="M313.95,148.69c-0.2-0.03-0.4-0.06-0.6-0.09l0.16-0.99c7.25,1.18,12.64-2.65,12.69-2.69l0.59,0.81
						C326.57,145.89,321.32,149.66,313.95,148.69z"/>
				</g>
			</g>
			<path class="st7" d="M331.46,143.9c-0.73,1.94-2.6,3.03-4.18,2.44c-1.58-0.59-2.27-2.65-1.54-4.59c0.73-1.94,2.6-3.03,4.18-2.44
				C331.5,139.91,332.19,141.96,331.46,143.9z"/>
			<g>
				<path class="st7" d="M313.06,149.01l-0.8-0.11c-0.6-0.08-1.02-0.62-0.94-1.22l0,0c0.08-0.6,0.62-1.02,1.22-0.94l0.8,0.11
					c0.6,0.08,1.02,0.62,0.94,1.22l0,0C314.2,148.67,313.65,149.09,313.06,149.01z"/>
				<path class="st20" d="M313.06,149.01l-0.8-0.11c-0.6-0.08-1.02-0.62-0.94-1.22l0,0c0.08-0.6,0.62-1.02,1.22-0.94l0.8,0.11
					c0.6,0.08,1.02,0.62,0.94,1.22l0,0C314.2,148.67,313.65,149.09,313.06,149.01z"/>
			</g>
		</g>
		<polygon class="st7" points="323.87,158.9 317.93,164.73 320.31,171.88 328.58,162.78 		"/>
		<polygon class="st7" points="315.28,160.12 316.24,164.61 313.17,170.96 311.25,162.71 		"/>
		<path class="st14" d="M322.6,163.96l3.45-12.63c0,0-1.67-3.15-1.31-3.8c0.36-0.66,2.16-9.14,3.44-10.06
			c1.28-0.92,6.54,0.65,7.08,1.51c0.53,0.86-5.04,12.35-5.04,12.35l-2.03,13.68L322.6,163.96z"/>
		<g>
			<path class="st7" d="M343.04,166.08c9.49,9.72-9.54,31.74-20.44,30.8c-10.9-0.94,0.27-40.86,0.27-40.86l6.98,1.15
				c0,0-2.45,17.28-1.68,18.63C328.95,177.15,339.85,162.81,343.04,166.08z"/>
			<path class="st8" d="M343.04,166.08c9.49,9.72-9.54,31.74-20.44,30.8c-10.9-0.94,0.27-40.86,0.27-40.86l6.98,1.15
				c0,0-2.45,17.28-1.68,18.63C328.95,177.15,339.85,162.81,343.04,166.08z"/>
			<polygon class="st7" points="322.3,154.74 321.27,158.04 331,158.9 331,156.02 			"/>
		</g>
		<g>
			<path class="st13" d="M307.56,189.87h-3.94c-0.44,0-0.79-0.35-0.79-0.79v-7.44c0-0.44,0.35-0.79,0.79-0.79h3.94
				c0.44,0,0.79,0.35,0.79,0.79v7.44C308.35,189.52,307.99,189.87,307.56,189.87z"/>
			<rect x="303.15" y="181.44" class="st8" width="4.48" height="6.13"/>
			<rect x="305" y="178.67" class="st11" width="0.99" height="3.61"/>
		</g>
		<path class="st7" d="M223.71,334.22c1-0.46,2.08-0.73,3.17-0.81l0,0c0,0,3.8-2.24,7.56-10.92l4.23-0.02
			c1.47,0.02,2.76,0.95,3.25,2.33c0.07,0.19,0.11,0.39,0.12,0.59c-0.04,1.02-0.15,2.04-0.33,3.05c-0.38,3.17-2.47,9.96-2.47,9.96
			l-0.72-0.18l1.3-6.32c0.43-2.15-1.82-0.07-2.87,2.09c-1.05,2.16-2.65,4.34-7.33,3.27C224.19,335.98,222,335.2,223.71,334.22z"/>
		<path class="st14" d="M235.21,320.21c0,0-5.29,11.06-8.33,13.2c0,0,4.08,2.43,8.33-2.98c5.49-7,6.84-5.05,6.84-5.05
			s-0.23-2.4-0.66-3.57C240.56,319.55,235.21,320.21,235.21,320.21z"/>
		<path class="st7" d="M281.93,360.57c0.86-0.68,1.84-1.2,2.89-1.54l0,0c0,0,3.16-3.07,4.76-12.4l4.11-1.03
			c1.43-0.33,2.91,0.26,3.71,1.49c0.11,0.17,0.2,0.35,0.26,0.54c0.2,1,0.34,2.02,0.41,3.04c0.38,3.17-0.04,10.26-0.04,10.26
			l-0.74-0.01l-0.23-6.45c-0.09-2.19-1.79,0.36-2.29,2.71c-0.5,2.35-1.54,4.85-6.34,4.92C282.82,362.17,280.5,361.92,281.93,360.57z
			"/>
		<path class="st14" d="M289.78,344.24c0,0-2.51,12-4.96,14.79c0,0,4.54,1.4,7.38-4.87c3.68-8.11,5.45-6.52,5.45-6.52
			s-0.79-2.27-1.49-3.31C294.82,342.32,289.78,344.24,289.78,344.24z"/>
	</g>
</g>
<g id="Speech_bubble">
	<g>
		<path class="st7" d="M382.76,127.27h-34.92c-2.8,0-5.07-2.27-5.07-5.07v-14.94c0-2.8,2.27-5.07,5.07-5.07h34.92
			c2.8,0,5.07,2.27,5.07,5.07v14.94C387.83,125,385.56,127.27,382.76,127.27z"/>
		<polygon class="st7" points="354.85,124.41 344.33,138.71 361.3,125.37 		"/>
		<g>
			<path class="st16" d="M355.24,114.73c0,0.81-0.66,1.48-1.48,1.48c-0.81,0-1.48-0.66-1.48-1.48c0-0.81,0.66-1.48,1.48-1.48
				C354.58,113.26,355.24,113.92,355.24,114.73z"/>
			<path class="st16" d="M362.93,114.73c0,0.81-0.66,1.48-1.48,1.48s-1.48-0.66-1.48-1.48c0-0.81,0.66-1.48,1.48-1.48
				S362.93,113.92,362.93,114.73z"/>
			<path class="st16" d="M370.62,114.73c0,0.81-0.66,1.48-1.48,1.48c-0.81,0-1.48-0.66-1.48-1.48c0-0.81,0.66-1.48,1.48-1.48
				C369.96,113.26,370.62,113.92,370.62,114.73z"/>
			<path class="st16" d="M378.31,114.73c0,0.81-0.66,1.48-1.48,1.48c-0.81,0-1.48-0.66-1.48-1.48c0-0.81,0.66-1.48,1.48-1.48
				C377.65,113.26,378.31,113.92,378.31,114.73z"/>
		</g>
	</g>
</g>
<g id="Bird">
	<g>
		<g>
			<path class="st7" d="M242.43,107.55l-24.9-13.41c-0.67-0.36-0.93-1.2-0.56-1.88l7.94-14.74c0.36-0.67,1.2-0.93,1.88-0.56
				l24.9,13.41c0.67,0.36,0.93,1.2,0.56,1.88l-7.94,14.74C243.94,107.66,243.1,107.91,242.43,107.55z"/>
			<path class="st21" d="M242.43,107.55l-24.9-13.41c-0.67-0.36-0.93-1.2-0.56-1.88l7.94-14.74c0.36-0.67,1.2-0.93,1.88-0.56
				l24.9,13.41c0.67,0.36,0.93,1.2,0.56,1.88l-7.94,14.74C243.94,107.66,243.1,107.91,242.43,107.55z"/>
			<path class="st8" d="M224.25,78.74l7.79,14.55c0.61,1.13,1.84,1.79,3.11,1.66l16.21-1.6l-16.51,2.43
				c-1.48,0.22-2.93-0.56-3.56-1.92L224.25,78.74z"/>
		</g>
		<g>
			<path class="st7" d="M205.34,76.03c0.26-5.56,4.38-16.77,9.39-20.2s1.71,1.32,1.71,1.32s4.75-4.62,7.25-4.48
				c2.51,0.13,0,3.03,0,3.03s5.14-3.17,7.52-3.04c2.37,0.13,0,2.9,0,2.9s4.22-3.03,5.93-1.58c1.71,1.45-21.89,17.01-24.53,23.34
				C209.99,83.65,205.07,81.66,205.34,76.03z"/>
			<path class="st22" d="M205.34,76.03c0.26-5.56,4.38-16.77,9.39-20.2s1.71,1.32,1.71,1.32s4.75-4.62,7.25-4.48
				c2.51,0.13,0,3.03,0,3.03s5.14-3.17,7.52-3.04c2.37,0.13,0,2.9,0,2.9s4.22-3.03,5.93-1.58c1.71,1.45-21.89,17.01-24.53,23.34
				C209.99,83.65,205.07,81.66,205.34,76.03z"/>
		</g>
		<g>
			<path class="st7" d="M225.62,75.21l3.15,2.02c0.23,0.15,0.11,0.5-0.16,0.48l-3.31-0.26l0.28,2.54c0.03,0.28-0.31,0.43-0.5,0.22
				l-1.91-2.16L225.62,75.21z"/>
			<path class="st12" d="M225.62,75.21l3.15,2.02c0.23,0.15,0.11,0.5-0.16,0.48l-3.31-0.26l0.28,2.54c0.03,0.28-0.31,0.43-0.5,0.22
				l-1.91-2.16L225.62,75.21z"/>
		</g>
		<g>
			<path class="st7" d="M181.37,62.69c0,0,4.35-3.03,10.95-1.06c0,0,1.9,8.7,7.08,11.6c2.85,1.59,9.82,1.46,15.34-0.33
				c6.55-2.12,9.76-2.12,10.95,0.33c1.12,2.32-0.13,5.01-5.14,6.2s-8.97,9.89-18.07,10.02c-9.1,0.13-13.89-8.99-11.6-17.01
				C190.87,72.44,188.1,66.46,181.37,62.69z"/>
			<path class="st9" d="M181.37,62.69c0,0,4.35-3.03,10.95-1.06c0,0,1.9,8.7,7.08,11.6c2.85,1.59,9.82,1.46,15.34-0.33
				c6.55-2.12,9.76-2.12,10.95,0.33c1.12,2.32-0.13,5.01-5.14,6.2s-8.97,9.89-18.07,10.02c-9.1,0.13-13.89-8.99-11.6-17.01
				C190.87,72.44,188.1,66.46,181.37,62.69z"/>
		</g>
		<path class="st11" d="M223.18,74.88c0,0.25-0.2,0.44-0.44,0.44c-0.25,0-0.45-0.2-0.45-0.44c0-0.25,0.2-0.45,0.45-0.45
			C222.98,74.44,223.18,74.64,223.18,74.88z"/>
		<path class="st7" d="M200.36,82.21c-5.37,1.47-17.31,1.01-22.12-2.7c-4.81-3.71,0.73-2.04,0.73-2.04s-5.86-3.09-6.5-5.51
			c-0.65-2.42,2.88-0.94,2.88-0.94s-4.6-3.91-5.21-6.21c-0.6-2.3,2.76-0.9,2.76-0.9s-4.19-3.08-3.34-5.16
			c0.85-2.08,22.94,15.57,29.77,16.13C206.18,75.43,205.8,80.72,200.36,82.21z"/>
		<path class="st22" d="M200.36,82.21c-5.37,1.47-17.31,1.01-22.12-2.7c-4.81-3.71,0.73-2.04,0.73-2.04s-5.86-3.09-6.5-5.51
			c-0.65-2.42,2.88-0.94,2.88-0.94s-4.6-3.91-5.21-6.21c-0.6-2.3,2.76-0.9,2.76-0.9s-4.19-3.08-3.34-5.16
			c0.85-2.08,22.94,15.57,29.77,16.13C206.18,75.43,205.8,80.72,200.36,82.21z"/>
		<g>
			<g>
				<path class="st23" d="M165.16,57.51c-0.94-0.33-1.89-0.65-2.85-0.94"/>
				<path class="st24" d="M156.47,55.08c-3.5-0.73-7.07-1.21-10.61-1.46c-9.72-0.68-24.97-1.64-30.92,8.05
					c-5.43,8.83,3.91,23.89,7.22,32.09c4.06,10.04,8.89,22.45,4.09,33.08c-9.86,21.84-52.05,10.5-66.28-9.62"/>
				<path class="st23" d="M58.36,114.69c-0.5-0.88-0.95-1.78-1.33-2.69"/>
			</g>
		</g>
	</g>
</g>
<g id="Desk">
	<g>
		<g>
			<rect x="141.85" y="194.09" class="st16" width="37.96" height="7.78"/>
			<rect x="141.85" y="194.09" class="st15" width="37.96" height="7.78"/>
			<rect x="141.85" y="194.09" class="st15" width="15.99" height="7.78"/>
			<polygon class="st15" points="141.85,195.21 175.64,195.21 141.85,196.17 			"/>
			<polygon class="st15" points="179.81,196.56 150.52,197.29 179.81,197.29 			"/>
			<polygon class="st15" points="143.4,198.74 157.84,198.14 179.07,198.74 157.84,199.07 			"/>
			<polygon class="st15" points="141.85,200.39 166.87,200.39 141.85,200.98 			"/>
			<polygon class="st15" points="179.75,200.98 163.05,201.29 179.81,201.29 			"/>
		</g>
		<g>
			<rect x="136.57" y="186.3" class="st16" width="37.96" height="7.78"/>
			<rect x="136.57" y="186.3" class="st15" width="37.96" height="7.78"/>
			<rect x="136.57" y="186.3" class="st15" width="15.99" height="7.78"/>
			<polygon class="st15" points="136.57,187.43 170.36,187.43 136.57,188.38 			"/>
			<polygon class="st15" points="174.53,188.78 145.24,189.5 174.53,189.5 			"/>
			<polygon class="st15" points="138.11,190.95 152.55,190.36 173.78,190.95 152.55,191.28 			"/>
			<polygon class="st15" points="136.57,192.6 161.59,192.6 136.57,193.19 			"/>
			<polygon class="st15" points="174.47,193.19 157.76,193.5 174.53,193.5 			"/>
		</g>
		<g>
			<rect x="140.9" y="178.52" class="st16" width="37.96" height="7.78"/>
			<rect x="140.9" y="178.52" class="st15" width="37.96" height="7.78"/>
			<rect x="140.9" y="178.52" class="st15" width="15.99" height="7.78"/>
			<polygon class="st15" points="140.9,179.64 174.69,179.64 140.9,180.6 			"/>
			<polygon class="st15" points="178.86,180.99 149.57,181.72 178.86,181.72 			"/>
			<polygon class="st15" points="142.45,183.17 156.89,182.57 178.12,183.17 156.89,183.5 			"/>
			<polygon class="st15" points="140.9,184.82 165.92,184.82 140.9,185.41 			"/>
			<polygon class="st15" points="178.81,185.41 162.1,185.72 178.86,185.72 			"/>
		</g>
		<g>
			<polygon class="st11" points="204.15,201.71 205.13,197.98 245.68,197.98 264.36,199.85 265.07,201.71 			"/>
			<polygon class="st20" points="245.68,197.98 245.68,201.71 204.15,201.71 205.13,197.98 			"/>
		</g>
		<g>
			<path class="st11" d="M237.54,180.13c0.18,1.97-1.26,3.57-3.22,3.57H172.2c-1.97,0-3.71-1.6-3.89-3.57l-3.69-39.77
				c-0.04-0.41-0.01-0.8,0.08-1.16c0.35-1.4,1.58-2.41,3.14-2.41h62.12c1.97,0,3.71,1.6,3.89,3.57L237.54,180.13z"/>
			<path class="st20" d="M234.1,183.7h-61.9c-1.97,0-3.71-1.6-3.89-3.57l-3.69-39.77c-0.04-0.41-0.01-0.8,0.08-1.16h61.9
				c1.96,0,3.7,1.6,3.89,3.57l3.69,39.77C234.22,182.95,234.19,183.34,234.1,183.7z"/>
			<polygon class="st11" points="191.42,159.3 204.27,159.3 200.85,196.1 221.17,199.15 221.17,201.71 178.37,201.71 178.37,199.15 
				187.14,196.1 			"/>
			<polygon class="st25" points="204.27,159.3 194.75,201.13 187.14,200.9 191.42,159.3 			"/>
		</g>
		<g>
			<g>
				<polygon class="st11" points="204.21,362.12 198.09,362.12 187.08,208.87 195.21,208.87 				"/>
				<polygon class="st22" points="204.22,362.12 198.09,362.12 187.62,216.48 187.08,209.12 195.21,209.12 195.65,216.48 				"/>
				<polygon class="st8" points="195.65,216.12 187.62,216.12 187.08,209.12 195.21,209.12 				"/>
			</g>
			<g>
				<polygon class="st11" points="249.17,362.12 243.05,362.12 242.05,208.87 250.17,208.87 				"/>
				<polygon class="st9" points="250.18,209.12 250.02,233.84 249.18,362.12 243.05,362.12 242.21,233.84 242.05,209.12 				"/>
				<polygon class="st8" points="250.18,209.12 250.02,234.12 242.21,234.12 242.05,209.12 				"/>
			</g>
			<g>
				<polygon class="st11" points="314.21,362.12 308.09,362.12 297.08,208.87 305.21,208.87 				"/>
				<polygon class="st9" points="314.22,362.12 308.09,362.12 297.62,216.48 297.08,209.12 305.21,209.12 305.65,216.48 				"/>
				<polygon class="st8" points="305.65,216.12 297.62,216.12 297.08,209.12 305.21,209.12 				"/>
			</g>
			<g>
				<polygon class="st11" points="134.13,362.12 128.01,362.12 137.01,208.87 145.14,208.87 				"/>
				<polygon class="st9" points="145.14,209.12 144.6,216.48 134.13,362.12 128.01,362.12 136.57,216.48 137.01,209.12 				"/>
				<polygon class="st8" points="137.01,209.12 145.14,209.12 144.6,216.12 136.57,216.12 				"/>
			</g>
			<g>
				<path class="st7" d="M309.49,212.71H132.73c-1.19,0-2.16-0.97-2.16-2.16v-5.51h181.08v5.51
					C311.65,211.74,310.68,212.71,309.49,212.71z"/>
				<path class="st13" d="M309.49,212.71H132.73c-1.19,0-2.16-0.97-2.16-2.16v-5.51h181.08v5.51
					C311.65,211.74,310.68,212.71,309.49,212.71z"/>
			</g>
			<rect x="130.57" y="205.03" class="st8" width="181.08" height="3.84"/>
			<g>
				<path class="st7" d="M315.45,206.04H126.77c-1.19,0-2.16-0.97-2.16-2.16l0,0c0-1.19,0.97-2.16,2.16-2.16h188.68
					c1.19,0,2.16,0.97,2.16,2.16l0,0C317.61,205.07,316.64,206.04,315.45,206.04z"/>
				<path class="st13" d="M315.45,206.04H126.77c-1.19,0-2.16-0.97-2.16-2.16l0,0c0-1.19,0.97-2.16,2.16-2.16h188.68
					c1.19,0,2.16,0.97,2.16,2.16l0,0C317.61,205.07,316.64,206.04,315.45,206.04z"/>
			</g>
		</g>
		<g>
			<path class="st7" d="M270.81,195.05l2.32-3.48c0.46-0.69,1.24-1.11,2.08-1.11h2.94c0.25,0,0.49,0.04,0.72,0.11l10.49,3.18
				c0.6,0.18,1.1,0.58,1.42,1.11l1.5,2.53L270.81,195.05z"/>
			<path class="st8" d="M292.29,197.39l-15.27-1.66l-6.21-0.68l2.32-3.48c0.46-0.69,1.24-1.11,2.08-1.11h2.94
				c0.25,0,0.49,0.04,0.73,0.11l0.23,0.07l10.25,3.11c0.6,0.18,1.11,0.57,1.43,1.11L292.29,197.39z"/>
			<path class="st8" d="M292.29,197.39l-15.27-1.66l2.09-5.09l10.25,3.11c0.6,0.18,1.11,0.57,1.43,1.11L292.29,197.39z"/>
			<path class="st7" d="M299.55,201.38v0.33h-13.31h-19.11l1.2-4.69c0.47-1.76,2.07-2.99,3.89-2.99h14.38c0.48,0,0.95,0.08,1.4,0.25
				l1.8,0.67l7.14,2.66C298.51,198.2,299.55,199.7,299.55,201.38z"/>
			<path class="st8" d="M299.55,201.38v0.33h-13.31l0,0l0.71-5.07c0.19-1.34,1.58-2.16,2.85-1.69l7.14,2.66
				C298.51,198.2,299.55,199.7,299.55,201.38z"/>
			<path class="st11" d="M288.31,198.26l4.23-12.71c0.18-0.55,0.81-0.8,1.33-0.54l0,0c0.39,0.2,0.59,0.65,0.48,1.08l-3.57,13.57
				C290.78,199.66,288.41,200.62,288.31,198.26z"/>
			<polygon class="st8" points="270.81,200.66 268.93,200.66 269.29,198.81 271.17,198.81 			"/>
			<polygon class="st8" points="273.61,200.58 271.73,200.58 272.09,198.74 273.97,198.74 			"/>
		</g>
	</g>
</g>
</svg>
