<svg xmlns="http://www.w3.org/2000/svg" width="511.953" height="512.039" viewBox="0 0 511.953 512.039">
  <g id="growth" transform="translate(-0.043)">
    <g id="XMLID_1258_">
      <g id="XMLID_1850_">
        <path id="XMLID_1911_" d="M509.067,215.358a10.01,10.01,0,0,0-9.044-2.732l-86.184,17.345a10,10,0,0,0-5.1,16.875l11.66,11.66-45.762,45.762-35.426-35.426a10,10,0,0,0-14.142,0L281.6,312.313l16.306-58.59a46.951,46.951,0,0,0-28.721-56.508l13.035-37.236c3.6.316,7.185.477,10.732.477A124.336,124.336,0,0,0,372.229,131.8l2.383-1.979a27.857,27.857,0,0,0,4.565-38.552,27.74,27.74,0,0,0-39.694-4.395l-2.707,2.249a68.859,68.859,0,0,1-12.965,8.5c-15.42,7.778-34.676,4.314-47.471-8.349a45.7,45.7,0,1,0-50.4-16.8,52.1,52.1,0,0,0-26.885,15.162,9.989,9.989,0,0,0-1.179,1.208,135.658,135.658,0,0,1-67.964,44.915,27.655,27.655,0,0,0-16.466,13.034l-20.5-20.5a23.028,23.028,0,0,0-32.527,0L33.6,153.123h0L6.78,179.946a23,23,0,0,0,0,32.528l73.9,73.9a23,23,0,0,0,32.528,0l27.773-27.773-13.169,34.532a10,10,0,1,0,18.688,7.127l32.8-86h73.433a26.888,26.888,0,0,1,25.9,34.1l-22.723,81.646a8.552,8.552,0,0,1-8.214,6.24,8.527,8.527,0,0,1-8.421-9.865l12.091-76.012A10,10,0,0,0,241.5,238.8H217.788a10,10,0,0,0-8.924,5.486c-.584,1.154-58.6,115.875-78.157,154.639a10.269,10.269,0,0,1-10.575,5.5l-.474-.064a9.779,9.779,0,0,1-7.827-13.177l6.162-16.157A10,10,0,1,0,99.306,367.9l-6.162,16.157A29.783,29.783,0,0,0,116.97,424.18l.474.063a30.33,30.33,0,0,0,31.121-16.312c17.078-33.86,63.524-125.706,75.372-149.132h5.843L219.53,323.24a28.514,28.514,0,0,0,19.5,31.649l-111.4,111.4a10,10,0,0,0,0,14.142l28.683,28.682a10,10,0,0,0,14.142,0L225.6,453.969a10,10,0,1,0-14.143-14.143L163.383,487.9l-14.54-14.54,183.3-183.3,35.426,35.426a10,10,0,0,0,14.142,0l59.9-59.9a10,10,0,0,0,0-14.143l-5.538-5.538,53.149-10.7-10.7,53.149-8.231-8.231a10,10,0,0,0-14.143,0l-81.516,81.516-35.426-35.426a10,10,0,0,0-14.143,0l-57.051,57.051A10,10,0,0,0,282.162,397.4l49.979-49.979,35.426,35.426a10,10,0,0,0,14.143,0l81.516-81.516,14.354,14.354a10,10,0,0,0,16.875-5.1L511.8,224.4A10,10,0,0,0,509.067,215.358ZM262.856,20A25.654,25.654,0,1,1,237.2,45.654,25.683,25.683,0,0,1,262.856,20ZM163.9,197.25l-12.17-12.17q8.67-2.829,17.015-6.456Zm-33.749-34.688a7.751,7.751,0,0,1,5.3-9.582,155.985,155.985,0,0,0,45.586-21.6l-5.647,21.71a172.464,172.464,0,0,1-35.657,14.765c-.231.066-.473.124-.712.17a7.676,7.676,0,0,1-5.241-.9l-2.929-2.929A7.609,7.609,0,0,1,130.155,162.562ZM74.567,140.441a3,3,0,0,1,4.243,0l36.452,36.452a27.488,27.488,0,0,0,5.978,5.978l31.476,31.476a3,3,0,0,1,0,4.242l-19.752,19.752L111,216.374l4.184-4.184a10,10,0,0,0,0-14.143l-22.51-22.51a10,10,0,0,0-14.143,0l-4.184,4.184L54.815,160.192Zm13.688,70.391a3.752,3.752,0,0,1-5.309,0h0l-3.059-3.058a3.752,3.752,0,0,1,0-5.309l5.712-5.712,8.367,8.367Zm10.814,61.4a3,3,0,0,1-4.242,0l-73.9-73.9a3,3,0,0,1,0-4.242l19.751-19.752L61.137,194.8a23.782,23.782,0,0,0,4.608,27.117l3.058,3.057h0a23.782,23.782,0,0,0,27.117,4.608l22.9,22.9Zm142.842-77.973H185.347l20.543-78.973A32.058,32.058,0,0,1,236.909,91.31a31.7,31.7,0,0,1,23.475,10.233c18.788,20.244,48.577,25.975,72.436,13.938a88.789,88.789,0,0,0,16.738-10.974l2.707-2.249a7.741,7.741,0,0,1,11.084,1.235,8.029,8.029,0,0,1-1.516,10.944l-2.382,1.979a103.733,103.733,0,0,1-82.475,22.79A9.991,9.991,0,0,0,266,145.783l-16.972,48.481Z" fill="#09687c"/>
        <path id="XMLID_1920_" d="M247,408.8a10.005,10.005,0,1,0,7.069,2.93A10.071,10.071,0,0,0,247,408.8Z" fill="#09687c"/>
        <path id="XMLID_1921_" d="M122.886,344.14a9.988,9.988,0,1,0-7.08-2.931A10.072,10.072,0,0,0,122.886,344.14Z" fill="#09687c"/>
      </g>
    </g>
  </g>
</svg>
