<svg id="Layer_1" data-name="Layer 1" xmlns="http://www.w3.org/2000/svg" viewBox="0 0 190.6 134.1"><defs><style>.cls-1{fill:#29abe2;}.cls-2{fill:#138fc2;}.cls-3{fill:#1a1a1a;}.cls-4,.cls-5,.cls-6{fill:#fff;}.cls-4{opacity:0.1;}.cls-4,.cls-5{isolation:isolate;}.cls-5{opacity:0.2;}.cls-7{fill:#41516a;}.cls-8{fill:#667894;}.cls-9{fill:#2e3c52;}.cls-10{fill:#fbc201;}.cls-11{fill:#fbda6c;}.cls-12{fill:#ba7001;}</style></defs><title>online-payment</title><path class="cls-1" d="M204.5,121.6a8.47,8.47,0,0,1-10.1,6.5L69.1,101a8.47,8.47,0,0,1-6.5-10.1L78.9,15.2A8.47,8.47,0,0,1,89,8.7L214.4,35.8a8.47,8.47,0,0,1,6.5,10.1Z" transform="translate(-30.6 -8.5)"/><path class="cls-2" d="M220,40a8.53,8.53,0,0,1,.1,3.9l-16.3,75.7a8.47,8.47,0,0,1-10.1,6.5L68.3,99.1a8.23,8.23,0,0,1-5.6-4.3,8.44,8.44,0,0,0,6.4,6.2l125.3,27a8.47,8.47,0,0,0,10.1-6.5l16.3-75.7A8.35,8.35,0,0,0,220,40Z" transform="translate(-30.6 -8.5)"/><rect class="cls-3" x="135.36" y="-27.78" width="23" height="145.21" transform="translate(41.44 170.41) rotate(-77.81)"/><path class="cls-4" d="M69.1,101l17.7,3.8L197.5,32.1,89,8.7a8.47,8.47,0,0,0-10.1,6.5L62.6,90.9A8.47,8.47,0,0,0,69.1,101Z" transform="translate(-30.6 -8.5)"/><path class="cls-5" d="M63.7,93,80,17.3a8.47,8.47,0,0,1,10.1-6.5L215.5,37.9a8.45,8.45,0,0,1,5.7,4.5,8.41,8.41,0,0,0-6.3-5.9L89.6,9.4a8.47,8.47,0,0,0-10.1,6.5L63.1,91.6a8.87,8.87,0,0,0,.7,5.6A9.83,9.83,0,0,1,63.7,93Z" transform="translate(-30.6 -8.5)"/><path class="cls-6" d="M193.4,96.3a1.79,1.79,0,0,1-2.1,1.4l-27.6-6a1.79,1.79,0,0,1-1.4-2.1l4-18.6a1.79,1.79,0,0,1,2.1-1.4l27.6,6a1.79,1.79,0,0,1,1.4,2.1Z" transform="translate(-30.6 -8.5)"/><path class="cls-7" d="M175.9,134a8.49,8.49,0,0,1-8.5,8.5H39.1a8.49,8.49,0,0,1-8.5-8.5V56.6a8.49,8.49,0,0,1,8.5-8.5H167.4a8.49,8.49,0,0,1,8.5,8.5Z" transform="translate(-30.6 -8.5)"/><path class="cls-5" d="M32.2,135.9V58.4a8.49,8.49,0,0,1,8.5-8.5H169a8.6,8.6,0,0,1,6.6,3.2,8.42,8.42,0,0,0-7.4-4.4H39.8a8.49,8.49,0,0,0-8.5,8.5v77.5a8.38,8.38,0,0,0,1.9,5.3A9.9,9.9,0,0,1,32.2,135.9Z" transform="translate(-30.6 -8.5)"/><path class="cls-8" d="M162,142.5h5.4a8.15,8.15,0,0,0,3.1-.6V115.7h5.4v-8.5h-5.4V80.6h5.4V72.1h-5.4V48.7a8.15,8.15,0,0,0-3.1-.6H162v24H135.5c4.9-11.4,11.9-19.9,20-24H126.8a75.35,75.35,0,0,0-36,64.2,76.28,76.28,0,0,0,6.3,30.2h9.4a67.11,67.11,0,0,1-7.2-26.8h19.9a117.82,117.82,0,0,0,3.8,26.8h8.8a106.73,106.73,0,0,1-4.1-26.8H162Zm-42.5-35.3H99.6a67.26,67.26,0,0,1,7.8-26.7h16.2A117.5,117.5,0,0,0,119.5,107.2Zm6.9-35.1H112.9a66.79,66.79,0,0,1,25.2-20.4A70.41,70.41,0,0,0,126.4,72.1Zm1.6,35.1a105.66,105.66,0,0,1,4.5-26.7H162v26.7Z" transform="translate(-30.6 -8.5)"/><path class="cls-9" d="M173.8,51.1a7.9,7.9,0,0,1,.9,3.8v77.5a8.49,8.49,0,0,1-8.5,8.5H38a8.33,8.33,0,0,1-6.4-3,8.36,8.36,0,0,0,7.5,4.7H167.4a8.49,8.49,0,0,0,8.5-8.5V56.6A8.35,8.35,0,0,0,173.8,51.1Z" transform="translate(-30.6 -8.5)"/><path class="cls-6" d="M72.7,68.8a3.37,3.37,0,0,1-3.4,3.4H42.5a3.37,3.37,0,0,1-3.4-3.4V60.6a3.37,3.37,0,0,1,3.4-3.4H69.3a3.37,3.37,0,0,1,3.4,3.4Z" transform="translate(-30.6 -8.5)"/><path class="cls-6" d="M65.7,127.1a3.33,3.33,0,0,1-3.3,3.3H42.5a3.33,3.33,0,0,1-3.3-3.3h0a3.33,3.33,0,0,1,3.3-3.3H62.4a3.2,3.2,0,0,1,3.3,3.3Z" transform="translate(-30.6 -8.5)"/><path class="cls-6" d="M99.2,127.1a3.33,3.33,0,0,1-3.3,3.3h-20a3.33,3.33,0,0,1-3.3-3.3h0a3.33,3.33,0,0,1,3.3-3.3H95.8a3.23,3.23,0,0,1,3.4,3.3Z" transform="translate(-30.6 -8.5)"/><path class="cls-6" d="M132.6,127.1a3.33,3.33,0,0,1-3.3,3.3H109.4a3.33,3.33,0,0,1-3.3-3.3h0a3.33,3.33,0,0,1,3.3-3.3h19.9a3.15,3.15,0,0,1,3.3,3.3Z" transform="translate(-30.6 -8.5)"/><path class="cls-6" d="M166.1,127.1a3.33,3.33,0,0,1-3.3,3.3H142.9a3.33,3.33,0,0,1-3.3-3.3h0a3.33,3.33,0,0,1,3.3-3.3h19.9a3.2,3.2,0,0,1,3.3,3.3Z" transform="translate(-30.6 -8.5)"/><path class="cls-10" d="M61.4,108.2a5.34,5.34,0,0,1-5.3,5.3H44.4a5.34,5.34,0,0,1-5.3-5.3V96.5a5.34,5.34,0,0,1,5.3-5.3H56.1a5.34,5.34,0,0,1,5.3,5.3Z" transform="translate(-30.6 -8.5)"/><path class="cls-11" d="M59.7,100.1V96.5a3.59,3.59,0,0,0-3.6-3.6H44.4a3.59,3.59,0,0,0-3.6,3.6v9.8A71.12,71.12,0,0,1,59.7,100.1Z" transform="translate(-30.6 -8.5)"/><polygon class="cls-12" points="30.8 89.5 30.8 88.5 24.3 88.5 24.3 82.8 23.2 82.8 23.2 105 24.3 105 24.3 99 30.8 99 30.8 98 24.3 98 24.3 94.3 30.8 94.3 30.8 93.2 24.3 93.2 24.3 89.5 30.8 89.5"/><polygon class="cls-12" points="8.5 98 8.5 99 15 99 15 105 16.1 105 16.1 82.8 15 82.8 15 88.5 8.5 88.5 8.5 89.5 15 89.5 15 93.2 8.5 93.2 8.5 94.3 15 94.3 15 98 8.5 98"/><path class="cls-4" d="M150.9,48.1H39.1a8.49,8.49,0,0,0-8.5,8.5V134a8.49,8.49,0,0,0,8.5,8.5H56.6Z" transform="translate(-30.6 -8.5)"/></svg>