<svg xmlns="http://www.w3.org/2000/svg" width="511.839" height="512" viewBox="0 0 511.839 512">
  <g id="ontime-payment" transform="translate(-0.501 0)">
    <path id="Path_84" data-name="Path 84" d="M296.418,151.957a10,10,0,1,0,10,10A10,10,0,0,0,296.418,151.957Zm0,0" fill="#09687c"/>
    <path id="Path_85" data-name="Path 85" d="M235.793,347.266a10,10,0,1,0-14.145,0A10.013,10.013,0,0,0,235.793,347.266Zm0,0" fill="#09687c"/>
    <path id="Path_86" data-name="Path 86" d="M115.652,509.043a9.994,9.994,0,0,0,14.109.082l48.469-47.75a30.211,30.211,0,0,0,7.117-31.023L195.773,420.3a29.814,29.814,0,0,1,20.816-8.41h132.9a89.508,89.508,0,0,0,62.758-25.5c.7-.676-5.277,6.359,90.668-108.313a39.99,39.99,0,0,0-60.852-51.9l-58.992,60.633a40.178,40.178,0,0,0-31.082-14.883H240.512a128.977,128.977,0,0,0-50.062-10c-48.125,0-90.168,22.219-112.734,63.922a29.863,29.863,0,0,0-26.738,8.285l-47.559,47.7a9.994,9.994,0,0,0-.016,14.1Zm74.793-227.121a109.133,109.133,0,0,1,44.012,9.16,9.979,9.979,0,0,0,4.008.84H351.992a19.994,19.994,0,1,1,0,39.988H270.425a10,10,0,1,0,0,19.992h81.566a39.928,39.928,0,0,0,39.637-45.215c57.066-58.66,65.113-66.9,65.457-67.312a20,20,0,1,1,30.531,25.836l-89.668,107.2a69.613,69.613,0,0,1-48.457,19.488H216.59a49.7,49.7,0,0,0-34.7,14.016l-8.5,8.2L95.07,335.793c18.3-34.34,52.652-53.871,95.375-53.871ZM65.125,348.266A9.973,9.973,0,0,1,77.5,346.86c1.527.93,87.035,86.648,87.563,87.355a10.037,10.037,0,0,1-.918,12.969l-41.32,40.707L24.6,388.91Zm0,0" fill="#09687c"/>
    <path id="Path_87" data-name="Path 87" d="M156.457,211.941H396.391a30.024,30.024,0,0,0,29.992-29.992V29.992A30.024,30.024,0,0,0,396.391,0H156.457a30.024,30.024,0,0,0-29.992,29.992V181.949a30.024,30.024,0,0,0,29.992,29.992ZM406.387,79.976H146.461V59.984H406.387Zm-10,111.973H156.457a10.011,10.011,0,0,1-10-10V99.972H406.387v81.977a10.011,10.011,0,0,1-10,10ZM156.457,20H396.391a10.008,10.008,0,0,1,10,10v10H146.461v-10a10.008,10.008,0,0,1,10-10Zm0,0" fill="#09687c"/>
    <path id="Path_88" data-name="Path 88" d="M376.395,151.957H336.407a10,10,0,0,0,0,20h39.988a10,10,0,1,0,0-20Zm0,0" fill="#09687c"/>
  </g>
</svg>
