<svg xmlns="http://www.w3.org/2000/svg" viewBox="0 0 409.61 409.57" fill="#5280d6"><path d="M215.3,276.8c-20.34-.37-40.37-8.4-57-24.53-7-6.81-7.35-17.05-.93-24.06a16.72,16.72,0,0,1,23.61-1.1l.08.08c8.21,7.39,17.21,13,28.26,14.72,15.93,2.5,30.17-1.3,42.38-11.9,4.22-3.66,75.79-75.42,107.61-107.32,17.57-17.61,21.13-42.56,9.16-63-16.35-28-54.37-34.27-78.19-12.31-15.18,14-54.5,54.28-59.9,59.43-7.33,7-17.65,7-24.39.23s-6.75-17.18.42-24.39c20-20.13,39.69-40.67,60.44-60C314.21-21.62,392.39,2.36,407.06,65.4c7.24,31.12-1,58.4-23.38,81q-51.89,52.5-104.33,104.43C262.08,268,241.12,276.79,215.3,276.8Z"/><path d="M181.69,142.35c23.32.46,43.21,8.47,59.82,24.42,7.11,6.83,7.57,17,1.23,24.06a16.64,16.64,0,0,1-23.48,1.58h0c-.18-.15-.35-.31-.52-.47-11.12-10.2-23.78-15.9-39-15.27a48.48,48.48,0,0,0-31.57,12.71c-6.51,5.91-71.86,71.4-98.26,98-20,20.18-21,50.44-2.53,71.11,18.78,21,51.48,23,72.08,3.71,16.81-15.76,32.79-32.43,49.09-48.73,17-17,40.74,5.24,23.75,22.23-.49.63-32.46,35.58-50.26,52C95.69,430.55,18.27,407.16,3,346c-7.49-30-1.26-57.36,20.18-79.6,33.21-34.45,67.3-68,101.48-101.54C140.33,149.38,160.11,142.76,181.69,142.35Z"/></svg>