<svg xmlns="http://www.w3.org/2000/svg" viewBox="0 0 358.68 412.93"><path fill="#e2e5e7" d="M255.83,0H77.5a26,26,0,0,0-26,26V386.93a26,26,0,0,0,26,26H332.68a26,26,0,0,0,26-26h0V102.34Z"/><path fill="#cad1d8" d="M51.43,337.51h255.3v8.63a13,13,0,0,1-13,13H51.43Z"/><rect fill="#f15642" y="192.87" width="307" height="153" rx="13"/><path fill="#b0b7bd" d="M255.84,0V76.8a25,25,0,0,0,25,25h77.83Z"/><polygon fill="#cad1d8" points="281.35 101.84 358.68 101.84 358.68 178.33 281.35 101.84"/><path fill="#fff" d="M123.52,241.83c0-4.65,2-7.36,6.42-7.57,10.76-.48,21.63-1.38,32.27.69,15.86,3.08,25.55,15.75,26.45,33.48.93,18.21-11,33.31-28.67,36-4,.62-8.23.35-12.36.39-5.59.05-11.19.1-16.78,0-5-.11-7.28-2.41-7.32-7.44C123.45,288.06,123.47,251,123.52,241.83Zm13.5,47c-.05,2.43.44,3.64,3.24,3.5,4.38-.22,8.78,0,13.17-.09,11.38-.33,19.15-6.7,21.12-17.89,2.52-14.37-4.72-28.29-22.54-27.89-3.73.09-7.47.2-11.18,0-2.89-.19-4,.57-3.85,3.68.26,6.23.16,32.06,0,38.71Z"/><path fill="#fff" d="M54.69,241.23c0-5.15,2.39-8,7.32-8.11,8.92-.12,17.87-.7,26.76.36,13.7,1.64,22.84,13.13,21.59,26.91-1.36,14.9-10.35,23.4-25.29,23.78-4.53.12-9.07.18-13.59,0-2.72-.12-3.48.9-3.33,3.45a90.42,90.42,0,0,1,0,9.6c0,12.17-13.44,11.11-13.44-.4C54.62,287.47,54.62,250.42,54.69,241.23Zm13.47,27.42c-.08,2,.56,2.86,2.69,2.8,4.91-.13,9.84.08,14.74-.12a12.12,12.12,0,0,0,11.74-11.76c.25-6.87-4-12.37-10.55-13.29-5.41-.77-10.88-.18-16.31-.35-1.74-.05-2.33.75-2.3,2.41C68.24,251.79,68.27,265.34,68.16,268.65Z"/><path fill="#fff" d="M202.86,242.47c0-6,2-8.35,8.08-8.45,11.45-.19,22.92-.17,34.37,0,11.78,0,11.78,13.26-.42,13.26-8.39.06-16.78.1-25.18,0-2.51,0-3.61.53-3.41,3.27a63.82,63.82,0,0,1,0,9.58c-.23,3,1,3.54,3.67,3.47,6.39-.17,15.79-.06,22.18-.05,11,0,10.72,13.39-.08,13.39-7.46.11-14.93.13-22.38,0-2.58-.06-3.49.64-3.39,3.32.19,5.59.1,11.19,0,16.79,0,11.83-13.48,11-13.48-.18C202.81,287.63,202.82,251.4,202.86,242.47Z"/></svg>