<svg xmlns="http://www.w3.org/2000/svg" viewBox="0 0 1662.59 2042.12"><path fill="#fe2217" d="M180.11,2042C86.75,2042,0,1924,0,1872c0,0,1.56-1699.64,0-1680.27C0,100.7,92.3,0,172.11.81c58.65.6,1010-.81,1010-.81,46,6.9,86.57,26.1,119.73,58.3q153.5,149.05,305.58,299.54c24.71,24.31,55.16,65.68,55.16,91.79s-.34,1341.91-.34,1418.63S1558,2042.12,1495.42,2042.12ZM68.71,1831.49c.07,53,63.15,144.89,146.9,144.89,409.83-.13,1192.05-.21,1242.5-.21,58.76,0,137.49-79.82,137.48-144.68V495c0-46.95-22.43-73.28-37.55-88.16q-149.6-147.36-299.7-294.21c-29.23-28.73-64.49-43.87-105.23-45.37-42-1.53-668.31-.56-939.48-.55-91.27,0-145,83.85-145,146.27C68.72,482.49,68.57,1733.66,68.71,1831.49Z"/><path fill="#fe2217" d="M866,512.66c1.1,75.84-32.38,181.5-39.57,208.67-.87,3,129.34,182.43,132.41,182,78-19.34,178-17.24,223.65-8.19,22.76,4.49,93.06,22.49,84.07,83.33-8.82,59.65-69.19,53.06-90.9,52.82-48.49-.53-138.85-19.12-225.33-100.1-1.56-1.74-236.73,61.84-238.22,64.2-19.9,28.55-53.89,105.79-148.79,194.7-22.86,20.49-67.08,52.72-121.59,41.31-38.41-10-54.66-47.64-35.45-82.29,10.28-18.54,25.14-33.09,41.29-46.39,72.7-56.14,165.31-95.84,195.47-110.62C684.33,927.9,773,687.44,771.8,684.2c-8.92-25.59-62.36-125-38.69-247.11,8.83-37.91,45.12-55.82,80.51-39.54C873.22,427.47,865.8,493.46,866,512.66ZM436.92,1139.6c-7.75,8.36-14.59,17.37-17.9,28.52-6.82,23,12.65,44,35.87,38.19,21-5.25,38.79-16.62,54.21-31.53,45-43.5,113.73-148,113.81-148.36C622.91,1026.42,469.52,1100.05,436.92,1139.6ZM931.59,908.92c-43.14-50-83.43-101.79-118.66-158-23.31,72.2-52.44,141.38-82.82,211.2C796,938.87,863,922,931.59,908.92Zm39.91,14.45c12.61,8.33,99.36,85.59,196.38,78.9,17.89-2.77,32.51-16.14,35.92-33,3.31-16.48.2-41-44.42-53.15C1095,901.82,980.73,921,971.5,923.37ZM784,652.92c1-.39,46.84-129.69,34.19-201.77C816.27,436.6,810,425.22,796,419.29c-10.25-4.33-19.55-2.56-27.63,5.1C730.11,482.88,765.6,604.82,784,652.92Z"/><path fill="#2d2d2d" d="M729.11,1443.48c0-4.12,1-5.28,5.18-5.21,28,.47,56-.86,83.94.91s54.52,8.54,76.87,26.86c21,17.24,33.48,40,40.44,65.65,14.06,51.88,11.75,103.08-11.37,152-19.87,42-54.06,64.55-100.74,67.54-30.29,1.94-60.62.38-90.92,1-4.39.09-3.29-2.61-3.29-4.87C729.11,1696.69,729.2,1494.12,729.11,1443.48Zm52,262.17c0,3.94,1,5.06,4.92,4.88,8.31-.37,16.66,0,25-.43,28.94-1.66,50.57-14.6,63.41-41.25,9.42-19.56,13.24-40.32,14.23-61.76,1.11-23.92-.25-47.63-7.52-70.62-8.34-26.36-24.2-45.58-51.87-53.22-14.19-3.92-28.71-3-43.18-3.25-3.77-.07-5,.74-5,4.8.09,36.81.08,184-.08,220.85Z"/><path fill="#2d2d2d" d="M496.27,1444.12c0-4.31.73-6,5.6-5.9,31.15.56,62.32-.68,93.47.91a160.85,160.85,0,0,1,38.36,6.18c22.89,6.89,37.63,23,46.73,44.14,12.41,28.8,12.55,58.49,1.09,87.57-11.89,30.19-35.32,46-67.18,50.15-20.23,2.65-40.55,2.52-60.86,2.41-4.09,0-5.31,1-5.29,5.2.17,37.49,0,75,.19,112.49,0,3.83-.86,5-4.86,4.94q-20.73-.4-41.49,0c-4.41.08-5.81-.89-5.79-5.62C496.43,1696.28,496.41,1494.64,496.27,1444.12Zm52,139.67c0,2-.78,4.4,2.9,4.32,15.3-.3,30.66.8,45.85-2,13.45-2.46,25.71-7.33,31.51-20.79,9-20.82,9.41-42.12-.16-62.86-5.28-11.44-13.76-20-27.13-22-16.73-2.52-33.57-1.56-50.37-1.79-3.35,0-2.59,2.33-2.6,4.18v100.94Z"/><path fill="#2d2d2d" d="M993.57,1444.12c0-4.3.73-5.91,5.59-5.89q81.74.3,163.49,0c4,0,5.47.84,5.33,5.15-.32,10.49-.3,21,0,31.49.12,4.09-.91,5.29-5.13,5.27-37.34-.18-74.67,0-112-.21-4.39,0-5.47,1-5.43,5.43q.33,41.75,0,83.49c0,3.86.93,5.09,5,5.06,29.33-.17,58.66,0,88-.17,3.69,0,5.19.62,5.06,4.79q-.49,16,0,32c.13,4.14-1.31,4.83-5,4.81-29.16-.14-58.33,0-87.49-.19-4.44,0-5.53,1.13-5.51,5.53.17,42.16,0,84.33.17,126.49,0,3.73-.68,5.11-4.81,5q-21-.43-42,0c-4.07.08-5.26-.84-5.25-5.11C993.72,1696.62,993.7,1494.63,993.57,1444.12Z"/></svg>