<svg xmlns="http://www.w3.org/2000/svg" viewBox="0 0 384.03 239.54" fill="#5280d6"><path d="M263.45,172.69c0,7.79.27,32.54-.6,37.53-3.09,17.82-17.6,29.28-36.67,29.31-38.12,0-164.12.06-189,0-17.88,0-37.13-13-37.13-37.27q-.11-82.5,0-165C.05,15.2,15.12.1,37.28.06,71.28,0,197.52,0,226.65.06,245.41.12,260,11.71,262.84,29.42c1.14,7.21.64,32,.64,37.52,2.42-.92,70.7-28.16,103-41.07,10.5-4.19,17.54.64,17.54,12V201.79c0,11.35-7,16.15-17.59,12C333.51,200.55,265.26,173.34,263.45,172.69ZM38,22.54c-10.74,0-15.47,4.78-15.47,15.59V201.19c0,11.24,4.64,15.85,16,15.85H225.14c11.17,0,15.8-4.58,15.8-15.6V38c0-10.82-4.66-15.46-15.54-15.47ZM361.26,187.4V52.31c-.74.26-64.18,25.61-95.49,38-2.4,1-2.36,2.44-2.35,4.35,0,16.62.08,33.24-.06,49.86,0,2.81.77,4.15,3.43,5.19C283.42,156.2,346.14,181.34,361.26,187.4Z"/></svg>