<?xml version="1.0" encoding="utf-8"?>
<!-- Generator: Adobe Illustrator 23.0.6, SVG Export Plug-In . SVG Version: 6.00 Build 0)  -->
<svg version="1.1" id="Слой_1" xmlns="http://www.w3.org/2000/svg" xmlns:xlink="http://www.w3.org/1999/xlink" x="0px" y="0px"
	 viewBox="0 0 2097.27 1655.72" style="enable-background:new 0 0 2097.27 1655.72;" xml:space="preserve">
<style type="text/css">
	.st0{opacity:0.95;fill:url(#SVGID_1_);}
	.st1{fill:#96BFE6;}
	.st2{opacity:0.95;fill:url(#SVGID_2_);}
	.st3{fill:#4598E6;}
	.st4{fill:url(#SVGID_3_);}
	.st5{opacity:0.95;fill:url(#SVGID_4_);}
	.st6{fill:#385369;}
	.st7{fill:#EEA886;}
	.st8{fill:#434343;}
	.st9{fill:#A77860;}
	.st10{fill:#0E2D3D;}
	.st11{fill:#163342;}
	.st12{fill:#1D3B54;}
	.st13{fill:#285173;}
	.st14{fill:#FFBF55;}
	.st15{fill:#183C59;}
	.st16{fill:#616161;}
	.st17{fill:#E0CEC7;}
	.st18{fill:#EEA987;}
	.st19{fill:url(#SVGID_5_);}
	.st20{fill:url(#SVGID_6_);}
	.st21{fill:url(#SVGID_7_);}
	.st22{fill:url(#SVGID_8_);}
	.st23{fill:url(#SVGID_9_);}
	.st24{fill:#FFFFFF;}
	.st25{fill:url(#SVGID_10_);}
	.st26{fill:url(#SVGID_11_);}
	.st27{opacity:0.95;fill:url(#SVGID_12_);}
	.st28{fill:#344052;}
	.st29{fill:#EB4747;}
	.st30{fill:#393D63;}
	.st31{fill:#DECBC4;}
	.st32{fill:#E8734D;}
	.st33{fill:#3C4145;}
	.st34{fill:#51565C;}
	.st35{fill:#F5E2D9;}
	.st36{fill:#D44040;}
	.st37{fill:#2D3133;}
	.st38{fill:#292C47;}
	.st39{fill:#424773;}
	.st40{fill:#3A3F47;}
	.st41{fill:#E2D2CA;}
	.st42{fill:#323657;}
	.st43{fill:#FFDF69;}
	.st44{fill:#AB9546;}
	.st45{opacity:0.95;}
	.st46{fill:url(#SVGID_13_);}
	.st47{fill:url(#SVGID_14_);}
	.st48{fill:url(#SVGID_15_);}
	.st49{fill:url(#SVGID_16_);}
	.st50{fill:url(#SVGID_17_);}
	.st51{fill:url(#SVGID_18_);}
	.st52{fill:url(#SVGID_19_);}
	.st53{fill:url(#SVGID_20_);}
	.st54{fill:url(#SVGID_21_);}
	.st55{fill:url(#SVGID_22_);}
	.st56{fill:url(#SVGID_23_);}
</style>
<linearGradient id="SVGID_1_" gradientUnits="userSpaceOnUse" x1="1062.5455" y1="1179.1444" x2="1021.3566" y2="432.5835">
	<stop  offset="0" style="stop-color:#D1D7E0"/>
	<stop  offset="1" style="stop-color:#EBEBFF"/>
</linearGradient>
<path class="st0" d="M1229.94,760.06H819.81c-32.4,0-58.67-26.27-58.67-58.67V291.26c0-32.4,26.27-58.67,58.67-58.67h410.13
	c32.4,0,58.67,26.27,58.67,58.67v410.13C1288.61,733.79,1262.34,760.06,1229.94,760.06z"/>
<rect x="902.77" y="639.97" class="st1" width="244.21" height="12.06"/>
<rect x="937.36" y="677.98" class="st1" width="175.03" height="12.06"/>
<linearGradient id="SVGID_2_" gradientUnits="userSpaceOnUse" x1="1736.3252" y1="1387.2762" x2="1736.3252" y2="618.6813">
	<stop  offset="0" style="stop-color:#D1D7E0"/>
	<stop  offset="1" style="stop-color:#EBEBFF"/>
</linearGradient>
<path class="st2" d="M2028.16,1262.87h-583.66c-38.17,0-69.12-30.94-69.12-69.12V484.64c0-38.17,30.94-69.12,69.12-69.12h583.66
	c38.17,0,69.12,30.94,69.12,69.12v709.11C2097.27,1231.93,2066.33,1262.87,2028.16,1262.87z"/>
<g>
	<rect x="1702.69" y="915.41" class="st3" width="57.26" height="10.6"/>
</g>
<g>
	<rect x="1485.32" y="1012.57" class="st1" width="333.16" height="20.53"/>
	<rect x="1485.32" y="1111.14" class="st1" width="269.41" height="20.53"/>
	<rect x="1485.32" y="1061.86" class="st1" width="157.94" height="20.53"/>
</g>
<g>
	<path class="st3" d="M1905.64,500.03v10.37h61.05v57.3h10.37v-67.67H1905.64z M1491.06,567.7h10.37v-57.3h61.05v-10.37h-71.42
		V567.7z M1966.7,863.35v57.32h-61.05v10.37h71.42v-67.69H1966.7z M1501.42,863.35h-10.37v67.69h71.42v-10.37h-61.05V863.35z"/>
</g>
<g>
	<g>
		<path class="st3" d="M1944.74,1133.18c-33.67,0-61.06-27.39-61.06-61.06c0-33.67,27.39-61.06,61.06-61.06s61.06,27.39,61.06,61.06
			C2005.8,1105.79,1978.41,1133.18,1944.74,1133.18z M1944.74,1022.88c-27.15,0-49.24,22.09-49.24,49.24
			c0,27.15,22.09,49.24,49.24,49.24s49.24-22.09,49.24-49.24C1993.98,1044.97,1971.89,1022.88,1944.74,1022.88z"/>
	</g>
	<g>
		<polygon class="st3" points="1940.85,1096.15 1913.11,1068.41 1921.46,1060.06 1940.85,1079.44 1968.02,1052.27 1976.37,1060.62 
					"/>
	</g>
</g>
<linearGradient id="SVGID_3_" gradientUnits="userSpaceOnUse" x1="0" y1="1609.3518" x2="1981.458" y2="1609.3518">
	<stop  offset="5.208330e-03" style="stop-color:#1A2257"/>
	<stop  offset="1" style="stop-color:#5E60F2"/>
</linearGradient>
<path class="st4" d="M1981.46,1609.35c0,25.61-443.56,46.37-990.73,46.37C443.56,1655.72,0,1634.96,0,1609.35
	c0-25.61,443.56-46.37,990.73-46.37C1537.89,1562.98,1981.46,1583.74,1981.46,1609.35z"/>
<linearGradient id="SVGID_4_" gradientUnits="userSpaceOnUse" x1="1024.8735" y1="912.6517" x2="1024.8735" y2="350.6503">
	<stop  offset="0" style="stop-color:#D1D7E0"/>
	<stop  offset="1" style="stop-color:#EBEBFF"/>
</linearGradient>
<rect x="847.11" y="252.31" class="st5" width="355.53" height="305.04"/>
<g>
	<path class="st6" d="M1160.67,438.01c-11.71-30.97-39.84-45.2-53.12-49.63c-4.73-1.57-13.17-4.33-22.07-7.21
		c-16.04-5.18-33.56-10.82-33.56-10.82h-55.34c0,0-19.16,6.42-39.52,13.56c0,0.02-0.02,0.02-0.02,0.02
		c-18.76,6.58-38.51,13.75-45.18,17.1c-13.91,6.94-37.31,56.59-42.04,62.28c-2.44,2.93-13.3,22.27-23.98,43.87h59.61
		c6.3-10.82,11.15-19.21,11.15-19.21s3.77,8.27,8.34,19.21h190.97c3.02-12.7,4.9-28.71,4.9-28.71s10.23,13.91,21.39,28.71h55.04
		C1183.88,484.73,1167.27,455.5,1160.67,438.01z"/>
	<g>
		<path class="st7" d="M1030.85,218.3c0,0,43.27,6.82,36.68,74.51c-6.59,67.69-44.77,62.15-47.33,62.08
			c-2.55-0.07-38.33,1.23-41.12-81.42C979.08,273.48,977.86,212.36,1030.85,218.3z"/>
	</g>
	<g>
		<path class="st7" d="M1068.2,273.69c0,0,4.74-5.06,6.48,0.06c1.74,5.12-6.46,27.97-6.76,29.04c0,0-0.87,1.99-2,0.89
			C1064.78,302.6,1068.2,273.69,1068.2,273.69z"/>
	</g>
	<g>
		<path class="st7" d="M980.24,272.84c0,0-4.64-5.15-6.48-0.06c-1.84,5.09,5.85,28.09,6.2,29.17c0,0,0.83,2,1.98,0.93
			C983.1,301.8,980.24,272.84,980.24,272.84z"/>
	</g>
	<g>
		<path class="st8" d="M1068.18,284.08l-6.19,8.28c0,0,0.17-18.16-0.82-21c-0.99-2.85-2.51-11.54-3.35-13.59
			c-0.83-2.05-37.15-12.23-69.24,2.97c0,0,1.41,13.05-1.66,14.22c-3.07,1.16-1.57,21.26-1.57,21.26l-5.09-5.75
			c0,0-7.79-52.08-5.87-57.51c1.92-5.43,8.06-38.06,73.88-18.69c0,0,20.52-4.35,24.64,9.82
			C1077.03,238.25,1068.18,284.08,1068.18,284.08z"/>
	</g>
	<path class="st7" d="M1057.29,369.14c-0.02-0.06-5.55-2.73-5.55-2.73c-2.7-6.03-0.69-31.46-0.69-31.46s-55.11-14.03-53.53-3.3
		c1.57,10.72-4.75,35.64-4.75,35.64l-28.27,14.04c0,0,30.12,80.88,64.74,70.44c34.62-10.43,47.69-73.36,47.69-73.36L1057.29,369.14z
		"/>
	<path class="st9" d="M998.31,343.57c0,0,8.88,11.46,24.29,11.46c10.14,0,17.41-2.84,27.51-12.69c0,0-4.38,18.7-27.44,20.44
		C1022.66,362.78,1005.94,364.9,998.31,343.57z"/>
</g>
<g>
	<g>
		<g>
			<g>
				<g>
					<g>
						<path class="st10" d="M839.22,615.12c0,0,31.79,15.55,23.93,57.86c-7.86,42.31-11.34,48.01-2.55,64.54
							c8.79,16.53,19.17,87.05,11.25,100.42c-7.91,13.37-97.96-58.74-110.44-119.23c-12.49-60.5,7.91-87.4,15.12-97.43
							C783.76,611.26,811.15,600.88,839.22,615.12z"/>
					</g>
				</g>
			</g>
		</g>
	</g>
	<g>
		<path class="st11" d="M827.23,1596.99h7.21v-33.98c0,0,14.13,9.42,23,22.45c8.87,13.03,21.06,11.92,39.63,11.08
			c18.57-0.83,17.74-8.31,16.07-18.84c-1.66-10.53-20.51-13.86-26.61-15.52c-6.1-1.66-19.94-25.51-24.39-31.32
			c-6.07-7.92-9.28-15.52-9.28-15.52s-3.46-14.13-20.65,0c-17.18,14.13-12.19,41.29-10.25,43.79
			C823.9,1561.62,827.23,1596.99,827.23,1596.99z"/>
	</g>
	<g>
		<path class="st7" d="M863.53,1562.18c6.37,4.16,23,0,23,0c-4.71-6.1-33.67-46.83-33.67-46.83c-17.6-10.25-24.55,3.86-24.55,3.86
			C835.49,1521.39,857.16,1558.02,863.53,1562.18z"/>
	</g>
	<g>
		<g>
			<g>
				<g>
					<path class="st7" d="M1048.83,935.26c0,0,11.54,2.21,15.48-3.21c3.35-4.61,11.01-8.15,13.37-9.24
						c3.15-1.46,11.16-9.56,13.04-5.6c1.88,3.96-12.55,13.98-15.16,16.69c-2.61,2.71,14.15,3.9,17.05,6.54
						c2.89,2.63-0.67,30.28-12.07,28.13c-11.41-2.15-22.18-11.98-24.26-11.96c-2.08,0.02-8.36-1.24-8.36-1.24L1048.83,935.26z"/>
				</g>
			</g>
		</g>
	</g>
	<g>
		<g>
			<g>
				<g>
					<path class="st7" d="M1090.06,939.29c0,0,34.49,8.91,36.29,11.43c1.8,2.52,1.21,4.36-2.05,3.66
						c-3.26-0.7-33.57-7.65-33.57-7.65s39.05,17.41,40.98,19.15c1.13,1.02,0.19,4.65-1.59,4.44c-1.78-0.21-41.47-15.25-41.47-15.25
						s36.43,16.32,37.61,18.25c1.03,1.69-0.67,4.81-3.45,3.79c-2.78-1.02-37.45-14.26-37.45-14.26s25.77,13.54,25.8,15.77
						c0.02,1.36-0.65,4.54-7.19,0.84c-6.54-3.7-22.89-10.82-22.89-10.82L1090.06,939.29z"/>
				</g>
			</g>
		</g>
	</g>
	<g>
		<path class="st11" d="M733.86,1599.31h4.43v-24.94c0,0,7.89,8.11,11.49,20.03c3.6,11.92,16.5,15.45,36.18,14.9
			c19.68-0.55,19.95-8.32,18.29-19.96c-1.66-11.64-18.29-17.74-18.29-17.74c-7.48-6.65-26.05-34.23-26.05-34.23
			s-11.92-3.19-21.27,4.36c-9.35,7.55-6.44,24.6-6.17,29.03C732.75,1575.2,733.86,1599.31,733.86,1599.31z"/>
	</g>
	<g>
		<path class="st12" d="M747.44,1005.14c0,0-23.45,30.48-29.81,66.65c-6.36,36.17,3.76,157.55,3.48,175.43
			c-0.28,17.88-16.91,62.36-13.58,96.03c3.33,33.67,16.45,201.26,16.45,201.26l35.93-7.13c0,0-2.08-170.85,0-184.99
			s6.25-65.65,7.08-71.47c0.83-5.82,52.78-158.64,52.78-184.71C819.77,1070.12,803.98,962.6,747.44,1005.14z"/>
	</g>
	<g>
		<path class="st12" d="M865.22,1017.05c0,0,38.52,147.02,43.09,167.39c4.57,20.37,11.2,37.17,11.2,45.82
			c0,20.07-7.46,52.29-7.46,52.29l-48.92,233.95h-46.59c0,0,25.96-140.36,26.66-167.8c0.7-27.51,21.87-66.57,17.72-78.21
			c-4.16-11.64-66.93-145.91-66.93-145.91S746.47,974.37,865.22,1017.05z"/>
	</g>
	<g>
		<path class="st7" d="M785.96,1571.6l-26.05-34.23l-21.27,4.36c0,0,5.72,15.32,16.06,26.84
			C766.95,1582.23,785.96,1571.6,785.96,1571.6z"/>
	</g>
	<g>
		<g>
			<path class="st13" d="M849.31,767.21c0,0,15.88,1.5,27.88,14.36c12,12.86,23.26,33.36,26.41,40.22
				c3.14,6.86,47.2,70.41,49.49,71.84c2.29,1.43,24.43,8.83,39.11,13.77c22.64,7.62,68.04,24.12,68.04,24.12l-9.01,28.54
				c0,0-85.35-27.93-106.73-33.2c-26.14-6.44-86.31-83.64-86.31-83.64S813.31,790.64,849.31,767.21z"/>
		</g>
	</g>
	<g>
		<g>
			<path class="st14" d="M821.6,756.07c0,0,20.57,9.71,27.72,11.14c7.14,1.43,34.86,37.43,39.72,50.57c4.86,13.14,0,32.86-10,56
				c-10,23.14-0.57,30.86-5.14,54c-4.57,23.14-3.1,109.73-2.24,122.58c0.86,12.86-133.74,32.35-160.31,8.92
				c0,0,17.99-78.03,39.29-100.3c4.61-4.82,4.12-36.91,0.98-44.91c-3.14-8-38.57-67.72-38.57-67.72s-2.6-60.57,12.86-72.57
				c13.43-10.43,50.03-14.15,56.6-16.43C789.05,755.06,808.17,754.07,821.6,756.07z"/>
		</g>
	</g>
	<g>
		<g>
			<path class="st7" d="M831.42,732.33c0,0-0.61,5.66-1.32,13.32c-0.27,3.03-0.57,6.37-0.85,9.8c-0.82,10.26-1.47,21.28-1.08,26.91
				c0,0-21.38,21.43-45.69-25c0,0,10.22-19.15,2.52-45.21C777.31,686.07,831.42,732.33,831.42,732.33z"/>
		</g>
	</g>
	<g>
		<path class="st15" d="M891.25,882.32c0,0,5.15-34.23-0.33-55.04c0,0,0,17.9-9.81,43.31L891.25,882.32z"/>
	</g>
	<g>
		<path class="st7" d="M766.05,760.65c0,0,14.71,43.43,55.08,40.24c40.37-3.2,19.14-36.67,19.14-36.67s-10.06-5.77-12.89-6.31
			c-2.83-0.54-44.64-1.07-44.64-1.07L766.05,760.65z"/>
	</g>
	<g>
		<path class="st13" d="M840.27,764.21c0,0,21.15,58.49,21.15,118.11c0,59.62,1.7,156.73,9.09,187.4
			c7.38,30.67,28.4,125.51,28.4,125.51l16.47-8.52c0,0-39.6-151.37-42.59-162.28c-2.99-10.92,2.27-126.22,5.11-135.88
			c2.84-9.66,14.92-52.63,13.04-64.55c-2.37-15.03-16.43-37.27-39.15-56.39L840.27,764.21z"/>
	</g>
	<g>
		<path class="st13" d="M774.03,758.82c0,0,13.14,42.08,19.8,95.98c6.66,53.9-20.44,304.08-38.62,360.87l-70.42-11.36
			c0,0,15.16-176.84,35.74-209.02s27.13-60.66,4.91-127.83c-22.21-67.17,9.74-100.44,9.74-100.44S767.86,759.52,774.03,758.82z"/>
	</g>
	<g>
		<polygon class="st16" points="850.01,937.28 764.62,1085.18 669.7,1030.38 751.38,880.34 		"/>
	</g>
	<g>
		<polygon class="st17" points="839.71,942.37 763.88,1073.72 679.58,1025.05 752.12,891.8 		"/>
	</g>
	<g>
		<polygon class="st16" points="811.74,930.57 817.06,921.35 782.98,901.68 776.32,910.13 		"/>
	</g>
	<g>
		<g>
			<g>
				<g>
					<g>
						<g>
							<path class="st7" d="M807.67,1035.51c0,0-3.88,0.02-5.59-0.8c0,0-2.98-1.73-5.18-2.83c-0.7-0.35-1.31-0.63-1.73-0.78
								c-1.74-0.6-5.74-1.4-9.52-4.03c-3.77-2.62-17.14-18.1-17.14-18.1l6.31-9.6l4.63-9.83c0,0,28.07,1.81,31.87,3.85
								c0.37,0.2,0.73,0.41,1.05,0.64c3.05,2.03,4.46,4.83,5.94,6.08c0.54,0.46,5.6,5.42,5.42,7.53c-0.24,2.93-1.6,4.86-3.36,5.82
								c0,0-0.73,5.71-3.54,8.38c0,0-0.5,5.29-4.95,7.61C811.9,1029.43,810.79,1034.74,807.67,1035.51z"/>
						</g>
					</g>
				</g>
			</g>
		</g>
	</g>
	<g>
		<g>
			<path class="st13" d="M749.81,767.21c0,0-25.93-7.43-40.79,21.14c-14.86,28.57-14.78,40.76-16.77,54.72
				c-1.88,13.17-10.34,49.14-11.2,52.86c-0.86,3.71-20.03,48.01-11.24,63.49c8.84,15.56,98.58,61.37,98.01,64.79
				c-0.57,3.43,15.54-34.63,15.54-34.63s-36.32-20.24-42.26-26.47c-9.66-10.12-30.04-21.03-25.85-33.59
				c4.92-14.75,19.69-64.52,23.12-71.81C741.81,850.43,771.67,776.5,749.81,767.21z"/>
		</g>
	</g>
	<g>
		<g>
			<g>
				<g>
					<g>
						<path class="st18" d="M834.61,619.82c0,0,46.16,14.51,21.1,94.17c-25.06,79.66-88.11-9.23-81.51-57.77
							C780.8,607.68,834.61,619.82,834.61,619.82z"/>
					</g>
				</g>
			</g>
		</g>
	</g>
	<g>
		<g>
			<g>
				<g>
					<g>
						<path class="st10" d="M860.43,666.3c0,0-22.94,22.51-61.33,25.32c0,0-14.75,17.3-15.89,24.09c0,0-34.25-58.38,7.85-93.38
							C833.17,587.34,875.91,651.88,860.43,666.3z"/>
					</g>
				</g>
			</g>
		</g>
	</g>
	<g>
		<g>
			<g>
				<g>
					<g>
						<path class="st18" d="M799.57,693.21c-0.3-5.8-3.87-18.99-12.49-15.3c-8.62,3.69,0.53,30.56,6.24,28.91
							C793.33,706.82,800.27,706.93,799.57,693.21z"/>
					</g>
				</g>
			</g>
		</g>
	</g>
	<g>
		<path class="st9" d="M830.1,745.65c-0.27,3.03-0.57,6.37-0.85,9.8c0,0-20.38-1.21-33.99-31.52
			C796.14,725.25,811.07,747.18,830.1,745.65z"/>
	</g>
</g>
<g>
	<g>
		
			<linearGradient id="SVGID_5_" gradientUnits="userSpaceOnUse" x1="-4092.3916" y1="1234.4832" x2="-3965.0034" y2="1234.4832" gradientTransform="matrix(-1 0 0 1 -3643.2207 0)">
			<stop  offset="0" style="stop-color:#3076A1"/>
			<stop  offset="1" style="stop-color:#48C9B6"/>
		</linearGradient>
		<path class="st19" d="M324.6,1474.18c29.6-20.82,64.24-165.88,66.31-252.29c1.06-44.26,14.14-62.7,25.68-78.97
			c11.03-15.55,20.56-28.98,15.01-59.82c-10.61-58.93,17.28-84.37,17.57-84.62l-3.23-3.68c-1.24,1.09-30.29,27.33-19.16,89.17
			c5.19,28.81-3.36,40.86-14.19,56.12c-11.36,16.01-25.49,35.93-26.59,81.69c-2.22,92.73-37.63,229.7-64.23,248.4L324.6,1474.18z"/>
	</g>
	<g>
		
			<linearGradient id="SVGID_6_" gradientUnits="userSpaceOnUse" x1="-3993.4153" y1="1339.6364" x2="-3761.8274" y2="1339.6364" gradientTransform="matrix(-1 0 0 1 -3643.2207 0)">
			<stop  offset="0" style="stop-color:#3076A1"/>
			<stop  offset="1" style="stop-color:#48C9B6"/>
		</linearGradient>
		<path class="st20" d="M262.55,1431.86c-2.79-6.33-5.69-12.88-8.96-19.79c-16.91-35.69-31.89-41.57-56.71-51.31
			c-6.06-2.38-12.94-5.08-20.48-8.47c-35.55-15.98-28.67-39.52-22.59-60.29c0.85-2.91,1.7-5.8,2.43-8.67
			c3.13-12.22-2.88-18.35-11.97-27.62c-6.76-6.9-15.17-15.48-21.65-29.03c-7.1-14.83-3.48-22.79,0.8-26.85
			c9.02-8.55,29.81-6.97,49.44,3.75c6.1,3.33,11.12,8.59,16.44,14.15c12.52,13.11,28.09,29.42,67.49,29.6
			c22.46,0.11,34.77,3.21,41.14,10.37c7.23,8.13,5.87,20.29,3.98,37.13c-0.65,5.82-1.39,12.42-1.84,19.56
			c-2.68,42.55,22.44,73.24,22.69,73.54c15.01,17.87,33.49,54.94,25.51,77.76c-3.34,9.57-10.82,15.58-22.23,17.89
			c-4.54,0.92-8.7,1.36-12.52,1.36C285.97,1484.93,275.89,1462.08,262.55,1431.86z M170.53,1207.87
			c-17.53-9.57-36.33-11.5-43.73-4.49c-5.62,5.33-2.97,14.46,0.24,21.18c6.13,12.82,13.89,20.74,20.73,27.72
			c9.51,9.71,17.03,17.38,13.22,32.26c-0.75,2.92-1.61,5.87-2.47,8.83c-6.05,20.69-11.76,40.22,19.9,54.45
			c7.44,3.34,14.25,6.02,20.26,8.38c25.05,9.83,41.6,16.33,59.34,53.77c3.3,6.97,6.2,13.55,9.01,19.91
			c15.31,34.71,24.56,55.66,58.04,48.89c9.6-1.94,15.85-6.89,18.58-14.71c7.03-20.11-9.79-55.31-24.65-73
			c-1.09-1.3-26.62-32.43-23.82-76.99c0.46-7.25,1.2-13.91,1.86-19.79c1.75-15.58,3.01-26.83-2.77-33.33
			c-5.28-5.94-16.85-8.63-37.5-8.73c-41.47-0.19-57.85-17.34-71-31.11C180.5,1215.6,175.96,1210.84,170.53,1207.87L170.53,1207.87z"
			/>
	</g>
	<g>
		
			<linearGradient id="SVGID_7_" gradientUnits="userSpaceOnUse" x1="-3973.6191" y1="1373.3142" x2="-3799.7969" y2="1373.3142" gradientTransform="matrix(-1 0 0 1 -3643.2207 0)">
			<stop  offset="0" style="stop-color:#3076A1"/>
			<stop  offset="1" style="stop-color:#48C9B6"/>
		</linearGradient>
		<path class="st21" d="M325.51,1513.19l4.89-0.26c-0.24-4.59-6.41-112.85-49.88-144.54c-47.69-34.76-62.73-72.12-69.89-97.19
			c-8.44-29.55-51.39-37.44-53.21-37.76l-0.85,4.82c0.42,0.07,41.76,7.69,49.35,34.29c7.36,25.77,22.8,64.15,71.71,99.8
			C319.24,1402.68,325.45,1512.09,325.51,1513.19z"/>
	</g>
	<g>
		
			<linearGradient id="SVGID_8_" gradientUnits="userSpaceOnUse" x1="-4183.7334" y1="1196.7383" x2="-3922.709" y2="1196.7383" gradientTransform="matrix(-1 0 0 1 -3643.2207 0)">
			<stop  offset="0" style="stop-color:#3076A1"/>
			<stop  offset="1" style="stop-color:#48C9B6"/>
		</linearGradient>
		<path class="st22" d="M317.24,1537.54c-10.23-5.09-9.86-25.57-9.3-56.57c0.71-39.17,1.68-92.82-18.83-142.17
			c-21.78-52.42-2.36-67.74,16.43-82.56c21.04-16.59,40.92-32.27,2.77-103.02c-17.52-32.49-23.08-54.47-17.5-69.17
			c5.51-14.52,20.98-20.18,37.35-26.18c28.26-10.34,60.3-22.07,56.16-81.89c-1.27-18.34,0.89-29.62,6.79-35.49
			c6.41-6.38,15.85-5.69,26.78-4.89c16.52,1.21,35.23,2.58,51.52-18.69c1.69-5.31,17.28-52.74,35.92-60.86
			c3.91-1.71,7.75-1.68,11.4,0.06l0,0c12.87,6.15,20.34,13.45,22.83,22.32c4.34,15.41-6.95,32.8-20.03,52.93
			C499,963,475.71,998.86,499.86,1041.53c31.93,56.42,15.07,76.16-8.28,103.48c-13.37,15.65-28.53,33.4-38.66,62.34
			c-8.15,23.28,5.75,45.47,19.2,66.93c16.86,26.92,34.3,54.76-2.41,78.92c-60.71,39.94-120.66,170.31-121.26,171.62l-0.25,0.54
			l-0.47,0.37c-11.18,8.77-19.33,12.95-25.46,12.95C320.42,1538.68,318.75,1538.29,317.24,1537.54z M467.01,1349.1
			c32.72-21.52,18-45.02,0.96-72.23c-13.4-21.4-28.6-45.65-19.67-71.15c10.44-29.8,25.91-47.92,39.56-63.9
			c22.87-26.77,37.98-44.46,7.74-97.89c-25.61-45.25-0.41-84.06,19.83-115.23c12.43-19.13,23.16-35.66,19.42-48.93
			c-2.09-7.43-8.71-13.71-20.23-19.23l0,0c-2.35-1.12-4.75-1.12-7.33,0.01c-17.29,7.53-33.17,57.74-33.33,58.25l-0.13,0.41
			l-0.26,0.34c-17.96,23.74-39.07,22.19-56.04,20.95c-10.14-0.74-18.14-1.33-22.97,3.48c-4.75,4.73-6.5,15.1-5.36,31.68
			c4.39,63.49-30.96,76.43-59.36,86.82c-15.96,5.84-29.74,10.88-34.46,23.32c-5.04,13.27,0.44,33.96,17.24,65.11
			c40.1,74.37,17.66,92.07-4.05,109.18c-18.16,14.32-35.3,27.84-14.94,76.83c20.9,50.29,19.92,104.53,19.2,144.13
			c-0.49,27.04-0.88,48.39,6.58,52.1c4.37,2.17,12.72-1.5,24.83-10.92C349.1,1511.69,406.52,1388.9,467.01,1349.1z"/>
	</g>
	<linearGradient id="SVGID_9_" gradientUnits="userSpaceOnUse" x1="385.0961" y1="1481.6674" x2="233.1194" y2="1025.7358">
		<stop  offset="0" style="stop-color:#3076A1"/>
		<stop  offset="1" style="stop-color:#48C9B6"/>
	</linearGradient>
	<path class="st23" d="M221.41,969.3c30.9-10.59,24.48,48.96,37.53,93.01c13.05,44.06,145.23,19.22,89.75,129.55
		s70.17,36.9,32.64,133.17c-37.53,96.28-3.26,199.25-44.06,173.06c-40.8-26.19-22.92-147.43-65.35-161.84
		c-42.43-14.41-49.35-31.21-7.34-70.37c42.01-39.16-110.07-78.04-72.54-157.13C229.57,1029.68,185.72,981.54,221.41,969.3z"/>
	<g>
		<path class="st24" d="M323.05,1491.77c3.89-16.48,37.07-161.53,6.11-179.06c-27.29-15.45-26.62-75.56-22.36-132.31
			c3.77-50.24-60.76-73.72-63.51-74.7l-1.64,4.61c0.64,0.23,63.75,23.21,60.26,69.72c-4.37,58.29-4.84,120.14,24.83,136.94
			c23.51,13.31,1.86,129.88-8.46,173.68L323.05,1491.77z"/>
	</g>
	<linearGradient id="SVGID_10_" gradientUnits="userSpaceOnUse" x1="267.512" y1="1779.4272" x2="343.5006" y2="1451.8547">
		<stop  offset="0" style="stop-color:#C9C4C1"/>
		<stop  offset="1" style="stop-color:#FFF6DE"/>
	</linearGradient>
	<polygon class="st25" points="439.62,1440.12 395.51,1607.48 296.93,1607.48 252.82,1440.12 	"/>
	
		<linearGradient id="SVGID_11_" gradientUnits="userSpaceOnUse" x1="233.2875" y1="1523.7996" x2="420.0892" y2="1523.7996" gradientTransform="matrix(1 0 0 1 19.5338 0)">
		<stop  offset="0" style="stop-color:#C9C4C1"/>
		<stop  offset="1" style="stop-color:#FFF6DE"/>
	</linearGradient>
	<path class="st26" d="M439.62,1440.12c0,0-97.11,18.23-97.11,167.35h-45.58l-44.11-167.35H439.62z"/>
</g>
<linearGradient id="SVGID_12_" gradientUnits="userSpaceOnUse" x1="1534.1816" y1="437.5243" x2="1534.1816" y2="120.9407">
	<stop  offset="0" style="stop-color:#D1D7E0"/>
	<stop  offset="1" style="stop-color:#EBEBFF"/>
</linearGradient>
<path class="st27" d="M1679.71,386.28h-291.06c-26.64,0-48.23-21.59-48.23-48.23V85.5c0-26.64,21.59-48.23,48.23-48.23h291.06
	c26.64,0,48.23,21.59,48.23,48.23v252.55C1727.95,364.69,1706.35,386.28,1679.71,386.28z"/>
<g>
	<rect x="1517.34" y="320.27" class="st3" width="30.74" height="5.69"/>
</g>
<g>
	<g>
		<g>
			<g>
				<path class="st28" d="M1560.5,6.7c0,0,24.76,13.6,16.9,47.04c-7.86,33.44-10.85,37.85-4.46,51.36
					c6.39,13.51,12,70.13,5.19,80.49c-6.81,10.36-75.89-50.52-83.56-99.23c-7.68-48.71,9.6-69.39,15.73-77.11
					S1538.66-5.72,1560.5,6.7z"/>
			</g>
		</g>
	</g>
	<g>
		<path class="st7" d="M1607,283.05h-26.51c-1.28-13.08-2.47-22.18-2.22-23.53c0.39-2.22-26.38-72.45-28.88-78.26
			c-2.52-5.79-12.33-21.37-13.61-36.04c-1.3-14.67,17.83-20.59,17.83-20.59c25.82,4.63,34.56,40.34,34.56,40.34
			s10.84,72.42,16.32,92.8C1605.9,263,1606.66,272.23,1607,283.05z"/>
	</g>
	<path class="st29" d="M1593.66,182.42l-39.48,16.65c0,0-36.29-90.06-5.87-80C1578.63,129.09,1592.27,147.93,1593.66,182.42z"/>
	<g>
		<path class="st29" d="M1584.87,224.82c-1.15,8.94-5.87,40.61-4.82,49.17c0.18,1.41,0.76,4.66,1.64,9.07h-95.2
			c2.53-9.04,4.84-17.04,6.23-21.69c4.63-15.33,0.2-19.44-2.14-31.71c-0.91-4.8-4.11-13.92-7.59-24.23
			c-1.17-3.44-2.37-7.03-3.52-10.63c-4.19-12.98-6.13-26.25-7.33-33.98c-5.74-36.62,22.42-40.14,22.42-40.14
			c10.47-1.93,28.75-7.58,28.75-7.58l28.64,5.96c0,0,2.73,1.02,6.7,3.96c0,0,0.02,0,0.02,0.02c1.91,1.41,4.12,3.26,6.44,5.65
			c3.13,3.21,9.36,12.41,15.58,22.52c1.9,3.1,3.81,6.28,5.61,9.41c5.82,10.08,9.96,18.21,9.83,27.37
			C1596.02,197.01,1586.02,215.88,1584.87,224.82z"/>
	</g>
	<path class="st7" d="M1551.95,119.07c0,0,17.94,30.66,11.27,32.96c-6.67,2.29-41.84-5.45-55.58-34.42
		C1507.64,117.6,1530.73,107.11,1551.95,119.07z"/>
	<path class="st7" d="M1549.38,133.07c0,0-15.94,6.74-30.37-15.46c0,0,3.88-25.21-4.32-39.79c-8.2-14.58,35.83,17.48,35.83,17.48
		s-0.71,3.01-1.45,7.44c-0.38,2.27-0.77,4.91-1.06,7.72c-0.25,2.34-0.44,4.79-0.52,7.23
		C1547.3,123.37,1547.71,128.99,1549.38,133.07z"/>
	<path class="st30" d="M1509.8,167.42c-3.28,16.88-26.82,38.02-26.82,38.02c-1.16-3.45-2.36-7.03-3.52-10.62
		C1495.71,184.45,1509.8,167.42,1509.8,167.42z"/>
	<g>
		<path class="st7" d="M1503.9,180.85c-1.49,6.15-8.36,68.44-7.61,70.57c0.44,1.22,3.76,15.63,7.09,31.64h-30.73
			c-3.15-10.32-5.01-18.89-4.56-23.74c1.96-21.01-5.16-87.99-5.16-87.99s-6.38-40.52,27.24-45.58c0,0,19.86,2.61,21.06,17.28
			C1512.44,157.71,1505.39,174.71,1503.9,180.85z"/>
	</g>
	<path class="st29" d="M1460.45,189.45l41.72,9.75c0,0,33.1-64.26,3.29-76C1474.04,110.83,1452.92,154.4,1460.45,189.45z"/>
	<g>
		<g>
			<g>
				<path class="st18" d="M1556.65,10.26c0,0,36.26,13.31,13.28,75.88c-22.98,62.58-69.9-10.68-62.81-49.13
					C1514.2-1.44,1556.65,10.26,1556.65,10.26z"/>
			</g>
		</g>
	</g>
	<g>
		<g>
			<g>
				<path class="st28" d="M1575.49,48.3c0,0-19.14,17.08-49.85,17.88c0,0-7.18,17.5-8.34,22.87c0,0-30.34-52.1,4.54-78.42
					C1556.73-15.69,1588.37,37.38,1575.49,48.3z"/>
			</g>
		</g>
	</g>
	<g>
		<g>
			<g>
				<path class="st18" d="M1529.78,69.93c-0.02-4.63-2.37-15.29-9.38-12.67c-7.01,2.62-0.73,24.39,3.89,23.29
					C1524.29,80.55,1529.83,80.9,1529.78,69.93z"/>
			</g>
		</g>
	</g>
	<path class="st9" d="M1547.53,116.63c-17.04-4.71-23.63-20.96-23.83-21.5c13.86,17.91,24.31,15.33,24.31,15.33
		C1547.76,112.8,1547.74,114.26,1547.53,116.63z"/>
</g>
<g>
	<path class="st3" d="M1626.29,100.42v5.57h32.77v30.76h5.57v-36.33H1626.29z M1403.73,136.75h5.57v-30.76h32.77v-5.57h-38.34
		V136.75z M1659.07,295.46v30.77h-32.77v5.57h38.34v-36.34H1659.07z M1409.3,295.46h-5.57v36.34h38.34v-5.57h-32.77V295.46z"/>
</g>
<g>
	<rect x="1004.35" y="581.03" class="st3" width="41.05" height="7.6"/>
</g>
<g>
	<path class="st3" d="M1147.91,287.38v7.43h43.78v41.09h7.43v-48.52H1147.91z M850.63,335.9h7.44v-41.09h43.78v-7.43h-51.21V335.9z
		 M1191.68,547.9V589h-43.78v7.43h51.21V547.9H1191.68z M858.07,547.9h-7.44v48.54h51.21V589h-43.78V547.9z"/>
</g>
<g>
	<g>
		<path class="st31" d="M1941.92,858.6h-34.72c-0.63-1.39-1.15-2.6-1.57-3.57c-10.3-24.33-63.41-80.12-63.41-80.12s0,0.03,0,0.12
			c0,0-0.03,0.03-0.03,0.06c0,0,0,0.03,0,0.06c-0.03,0.09-0.06,0.15-0.09,0.24c-0.03,0.12-0.06,0.27-0.12,0.46
			c-0.03,0.09-0.06,0.21-0.06,0.3c-0.03,0.09-0.06,0.15-0.09,0.24c-2.18,8.13-12.87,48.63-18.22,82.2h-234.98
			c-0.54-3.11-1.18-6.08-1.9-8.82c-2.15-8.34-3.6-16.59-4.53-24.3c-0.03-0.39-0.09-0.76-0.12-1.15c-0.18-1.42-0.33-2.84-0.45-4.23
			c-2.02-21.09-0.51-37.26-0.39-38.9c-0.66,1.42-5.41,18.83-11.63,40.32c-3.42,11.79-7.28,24.81-11.12,37.08h-55.49l69.63-200.89
			c1.54-1.21,19.61-9.94,32.79-16.23c13.45-6.41,29.68-15.81,44.34-23.85c7.49-4.11,14.57-7.83,20.7-10.64l0.94-0.42v-0.03
			c10.12-4.63,16.86-7.68,16.86-7.68s0,0,0.03,0c0.24-0.03,1.84-0.18,4.38-0.42c14.14-1.36,58.03-5.47,72.71-6.32
			c1.21-0.09,2.24-0.12,3.02-0.15c0.67-0.03,1.18-0.03,1.48,0c1.84,0.12,10.91,3.26,22.79,7.8c0.45,0.15,0.91,0.33,1.36,0.51
			c0.58,0.21,1.12,0.42,1.69,0.63c1.03,0.39,2.09,0.79,3.14,1.21c2.12,0.85,4.32,1.69,6.53,2.57c0.76,0.3,1.54,0.6,2.33,0.91
			c23.78,9.43,51.04,21.13,57.51,25.78c4.29,3.05,17.62,28.17,33.06,59.24C1914.91,743.88,1935.24,820.71,1941.92,858.6z"/>
	</g>
	<g>
		<path class="st7" d="M1769.49,585.16c-0.63,31.59-61.78,48.87-61.78,48.87s-25.58-32.07-19.47-35.14
			c2.4-1.21,3.37-5.99,3.67-11.36c0.28-5.11-0.05-10.75-0.35-14.33c-0.18-2.23-0.35-3.67-0.35-3.67s8.74-9.22,19.85-20.2
			c19.43-19.21,46.13-43.81,46.17-34.02c0,0.52-0.07,1.14-0.23,1.86C1752.31,539.18,1769.49,585.16,1769.49,585.16z"/>
	</g>
	<g>
		<path class="st9" d="M1745.93,538.87C1745.93,538.87,1745.93,538.87,1745.93,538.87c-0.13,0.19-2.72,4.07-7.15,9.64
			c-9.39,11.81-27.04,31.21-46.88,39c0.28-5.11-0.05-10.75-0.35-14.33c-2.03-0.05-4.06-0.29-6.07-0.73
			c5.44-9.5,13.3-19.47,13.3-19.47l12.28-3.67L1745.93,538.87z"/>
	</g>
	<g>
		<path class="st7" d="M1757.67,515.72c-5.29,11.51-10.31,19.85-11.74,23.16c0,0,0,0,0,0.01c-0.93,2.15-3.45,5.66-7.14,9.63
			c-10.08,10.86-28.81,25.18-47.23,24.68c-2.03-0.05-4.06-0.29-6.07-0.73c-7.44-1.63-16.22-5.08-21.05-14.54
			c-38.15-74.7-10.53-135.79-10.53-135.79s104.33-29.5,120.65,1.9C1786.01,446.07,1770.1,488.68,1757.67,515.72z"/>
	</g>
	<g>
		<path class="st32" d="M1653.91,422.13c0,0-9.69-0.54-12.08-18.91c-2.37-18.15,2.42-23.18,2.42-23.18s43.07-18.03,58.54-20.37
			s53.5-4.6,62.41,5.6c0,0,21.66-5.03,27.56,30.92c9.36,57.04-31.9,112.43-31.9,112.43s0.35-37.27-7.87-42.2
			c-8.22-4.94-15.31,6.8-15.31,6.8l-16.81,3.01c0,0,25.53-55.13-5.1-57.17C1685.14,417.02,1671.44,425.33,1653.91,422.13z"/>
	</g>
	<g>
		<path class="st7" d="M1738.13,458.37c1.6-16.42,31.29-22.69,29.3-5.48c-1.99,17.21-16.61,33.74-23.36,33.16
			C1737.31,485.47,1736.91,470.89,1738.13,458.37z"/>
	</g>
	<g>
		<path class="st33" d="M1911.91,692.17c-9.67-30.98-18.04-55.49-21.76-58.15c-6.5-4.65-58-18.83-82.45-28.41
			c-0.79-0.3-1.57-0.6-2.33-0.91c-2.21-0.88-4.41-1.72-6.53-2.57c-1.06-0.42-2.12-0.82-3.14-1.21c-0.57-0.21-1.12-0.42-1.69-0.63
			c-0.45-0.18-0.91-0.36-1.36-0.51c-0.03,0.03-0.06,0.09-0.12,0.12c-2.18,2.45-13.48,15.29-26.99,34.51
			c-25.27,35.9-58.18,94.08-53.13,147.79c1.63,17.23,3.63,41.98,6.98,69.75c0.24,2.21,0.51,4.41,0.82,6.65h114
			c1.39-29.07,3.87-67.37,7.62-82.2c0.03-0.09,0.06-0.15,0.09-0.24c0-0.09,0.03-0.21,0.06-0.3c0.03-0.15,0.09-0.3,0.12-0.46
			c0.03-0.09,0.06-0.15,0.09-0.24c0-0.03,0-0.06,0-0.06c0-0.03,0.03-0.06,0.03-0.06s27.59,43.13,29.01,83.56h71.75
			C1939.48,821.04,1928.5,745.33,1911.91,692.17z"/>
	</g>
	<g>
		<path class="st33" d="M1670.92,607.37c0,0-8.61,28.65-19.73,100.19c0,0,0,0,0,0.03c-0.39,2.39-0.76,4.84-1.15,7.34
			c-0.03,0.27-0.09,0.57-0.12,0.88c-0.27,1.63-0.51,3.33-0.76,5.02c-0.03,0.21-0.06,0.39-0.09,0.6c-0.18,1.12-0.36,2.27-0.51,3.44
			c-0.42,2.81-0.85,5.71-1.27,8.64c-4.17,29.19-9.73,75.59-15.38,125.09h-45.06c-2.45-13.75-4.74-26.26-4.56-34.85
			c-0.09,0.18-0.15,0.39-0.21,0.58c-3.6,9.97-7.56,20.82-11.58,31.37c-0.36,0.97-0.72,1.93-1.09,2.9h-77.67l77.37-202.4
			c1.54-1.21,21.46-11.94,34.63-18.19c13.75-6.56,31.13-14.63,46.54-21.73c7.37-3.42,14.3-6.59,20.16-9.28L1670.92,607.37z"/>
	</g>
	<g>
		<path class="st34" d="M1775.7,678.15l-29.77,16.8l12.72,12.97l-27.92,150.69h-10.52c-3.87-30.46-6.08-57.81-7.8-76.4
			c-7.77-83.05,75.1-176.71,80.24-182.42c3.99,1.51,8.28,3.17,12.72,4.93L1775.7,678.15z"/>
	</g>
	<g>
		<path class="st34" d="M1671.38,606.58c0,0-11.12,36.3-24.06,126.93c-4.17,29.16-9.76,75.59-15.41,125.09h-4.38l-5.77-142.38
			l14.17-15.35l-12.6-15.75l26.96-68.85c7.37-3.42,14.3-6.59,20.16-9.28L1671.38,606.58z"/>
	</g>
	<g>
		<path class="st35" d="M1794.16,600.14l-24.67-14.98c0,0-0.69,13.53-61.78,48.87l17.35,48.87L1794.16,600.14z"/>
	</g>
	<g>
		<path class="st35" d="M1691.45,591.97c0,0,0.96,14.6,16.25,42.05l-33.86,44.14l-2.47-71.59L1691.45,591.97z"/>
	</g>
	<g>
		<path class="st36" d="M1707.8,634.02c0,0,6.56,26.25,4.2,33.6c0,0-14.43,5.25-24.8-1.31
			C1687.2,666.31,1694.54,647.93,1707.8,634.02z"/>
	</g>
	<g>
		<path class="st36" d="M1699.84,723.27c-6.92,47.15-6.92,94.84-4.35,135.33h-28.92c-0.39-5.71-0.76-11.67-1.12-17.89
			c-5.38-93.36,27.62-176.77,27.62-176.77l14.72-3.69C1707.79,660.26,1703.05,701.51,1699.84,723.27z"/>
	</g>
	<g>
		<path class="st37" d="M1583.21,781.44c-1.1,22.4-0.94,42.29-0.94,42.29s0,0.01,0,0.01c-0.01,0.11-0.03,0.71-0.08,1.71
			c-0.05-0.38-0.09-0.75-0.14-1.13c-3.58,9.97-7.56,20.81-11.56,31.36c-0.93-12.23-1.17-23.63-0.9-34.18
			c1.61-62.81,21.36-95.74,21.36-95.74C1586.43,736.73,1584.25,760.22,1583.21,781.44z"/>
	</g>
</g>
<g>
	<g>
		<polygon class="st38" points="1312.88,858.87 1220.47,909.67 1127.67,763.63 1239.91,724.64 		"/>
	</g>
	<g>
		<polygon class="st24" points="1307.02,854.49 1220.6,901.99 1133.81,765.42 1238.78,728.96 		"/>
	</g>
	<g>
		<path class="st7" d="M1338.67,828.95c0,0-16.08-7.69-23.14-11.71c-7.06-4.02-25.22-9.54-26.69-10.85
			c-1.47-1.31-53.83-4.54-57.01-7.28c-3.18-2.74-6.26,6.42,7.31,9.4c13.57,2.97,32.46,10.24,33.49,15.55
			c1.03,5.3-13.94,6.56-15.46,10.93c-1.52,4.37,0.43,3.39,2.57,4.33c2.15,0.94,17.81-7.74,24.7-5.28c6.89,2.46,17.42-0.95,22.7,0.86
			c5.28,1.81,30.95,10.45,30.95,10.45L1338.67,828.95z"/>
	</g>
	<g>
		<path class="st7" d="M1215.96,891.35c0,0-13.51-12.16-20.05-17.25c-6.54-5.09-18.81-20.05-20.62-20.92
			c-1.81-0.87-25.24-48.96-29.06-50.89c-3.82-1.93,3.61-8.4,11.7,3.23c8.09,11.63,22.29,26.6,27.69,25.51
			c5.4-1.09,0.75-15.69,4.28-18.82c3.53-3.13,3.36-0.92,5.08,0.74c1.72,1.66-0.36,19.8,4.65,25.33c5,5.53,5.89,16.78,9.65,21.05
			c3.76,4.27,21.89,25.1,21.89,25.1L1215.96,891.35z"/>
	</g>
	<g>
		<path class="st39" d="M1506.97,1541.37c0,0,2.92,20.29,3.29,23.33c0.37,3.05,32.52-1.79,32.52-1.79l2.6-24.15
			C1545.37,1538.76,1510.98,1538.51,1506.97,1541.37z"/>
	</g>
	<g>
		<path class="st38" d="M1509.91,1562.13c0,0-10.19,12.23-20.04,17.55c-9.85,5.33-25.34,7.44-31.16,12.96
			c-4.2,3.98-15.32,21.12,25.6,20.78c40.92-0.35,60.65,2.42,65.03-4.15c4.38-6.57-6.34-48.51-6.34-48.51
			S1533.31,1564.24,1509.91,1562.13z"/>
	</g>
	<g>
		<path class="st39" d="M1276.61,1541.37c0,0,2.92,20.29,3.29,23.33c0.37,3.05,32.52-1.79,32.52-1.79l2.6-24.15
			C1315.01,1538.76,1280.63,1538.51,1276.61,1541.37z"/>
	</g>
	<g>
		<path class="st38" d="M1279.55,1562.13c0,0-10.19,12.23-20.04,17.55c-9.85,5.33-46.11,9.71-51.93,15.22
			c-4.21,3.98-11.2,20.01,46.38,18.51c40.9-1.07,60.65,2.42,65.03-4.15c4.38-6.57-6.34-48.51-6.34-48.51
			S1303.51,1564.48,1279.55,1562.13z"/>
	</g>
	<g>
		<path class="st38" d="M1480.34,1020.05c0,0,30.21,48,27.96,91.38c-2.25,43.39,10.95,90.75,15.49,136.07
			c5.06,50.53,25.76,170.14,26.51,197.17c0.75,27.03-3.21,113.33-3.21,113.33l-41.44,0.95c0,0-34.81-209.11-43.82-230.45
			c-9.01-21.34-53.72-173.45-55.22-190.52C1405.1,1120.91,1480.34,1020.05,1480.34,1020.05z"/>
	</g>
	<g>
		<path class="st38" d="M1321.32,1026.56c0,0-22.77,118.91-25.77,145.46c-3,26.55-5.01,128.5-6.51,145.1
			c-1.5,16.6-10.02,217.17-18.03,241.83h52.98c0,0,40.67-145.81,40.67-214.8c0-68.99,31.42-149.98,51.71-195.5
			c20.28-45.52,66.71-46.6,79.18-131.05C1495.55,1017.6,1338.2,999.77,1321.32,1026.56z"/>
	</g>
	<g>
		<path class="st7" d="M1429.93,616.53c0,0-40.55-15.15-59.24,15.72c-18.7,30.87-16.89,92.66,3.54,100.26
			c20.44,7.6,51.14,3.63,61.6-15.69c10.46-19.31,19.91-47.23,19.46-65.89C1454.84,632.27,1440.58,621.92,1429.93,616.53z"/>
	</g>
	<g>
		<path class="st7" d="M1378.63,733.92c0,0,1.69,10.95-1.1,16.34c-2.79,5.39,52.53,5.53,52.53,5.53s4.49-29.33,13-54.12
			C1451.58,676.89,1378.63,733.92,1378.63,733.92z"/>
	</g>
	<g>
		<path class="st40" d="M1443.07,701.68c0,0-3.82,6.3-19.4,3.85c-15.59-2.44-34.6-23.18-41.11-25.46c-6.51-2.28-6.57-6.1-6.57-6.1
			l-4.07,5.95l-6.91,0.44c0,0,6.3-18.55-3.21-26.11c-9.51-7.57,9.87-60.04,59.85-42.57c0,0,38.39,10.58,36.99,32.42
			C1457.25,665.93,1451.66,690.8,1443.07,701.68z"/>
	</g>
	<g>
		<path class="st41" d="M1374.25,749.61c0,0,0.18-10.3,4.85-11.29c4.67-0.99,51.55-5.5,57.29-3.24v12
			C1436.38,747.08,1425.33,753.88,1374.25,749.61z"/>
	</g>
	<g>
		<path class="st7" d="M1377.02,666.04c0.88-3.66,10.19-14.13,13.75-2.92c3.57,11.21-5.39,26.28-10.38,24.99
			C1375.4,686.81,1374.81,675.32,1377.02,666.04z"/>
	</g>
	<g>
		<path class="st42" d="M1188.19,871.36c0.02-0.01,0.05-0.01,0.08-0.01C1187.94,871.49,1187.9,871.5,1188.19,871.36z"/>
	</g>
	<g>
		<path class="st43" d="M1514.42,1134.39c0,0-24.87,7.32-67.27,12s-148.35-1.69-149.02-6.7c-0.67-5.01,22.79-186.54,21.46-195.89
			c-1.33-9.35-2.05-42.66-2.05-42.66c-0.52,9.13-9.82,46.41-21.05,66.73c-4.06,7.34-17.66,30.36-24.22,25.12
			c-31.74-25.34-80.89-120.84-84.01-121.65c2.62-1.14,23.29-10.66,26.19-11.63c2.54-0.85,25.44,23.4,39.31,38.43
			c6.19,6.7,10.58,11.57,10.58,11.57c4.01-9.01,18.6-65.8,23.13-85.46c10.23-44.32,8.66-46.17,8.66-46.17
			c31.02-9.38,78.11-28.48,78.11-28.48l62.13-2.53c0,0,57.02,12.55,79.48,22.7c2.13,0.96,2.14,50.87,7.99,63.96l-18.62,39.28
			c0,0-10.75,77.81-12.99,112.42C1491.22,1001.31,1514.42,1134.39,1514.42,1134.39z"/>
	</g>
	<g>
		<path class="st43" d="M1526.43,898.53c-1.62,5.24-8.99,9.66-13.77,11.6c-3.06,1.24-6.49,1.64-9.95,1l-2.43-0.45v0l-42.58-7.9
			c0,0-9.32-107.29,58.17-133C1517.65,770.36,1541.33,850.49,1526.43,898.53z"/>
	</g>
	<g>
		<path class="st44" d="M1512.65,910.12L1512.65,910.12c-3.06,1.24-6.49,1.64-9.95,1l-2.43-0.45v0l4.2-54.83L1512.65,910.12z"/>
	</g>
	<g>
		<path class="st44" d="M1264.35,909.72l-5.2,22.04c0,0-5.65-22.11-5.38-33.6C1259.96,904.85,1264.35,909.72,1264.35,909.72z"/>
	</g>
	<g>
		<path class="st40" d="M1441.48,620.17c0,0,53.14-6.66,0.9,82.11L1441.48,620.17z"/>
	</g>
	<g>
		<polygon class="st38" points="1170.39,755.8 1164.98,746.52 1207.53,731.84 1212.93,741.07 		"/>
	</g>
</g>
<g class="st45">
	<linearGradient id="SVGID_13_" gradientUnits="userSpaceOnUse" x1="1972.6621" y1="348.5344" x2="2012.0302" y2="348.5344">
		<stop  offset="0" style="stop-color:#D1D7E0"/>
		<stop  offset="1" style="stop-color:#EBEBFF"/>
	</linearGradient>
	<polygon class="st46" points="1981.89,358.1 2012.03,358.1 2002.8,338.97 1972.66,338.97 	"/>
	<linearGradient id="SVGID_14_" gradientUnits="userSpaceOnUse" x1="1958.5576" y1="348.5344" x2="1974.9658" y2="348.5344">
		<stop  offset="0" style="stop-color:#D1D7E0"/>
		<stop  offset="1" style="stop-color:#EBEBFF"/>
	</linearGradient>
	<polygon class="st47" points="1967.78,358.1 1974.97,358.1 1965.74,338.97 1958.56,338.97 	"/>
	<linearGradient id="SVGID_15_" gradientUnits="userSpaceOnUse" x1="1859.5927" y1="330.5286" x2="1985.6963" y2="330.5286">
		<stop  offset="0" style="stop-color:#D1D7E0"/>
		<stop  offset="1" style="stop-color:#EBEBFF"/>
	</linearGradient>
	<polygon class="st48" points="1863.64,335.31 1985.7,335.31 1981.65,325.74 1859.59,325.74 	"/>
</g>
<g>
	<g>
		<linearGradient id="SVGID_16_" gradientUnits="userSpaceOnUse" x1="1159.2617" y1="22.4261" x2="1210.9824" y2="22.4261">
			<stop  offset="0" style="stop-color:#D1D7E0"/>
			<stop  offset="1" style="stop-color:#EBEBFF"/>
		</linearGradient>
		<path class="st49" d="M1208.17,30.22h-46.09c-1.56,0-2.82-1.26-2.82-2.82v-9.95c0-1.56,1.26-2.82,2.82-2.82h46.09
			c1.56,0,2.82,1.26,2.82,2.82v9.95C1210.98,28.96,1209.72,30.22,1208.17,30.22z"/>
	</g>
	<g>
		<linearGradient id="SVGID_17_" gradientUnits="userSpaceOnUse" x1="1159.2617" y1="59.802" x2="1210.9824" y2="59.802">
			<stop  offset="0" style="stop-color:#D1D7E0"/>
			<stop  offset="1" style="stop-color:#EBEBFF"/>
		</linearGradient>
		<path class="st50" d="M1208.17,67.6h-46.09c-1.56,0-2.82-1.26-2.82-2.82v-9.95c0-1.56,1.26-2.82,2.82-2.82h46.09
			c1.56,0,2.82,1.26,2.82,2.82v9.95C1210.98,66.33,1209.72,67.6,1208.17,67.6z"/>
	</g>
	<g>
		<linearGradient id="SVGID_18_" gradientUnits="userSpaceOnUse" x1="1159.2617" y1="97.1785" x2="1210.9824" y2="97.1785">
			<stop  offset="0" style="stop-color:#D1D7E0"/>
			<stop  offset="1" style="stop-color:#EBEBFF"/>
		</linearGradient>
		<path class="st51" d="M1208.17,104.97h-46.09c-1.56,0-2.82-1.26-2.82-2.82V92.2c0-1.56,1.26-2.82,2.82-2.82h46.09
			c1.56,0,2.82,1.26,2.82,2.82v9.95C1210.98,103.71,1209.72,104.97,1208.17,104.97z"/>
	</g>
	<g>
		<linearGradient id="SVGID_19_" gradientUnits="userSpaceOnUse" x1="1232.3379" y1="22.4261" x2="1247.0537" y2="22.4261">
			<stop  offset="0" style="stop-color:#D1D7E0"/>
			<stop  offset="1" style="stop-color:#EBEBFF"/>
		</linearGradient>
		<path class="st52" d="M1244.24,30.22h-9.08c-1.56,0-2.82-1.26-2.82-2.82v-9.95c0-1.56,1.26-2.82,2.82-2.82h9.08
			c1.56,0,2.82,1.26,2.82,2.82v9.95C1247.05,28.96,1245.79,30.22,1244.24,30.22z"/>
	</g>
	<g>
		<linearGradient id="SVGID_20_" gradientUnits="userSpaceOnUse" x1="1232.3379" y1="59.802" x2="1247.0537" y2="59.802">
			<stop  offset="0" style="stop-color:#D1D7E0"/>
			<stop  offset="1" style="stop-color:#EBEBFF"/>
		</linearGradient>
		<path class="st53" d="M1244.24,67.6h-9.08c-1.56,0-2.82-1.26-2.82-2.82v-9.95c0-1.56,1.26-2.82,2.82-2.82h9.08
			c1.56,0,2.82,1.26,2.82,2.82v9.95C1247.05,66.33,1245.79,67.6,1244.24,67.6z"/>
	</g>
	<g>
		<linearGradient id="SVGID_21_" gradientUnits="userSpaceOnUse" x1="1232.3379" y1="97.1785" x2="1247.0537" y2="97.1785">
			<stop  offset="0" style="stop-color:#D1D7E0"/>
			<stop  offset="1" style="stop-color:#EBEBFF"/>
		</linearGradient>
		<path class="st54" d="M1244.24,104.97h-9.08c-1.56,0-2.82-1.26-2.82-2.82V92.2c0-1.56,1.26-2.82,2.82-2.82h9.08
			c1.56,0,2.82,1.26,2.82,2.82v9.95C1247.05,103.71,1245.79,104.97,1244.24,104.97z"/>
	</g>
</g>
<g>
	<linearGradient id="SVGID_22_" gradientUnits="userSpaceOnUse" x1="1027.4316" y1="854.801" x2="1098.0977" y2="854.801">
		<stop  offset="0" style="stop-color:#D1D7E0"/>
		<stop  offset="1" style="stop-color:#EBEBFF"/>
	</linearGradient>
	<polygon class="st55" points="1043.99,871.98 1098.1,871.98 1081.54,837.63 1027.43,837.63 	"/>
	<linearGradient id="SVGID_23_" gradientUnits="userSpaceOnUse" x1="1002.1142" y1="854.801" x2="1031.5673" y2="854.801">
		<stop  offset="0" style="stop-color:#D1D7E0"/>
		<stop  offset="1" style="stop-color:#EBEBFF"/>
	</linearGradient>
	<polygon class="st56" points="1018.67,871.98 1031.57,871.98 1015.01,837.63 1002.11,837.63 	"/>
</g>
</svg>
