<?xml version="1.0" encoding="utf-8"?>
<!-- Generator: Adobe Illustrator 23.0.6, SVG Export Plug-In . SVG Version: 6.00 Build 0)  -->
<svg version="1.1" xmlns="http://www.w3.org/2000/svg" xmlns:xlink="http://www.w3.org/1999/xlink" x="0px" y="0px"
	 viewBox="0 0 500 372.1" style="enable-background:new 0 0 500 372.1;" xml:space="preserve">
<style type="text/css">
	.st0{fill:#EBEBEB;}
	.st1{fill:#F0F0F0;}
	.st2{fill:#F5F5F5;}
	.st3{fill:#E6E6E6;}
	.st4{fill:#407BFF;}
	.st5{opacity:0.3;fill:#FFFFFF;}
	.st6{opacity:0.6;fill:#FFFFFF;}
	.st7{opacity:0.1;}
	.st8{opacity:0.7;}
	.st9{opacity:0.4;fill:#FFFFFF;}
	.st10{fill:#263238;}
	.st11{fill:#FF5652;}
	.st12{fill:#FF8A7B;}
	.st13{opacity:0.3;enable-background:new    ;}
	.st14{opacity:0.5;}
	.st15{opacity:0.2;}
	.st16{opacity:0.5;fill:#FFFFFF;}
	.st17{opacity:0.2;enable-background:new    ;}
	.st18{opacity:0.3;}
	.st19{opacity:0.7;fill:#FFFFFF;}
</style>
<g id="Background_Complete">
	<rect x="416.78" y="343.58" class="st0" width="33.12" height="0.25"/>
	<rect x="322.53" y="346.29" class="st0" width="8.69" height="0.25"/>
	<rect x="396.59" y="334.29" class="st0" width="19.19" height="0.25"/>
	<rect x="52.46" y="335.97" class="st0" width="43.19" height="0.25"/>
	<rect x="104.56" y="335.97" class="st0" width="6.33" height="0.25"/>
	<rect x="131.47" y="340.19" class="st0" width="93.68" height="0.25"/>
	<path class="st0" d="M237.01,282.88H43.92c-3.15,0-5.71-2.56-5.71-5.71V5.74c0-3.15,2.56-5.71,5.71-5.71h193.1
		c3.15,0,5.71,2.56,5.71,5.71v271.43C242.72,280.32,240.16,282.88,237.01,282.88z M43.92,0.29c-3.01,0-5.46,2.45-5.46,5.46v271.43
		c0,3.01,2.45,5.46,5.46,5.46h193.1c3.01,0,5.46-2.45,5.46-5.46V5.74c0-3.01-2.45-5.46-5.46-5.46H43.92z"/>
	<path class="st0" d="M453.31,282.88h-193.1c-3.15,0-5.71-2.56-5.71-5.71V5.74c0-3.15,2.56-5.71,5.71-5.71h193.1
		c3.15,0,5.71,2.56,5.71,5.71v271.43C459.02,280.32,456.46,282.88,453.31,282.88z M260.21,0.29c-3.01,0-5.46,2.45-5.46,5.46v271.43
		c0,3.01,2.45,5.46,5.46,5.46h193.1c3.01,0,5.46-2.45,5.46-5.46V5.74c0-3.01-2.45-5.46-5.46-5.46H260.21z"/>
	<rect y="327.48" class="st0" width="500" height="0.25"/>
	<g>
		<path class="st1" d="M302.75,146.84l37.92-2.21c1.34-0.08,2.68,0.24,3.85,0.91l0,0c12.53,10.86,26.05,3.61,32-0.67
			c2.27-1.63,4.94-2.62,7.73-2.78l42.25-2.46c15.85-0.92,18.39-23.34,3.11-27.68c-0.19-0.06-0.39-0.11-0.59-0.16
			c15.76-14.76-22.28-41.74-59.4,0.84c2.29-13.61-32.51-6.71-42.17,12.24C322.93,113.06,290.69,135.92,302.75,146.84z"/>
		<path class="st1" d="M147.43,182.42l-20.54-0.39l-1.71,0.72c-9.41,4-20.12,3.51-29.13-1.32l0,0l-17.18-0.33
			c0,0-15.96-6.36-13.57-22.36c2.39-16,26.4-2.17,26.4-2.17s-6.93-22.52,16.46-15.72c23.38,6.8,25.25,29.03,25.25,29.03
			S164.38,165.09,147.43,182.42z"/>
	</g>
	<path class="st2" d="M197.46,309.24l8.52-0.03c0.69,0,1.25,0.56,1.25,1.25v3c0,0.69,0.56,1.25,1.25,1.25h12.49
		c0.69,0,1.25-0.56,1.26-1.25v-11.02c0,0,0,0,0-0.01c0-0.69,0.56-1.25,1.25-1.24h2.66c0.69,0,1.25-0.56,1.25-1.25v-6.02
		c0-0.69,0.56-1.25,1.25-1.25h4.36c0.69,0,1.25,0.56,1.25,1.25v1.77c0,0.69,0.56,1.25,1.25,1.25h0.41c0.69,0,1.25-0.56,1.25-1.25
		v-6.55c0-0.69,0.56-1.25,1.25-1.25h4.32c0.69,0,1.25,0.56,1.25,1.25v6.56c0,0.69,0.56,1.25,1.25,1.25h1.35
		c0.69,0,1.25-0.56,1.25-1.25v-13.22h-0.01v-6.62h0.27v4.08c0.03-0.03,0.05-0.07,0.08-0.1l9.93-5.7c0.21-0.23,0.33,0,0.33-0.31
		v-8.16l0.68-0.49l12.41-8.89v-3.54h0.27v3.35l0.05-0.04v39.65c0,0.69,0.56,1.25,1.25,1.25h1.63c0.69,0,1.25-0.56,1.25-1.25
		l0.39-14.8c0-0.14,0.04-0.28,0.1-0.41l2.43-5.06h0.18v-5.72c0-0.56,0.45-1.01,1.01-1.01h0.49v-4.05h0.27v4.05h0.26
		c0.56,0,1.01,0.45,1.01,1.01v0.26h1.14v-0.26c0-0.56,0.45-1.01,1.01-1.01h0.43v-4.05h0.27v4.05h0.31c0.56,0,1.01,0.45,1.01,1.01
		v5.72h0.18l2.43,5.06c0.06,0.13,0.1,0.27,0.1,0.41l0.4,14.79c0,0.69,0.56,1.25,1.25,1.25h2.29c0.69,0,1.25,0.56,1.25,1.25v1.72
		c0,0.69,0.56,1.25,1.25,1.25h1.64c0.61,0,1.13,0.43,1.23,1.03l4.36,22.89c0.02,0.08,0.02,0.16,0.02,0.24
		c0,0.69-0.56,1.25-1.26,1.25H197.47C197.21,326.59,197.46,309.24,197.46,309.24z"/>
	<path class="st1" d="M292.35,328.15c0,0,38.68-30.93,53.26-31.46c14.58-0.53,120.09,29.9,120.09,29.9L292.35,328.15z"/>
	<path class="st1" d="M213.09,328.15c0,0-46.71-23.66-53.9-24.19c-7.19-0.53-31.61,22.62-31.61,22.62L213.09,328.15z"/>
	<path class="st0" d="M172.9,328.15c0,0-76.85-23.66-88.69-24.19c-11.84-0.53-52.02,22.62-52.02,22.62L172.9,328.15z"/>
	<g>
		<path class="st3" d="M366.13,258.46c4.51-4.53,10.54-5.14,13.47-1.36c2.92,3.78,1.63,10.52-2.88,15.06
			c-4.51,4.53-10.54,5.14-13.47,1.36C360.33,269.73,361.62,262.99,366.13,258.46z"/>
		
			<ellipse transform="matrix(0.6671 -0.7449 0.7449 0.6671 -67.6749 350.1265)" class="st0" cx="357.95" cy="250.79" rx="29.28" ry="21.53"/>
		
			<ellipse transform="matrix(0.6671 -0.7449 0.7449 0.6671 -48.9713 384.6318)" class="st3" cx="405.9" cy="247.11" rx="20.8" ry="15.29"/>
		
			<ellipse transform="matrix(0.6671 -0.7449 0.7449 0.6671 -57.4112 396.5247)" class="st0" cx="414.99" cy="262.5" rx="20.8" ry="15.29"/>
		
			<ellipse transform="matrix(0.6672 -0.7449 0.7449 0.6672 -50.6804 372.3396)" class="st1" cx="391.33" cy="242.88" rx="28.69" ry="21.09"/>
		
			<ellipse transform="matrix(0.5912 -0.8065 0.8065 0.5912 -56.4579 396.6962)" class="st1" cx="363.08" cy="254.04" rx="16.19" ry="11.75"/>
		
			<ellipse transform="matrix(0.5912 -0.8065 0.8065 0.5912 -50.9358 444.0974)" class="st1" cx="412.6" cy="272.29" rx="11.7" ry="8.5"/>
		<path class="st3" d="M406.84,282.45l-7.93,6.62c0.63,9.34,1.15,30.84,1.15,30.84l2.82,15.03l-24.85,0.21c0,0,1.13-12.7,1.13-13.38
			c0-0.69,4.8-25.01,4.8-25.01l1.7-13.62l-12.81-3.51l-2.34-6.07l-9.42-4.79l-4.6-6.35l1.78-0.39l5.08,5.87l5.93,1.16l-2.54-5.4
			h2.82l7.06,12.52l9.09,1.68l-1.19-17.58c8.75,2.47,9.6-2.03,9.6-2.03s3,23.66,4.06,26.35l4.69-2.12l5.09-7.21h2.26L406.84,282.45z
			"/>
	</g>
	<g>
		
			<ellipse transform="matrix(0.8065 -0.5912 0.5912 0.8065 -143.0723 131.2609)" class="st3" cx="129.01" cy="284.23" rx="5.34" ry="7.36"/>
		<path class="st0" d="M146.12,264.58c-7.37-6.97-17.21-7.9-21.98-2.09c-4.77,5.81-2.66,16.17,4.7,23.13
			c7.37,6.97,17.21,7.9,21.98,2.09C155.6,281.9,153.49,271.55,146.12,264.58z"/>
		<path class="st3" d="M113.47,265.31c-5.23-4.95-12.22-5.61-15.61-1.49c-3.39,4.13-1.89,11.48,3.34,16.43
			c5.23,4.95,12.22,5.61,15.61,1.49C120.2,277.62,118.7,270.26,113.47,265.31z"/>
		<path class="st0" d="M107.76,274.99c-5.23-4.95-12.22-5.61-15.61-1.49c-3.39,4.13-1.89,11.48,3.34,16.43s12.22,5.61,15.61,1.49
			C114.49,287.3,112.99,279.94,107.76,274.99z"/>
		
			<ellipse transform="matrix(0.7449 -0.6672 0.6672 0.7449 -150.5038 146.6362)" class="st1" cx="116.5" cy="270.13" rx="13.26" ry="18.04"/>
		
			<ellipse transform="matrix(0.8065 -0.5912 0.5912 0.8065 -137.8674 132.9897)" class="st1" cx="134.26" cy="277.14" rx="7.39" ry="10.18"/>
		<path class="st1" d="M106.45,284.32c-2.84-2.85-6.63-3.23-8.47-0.86c-1.84,2.38-1.03,6.62,1.81,9.47
			c2.84,2.85,6.63,3.23,8.47,0.86C110.1,291.41,109.29,287.17,106.45,284.32z"/>
		<path class="st2" d="M106.75,295.01l4.98,4.16c-0.4,5.87-0.72,19.39-0.72,19.39l-1.77,9.45l15.63,0.13c0,0-0.71-7.98-0.71-8.42
			c0-0.43-3.02-15.73-3.02-15.73l-1.07-8.57l8.06-2.21l1.47-3.82l5.92-3.01l2.89-3.99l-1.12-0.24l-3.2,3.69l-3.73,0.73l1.6-3.4
			h-1.78l-4.44,7.87l-5.72,1.05l0.75-11.05c-5.5,1.55-6.04-1.28-6.04-1.28s-1.89,14.88-2.55,16.57l-2.95-1.34l-3.2-4.54h-1.42
			L106.75,295.01z"/>
	</g>
	<path class="st1" d="M263.08,238.39h56.15c7.19,0,8.93-10.07,2.14-12.44c-0.09-0.03-0.17-0.06-0.26-0.09
		c7.52-6.26-8.98-19.46-26.89-1.18c1.4-6.09-14.52-3.89-19.4,4.42C273.09,223.65,257.91,233.13,263.08,238.39z"/>
</g>
<g id="Shadow">
	<ellipse id="_x3C_Path_x3E__359_" class="st2" cx="250" cy="360.78" rx="193.89" ry="11.32"/>
</g>
<g id="Aircraft_2">
	<g>
		<g>
			<path class="st4" d="M290.04,91.35c-1.1-1.03-2.37-1.86-3.74-2.48l-4.28-1.93l-10.58,3.85l25.38,13.15
				c1.2,0.62,2.6,0.71,3.86,0.25l0.97-0.35c0.6-0.22,0.76-0.99,0.29-1.43L290.04,91.35z"/>
			<path class="st5" d="M290.04,91.35c-1.1-1.03-2.37-1.86-3.74-2.48l-4.28-1.93l-10.58,3.85l25.38,13.15
				c1.2,0.62,2.6,0.71,3.86,0.25l0.97-0.35c0.6-0.22,0.76-0.99,0.29-1.43L290.04,91.35z"/>
		</g>
		<g>
			<polygon class="st4" points="290.41,68.88 280.61,26.99 270.48,30.68 268.28,78.55 291.23,71.11 			"/>
			<polygon class="st6" points="290.41,68.88 280.61,26.99 270.48,30.68 268.28,78.55 291.23,71.11 			"/>
		</g>
		<g>
			<path class="st4" d="M351.46,85.71l82.27,37.94c1.21,0.56,2.56,0.74,3.88,0.53l2.54-0.41c1.51-0.24,2.12-2.06,1.08-3.18
				c-0.6-0.65-1.41-1.43-2.49-2.37c-4.41-3.83-52.88-45.04-52.88-45.04L351.46,85.71z"/>
			<path class="st5" d="M351.46,85.71l82.27,37.94c1.21,0.56,2.56,0.74,3.88,0.53l2.54-0.41c1.51-0.24,2.12-2.06,1.08-3.18
				c-0.6-0.65-1.41-1.43-2.49-2.37c-4.41-3.83-52.88-45.04-52.88-45.04L351.46,85.71z"/>
		</g>
		<g>
			<path class="st4" d="M253.52,85.47c-1.44,2.4-0.22,5.52,2.45,6.35c11.14,3.42,51.45,12.77,109.51-8.36
				c65.89-23.98,81.4-35.61,79.66-44.55c-0.14-0.74-0.44-1.44-0.82-2.1c-2.37-4.16-13.68-20.22-42.61-9.69L269,75.41
				C269,75.41,257.11,79.5,253.52,85.47z"/>
			<g>
				<g>
					<path class="st4" d="M294.29,66.2l107.43-39.09c28.93-10.53,40.24,5.53,42.61,9.69c0.37,0.65,0.67,1.36,0.82,2.1
						c1.74,8.95-13.77,20.58-79.66,44.55c-58.06,21.13-98.37,11.78-109.51,8.36c-2.67-0.82-3.89-3.95-2.45-6.35
						C257.11,79.5,269,75.41,269,75.41L294.29,66.2z"/>
				</g>
				<path class="st7" d="M395.13,51.44c-47.9,18.3-110.52,37.8-135.3,41.45c14.94,3.82,53,9.72,105.65-9.44
					c65.63-23.88,81.27-35.51,79.68-44.45C438.91,38.26,425.2,39.95,395.13,51.44z"/>
			</g>
		</g>
		<g class="st8">
			<rect x="271.55" y="57.89" transform="matrix(0.9426 -0.3341 0.3341 0.9426 0.3488 118.8056)" width="148.12" height="1"/>
		</g>
		<g>
			<path class="st4" d="M320.98,69.94l23.56-8.57c2.44-0.89,3.92-3.42,3.37-5.96c-0.54-2.49-2.39-5.5-7.5-7.94L221.59,0.6
				c-0.76-0.3-1.58-0.46-2.4-0.47L209.82,0c-0.72-0.01-1,0.94-0.38,1.32L320.98,69.94z"/>
			<path class="st5" d="M320.98,69.94l23.56-8.57c2.44-0.89,3.92-3.42,3.37-5.96c-0.54-2.49-2.39-5.5-7.5-7.94L221.59,0.6
				c-0.76-0.3-1.58-0.46-2.4-0.47L209.82,0c-0.72-0.01-1,0.94-0.38,1.32L320.98,69.94z"/>
		</g>
		<g>
			<g>
				<path class="st4" d="M267.35,130.15c-1.15-0.01-2.3-0.02-3.46-0.03l0-0.5c1.15,0.01,2.3,0.02,3.45,0.03L267.35,130.15z"/>
			</g>
			<g>
				<path class="st4" d="M276.33,130.16l0-0.5c2.99-0.01,5.99-0.03,8.98-0.06l0.01,0.5C282.32,130.13,279.32,130.15,276.33,130.16z"
					/>
			</g>
			<g>
				<path class="st4" d="M294.29,129.96l-0.01-0.5c16.76-0.3,33.14-0.91,46.94-1.46l0.02,0.5
					C327.43,129.06,311.06,129.66,294.29,129.96z"/>
			</g>
			<g>
				
					<rect x="350.25" y="127.36" transform="matrix(0.9992 -0.041 0.041 0.9992 -4.9282 14.7262)" class="st4" width="13.22" height="0.5"/>
			</g>
			<g>
				<path class="st4" d="M372.5,127.18l-0.02-0.5c6.41-0.3,12.98-0.62,19.52-0.96c14.19-0.74,25.08-1.35,35.31-2l0.03,0.5
					c-10.23,0.65-21.12,1.26-35.31,2C385.48,126.55,378.91,126.88,372.5,127.18z"/>
			</g>
			<g>
				
					<rect x="185.87" y="73.26" transform="matrix(0.248 -0.9688 0.9688 0.248 71.3608 238.9498)" class="st4" width="7.46" height="0.5"/>
			</g>
			<g>
				
					<rect x="186.15" y="50.94" transform="matrix(0.2558 -0.9667 0.9667 0.2558 95.9378 227.0049)" class="st4" width="18.51" height="0.5"/>
			</g>
			<g>
				<path class="st4" d="M200.47,33.16l-0.48-0.13c0.05-0.19,5.2-19.29,7.69-28.79l0.48,0.13
					C205.67,13.87,200.52,32.97,200.47,33.16z"/>
			</g>
		</g>
		<g class="st8">
			<path d="M286.66,76.32L286.66,76.32c-0.77,0.28-1.33-0.22-1.26-1.13l0.14-1.64c0.08-0.9,0.77-1.86,1.54-2.15l0,0
				c0.77-0.28,1.33,0.22,1.26,1.13l-0.14,1.64C288.12,75.08,287.43,76.04,286.66,76.32z"/>
			<path d="M292.13,74.33L292.13,74.33c-0.77,0.28-1.33-0.22-1.26-1.13l0.14-1.64c0.08-0.9,0.77-1.86,1.54-2.15l0,0
				c0.77-0.28,1.34,0.22,1.26,1.13l-0.14,1.64C293.6,73.09,292.91,74.05,292.13,74.33z"/>
			<path d="M297.61,72.33L297.61,72.33c-0.77,0.28-1.33-0.22-1.26-1.13l0.14-1.64c0.08-0.9,0.77-1.86,1.54-2.15l0,0
				c0.77-0.28,1.34,0.22,1.26,1.13l-0.14,1.64C299.07,71.09,298.38,72.05,297.61,72.33z"/>
			<path d="M303.09,70.34L303.09,70.34c-0.77,0.28-1.33-0.22-1.26-1.13l0.14-1.64c0.08-0.9,0.77-1.86,1.54-2.15l0,0
				c0.77-0.28,1.33,0.22,1.26,1.13l-0.14,1.64C304.55,69.1,303.86,70.06,303.09,70.34z"/>
			<path d="M308.57,68.35L308.57,68.35c-0.77,0.28-1.33-0.22-1.26-1.13l0.14-1.64c0.08-0.9,0.77-1.86,1.54-2.15l0,0
				c0.77-0.28,1.33,0.22,1.26,1.13l-0.14,1.64C310.03,67.11,309.34,68.07,308.57,68.35z"/>
			<path d="M350.35,53.14L350.35,53.14c-0.77,0.28-1.33-0.22-1.26-1.13l0.14-1.64c0.08-0.9,0.77-1.86,1.54-2.15l0,0
				c0.77-0.28,1.33,0.22,1.26,1.13L351.9,51C351.82,51.9,351.13,52.86,350.35,53.14z"/>
			<path d="M355.83,51.15L355.83,51.15c-0.77,0.28-1.33-0.22-1.26-1.13l0.14-1.64c0.08-0.9,0.77-1.86,1.54-2.15l0,0
				c0.77-0.28,1.34,0.22,1.26,1.13l-0.14,1.64C357.3,49.91,356.6,50.87,355.83,51.15z"/>
			<path d="M361.31,49.16L361.31,49.16c-0.77,0.28-1.33-0.22-1.26-1.13l0.14-1.64c0.08-0.9,0.77-1.86,1.54-2.15l0,0
				c0.77-0.28,1.33,0.22,1.26,1.13l-0.14,1.64C362.77,47.92,362.08,48.88,361.31,49.16z"/>
			<path d="M366.79,47.17L366.79,47.17c-0.77,0.28-1.33-0.22-1.26-1.13l0.14-1.64c0.08-0.9,0.77-1.86,1.54-2.15l0,0
				c0.77-0.28,1.33,0.22,1.26,1.13l-0.14,1.64C368.25,45.92,367.56,46.88,366.79,47.17z"/>
			<path d="M372.26,45.17L372.26,45.17c-0.77,0.28-1.33-0.22-1.26-1.13l0.14-1.64c0.08-0.9,0.77-1.86,1.54-2.15l0,0
				c0.77-0.28,1.33,0.22,1.26,1.13l-0.14,1.64C373.73,43.93,373.04,44.89,372.26,45.17z"/>
			<path d="M378.13,43.04L378.13,43.04c-0.77,0.28-1.33-0.22-1.26-1.13l0.14-1.64c0.08-0.9,0.77-1.86,1.54-2.15l0,0
				c0.77-0.28,1.33,0.22,1.26,1.13l-0.14,1.64C379.59,41.8,378.9,42.76,378.13,43.04z"/>
			<path d="M383.61,41.05L383.61,41.05c-0.77,0.28-1.34-0.22-1.26-1.13l0.14-1.64c0.08-0.9,0.77-1.86,1.54-2.15l0,0
				c0.77-0.28,1.33,0.22,1.26,1.13l-0.14,1.64C385.07,39.8,384.38,40.77,383.61,41.05z"/>
			<path d="M389.08,39.05L389.08,39.05c-0.77,0.28-1.33-0.22-1.26-1.13l0.14-1.64c0.08-0.9,0.77-1.86,1.54-2.15l0,0
				c0.77-0.28,1.33,0.22,1.26,1.13l-0.14,1.64C390.55,37.81,389.86,38.77,389.08,39.05z"/>
			<path d="M394.56,37.06L394.56,37.06c-0.77,0.28-1.33-0.22-1.26-1.13l0.14-1.64c0.08-0.9,0.77-1.86,1.54-2.15l0,0
				c0.77-0.28,1.33,0.22,1.26,1.13l-0.14,1.64C396.02,35.82,395.33,36.78,394.56,37.06z"/>
			<path d="M400.04,35.07L400.04,35.07c-0.77,0.28-1.33-0.22-1.26-1.13l0.14-1.64c0.08-0.9,0.77-1.86,1.54-2.15l0,0
				c0.77-0.28,1.33,0.22,1.26,1.13l-0.14,1.64C401.5,33.83,400.81,34.79,400.04,35.07z"/>
		</g>
		<path class="st8" d="M422.23,26.13c-1.67,0.49-3.38,1.34-5.07,2.71c0,0,2.2-0.05,5.34,0.07L422.23,26.13z"/>
		<g class="st8">
			<path d="M429.64,29.43c3.13,0.36,6.32,0.92,8.88,1.82c0,0-3.72-3.72-8.91-5.11L429.64,29.43z"/>
			<path d="M427.8,25.77c-1.26-0.18-2.58-0.21-3.95,0l0.31,3.21c1.16,0.06,2.4,0.15,3.67,0.26L427.8,25.77z"/>
		</g>
		<g>
			<path class="st4" d="M320,34.5c-2.03,0.74-11.84,5.52-21.12,10.87c-0.99,2.27-1.07,5.24-0.01,8.17c1.07,2.93,3.04,5.16,5.26,6.26
				c10.55-1.87,21.14-4.51,23.17-5.25c4.15-1.51,5.89-7.22,3.87-12.76C329.16,36.25,324.16,32.99,320,34.5z"/>
			<path class="st7" d="M320,34.5c-2.03,0.74-11.84,5.52-21.12,10.87c-0.99,2.27-1.07,5.24-0.01,8.17c1.07,2.93,3.04,5.16,5.26,6.26
				c10.55-1.87,21.14-4.51,23.17-5.25c4.15-1.51,5.89-7.22,3.87-12.76C329.16,36.25,324.16,32.99,320,34.5z"/>
			<path class="st8" d="M329.65,42.34c1.61,4.42,0.22,8.97-3.09,10.18c-3.31,1.21-7.3-1.4-8.91-5.81
				c-1.61-4.42-0.22-8.97,3.09-10.18C324.05,35.33,328.04,37.93,329.65,42.34z"/>
		</g>
		<g>
			<path class="st4" d="M396.87,79.61c-1.84,0.67-10.73,5-19.13,9.84c-0.89,2.05-0.97,4.75-0.01,7.4c0.96,2.65,2.76,4.67,4.76,5.67
				c9.55-1.69,19.15-4.08,20.98-4.75c3.76-1.37,5.33-6.54,3.51-11.56C405.16,81.2,400.63,78.25,396.87,79.61z"/>
			<path class="st7" d="M396.87,79.61c-1.84,0.67-10.73,5-19.13,9.84c-0.89,2.05-0.97,4.75-0.01,7.4c0.96,2.65,2.76,4.67,4.76,5.67
				c9.55-1.69,19.15-4.08,20.98-4.75c3.76-1.37,5.33-6.54,3.51-11.56C405.16,81.2,400.63,78.25,396.87,79.61z"/>
			<path class="st8" d="M405.61,86.72c1.46,4,0.2,8.13-2.8,9.22c-3,1.09-6.61-1.26-8.07-5.26c-1.46-4-0.2-8.13,2.8-9.22
				C400.54,80.36,404.15,82.72,405.61,86.72z"/>
		</g>
		<g>
			<path class="st4" d="M268.11,80.69l-38.84-17.47c-0.77-0.35-1.6-0.53-2.45-0.54l-5.2-0.07c-1.18-0.02-1.58,1.57-0.53,2.12
				l37.51,19.42L268.11,80.69z"/>
			<path class="st9" d="M268.11,80.69l-38.84-17.47c-0.77-0.35-1.6-0.53-2.45-0.54l-5.2-0.07c-1.18-0.02-1.58,1.57-0.53,2.12
				l37.51,19.42L268.11,80.69z"/>
		</g>
	</g>
</g>
<g id="Character">
	<g>
		<g>
			<g>
				<path class="st10" d="M218.75,162.34c0.3-0.11,0.69,0.16,0.86,0.64c0.18,0.48,0.09,0.93-0.23,1.06
					c-0.33,0.13-0.69-0.17-0.86-0.64C218.37,162.93,218.45,162.45,218.75,162.34z"/>
				<path class="st11" d="M220.67,168.55c0.84-0.09,1.59-0.54,2.07-1.24c-1.37-0.88-2.6-1.94-3.68-3.16L220.67,168.55z"/>
				<path class="st10" d="M215.69,161.4C215.69,161.4,215.69,161.4,215.69,161.4c-0.14-0.09-0.17-0.27-0.08-0.4
					c0.5-0.79,1.36-1.28,2.3-1.32c0.02,0,0.05,0,0.07,0c0.16,0.02,0.27,0.17,0.25,0.33c-0.02,0.16-0.17,0.27-0.33,0.25
					c-0.74,0.05-1.41,0.45-1.81,1.07c-0.04,0.05-0.09,0.08-0.15,0.1C215.86,161.46,215.77,161.45,215.69,161.4z"/>
				<path class="st12" d="M217.12,176.54c0.05,3.6,0.87,7.22,6.02,7.1c0,0,5.79,3.18-3.08,5.52c-8.07,2.13-10.42-1.96-10.42-1.96
					c2.28-3.7-0.86-9.95-2.85-14.07L217.12,176.54z"/>
				<path class="st12" d="M221.54,170.35c0.31,2.58-0.57,5-2.14,6.73c-0.6,0.69-1.33,1.27-2.13,1.71c-0.01,0-0.01,0-0.02,0.01
					c-2.03,1.11-4.53,1.33-7.01,0.15c-3.97-1.86-5.11-5.26-7.55-10.83c-0.54-1.17-0.79-2.46-0.75-3.75
					c0.18-4.58,4.03-8.16,8.62-7.98C216.99,156.59,220.88,164.77,221.54,170.35z"/>
				<path class="st13" d="M219.41,177.08c-0.6,0.69-1.33,1.27-2.13,1.71c-0.17-0.87-0.49-2.99-0.65-3.28
					c0.66,0.55,1.34,1.11,2.15,1.39C218.99,176.96,219.2,177.01,219.41,177.08z"/>
				<path class="st10" d="M199.87,159.87c-1.54,3.22-1.49,7.02-0.48,10.45c0.95,3.21,8.43,14.26,17.08,4.5
					c-1.86-3.09-2.75-6.76-2.51-10.37c3.77,3.29,0.28-3.7,0.37-4.92c0.15-1.93,2.64,4.9,3.04,3.01c1.05-4.97-3.46-8.37-4.97-9.05
					C210.44,152.6,203.56,152.12,199.87,159.87z"/>
				<path class="st12" d="M212.5,163.49c1.83,0,3.43,2.24,3.95,3.78c0.59,1.71-0.26,3.16-2.12,2.43c-1.4-0.57-2.58-1.58-3.35-2.89
					C210.08,165.23,210.67,163.49,212.5,163.49z"/>
				<path class="st10" d="M221.59,170.67c-0.49-0.1-0.93-0.39-1.21-0.81c-0.01-0.02-0.02-0.03-0.03-0.05
					c-0.04-0.09,0.01-0.21,0.11-0.24c0.1-0.04,0.21,0,0.25,0.1c0.2,0.3,0.51,0.52,0.85,0.61L221.59,170.67z"/>
			</g>
			<g>
				<path class="st4" d="M197.15,171.46c0.74,1.41,1.77,2.75,3.21,3.44c1.8,0.87,4,0.59,5.77-0.34c1.77-0.93,3.17-2.43,4.39-4.01
					c1.62-2.11,2.98-4.42,4.05-6.86c0.55-1.27,1.02-2.59,1.06-3.97c0.07-2.67-1.64-5.23-4.01-6.45c-2.37-1.23-5.29-1.19-7.76-0.16
					C196.56,156.12,193.5,164.46,197.15,171.46z"/>
				<g>
					<g>
						<path class="st4" d="M198.77,182c0.19,0.65,0.64,2.48,1.93,2.62c0,0-0.73-4.32,7.52-4.13c2.42-4.57,2.75-7.21,3.93-12.24
							c-2.54-0.87-5.41-0.77-7.88,0.3c-1.84,0.8-3.45,2.12-4.61,3.76c-0.67,0.95-1.07,2.06-1.17,3.22
							C198.35,177.25,198.22,180.13,198.77,182z"/>
					</g>
					<g class="st14">
						<path d="M198.77,182c0.19,0.65,0.64,2.48,1.93,2.62c0,0-0.73-4.32,7.52-4.13c2.42-4.57,2.75-7.21,3.93-12.24
							c-2.54-0.87-5.41-0.77-7.88,0.3c-1.84,0.8-3.45,2.12-4.61,3.76c-0.67,0.95-1.07,2.06-1.17,3.22
							C198.35,177.25,198.22,180.13,198.77,182z"/>
					</g>
				</g>
			</g>
		</g>
		<g>
			<g>
				<g id="character-2--inject-170">
					<g>
						<path class="st12" d="M240.22,199.28l0.4,1.14c3.36,0.65,6.05-2.13,6.05-2.13l-3.81-4.61l-1.94,2.14
							C240.06,196.76,239.8,198.09,240.22,199.28z"/>
						<polygon class="st12" points="242.86,193.69 246.67,198.29 249.24,196.49 247.51,191.58 						"/>
						<path class="st4" d="M241.95,199.2c-0.36-0.74-0.99-1.35-1.81-1.67c-1.51,2.76-13.42,13.4-14.24,14.67c-0.14,0.22,0,0,0,0
							s-11.81-27.08-20.1-26.81c-13.08,1.72,13.26,30.64,14.33,31.81c0.01,0.02,0.03,0.03,0.04,0.03
							c8.51,10.99,13.57-1.34,13.95-1.68c0.46-0.42,5.79-9.08,7.84-13.31C242.45,201.24,242.41,200.12,241.95,199.2z M241.95,199.2
							c-0.36-0.74-0.99-1.35-1.81-1.67c-1.51,2.76-13.42,13.4-14.24,14.67c-0.14,0.22,0,0,0,0s-11.81-27.08-20.1-26.81
							c-13.08,1.72,13.26,30.64,14.33,31.81c0.01,0.02,0.03,0.03,0.04,0.03c8.51,10.99,13.57-1.34,13.95-1.68
							c0.46-0.42,5.79-9.08,7.84-13.31C242.45,201.24,242.41,200.12,241.95,199.2z M241.95,199.2c-0.36-0.74-0.99-1.35-1.81-1.67
							c-1.51,2.76-13.42,13.4-14.24,14.67c-0.14,0.22,0,0,0,0s-11.81-27.08-20.1-26.81c-13.08,1.72,13.26,30.64,14.33,31.81
							c0.01,0.02,0.03,0.03,0.04,0.03c8.51,10.99,13.57-1.34,13.95-1.68c0.46-0.42,5.79-9.08,7.84-13.31
							C242.45,201.24,242.41,200.12,241.95,199.2z"/>
						<path class="st15" d="M241.95,199.2c-0.36-0.74-0.99-1.35-1.81-1.67c-1.51,2.76-13.42,13.4-14.24,14.67c-0.14,0.22,0,0,0,0
							s-11.81-27.08-20.1-26.81c-13.08,1.72,13.26,30.64,14.33,31.81c0.01,0.02,0.03,0.03,0.04,0.03
							c8.51,10.99,13.57-1.34,13.95-1.68c0.46-0.42,5.79-9.08,7.84-13.31C242.45,201.24,242.41,200.12,241.95,199.2z M241.95,199.2
							c-0.36-0.74-0.99-1.35-1.81-1.67c-1.51,2.76-13.42,13.4-14.24,14.67c-0.14,0.22,0,0,0,0s-11.81-27.08-20.1-26.81
							c-13.08,1.72,13.26,30.64,14.33,31.81c0.01,0.02,0.03,0.03,0.04,0.03c8.51,10.99,13.57-1.34,13.95-1.68
							c0.46-0.42,5.79-9.08,7.84-13.31C242.45,201.24,242.41,200.12,241.95,199.2z M241.95,199.2c-0.36-0.74-0.99-1.35-1.81-1.67
							c-1.51,2.76-13.42,13.4-14.24,14.67c-0.14,0.22,0,0,0,0s-11.81-27.08-20.1-26.81c-13.08,1.72,13.26,30.64,14.33,31.81
							c0.01,0.02,0.03,0.03,0.04,0.03c8.51,10.99,13.57-1.34,13.95-1.68c0.46-0.42,5.79-9.08,7.84-13.31
							C242.45,201.24,242.41,200.12,241.95,199.2z"/>
					</g>
					<g>
						<path class="st4" d="M222.98,186.41c0,0,0.16-3.97-2.57-5.05c-2.73-1.08-9.96,0.4-11.44,0.85c-1.35,0.41-0.79,1.87-0.27,3.18
							L222.98,186.41z"/>
						<path class="st16" d="M222.98,186.41c0,0,0.16-3.97-2.57-5.05c-2.73-1.08-9.96,0.4-11.44,0.85c-1.35,0.41-0.79,1.87-0.27,3.18
							L222.98,186.41z"/>
					</g>
					<path class="st13" d="M210.67,199.61c-2.2,4.03-4.27,6.98-4.27,6.98l-0.49-0.33l4.66-12.98L210.67,199.61z"/>
					<g>
						<path class="st4" d="M213.11,360.02c-0.04-0.03-0.06-0.08-0.05-0.13c0.02-0.05,0.06-0.09,0.11-0.09
							c0.06-0.01,1.88-0.24,2.51,0.29c0.14,0.11,0.22,0.28,0.22,0.45c0.01,0.34-0.14,0.5-0.27,0.55c-0.31,0.16-0.84-0.02-1.33-0.28
							C213.88,360.59,213.48,360.33,213.11,360.02z M213.52,360.02c0.66,0.5,1.65,1,2.01,0.83c0.03-0.02,0.13-0.07,0.12-0.31
							c0-0.1-0.05-0.2-0.13-0.26c-0.04-0.04-0.09-0.06-0.14-0.09C214.78,360,214.15,359.94,213.52,360.02z"/>
						<path class="st4" d="M213.07,359.96c-0.02-0.04-0.02-0.09,0-0.13c0.03-0.06,0.87-1.4,1.67-1.57c0.2-0.05,0.4-0.01,0.57,0.1
							c0.17,0.09,0.26,0.29,0.21,0.48c-0.18,0.59-1.69,1.16-2.33,1.18l-0.05,0.02C213.11,360.02,213.08,359.99,213.07,359.96z
							 M214.8,358.52c-0.56,0.27-1.03,0.7-1.34,1.24c0.69-0.12,1.72-0.61,1.82-0.96c0.01-0.03,0.03-0.11-0.11-0.2l-0.05-0.03
							C215.02,358.52,214.91,358.5,214.8,358.52z"/>
						<polygon class="st12" points="210.02,348.54 215.38,348.83 212.53,361.5 207.17,361.21 						"/>
						<path class="st10" d="M213.75,359.92c0.65,1.64,3.06,4.5,6.38,7.23c0.74,0.61-0.55,2.52-2.59,1.45
							c-2.04-1.07-6.58-3.76-8.05-4.51c-2.4-1.23-3.41-1.61-5.3-2.54c-0.05-0.03-0.11-0.06-0.15-0.1c-0.34-0.28-0.39-0.78-0.12-1.13
							l3.16-3.82c0.15-0.17,0.39-0.22,0.59-0.11l5.45,2.79C213.42,359.34,213.64,359.6,213.75,359.92z"/>
						<polygon class="st17" points="208.55,355.08 213.8,355.85 215.38,348.83 210.02,348.54 						"/>
						<g>
							<path class="st4" d="M225.98,230.59c0,0,1.14,40.66,0.85,56.62c-0.33,17.47-9.42,63.33-9.42,63.33l-9.9-1.16
								c0,0,4.8-40.48,3.58-57.49c-1.34-18.42-10.72-49.18-4.43-58.98c0.01-0.01,0.02-0.02,0.03-0.03l0.01,0.02l7.66-0.91
								L225.98,230.59z"/>
							<path class="st14" d="M225.98,230.59c0,0,0.55,19.57,0.78,36.89c0.11,7.64,0.15,14.85,0.06,19.73
								c-0.33,17.47-9.63,63.58-9.63,63.58l-9.9-1.16c0,0,5.01-40.72,3.8-57.74c-1.34-18.42-10.45-47.81-4.43-58.98
								c0.01-0.01,0.02-0.02,0.03-0.03l0.01,0.02l7.66-0.91L225.98,230.59z"/>
						</g>
						<path class="st10" d="M207.36,347.17l-0.62,3.37l11.14,1.37l1.49-3.67L207.36,347.17z"/>
						<path class="st13" d="M225.75,244.41c0.56,13.38,1.24,32.25,1.09,42.17c-3.51-13.28-9.43-39.28-2.69-42.04
							C224.65,244.32,225.21,244.27,225.75,244.41z"/>
						<path class="st4" d="M267.2,361.89c-0.05-0.01-0.09-0.06-0.11-0.11c-0.01-0.06,0.01-0.12,0.06-0.15
							c0.08-0.06,1.97-1.25,2.88-0.98c0.17,0.05,0.32,0.17,0.42,0.33c0.12,0.18,0.12,0.43,0.01,0.62c-0.23,0.34-0.9,0.45-1.6,0.45
							C268.3,362.05,267.75,361.99,267.2,361.89z M269.72,360.89c-0.75,0.1-1.48,0.35-2.14,0.75c1.02,0.15,2.4,0.14,2.64-0.24
							c0.06-0.05,0.09-0.14,0-0.32c-0.06-0.1-0.15-0.17-0.25-0.19C269.88,360.88,269.8,360.88,269.72,360.89L269.72,360.89z"/>
						<path class="st4" d="M267.11,361.87c-0.04-0.03-0.06-0.08-0.05-0.13c0.01-0.07,0.13-1.67,0.82-2.3
							c0.2-0.19,0.47-0.28,0.74-0.25c0.36,0.04,0.48,0.23,0.49,0.4c0.11,0.67-1.18,1.97-1.84,2.3l-0.05,0
							C267.18,361.9,267.14,361.89,267.11,361.87z M268.51,359.46c-0.15,0-0.29,0.06-0.41,0.16c-0.41,0.51-0.66,1.16-0.72,1.84
							c0.65-0.44,1.53-1.46,1.46-1.86c-0.01-0.03-0.02-0.15-0.25-0.15l-0.08,0L268.51,359.46z"/>
						<polygon class="st12" points="257.21,349.98 262.31,348.08 266.81,361.99 261.09,361.99 						"/>
						<path class="st10" d="M267.96,361.52c3.71,2.48,5.84,2.59,10.12,3.59c0.94,0.23,0.33,2.71-1.89,2.71
							c-3.7,0.01-5.07-0.18-8.23-0.17c-2.7,0.01-5.8,0.18-7.94,0.19c-0.06,0-0.12-0.01-0.18-0.02c-0.43-0.1-0.7-0.57-0.62-1.03
							l1.02-5.31c0.05-0.24,0.24-0.41,0.46-0.41l5.93-0.01C267.1,361.07,267.56,361.23,267.96,361.52z"/>
						<polygon class="st17" points="257.2,349.98 259.39,356.73 264.49,354.83 262.31,348.08 						"/>
						<g>
							<path class="st4" d="M235.26,229.49c0,0,12.76,37.53,16.43,53.75c3.81,16.86,14.05,67.98,14.05,67.98l-8.65,3.21
								c0,0-16.43-49.4-21.16-65.7c-1.6-5.55-4.35-13.02-7.35-20.68c-6.64-16.88-14.59-34.66-14.59-34.66l11.99-2.8L235.26,229.49z"
								/>
							<path class="st14" d="M235.26,229.49c0,0,12.76,37.53,16.43,53.75c3.81,16.86,14.05,67.98,14.05,67.98l-8.65,3.21
								c0,0-16.43-49.4-21.16-65.7c-1.6-5.55-4.35-13.02-7.35-20.68c-6.64-16.88-14.59-34.66-14.59-34.66l11.99-2.8L235.26,229.49z"
								/>
						</g>
						<path class="st10" d="M255.01,352.91l1.48,3.1L267,352.1c0,0-0.81-3.79-0.84-3.78L255.01,352.91z"/>
					</g>
					<path class="st4" d="M235.26,229.49l-7.32,3.32c-2.26,1.02-4.66,1.7-7.12,1.99l-1.13,0.14c-4.44,0.53-8.94-0.17-13-2.04l0,0
						l-0.01-0.02c-0.92-3.77-2.01-16.17-6.66-34.2c-2.68-10.39,3.65-14.16,8.77-14.68l0.13-0.04c4.09-0.41,8.2-0.58,12.31-0.52
						c2.37,0.13,4.72,0.42,7.05,0.87c1,0.15,1.86,0.81,2.26,1.74C232.07,189.59,230.86,209.86,235.26,229.49z"/>
					<g>
						<path class="st13" d="M226.12,193.22c0.3,5.23,2.64,12.38,6.15,15.27c-0.22-2.39-0.71-14.3-0.83-16.39L226.12,193.22z"/>
					</g>
					<g>
						<polygon class="st4" points="258.62,194.93 257.91,189.1 245.59,191.7 246.29,197.53 						"/>
						<g>
							<path class="st4" d="M245.74,198.67l13.79-2.91c0.33-0.07,0.56-0.39,0.52-0.73l-0.04-0.34c0.04,0.34-0.19,0.65-0.52,0.73
								l-13.79,2.91c-0.38,0.08-0.75-0.18-0.8-0.57l0.04,0.34C244.99,198.48,245.36,198.75,245.74,198.67z"/>
							<path class="st18" d="M245.74,198.67l13.79-2.91c0.33-0.07,0.56-0.39,0.52-0.73l-0.04-0.34c0.04,0.34-0.19,0.65-0.52,0.73
								l-13.79,2.91c-0.38,0.08-0.75-0.18-0.8-0.57l0.04,0.34C244.99,198.48,245.36,198.75,245.74,198.67z"/>
						</g>
						<g>
							<path class="st4" d="M245.7,198.32l13.79-2.91c0.33-0.07,0.56-0.39,0.52-0.73l-0.7-5.81c-0.05-0.39-0.41-0.65-0.8-0.57
								l-13.79,2.91c-0.33,0.07-0.56,0.39-0.52,0.73l0.7,5.81C244.95,198.14,245.32,198.4,245.7,198.32z M246.29,197.53l-0.71-5.82
								l12.33-2.6l0.71,5.82L246.29,197.53z"/>
							<polygon class="st4" points="246.29,197.53 258.62,194.93 257.91,189.1 245.59,191.7 							"/>
							<polygon class="st19" points="246.29,197.53 258.62,194.93 257.91,189.1 245.59,191.7 							"/>
						</g>
					</g>
					<g>
						<path class="st12" d="M254.17,197.16l0.4,1.14c3.36,0.65,6.05-2.13,6.05-2.13l-3.81-4.61l-1.94,2.14
							C254.01,194.64,253.75,195.97,254.17,197.16z"/>
						<polygon class="st12" points="256.81,191.57 260.62,196.17 261.4,194.02 259.5,189.84 						"/>
						<path class="st4" d="M255.72,196.62c-0.36-0.74-0.99-1.35-1.81-1.67c-1.51,2.76-6.67,14.59-7.35,13.23
							c-0.91-1.82-11.95-27.14-18.44-23.35c-13.08,1.72,17.34,35.14,17.53,35.24c0.96,0.5,2.12,0.5,3.1,0.09
							c0.47-0.19,0.91-0.47,1.29-0.81c0.46-0.42,0.87-0.88,1.23-1.39c0.31-0.41,0.56-0.81,0.79-1.2c0.34-0.59,0.95-0.87,3.67-17.09
							C255.92,198.55,256.18,197.54,255.72,196.62z"/>
					</g>
				</g>
			</g>
		</g>
	</g>
</g>
</svg>
