<?xml version="1.0" encoding="utf-8"?>
<!-- Generator: Adobe Illustrator 23.0.6, SVG Export Plug-In . SVG Version: 6.00 Build 0)  -->
<svg version="1.1" id="OBJECTS" xmlns="http://www.w3.org/2000/svg" xmlns:xlink="http://www.w3.org/1999/xlink" x="0px" y="0px"
	 viewBox="0 0 559 470" style="enable-background:new 0 0 559 470;" xml:space="preserve">
<style type="text/css">
	.st0{fill:#DFEEF4;}
	.st1{fill-rule:evenodd;clip-rule:evenodd;fill:#554A39;}
	.st2{fill-rule:evenodd;clip-rule:evenodd;fill:#2E3D46;}
	.st3{fill-rule:evenodd;clip-rule:evenodd;fill:#2A3944;}
	.st4{fill-rule:evenodd;clip-rule:evenodd;fill:#273742;}
	.st5{fill-rule:evenodd;clip-rule:evenodd;fill:#25363E;}
	.st6{fill-rule:evenodd;clip-rule:evenodd;fill:#F4C8C2;}
	.st7{fill-rule:evenodd;clip-rule:evenodd;fill:#EFC8C2;}
	.st8{fill-rule:evenodd;clip-rule:evenodd;fill:#0C1B1C;}
	.st9{fill-rule:evenodd;clip-rule:evenodd;fill:#E8F2F8;}
	.st10{fill-rule:evenodd;clip-rule:evenodd;fill:#F8DFDF;}
	.st11{fill-rule:evenodd;clip-rule:evenodd;fill:#F4CBC3;}
	.st12{fill-rule:evenodd;clip-rule:evenodd;fill:#423330;}
	.st13{fill-rule:evenodd;clip-rule:evenodd;fill:#D8B9B5;}
	.st14{fill-rule:evenodd;clip-rule:evenodd;fill:#D7E4EF;}
	.st15{fill-rule:evenodd;clip-rule:evenodd;fill:#FFFFFF;}
	.st16{fill-rule:evenodd;clip-rule:evenodd;fill:#D3546E;}
	.st17{fill-rule:evenodd;clip-rule:evenodd;fill:#C95069;}
	.st18{fill-rule:evenodd;clip-rule:evenodd;fill:#E0BDC6;}
	.st19{fill-rule:evenodd;clip-rule:evenodd;fill:#0F2B39;}
	.st20{fill-rule:evenodd;clip-rule:evenodd;fill:#031216;}
	.st21{fill-rule:evenodd;clip-rule:evenodd;fill:url(#SVGID_1_);}
	.st22{fill-rule:evenodd;clip-rule:evenodd;fill:#DFEDF6;}
	.st23{fill-rule:evenodd;clip-rule:evenodd;fill:#AECEE1;}
	.st24{fill-rule:evenodd;clip-rule:evenodd;fill:#2B69AE;}
	.st25{fill-rule:evenodd;clip-rule:evenodd;fill:#1D3E4B;}
	.st26{fill-rule:evenodd;clip-rule:evenodd;fill:#312624;}
	.st27{fill-rule:evenodd;clip-rule:evenodd;fill:#2F7A91;}
	.st28{fill-rule:evenodd;clip-rule:evenodd;fill:#DCBDBA;}
</style>
<g>
	<g>
		<path class="st0" d="M181.64,36.85c-1,0-1.94,0.24-2.77,0.66c-0.33-2.54-2.49-4.5-5.12-4.5c-1.77,0-3.34,0.89-4.27,2.26
			c-0.21-2.21-2.07-3.93-4.33-3.93c-0.92,0-1.77,0.29-2.47,0.77c-1.63-2.38-4.32-3.21-7.24-2.8c-0.42-3.97-3.65-7.1-7.66-7.38
			c0.03-0.26,0.04-0.52,0.04-0.78c0-4.12-3.34-7.46-7.46-7.46c-0.05,0-0.1,0.01-0.16,0.01c-1.92-2.6-5.2-4.32-8.92-4.32
			c-1.23,0-2.41,0.19-3.52,0.54C127.67,4.43,122.71,0,116.61,0c-4.12,0-7.71,2.02-9.65,5.01c-2.18-2.12-5.28-3.44-8.74-3.44
			c-6.58,0-11.92,4.82-11.92,10.77c0,0.38,0.02,0.75,0.06,1.12c-6.42,0.4-11.58,4.92-12.25,10.66c-4.67-0.6-8.97,0.6-11.57,4.04
			c-1.12-0.7-2.48-1.11-3.95-1.11c-3.61,0-6.58,2.49-6.92,5.68c-1.49-1.97-3.99-3.26-6.83-3.26c-4.2,0-7.66,2.83-8.19,6.5
			C35.33,35.35,33.83,35,32.24,35c-4.3,0-7.94,2.51-9.24,6h85.75h40h38.66C186.6,38.59,184.32,36.85,181.64,36.85z"/>
		<path class="st0" d="M133.66,215c-0.56-1.66-2.01-2.85-3.71-2.85c-0.52,0-1.01,0.11-1.47,0.31c-0.63-1.49-2-2.53-3.59-2.53
			c-0.37,0-0.73,0.06-1.08,0.17c-0.07-0.03-0.15-0.07-0.22-0.1c0.04-0.27,0.06-0.54,0.06-0.82c0-2.82-2.08-5.1-4.64-5.1
			c-0.43,0-0.85,0.07-1.25,0.19c-1.17-3.08-3.92-5.24-7.14-5.24c-1.38,0-2.67,0.4-3.79,1.1c-2.72-2.34-5.77-3.31-8.92-3.17
			c0.33-0.95,0.53-1.98,0.53-3.06c0-4.68-3.45-8.48-7.71-8.48c-1.23,0-2.39,0.33-3.42,0.89C85.61,179.79,80.14,175,73.64,175
			c-6.21,0-11.49,4.38-13.43,10.48c-0.26-0.03-0.53-0.05-0.8-0.05c-2.76,0-5.18,1.61-6.54,4.01c-1.29-1.02-2.86-1.62-4.57-1.62
			c-3.62,0-6.66,2.7-7.58,6.36c-2.89,0.84-5.43,2.56-7.57,4.81c-1.33-1.14-3-1.83-4.82-1.83c-3.94,0-7.2,3.2-7.76,7.37
			c-0.58-0.29-1.22-0.45-1.9-0.45c-2.07,0-3.83,1.5-4.42,3.56c-0.48-0.23-1.01-0.36-1.57-0.36c-2.13,0-3.87,1.86-3.95,4.18
			c-0.07,0.02-0.15,0.04-0.22,0.06c-0.55-0.12-1.12-0.19-1.7-0.19c-2.76,0-5.22,1.43-6.8,3.65H133.66z"/>
		<path class="st0" d="M440.05,161c0-4.05-10.71-12.2-20.95-7.93c-2.71-3.18-7.46-5.3-12.87-5.3c-0.31,0-0.61,0.01-0.91,0.02
			c-0.2-0.56-0.42-1.1-0.67-1.63c-2.58-5.39-8.07-9.11-14.44-9.11c-3.09,0-5.97,0.89-8.41,2.4c-2.24-2.77-5.66-4.54-9.5-4.54
			c-0.53,0-1.05,0.05-1.56,0.11c-0.3,0.04-0.6,0.08-0.89,0.14c-0.15-1.25-0.49-2.44-0.98-3.54c-1.95-4.38-6.34-7.44-11.44-7.44
			c-0.75,0-1.49,0.08-2.21,0.21c-0.24,0.04-0.49,0.09-0.72,0.15c-0.29-1.38-0.74-2.69-1.34-3.93c-2.76-5.7-8.59-9.62-15.35-9.62
			c-5.91,0-11.12,3.01-14.18,7.59c-1.77-0.67-3.69-1.06-5.7-1.06c-8.34,0-15.18,6.37-15.95,14.51c-0.38-0.02-0.75-0.04-1.13-0.04
			c-9.07,0-16.62,6.48-18.3,15.06c-1.5,0.48-2.87,1.14-4.08,1.94c-2.06-0.78-4.38-1.22-6.85-1.22c-7.12,0-13.11,3.66-14.8,8.61
			c-7.6,0.58-13.73,2.34-16.33,4.62H440.05z"/>
		<path class="st0" d="M478.79,62.77c-0.59,0-1.15,0.13-1.66,0.35c-0.71-1.69-2.27-2.87-4.07-2.87c-0.42,0-0.83,0.07-1.22,0.19
			c-0.08-0.04-0.17-0.07-0.25-0.11c0.04-0.3,0.07-0.61,0.07-0.93c0-3.2-2.35-5.79-5.26-5.79c-0.49,0-0.97,0.08-1.42,0.22
			c-1.32-3.49-4.45-5.94-8.1-5.94c-1.56,0-3.03,0.46-4.3,1.24c-3.08-2.65-6.54-3.76-10.11-3.59c0.38-1.08,0.6-2.24,0.6-3.47
			c0-5.31-3.91-9.61-8.74-9.61c-1.4,0-2.71,0.37-3.88,1.01c-1.94-7.41-8.14-12.84-15.51-12.84c-7.04,0-13.03,4.96-15.23,11.88
			c-0.3-0.03-0.6-0.05-0.91-0.05c-2.85,0-5.36,1.51-6.95,3.83c-1.6-2.32-4.12-3.83-6.97-3.83c-1.4,0-2.71,0.37-3.88,1.01
			c-1.94-7.41-8.14-12.84-15.51-12.84c-7.04,0-13.03,4.96-15.23,11.88c-0.3-0.03-0.6-0.05-0.91-0.05c-3.13,0-5.88,1.82-7.42,4.55
			c-1.46-1.15-3.25-1.84-5.18-1.84c-4.11,0-7.55,3.06-8.59,7.21c-3.28,0.96-6.16,2.91-8.59,5.46c-1.51-1.29-3.4-2.07-5.46-2.07
			c-4.47,0-8.16,3.63-8.8,8.35c-0.66-0.33-1.39-0.51-2.16-0.51c-2.35,0-4.34,1.7-5.02,4.04c-0.55-0.26-1.15-0.41-1.78-0.41
			c-2.42,0-4.39,2.11-4.48,4.74c-0.08,0.02-0.17,0.04-0.25,0.07c-0.62-0.14-1.27-0.21-1.93-0.21c-3.13,0-5.92,1.62-7.71,4.14h49.44
			h102.13H483C482.37,64.12,480.72,62.77,478.79,62.77z"/>
		<polygon class="st1" points="55.29,262.9 96.89,275.41 114.43,285.87 124.44,287.77 164.58,295.6 192.66,298.71 207.41,299.18 
			211.7,301.66 243.49,347.05 249.69,350.68 260.2,351.67 346.16,378.37 357.6,389.55 370.91,395.99 429.6,414.38 481.69,418.35 
			558.65,470.15 87.2,470.15 65.84,438.13 		"/>
		<g>
			<polygon class="st2" points="96.89,275.41 33.68,251.5 44.71,289.74 67,294 93.54,317.34 102.15,302.87 181.98,325.99 
				211.65,360.68 244.35,372.23 297,421.01 322.78,406.14 357.71,419.44 474.77,452.23 546.52,470.15 558.65,470.15 481.69,418.35 
				440.22,415.19 429.6,414.38 429.39,414.31 371.96,396.32 370.91,395.99 359.64,390.54 357.6,389.55 346.16,378.37 334.21,374.66 
				321.38,370.67 260.55,351.77 260.2,351.67 259.81,351.63 256.73,351.34 251.85,350.88 249.68,350.68 243.49,347.05 
				211.71,301.66 207.41,299.18 203.93,299.07 192.68,298.71 192.66,298.71 164.58,295.6 124.94,287.87 124.44,287.77 
				115.95,286.16 114.43,285.87 			"/>
			<polygon class="st3" points="44.71,289.74 39.35,334.22 56.77,373.85 88.78,384.6 127.46,340.04 168.96,378.85 187.42,403.67 
				208.22,407.93 269.35,446.55 330.69,430.53 363.46,451.28 383.95,470.15 546.52,470.15 474.77,452.23 357.71,419.44 
				322.78,406.14 297,421.01 244.35,372.23 211.65,360.68 181.98,325.99 102.15,302.87 93.54,317.34 67.05,285.28 			"/>
			<polygon class="st4" points="65.84,438.13 96.29,418.06 120.11,425.04 140.36,396.76 163.58,432.43 192.68,441.29 215.24,429.44 
				243.37,456.83 308.98,462.42 315.66,470.15 383.95,470.15 363.46,451.28 330.69,430.53 269.35,446.55 208.22,407.93 
				189.63,397.03 168.96,378.85 127.46,340.04 88.78,384.6 56.77,373.85 55.29,408.92 			"/>
			<path class="st5" d="M96.29,418.06c0,0-16.56,10.84-30.45,20.07l-3.87,16.87l3.32,13.95l250.38,1.2
				c-3.84-4.36-6.68-7.73-6.68-7.73l-65.61-5.59l-28.14-27.39l-9.62,5.06l-10.83,5.69l-19.5-11.86l-38.34-36.79l-17.47,26.55
				L96.29,418.06z"/>
		</g>
		<g>
			<path class="st6" d="M123.31,187.7c-0.07,0.19-1.01,2.92,0.12,3.31c1.12,0.39,1.78,0.43,2.93,0.38c1.15-0.05,1.54-0.29,1.54-0.29
				l-0.24-2.7l-3.5-1.98L123.31,187.7z"/>
			<path class="st7" d="M233.08,229.79c-0.36-0.1-2.56-0.7-3.23-0.63c-0.68,0.07-4.24,1.02-4.32,0.52c-0.08-0.5,1.85-1.5,1.85-1.5
				s-1.01-0.55-1.94-0.46c-0.94,0.09-3.05,0.42-3.01-0.47c0.06-1.46,1.74-2.77,3.55-2.99c2.43-0.3,5.28,0.85,6.64,1.22
				c0.91,0.24,2,1.21,1.94,1.46C234.49,227.19,233.08,229.79,233.08,229.79z"/>
			<polygon class="st8" points="275.29,258.27 254.26,245.84 231.91,230.37 234.22,226.69 258.51,240.85 279.69,247.33 
				281.15,250.34 			"/>
			<path class="st9" d="M154.88,231.46l17.87,1.72c0.75,0.08,14.96-31.86,20.61-36.3c-4.31-4.39-7.4-8.55-12.04-12.94l-8.59-1.56
				C165.19,189.34,160.19,215.15,154.88,231.46z"/>
			<path class="st10" d="M224.35,225.1c0.74,1.12,4.98,6.66,5.31,5.46c0.33-1.2-0.49-2.51,0.38-2.93c0.87-0.42,4.95-0.27,5.7-0.06
				c0.75,0.21,0.8-1.55-1.11-3.16c-1.91-1.61-7.73-1.93-7.73-1.93L224.35,225.1z"/>
			<polygon class="st8" points="184.83,202.5 202.03,213.89 223.36,226.02 227,222.55 204.84,207.81 189.89,191.88 			"/>
			<path class="st8" d="M155.22,227.41l17.25,5.84l17.98,30.57l7.64,33.57l-4.54-0.16c0,0-11.97-28.48-12.69-29.48
				c-0.73-1-18.07-23.81-18.07-23.81l-19.41,17.78l-18.48,25.21c0,0-3.98-1.03-3.87-2.58l14.3-29.84
				C135.34,254.51,154.3,228.35,155.22,227.41z"/>
			<path class="st11" d="M188,172.54c-0.29,0.62-3.02,6.03-5.04,8.58c-2.02,2.55-3.22,3.27-3.22,3.27s0.66,3.12,2.92,5.88
				c0.58,0.71,0.79,2.97,0.79,2.97c0,0,3.8-1.07,3.8-1.07s0.29-2.98,1.71-6.76c1.42-3.78,3.23-5.35,3.23-5.35L188,172.54z"/>
			<path class="st10" d="M197.92,165.04c5.66,1.77,7.13,7.41,5.12,12.67c-0.59,1.55-2.49,2.62-3.13,3.65
				c-0.32,0.51,0.48,3.36,0.4,3.93c-0.13,0.95-2.34-0.21-2.42-0.14c-1.81,1.73-4.96,3.48-7.51,2.69c-6.59-2.04-4.77-6.24-4.93-9.23
				c-0.1-1.93-1.1-2.99-0.32-5C187.41,167.67,191.88,163.15,197.92,165.04z"/>
			<path class="st12" d="M184.14,179.45c0.19-0.16,1.1-1.47,1.36-2.23c0.11-0.31-0.48-0.98-0.49-1.3c-0.07-2.69,2.79-5.8,4.67-2.39
				c0.78,1.45-0.23,3.59-0.23,3.59c1.62-1.29,3.75-2.41,6.28-6.04c5.66,4.02,12.36,4.66,14.63-0.55c-3.85-0.86-5.53-9.31-18.49-8.88
				C182.93,159.59,180.86,175.52,184.14,179.45z"/>
			<path class="st10" d="M188.97,171.81c1.25,0.47,1.69,2.35,1,4.2c-0.69,1.86-2.27,2.98-3.51,2.52c-1.25-0.47-1.69-2.35-1-4.2
				C186.15,172.47,187.73,171.35,188.97,171.81z"/>
			<path class="st13" d="M187.25,173.36c-1.17,1.5-1.41,3.45-0.49,4c0.91,0.55,1.62-0.54,1.26-1.16c-0.36-0.62-0.47-0.98-0.06-1.3
				c0.41-0.32,0.58,0.35,0.89-0.43C189.43,173.01,188.41,171.86,187.25,173.36z"/>
			<path class="st8" d="M180.1,183.5c-3.65,22.59-9.3,37.35-23.59,52.96l-8.74-7.19c7.81-11.54,13.77-23.57,18.19-36.85l6.79-10.03
				L180.1,183.5z"/>
			<path class="st8" d="M188.1,190.17l-0.55-0.13c0,0-2.61,13.33-4.79,21.86c-2.18,8.53-10.7,22.52-10.7,22.52l3.71,4.44
				c0,0,6.92-12,10.62-22.81c3.7-10.82,5.5-21.02,5.5-21.02L188.1,190.17z"/>
			<path class="st14" d="M181.72,188.92l1.96,0.59c0,0-0.24,3.96-0.23,3.73C183.46,193.01,181.72,188.92,181.72,188.92z"/>
			<polygon class="st14" points="187.39,190.24 183.45,193.24 188.32,192.16 			"/>
			<path class="st15" d="M187.39,190.24c0,0,0.94,4.94,0.91,4.68c-0.01-0.12,0.3-2.9,0.3-2.9c-0.18-0.53-0.58-3.74-0.59-3.71
				L187.39,190.24z"/>
			<path class="st15" d="M183.68,189.51c-0.3,0.09-4.95,0.98-4.95,0.98s-1.35-7.06-0.56-7.28c0.79-0.22,3.19-1.39,3.19-1.39
				L183.68,189.51z"/>
			<polygon class="st8" points="170.55,182.44 148.12,187.44 127.57,187.33 127.22,191.97 148.43,193.81 172.81,192.7 
				174.52,182.65 			"/>
			<path class="st8" d="M323.8,365.02c0.24,0.18,3.23,3.09,3.23,3.09s5.45,4.17,7.67,5c2.22,0.83,1.04,1.63-0.39,1.55
				c-1.42-0.08-3.34-0.31-6.01-0.89c-1.75-0.38-3.12-0.85-3.75-1.07l-0.27-0.56l-0.38,0.38l-2.46-0.57l-0.15-3.56L323.8,365.02z"/>
			<path class="st8" d="M283.97,294.65c-2.74,0.66-25.06,20.12-25.62,21.2c-0.56,1.07-2.27,35.31-2.27,35.31s4.11,1.33,4.05-0.02
				c-0.06-1.35,6.55-30.59,6.55-30.59l24.73-11.82l17.43,27.01l12.98,34.09l4.46-1.4l-8.4-37.11c0,0-15.01-38.68-16.35-38.48
				C300.21,293.03,283.97,294.65,283.97,294.65z"/>
			<path class="st9" d="M298.08,294.29l-19.24,2.74c-0.73-0.15-3.22-31.05-1.84-42.79c5.32-2.8,4.85-2.57,10.48-5.27l9.12,2.38
				C301.55,260.08,302.31,278.61,298.08,294.29z"/>
			<path class="st8" d="M289.63,249.53c2.26,24.05,5.12,36.84,8.04,54.19c4.59,1.22,8.35,0.59,10.29-4.09
				c-5.01-17.11-4.4-33.2-9.56-47.81L289.63,249.53z"/>
			<path class="st8" d="M281.7,247.89c-3.24,12.19-2.26,34.77-1.08,48.88c0.13,1.6-0.47,3.61-0.27,4.97
				c-1.92,0.84-8.8,3.2-8.44,0.65c2.13-15.17,0-46.94,1.68-54.53L281.7,247.89z"/>
			
				<rect x="12.59" y="171.53" transform="matrix(0.0576 -0.9983 0.9983 0.0576 -52.5597 289.252)" class="st8" width="228.66" height="1.88"/>
			<path class="st16" d="M186.46,191.84c-0.49-0.31-3.78-2-4.12-1.44c-0.33,0.56-0.48,2.55,0.43,3.22c0.91,0.67,1.68,1.38,2.65,0.08
				C186.39,192.41,186.46,191.84,186.46,191.84z"/>
			<path class="st16" d="M182.55,192.81c-2.29,5.17-5.08,29.62-1.43,37.53c0,0,4.46,6.67,4.37,6.16c-0.09-0.5,1.43-5.21,1.43-5.21
				c-4.65-8.83-5.25-21.77-2.16-37.37L182.55,192.81z"/>
			<path class="st17" d="M235.98,70.94c-5.28,3.24-51.63,25.63-60.85,25.16c-10.07-0.51-4.29-5.35-15.84-6.87
				c-11.55-1.52-28.26,5.46-28.26,5.46s4.59-5.95,6.72-12.39c5.91-1.86,14.65-3.98,21.54-3.07c11.55,1.52,5.77,6.36,15.84,6.87
				C182.96,86.5,220.94,75.52,235.98,70.94z"/>
			<path class="st16" d="M235.98,70.94c-15.04,4.58-53.02,15.56-60.85,15.16c-10.07-0.51-4.29-5.35-15.84-6.87
				c-6.89-0.91-15.63,1.21-21.54,3.07c1.06-3.18,1.51-6.47,0.53-9.24c-0.14-0.39-0.28-0.77-0.41-1.13C135.09,64.42,133,62,133,62
				s1.71-0.47,4.46-1.15c8.47-2.09,26.82-6.14,35.56-4.41c11.59,2.28,7.6,10.12,17.3,13.1c9.7,2.98,42.68,1.78,46,1.03
				C236.6,70.51,236.47,70.64,235.98,70.94z"/>
			<path class="st7" d="M346.34,284.08c-0.36-0.1-2.56-0.7-3.23-0.63c-0.68,0.07-4.24,1.02-4.32,0.52c-0.08-0.5,1.85-1.5,1.85-1.5
				s-1.01-0.55-1.94-0.46c-0.94,0.09-3.05,0.42-3.01-0.47c0.06-1.46,1.74-2.77,3.55-2.99c2.43-0.3,5.28,0.85,6.64,1.22
				c0.91,0.24,2,1.21,1.94,1.46C347.74,281.48,346.34,284.08,346.34,284.08z"/>
			<path class="st10" d="M337.67,280.82c0.74,1.12,4.91,5.23,5.25,4.03c0.33-1.2-0.49-2.51,0.38-2.93c0.87-0.42,4.99-1.12,5.74-0.9
				c0.75,0.21,0.75-0.71-1.15-2.32c-1.91-1.61-8.28-1.97-8.28-1.97L337.67,280.82z"/>
			<polygon class="st8" points="298.4,251.82 319.77,267.78 339.78,276.74 338.03,280.06 337.35,281.9 315.37,272.66 296.63,261.21 
							"/>
			<polygon class="st8" points="392.83,300.89 368.08,295.72 346.1,284.01 347.87,280.3 370,288.5 397.05,291.98 			"/>
			<path class="st8" d="M398.19,338.53c-2.74,0.66-26.75,18.12-27.31,19.19c-0.56,1.07-2.27,35.31-2.27,35.31s4.11,1.33,4.05-0.02
				c-0.06-1.35,6.55-30.59,6.55-30.59l24.73-11.82l9.57,26.1l21.2,36.26l4.71-0.52l-16.87-40.16c0,0-6.13-33.6-7.47-33.39
				C413.75,339.09,398.19,338.53,398.19,338.53z"/>
			<path class="st9" d="M411.42,339.35l-17.88,1.85c-0.73-0.15-5.4-33.34-4.02-45.08c5.32-2.8,4.85-2.57,10.48-5.27l8.46,1.11
				C413.42,300.69,415.66,323.68,411.42,339.35z"/>
			<path class="st11" d="M398.16,274.59c0.08,0.67,4.93,3,3.91,6.96c-1.02,3.96,0.25,6.55,0.25,6.55s-1.54,2.71-4.47,4.6
				c-0.76,0.49-1.63,2.53-1.63,2.53c0,0-3.22-2.13-3.22-2.13s0.62-2.86,0.42-6.8c-0.2-3.94-1.41-5.95-1.41-5.95L398.16,274.59z"/>
			<path class="st10" d="M400.11,265.27c-5.36-2.21-11.4,0.53-12.93,5.83c-0.52,1.78-0.23,3.58-0.33,5.71
				c-1.47,5.3,0.11,10.35,2.57,11.53c3.47,1.66,10.54-0.2,11.83-5.72c0.43-1.85,2.4-0.76,3.02-2.6
				C406.26,274.13,405.84,267.63,400.11,265.27z"/>
			<path class="st12" d="M401.63,285.03c-0.19-1.91,0.31-3.31,0.44-3.48c1.57-2.11,2.48-6.12-1.07-4.73
				c-1.49,0.6-2.07,2.85-2.07,2.85c-0.41-1.98-1.32-4.16-0.95-8.47c-7.87,3.39-14.38-2.89-13.35-5.95
				c4.88,0.29,17.37-6.89,21.14,1.35C409.24,269.09,406.55,284.12,401.63,285.03z"/>
			<path class="st10" d="M402.61,275.96c-1.23-0.43-2.74,0.71-3.38,2.54c-0.64,1.83-0.16,3.66,1.07,4.09
				c1.23,0.43,2.74-0.71,3.38-2.54C404.31,278.22,403.83,276.39,402.61,275.96z"/>
			<path class="st13" d="M402.94,278.2c-0.06,1.86-1.1,3.47-2.13,3.32c-1.03-0.16-0.88-1.42-0.22-1.66
				c0.65-0.24,0.97-0.44,0.86-0.94c-0.11-0.5-0.65-0.1-0.4-0.88C401.51,276.57,403,276.35,402.94,278.2z"/>
			<path class="st8" d="M402.05,288.53c-3.34,22.13-2.28,36.19,6.37,54.99c4.59,1.22,8.35,0.59,10.29-4.09
				c-3.83-13.08-5.02-25.58-5.17-39.27l-0.53-8.01L402.05,288.53z"/>
			<path class="st8" d="M393.45,290.27l-0.09,0.75c0,0-1.55,13.19-2.06,21.79c-0.51,8.6,2.51,28.21,2.51,28.21l-2.49,1.65
				c0,0-4.42-15.9-4.63-27.08c-0.22-11.18,0.77-25.03,0.77-25.03L393.45,290.27z"/>
			<path class="st14" d="M399.12,291.72l-2-0.04c0,0-0.96,3.76-0.9,3.54C396.28,295.01,399.12,291.72,399.12,291.72z"/>
			<polygon class="st14" points="393.45,291.27 396.22,295.23 392.01,292.77 			"/>
			<path class="st15" d="M393.45,291.27c0,0-2.34,4.32-2.24,4.09c0.05-0.11,0.59-2.79,0.59-2.79c0.32-0.44,1.66-3.31,1.66-3.28
				L393.45,291.27z"/>
			<path class="st15" d="M397.12,291.69c0.26,0.17,4.32,2.39,4.32,2.39s3.36-6.17,2.69-6.61c-0.67-0.44-2.56-2.25-2.56-2.25
				L397.12,291.69z"/>
			<path class="st11" d="M286.64,233.43c-0.13,0.54-3.23,2.42-4.34,5.54c-0.23,0.66,0.68,2.58,0.55,3.21
				c-0.73,3.63-1.8,4.22-1.81,4.22c-0.01,0,0.88,2.87,3.59,5.07c0.7,0.57,1.43,2.91,1.43,2.91c0,0,3.7-2,3.7-2s-0.31-2.91,0.31-6.81
				c0.62-3.9,2.05-5.76,2.05-5.76L286.64,233.43z"/>
			<path class="st10" d="M289.47,224.09c5.76-0.69,10.5,3.13,10.56,8.64c0.02,1.49-1.38,3.88-1.77,5.53
				c-0.21,0.91,1.77,2.64,1.48,3.54c-0.32,1.02-2.17,1.09-2.17,1.09c-1.28,3.81-2.82,4.98-5.01,5.39c-3.58,0.67-9.64-3.04-8.95-7.09
				c-0.1-1.06,0.36-3.48,0.29-4.69C283.56,230.29,283.32,224.82,289.47,224.09z"/>
			<path class="st8" d="M282.82,242.3c0.14-0.28-0.04-1.1-0.06-1.75c-0.05-2.84-0.22-8.58,2.82-6.29c1.28,0.98,1.16,4.01,1.16,4.01
				c0.93-1.8,2.39-3.65,3.19-7.91c8.12,1.61,10.59-1.3,11.03-2.99c0.33-1.27,0.02-0.96-3.28-2.12c-3.39-1.19-7.99-4.34-13.88-1.46
				C275.5,223.82,278.32,240.11,282.82,242.3z"/>
			<path class="st10" d="M284.17,233.01c1.25-0.08,2.36,1.37,2.48,3.23c0.12,1.86-0.8,3.44-2.05,3.52
				c-1.25,0.08-2.36-1.37-2.48-3.23C282,234.67,282.92,233.09,284.17,233.01z"/>
			<path class="st13" d="M283.28,235.01c-0.42,1.75,0.12,3.51,1.12,3.63c1,0.12,1.18-1.09,0.64-1.48c-0.55-0.39-0.78-0.66-0.55-1.1
				c0.23-0.43,0.63,0.07,0.6-0.71C285.03,233.86,283.71,233.27,283.28,235.01z"/>
			<path class="st14" d="M282.97,250.7l2,0.18c0,0,1.2,3.89,1.17,3.67C286.09,254.33,282.97,250.7,282.97,250.7z"/>
			<polygon class="st14" points="289.53,250.52 286.1,254.5 290.79,252.17 			"/>
			<path class="st15" d="M289.53,250.52c0,0,1.87,4.54,1.79,4.3c-0.04-0.12-0.28-2.84-0.28-2.84c-0.27-0.48-1.29-3.47-1.3-3.44
				L289.53,250.52z"/>
			<path class="st15" d="M285.23,251.59c-0.27,0.15-3.78,1.59-3.78,1.59l-2.44-6.27l2.37-1.95L285.23,251.59z"/>
			<path class="st10" d="M125.8,185.55c-0.39-0.2-2.71-1.38-3.99,0.31c-1.28,1.69-0.82,4.84,0.48,5.35c1.3,0.51,3.23,0.18,2.99-0.29
				c-0.23-0.46-0.67-0.78-0.44-0.81c0.24-0.03,0.92,0.03,0.9-0.53c-0.02-0.57-0.36-0.67-0.36-0.67s1.06-0.61,0.85-1.15
				c-0.21-0.54-0.34-0.7-0.34-0.7s0.73-0.03,0.57-0.64C126.31,185.81,125.8,185.55,125.8,185.55z"/>
			<path class="st10" d="M127.59,186.68c-0.28-1.19-0.79-2.63-1.85-2.26c-1.54,0.54-4.5,3.71-3.01,3.79c1.49,0.09,2.63-1.1,2.63-1.1
				s-0.8,1.29,0.44,2.16C127.27,190.3,127.94,188.17,127.59,186.68z"/>
			<path class="st8" d="M282.79,224.81c1.66-2.52,1.47-2.44,3.62-3.33c2.15-0.89,2.85-0.65,2.85-0.65s-0.58,0.71-0.29,0.36
				c0.29-0.36,4.85,0.91,6.66,1.01c1.81,0.1,2.48-0.22,2.23,0.02c-0.26,0.24-0.96,0.98-0.96,0.98c1.11,0.29,2.67,0.81,6.8,0.98
				c-0.1,0.09-0.65,0.43-0.65,0.43s0.4,0.42,1.21,0.36c0.02,1.02-2.14,2.17-2.04,2.15c0.1-0.02,0.83-0.13,0.83-0.13
				s-1.45,3.08-5.89,3.53c-4.43,0.45-11.44-0.21-12.92-1.87C282.75,226.97,282.79,224.81,282.79,224.81z"/>
			<path class="st8" d="M124.17,283.41c-0.97,0.43-5.89,2.05-7.12,2.39c-1.23,0.35-3.3,1.12-2.72,1.75c0.58,0.63,6.72,2.96,8.1,2.36
				c1.38-0.6,1.92-0.44,1.92-0.44l0.94-2.54L124.17,283.41z"/>
			<path class="st8" d="M193.02,293.44c-0.03,0.27-0.44,6.96-0.44,6.96l3.28,0.36l0.33-0.4c0,0,3.54,1.08,4.57,1.08
				c1.04,0,6.57,0.11,6.58-0.58c0.01-0.69-7.23-3.23-7.51-3.49c-0.28-0.26-2.32-2.58-2.32-2.58L193.02,293.44z"/>
			<path class="st18" d="M432.32,341.85c-0.19,0.05-0.95,0.69-2.08,2c-1.13,1.31-1.34,1.8-1.09,2.35c0.42,0.92,3.15-0.79,3.61-2.09
				C433.18,342.96,432.32,341.85,432.32,341.85z"/>
			<path class="st19" d="M449.82,344.83l-31.16,8.49c-1.22,0.33-1.94,1.6-1.61,2.82l5.84,21.45c0.33,1.22,1.6,1.94,2.82,1.61
				l31.16-8.49c1.22-0.33,1.94-1.6,1.61-2.82l-5.84-21.45C452.3,345.22,451.04,344.5,449.82,344.83z"/>
			<path class="st15" d="M439.06,361.46l-2.3,0.63c-0.2,0.05-0.32,0.26-0.26,0.46l0.89,3.28c0.05,0.2,0.26,0.32,0.46,0.26l2.3-0.63
				c0.2-0.05,0.32-0.26,0.26-0.46l-0.89-3.28C439.46,361.53,439.25,361.41,439.06,361.46z"/>
			<path class="st20" d="M451.42,344.31l-10.18,2.86L440.1,343c-0.14-0.52-0.65-0.85-1.13-0.72l-12.26,3.34
				c-0.48,0.13-0.75,0.67-0.61,1.19l1.14,4.17l-10.39,2.83c-1.21,0.34-0.84,1.25-0.52,2.46c6.4,2.37,17.19,5.95,18.51,6.4
				c1.31,0.45,2.23,0.38,3.25,0.17c0.98-0.33,1.82-0.74,2.71-1.79c0.9-1.05,8-9.42,12.32-14.71l-0.03-0.11
				C452.75,345.02,452.63,343.97,451.42,344.31L451.42,344.31z M439.49,347.65L439.49,347.65l-10.5,2.86l-0.72-2.63
				c-0.1-0.35,0.09-0.71,0.41-0.79l9.33-2.54c0.32-0.09,0.66,0.13,0.75,0.48L439.49,347.65z"/>
			<linearGradient id="SVGID_1_" gradientUnits="userSpaceOnUse" x1="438.0817" y1="342.8772" x2="428.4302" y2="345.7091">
				<stop  offset="0" style="stop-color:#EBDCDC"/>
				<stop  offset="1" style="stop-color:#CBB2AA"/>
			</linearGradient>
			<path class="st21" d="M435.61,340.25c0.94,1.22,3.06,4.76,2.51,5.41c-0.6,0.72-4.03,2.07-5.52,2.2c-1.49,0.13-2.23-0.19-2.02-1.7
				c0.19-1.34,0.51-3.69,0.63-4.75C432.36,341.11,434.19,340.62,435.61,340.25z"/>
			<path class="st22" d="M430.74,340.16c0.16,0.46,0.36,1.73,0.36,1.73s4.78-1.15,4.78-1.26c0.01-0.12-0.59-1.65-0.68-1.63
				L430.74,340.16z"/>
			<path class="st23" d="M439.08,363.01l-1.51,0.41c-0.25,0.07-0.39,0.32-0.33,0.57l0.29,1.05c0.07,0.25,0.32,0.39,0.57,0.33
				l1.51-0.41c0.25-0.07,0.39-0.32,0.32-0.57l-0.29-1.05C439.58,363.09,439.32,362.94,439.08,363.01z"/>
			<polygon class="st8" points="412.84,292.24 425.18,313.33 436.15,339.58 430.44,341.26 419.05,315.62 403.87,296.33 			"/>
			<path class="st24" d="M288.67,253.08c-0.53-0.24-4-1.51-4.26-0.91c-0.26,0.6-0.16,2.59,0.83,3.14c0.99,0.55,1.84,1.16,2.64-0.25
				C288.68,253.66,288.67,253.08,288.67,253.08z"/>
			<path class="st24" d="M284.91,254.53c-1.63,5.41-2.64,30.89,0.73,39.95c0,0,5.55,5.23,5.39,4.74c-0.15-0.49,1.26-6.59,1.26-6.59
				c-3.75-10.87-6.17-21.4-5.05-37.27L284.91,254.53z"/>
			<path class="st8" d="M259.44,348.23c-0.45,0.2-2.43-0.05-3.26,1.16c-0.82,1.19-4.24,1.45-4.92,1.57
				c-1.26,0.22-2.23,0.77-1.65,1.41c0.58,0.63,4.33,1.96,5.84,1.93c1-0.02,2.78,0.03,3.46-0.02c1.26-0.1,1.08-0.57,1.66-2.54
				L259.44,348.23z"/>
			<path class="st8" d="M373.17,390.73c-0.3,0-4.45,0.49-4.45,0.49s-6.86,0-9.13-0.69c-2.27-0.69-1.81,0.66-0.64,1.47
				c1.18,0.8,2.84,1.79,5.31,2.95c1.63,0.76,2.99,1.22,3.63,1.43l0.55-0.28l0.07,0.54l2.3,1.04l2.28-2.74L373.17,390.73z"/>
			<path class="st8" d="M438.56,411.28c-0.45,0.2-2.43-0.05-3.26,1.16c-0.82,1.19-4.24,1.45-4.92,1.57
				c-1.26,0.22-1.93,0.76-1.65,1.41c0.28,0.64,3.45,2,5.84,1.93c1-0.03,4.13,0.12,4.81,0.04c1.1-0.13,1.21-2,0.3-3.86L438.56,411.28
				z"/>
			<path class="st25" d="M198.83,178.74c0.4,0,0.53,0.44,0.28,0.99c-0.25,0.55-0.78,0.99-1.18,0.99c-0.4,0-0.53-0.44-0.28-0.99
				C197.9,179.18,198.43,178.74,198.83,178.74z"/>
			<path class="st26" d="M200.89,179.04c-0.75-0.24-2.68-1.18-3.09-1.41c-0.41-0.23-0.09-1.14,0.47-0.96
				c0.56,0.18,2.93,1.08,3.26,1.56C201.86,178.72,201.33,179.19,200.89,179.04z"/>
			<path class="st25" d="M296.61,237.47c0.4,0,0.53,0.44,0.28,0.99c-0.25,0.55-0.78,0.99-1.18,0.99c-0.4,0-0.53-0.44-0.28-0.99
				C295.67,237.92,296.2,237.47,296.61,237.47z"/>
			<path class="st8" d="M297.28,236.61c-0.78,0.08-2.92,0.03-3.4-0.01c-0.47-0.04-0.55-1.01,0.04-1.07
				c0.59-0.07,3.12-0.22,3.61,0.09C298.03,235.91,297.74,236.56,297.28,236.61z"/>
			<path class="st27" d="M393.61,293.74c0.53-0.24,4-1.51,4.26-0.91c0.26,0.6,0.16,2.59-0.83,3.14c-0.99,0.55-1.84,1.16-2.64-0.25
				C393.6,294.31,393.61,293.74,393.61,293.74z"/>
			<path class="st27" d="M397.37,295.19c1.63,5.41,0.07,27.25,1.05,40.89l-3.53,7.33l-3.06-6.26c0.21-12.62,2.24-24.74,3.22-41.13
				L397.37,295.19z"/>
			<path class="st25" d="M392.87,276.71c-0.38-0.06-0.75,0.39-0.83,1.02c-0.08,0.63,0.17,1.19,0.55,1.25
				c0.38,0.06,0.75-0.39,0.83-1.02C393.49,277.33,393.25,276.78,392.87,276.71z"/>
			<path class="st12" d="M391.41,275.84c0.76,0.21,2.88,0.51,3.35,0.54c0.47,0.04,0.71-0.9,0.14-1.07
				c-0.57-0.16-3.04-0.73-3.58-0.51C390.79,275.03,390.96,275.72,391.41,275.84z"/>
			<path class="st12" d="M386.86,274.94c0.47,0.16,1.81,0.33,2.11,0.34c0.3,0.01,0.51-0.94,0.15-1.06c-0.35-0.13-1.9-0.54-2.25-0.29
				C386.5,274.17,386.57,274.84,386.86,274.94z"/>
			<path class="st25" d="M388.07,275.86c-0.38-0.06-0.75,0.39-0.83,1.02c-0.08,0.63,0.17,1.19,0.55,1.25
				c0.38,0.06,0.75-0.39,0.83-1.02C388.69,276.48,388.45,275.92,388.07,275.86z"/>
			<path class="st28" d="M389.64,279.41c-0.16,0.41-1.78,1.82-1.78,1.82s0.28,0.81,1.68,0.87c1.4,0.06,1.52-0.11,1.36-0.19
				c-0.16-0.08-1.2-0.53-1.36-1.14C389.38,280.15,389.64,279.41,389.64,279.41z"/>
		</g>
		<ellipse class="st16" cx="131.5" cy="94.5" rx="2.5" ry="1.5"/>
		<ellipse class="st16" cx="133.5" cy="62.5" rx="2.5" ry="1.5"/>
	</g>
</g>
</svg>
